  0
SECTION
  2
HEADER
  9
$ACADVER
  1
AC1024
  9
$ACADMAINTVER
 70
6
  9
$DWGCODEPAGE
  3
ANSI_1252
  9
$LASTSAVEDBY
  1
ezdxf
  9
$INSBASE
 10
0.0
 20
0.0
 30
0.0
  9
$EXTMIN
 10
1e+20
 20
1e+20
 30
1e+20
  9
$EXTMAX
 10
-1e+20
 20
-1e+20
 30
-1e+20
  9
$LIMMIN
 10
0.0
 20
0.0
  9
$LIMMAX
 10
420.0
 20
297.0
  9
$ORTHOMODE
 70
0
  9
$REGENMODE
 70
1
  9
$FILLMODE
 70
1
  9
$QTEXTMODE
 70
0
  9
$MIRRTEXT
 70
1
  9
$LTSCALE
 40
1.0
  9
$ATTMODE
 70
1
  9
$TEXTSIZE
 40
2.5
  9
$TRACEWID
 40
1.0
  9
$TEXTSTYLE
  7
OpenSans
  9
$CLAYER
  8
0
  9
$CELTYPE
  6
ByLayer
  9
$CECOLOR
 62
256
  9
$CELTSCALE
 40
1.0
  9
$DISPSILH
 70
0
  9
$DIMSCALE
 40
1.0
  9
$DIMASZ
 40
0.175
  9
$DIMEXO
 40
0.125
  9
$DIMDLI
 40
3.75
  9
$DIMRND
 40
0.0
  9
$DIMDLE
 40
0.0
  9
$DIMEXE
 40
0.375
  9
$DIMTP
 40
0.0
  9
$DIMTM
 40
0.0
  9
$DIMTXT
 40
0.25
  9
$DIMCEN
 40
2.5
  9
$DIMTSZ
 40
0.0
  9
$DIMTOL
 70
0
  9
$DIMLIM
 70
0
  9
$DIMTIH
 70
0
  9
$DIMTOH
 70
0
  9
$DIMSE1
 70
0
  9
$DIMSE2
 70
0
  9
$DIMTAD
 70
1
  9
$DIMZIN
 70
12
  9
$DIMBLK
  1
ARCHTICK
  9
$DIMASO
 70
1
  9
$DIMSHO
 70
1
  9
$DIMPOST
  1

  9
$DIMAPOST
  1

  9
$DIMALT
 70
0
  9
$DIMALTD
 70
3
  9
$DIMALTF
 40
0.03937007874
  9
$DIMLFAC
 40
100.0
  9
$DIMTOFL
 70
1
  9
$DIMTVP
 40
0.0
  9
$DIMTIX
 70
0
  9
$DIMSOXD
 70
0
  9
$DIMSAH
 70
0
  9
$DIMBLK1
  1

  9
$DIMBLK2
  1

  9
$DIMSTYLE
  2
EZDXF
  9
$DIMCLRD
 70
0
  9
$DIMCLRE
 70
0
  9
$DIMCLRT
 70
0
  9
$DIMTFAC
 40
0.5
  9
$DIMGAP
 40
0.1
  9
$DIMJUST
 70
0
  9
$DIMSD1
 70
0
  9
$DIMSD2
 70
0
  9
$DIMTOLJ
 70
0
  9
$DIMTZIN
 70
8
  9
$DIMALTZ
 70
0
  9
$DIMALTTZ
 70
0
  9
$DIMUPT
 70
1
  9
$DIMDEC
 70
2
  9
$DIMTDEC
 70
2
  9
$DIMALTU
 70
2
  9
$DIMALTTD
 70
3
  9
$DIMTXSTY
  7
OpenSansCondensed-Light
  9
$DIMAUNIT
 70
0
  9
$DIMADEC
 70
2
  9
$DIMALTRND
 40
0.0
  9
$DIMAZIN
 70
3
  9
$DIMDSEP
 70
46
  9
$DIMATFIT
 70
3
  9
$DIMFRAC
 70
0
  9
$DIMLDRBLK
  1

  9
$DIMLUNIT
 70
2
  9
$DIMLWD
 70
-2
  9
$DIMLWE
 70
-2
  9
$DIMTMOVE
 70
2
  9
$DIMFXL
 40
1.0
  9
$DIMFXLON
 70
0
  9
$DIMJOGANG
 40
0.785398163397
  9
$DIMTFILL
 70
0
  9
$DIMTFILLCLR
 70
0
  9
$DIMARCSYM
 70
0
  9
$DIMLTYPE
  6

  9
$DIMLTEX1
  6

  9
$DIMLTEX2
  6

  9
$DIMTXTDIRECTION
 70
0
  9
$LUNITS
 70
2
  9
$LUPREC
 70
4
  9
$SKETCHINC
 40
1.0
  9
$FILLETRAD
 40
10.0
  9
$AUNITS
 70
0
  9
$AUPREC
 70
2
  9
$MENU
  1
.
  9
$ELEVATION
 40
0.0
  9
$PELEVATION
 40
0.0
  9
$THICKNESS
 40
0.0
  9
$LIMCHECK
 70
0
  9
$CHAMFERA
 40
0.0
  9
$CHAMFERB
 40
0.0
  9
$CHAMFERC
 40
0.0
  9
$CHAMFERD
 40
0.0
  9
$SKPOLY
 70
0
  9
$TDCREATE
 40
2461210.4593402776
  9
$TDUCREATE
 40
2458532.153996898
  9
$TDUPDATE
 40
2461210.4593402776
  9
$TDUUPDATE
 40
2458532.1544311
  9
$TDINDWG
 40
0.0
  9
$TDUSRTIMER
 40
0.0
  9
$USRTIMER
 70
1
  9
$ANGBASE
 50
0.0
  9
$ANGDIR
 70
0
  9
$PDMODE
 70
0
  9
$PDSIZE
 40
0.0
  9
$PLINEWID
 40
0.0
  9
$SPLFRAME
 70
0
  9
$SPLINETYPE
 70
6
  9
$SPLINESEGS
 70
8
  9
$HANDSEED
  5
434
  9
$SURFTAB1
 70
6
  9
$SURFTAB2
 70
6
  9
$SURFTYPE
 70
6
  9
$SURFU
 70
6
  9
$SURFV
 70
6
  9
$UCSBASE
  2

  9
$UCSNAME
  2

  9
$UCSORG
 10
0.0
 20
0.0
 30
0.0
  9
$UCSXDIR
 10
1.0
 20
0.0
 30
0.0
  9
$UCSYDIR
 10
0.0
 20
1.0
 30
0.0
  9
$UCSORTHOREF
  2

  9
$UCSORTHOVIEW
 70
0
  9
$UCSORGTOP
 10
0.0
 20
0.0
 30
0.0
  9
$UCSORGBOTTOM
 10
0.0
 20
0.0
 30
0.0
  9
$UCSORGLEFT
 10
0.0
 20
0.0
 30
0.0
  9
$UCSORGRIGHT
 10
0.0
 20
0.0
 30
0.0
  9
$UCSORGFRONT
 10
0.0
 20
0.0
 30
0.0
  9
$UCSORGBACK
 10
0.0
 20
0.0
 30
0.0
  9
$PUCSBASE
  2

  9
$PUCSNAME
  2

  9
$PUCSORG
 10
0.0
 20
0.0
 30
0.0
  9
$PUCSXDIR
 10
1.0
 20
0.0
 30
0.0
  9
$PUCSYDIR
 10
0.0
 20
1.0
 30
0.0
  9
$PUCSORTHOREF
  2

  9
$PUCSORTHOVIEW
 70
0
  9
$PUCSORGTOP
 10
0.0
 20
0.0
 30
0.0
  9
$PUCSORGBOTTOM
 10
0.0
 20
0.0
 30
0.0
  9
$PUCSORGLEFT
 10
0.0
 20
0.0
 30
0.0
  9
$PUCSORGRIGHT
 10
0.0
 20
0.0
 30
0.0
  9
$PUCSORGFRONT
 10
0.0
 20
0.0
 30
0.0
  9
$PUCSORGBACK
 10
0.0
 20
0.0
 30
0.0
  9
$USERI1
 70
0
  9
$USERI2
 70
0
  9
$USERI3
 70
0
  9
$USERI4
 70
0
  9
$USERI5
 70
0
  9
$USERR1
 40
0.0
  9
$USERR2
 40
0.0
  9
$USERR3
 40
0.0
  9
$USERR4
 40
0.0
  9
$USERR5
 40
0.0
  9
$WORLDVIEW
 70
1
  9
$SHADEDGE
 70
3
  9
$SHADEDIF
 70
70
  9
$TILEMODE
 70
1
  9
$MAXACTVP
 70
64
  9
$PINSBASE
 10
0.0
 20
0.0
 30
0.0
  9
$PLIMCHECK
 70
0
  9
$PEXTMIN
 10
1e+20
 20
1e+20
 30
1e+20
  9
$PEXTMAX
 10
-1e+20
 20
-1e+20
 30
-1e+20
  9
$PLIMMIN
 10
0.0
 20
0.0
  9
$PLIMMAX
 10
420.0
 20
297.0
  9
$UNITMODE
 70
0
  9
$VISRETAIN
 70
1
  9
$PLINEGEN
 70
0
  9
$PSLTSCALE
 70
1
  9
$TREEDEPTH
 70
3020
  9
$CMLSTYLE
  2
Standard
  9
$CMLJUST
 70
0
  9
$CMLSCALE
 40
20.0
  9
$PROXYGRAPHICS
 70
1
  9
$MEASUREMENT
 70
1
  9
$CELWEIGHT
370
-1
  9
$ENDCAPS
280
0
  9
$JOINSTYLE
280
0
  9
$LWDISPLAY
290
0
  9
$INSUNITS
 70
6
  9
$HYPERLINKBASE
  1

  9
$STYLESHEET
  1

  9
$XEDIT
290
1
  9
$CEPSNTYPE
380
0
  9
$PSTYLEMODE
290
1
  9
$FINGERPRINTGUID
  2
{81562D50-9B0E-42C3-B30C-85058459C94E}
  9
$VERSIONGUID
  2
{D7DDF7E1-C536-4263-9B7C-2D2A42802186}
  9
$EXTNAMES
290
1
  9
$PSVPSCALE
 40
0.0
  9
$OLESTARTUP
290
0
  9
$SORTENTS
280
127
  9
$INDEXCTL
280
0
  9
$HIDETEXT
280
1
  9
$XCLIPFRAME
280
1
  9
$HALOGAP
280
0
  9
$OBSCOLOR
 70
257
  9
$OBSLTYPE
280
0
  9
$INTERSECTIONDISPLAY
280
0
  9
$INTERSECTIONCOLOR
 70
257
  9
$DIMASSOC
280
2
  9
$PROJECTNAME
  1

  9
$CAMERADISPLAY
290
0
  9
$LENSLENGTH
 40
50.0
  9
$CAMERAHEIGHT
 40
0.0
  9
$STEPSPERSEC
 40
24.0
  9
$STEPSIZE
 40
100.0
  9
$3DDWFPREC
 40
2.0
  9
$PSOLWIDTH
 40
0.005
  9
$PSOLHEIGHT
 40
0.08
  9
$LOFTANG1
 40
1.570796326795
  9
$LOFTANG2
 40
1.570796326795
  9
$LOFTMAG1
 40
0.0
  9
$LOFTMAG2
 40
0.0
  9
$LOFTPARAM
 70
7
  9
$LOFTNORMALS
280
1
  9
$LATITUDE
 40
37.795
  9
$LONGITUDE
 40
-122.394
  9
$NORTHDIRECTION
 40
0.0
  9
$TIMEZONE
 70
-8000
  9
$LIGHTGLYPHDISPLAY
280
1
  9
$TILEMODELIGHTSYNCH
280
1
  9
$CMATERIAL
347
20
  9
$SOLIDHIST
280
0
  9
$SHOWHIST
280
1
  9
$DWFFRAME
280
2
  9
$DGNFRAME
280
2
  9
$REALWORLDSCALE
290
1
  9
$INTERFERECOLOR
 62
256
  9
$CSHADOW
280
0
  9
$SHADOWPLANELOCATION
 40
0.0
  0
ENDSEC
  0
SECTION
  2
CLASSES
  0
CLASS
  1
ACDBDICTIONARYWDFLT
  2
AcDbDictionaryWithDefault
  3
ObjectDBX Classes
 90
0
 91
0
280
0
281
0
  0
CLASS
  1
SUN
  2
AcDbSun
  3
SCENEOE
 90
1153
 91
0
280
0
281
0
  0
CLASS
  1
VISUALSTYLE
  2
AcDbVisualStyle
  3
ObjectDBX Classes
 90
4095
 91
0
280
0
281
0
  0
CLASS
  1
MATERIAL
  2
AcDbMaterial
  3
ObjectDBX Classes
 90
1153
 91
0
280
0
281
0
  0
CLASS
  1
SCALE
  2
AcDbScale
  3
ObjectDBX Classes
 90
1153
 91
0
280
0
281
0
  0
CLASS
  1
TABLESTYLE
  2
AcDbTableStyle
  3
ObjectDBX Classes
 90
4095
 91
0
280
0
281
0
  0
CLASS
  1
MLEADERSTYLE
  2
AcDbMLeaderStyle
  3
ACDB_MLEADERSTYLE_CLASS
 90
4095
 91
0
280
0
281
0
  0
CLASS
  1
DICTIONARYVAR
  2
AcDbDictionaryVar
  3
ObjectDBX Classes
 90
0
 91
0
280
0
281
0
  0
CLASS
  1
CELLSTYLEMAP
  2
AcDbCellStyleMap
  3
ObjectDBX Classes
 90
1152
 91
0
280
0
281
0
  0
CLASS
  1
MENTALRAYRENDERSETTINGS
  2
AcDbMentalRayRenderSettings
  3
SCENEOE
 90
1024
 91
0
280
0
281
0
  0
CLASS
  1
ACDBDETAILVIEWSTYLE
  2
AcDbDetailViewStyle
  3
ObjectDBX Classes
 90
1025
 91
0
280
0
281
0
  0
CLASS
  1
ACDBSECTIONVIEWSTYLE
  2
AcDbSectionViewStyle
  3
ObjectDBX Classes
 90
1025
 91
0
280
0
281
0
  0
CLASS
  1
RASTERVARIABLES
  2
AcDbRasterVariables
  3
ISM
 90
0
 91
0
280
0
281
0
  0
CLASS
  1
ACDBPLACEHOLDER
  2
AcDbPlaceHolder
  3
ObjectDBX Classes
 90
0
 91
0
280
0
281
0
  0
CLASS
  1
LAYOUT
  2
AcDbLayout
  3
ObjectDBX Classes
 90
0
 91
0
280
0
281
0
  0
ENDSEC
  0
SECTION
  2
TABLES
  0
TABLE
  2
VPORT
  5
8
330
0
100
AcDbSymbolTable
 70
1
  0
VPORT
  5
23
330
8
100
AcDbSymbolTableRecord
100
AcDbViewportTableRecord
  2
*Active
 70
0
 10
0.0
 20
0.0
 11
1.0
 21
1.0
 12
0.0
 22
0.0
 13
0.0
 23
0.0
 14
0.5
 24
0.5
 15
0.5
 25
0.5
 16
0.0
 26
0.0
 36
1.0
 17
0.0
 27
0.0
 37
0.0
 40
1000.0
 41
1.34
 42
50.0
 43
0.0
 44
0.0
 50
0.0
 51
0.0
 71
0
 72
1000
 73
1
 74
3
 75
0
 76
0
 77
0
 78
0
281
0
 65
0
146
0.0
  0
ENDTAB
  0
TABLE
  2
LTYPE
  5
2
330
0
100
AcDbSymbolTable
 70
21
  0
LTYPE
  5
24
330
2
100
AcDbSymbolTableRecord
100
AcDbLinetypeTableRecord
  2
ByBlock
 70
0
  3

 72
65
 73
0
 40
0.0
  0
LTYPE
  5
25
330
2
100
AcDbSymbolTableRecord
100
AcDbLinetypeTableRecord
  2
ByLayer
 70
0
  3

 72
65
 73
0
 40
0.0
  0
LTYPE
  5
26
330
2
100
AcDbSymbolTableRecord
100
AcDbLinetypeTableRecord
  2
Continuous
 70
0
  3

 72
65
 73
0
 40
0.0
  0
LTYPE
  5
2F
330
2
100
AcDbSymbolTableRecord
100
AcDbLinetypeTableRecord
  2
CENTER
 70
0
  3
Center ____ _ ____ _ ____ _ ____ _ ____ _ ____
 72
65
 73
4
 40
5.08
 49
3.175
 74
0
 49
-0.635
 74
0
 49
0.635
 74
0
 49
-0.635
 74
0
  0
LTYPE
  5
30
330
2
100
AcDbSymbolTableRecord
100
AcDbLinetypeTableRecord
  2
CENTERX2
 70
0
  3
Center (2x) ________  __  ________  __  ________
 72
65
 73
4
 40
8.89
 49
6.35
 74
0
 49
-0.635
 74
0
 49
1.27
 74
0
 49
-0.635
 74
0
  0
LTYPE
  5
31
330
2
100
AcDbSymbolTableRecord
100
AcDbLinetypeTableRecord
  2
CENTER2
 70
0
  3
Center (.5x) ____ _ ____ _ ____ _ ____ _ ____
 72
65
 73
4
 40
2.54
 49
1.587
 74
0
 49
-0.318
 74
0
 49
0.318
 74
0
 49
-0.318
 74
0
  0
LTYPE
  5
32
330
2
100
AcDbSymbolTableRecord
100
AcDbLinetypeTableRecord
  2
DASHED
 70
0
  3
Dashed __ __ __ __ __ __ __ __ __ __ __ __ __ _
 72
65
 73
2
 40
1.524
 49
1.27
 74
0
 49
-0.254
 74
0
  0
LTYPE
  5
33
330
2
100
AcDbSymbolTableRecord
100
AcDbLinetypeTableRecord
  2
DASHEDX2
 70
0
  3
Dashed (2x) ____  ____  ____  ____  ____  ____
 72
65
 73
2
 40
3.048
 49
2.54
 74
0
 49
-0.508
 74
0
  0
LTYPE
  5
34
330
2
100
AcDbSymbolTableRecord
100
AcDbLinetypeTableRecord
  2
DASHED2
 70
0
  3
Dashed (.5x) _ _ _ _ _ _ _ _ _ _ _ _ _ _
 72
65
 73
2
 40
0.762
 49
0.635
 74
0
 49
-0.127
 74
0
  0
LTYPE
  5
35
330
2
100
AcDbSymbolTableRecord
100
AcDbLinetypeTableRecord
  2
PHANTOM
 70
0
  3
Phantom ______  __  __  ______  __  __  ______
 72
65
 73
6
 40
6.35
 49
3.175
 74
0
 49
-0.635
 74
0
 49
0.635
 74
0
 49
-0.635
 74
0
 49
0.635
 74
0
 49
-0.635
 74
0
  0
LTYPE
  5
36
330
2
100
AcDbSymbolTableRecord
100
AcDbLinetypeTableRecord
  2
PHANTOMX2
 70
0
  3
Phantom (2x)____________    ____    ____    ____________
 72
65
 73
6
 40
10.795
 49
6.35
 74
0
 49
-0.635
 74
0
 49
1.27
 74
0
 49
-0.635
 74
0
 49
1.27
 74
0
 49
-0.635
 74
0
  0
LTYPE
  5
37
330
2
100
AcDbSymbolTableRecord
100
AcDbLinetypeTableRecord
  2
PHANTOM2
 70
0
  3
Phantom (.5x) ___ _ _ ___ _ _ ___ _ _ ___ _ _ ___
 72
65
 73
6
 40
3.175
 49
1.587
 74
0
 49
-0.318
 74
0
 49
0.318
 74
0
 49
-0.318
 74
0
 49
0.318
 74
0
 49
-0.318
 74
0
  0
LTYPE
  5
38
330
2
100
AcDbSymbolTableRecord
100
AcDbLinetypeTableRecord
  2
DASHDOT
 70
0
  3
Dash dot __ . __ . __ . __ . __ . __ . __ . __
 72
65
 73
4
 40
3.556
 49
2.54
 74
0
 49
-0.508
 74
0
 49
0.0
 74
0
 49
-0.508
 74
0
  0
LTYPE
  5
39
330
2
100
AcDbSymbolTableRecord
100
AcDbLinetypeTableRecord
  2
DASHDOTX2
 70
0
  3
Dash dot (2x) ____  .  ____  .  ____  .  ____
 72
65
 73
4
 40
6.096
 49
5.08
 74
0
 49
-0.508
 74
0
 49
0.0
 74
0
 49
-0.508
 74
0
  0
LTYPE
  5
3A
330
2
100
AcDbSymbolTableRecord
100
AcDbLinetypeTableRecord
  2
DASHDOT2
 70
0
  3
Dash dot (.5x) _ . _ . _ . _ . _ . _ . _ . _
 72
65
 73
4
 40
1.778
 49
1.27
 74
0
 49
-0.254
 74
0
 49
0.0
 74
0
 49
-0.254
 74
0
  0
LTYPE
  5
3B
330
2
100
AcDbSymbolTableRecord
100
AcDbLinetypeTableRecord
  2
DOT
 70
0
  3
Dot .  .  .  .  .  .  .  .  .  .  .  .  .  .  .  .
 72
65
 73
2
 40
0.508
 49
0.0
 74
0
 49
-0.508
 74
0
  0
LTYPE
  5
3C
330
2
100
AcDbSymbolTableRecord
100
AcDbLinetypeTableRecord
  2
DOTX2
 70
0
  3
Dot (2x) .    .    .    .    .    .    .    . 
 72
65
 73
2
 40
1.016
 49
0.0
 74
0
 49
-1.016
 74
0
  0
LTYPE
  5
3D
330
2
100
AcDbSymbolTableRecord
100
AcDbLinetypeTableRecord
  2
DOT2
 70
0
  3
Dot (.5) . . . . . . . . . . . . . . . . . . . 
 72
65
 73
2
 40
0.254
 49
0.0
 74
0
 49
-0.254
 74
0
  0
LTYPE
  5
3E
330
2
100
AcDbSymbolTableRecord
100
AcDbLinetypeTableRecord
  2
DIVIDE
 70
0
  3
Divide __ . . __ . . __ . . __ . . __ . . __
 72
65
 73
6
 40
4.064
 49
2.54
 74
0
 49
-0.508
 74
0
 49
0.0
 74
0
 49
-0.508
 74
0
 49
0.0
 74
0
 49
-0.508
 74
0
  0
LTYPE
  5
3F
330
2
100
AcDbSymbolTableRecord
100
AcDbLinetypeTableRecord
  2
DIVIDEX2
 70
0
  3
Divide (2x) ____  . .  ____  . .  ____  . .  ____
 72
65
 73
6
 40
6.604
 49
5.08
 74
0
 49
-0.508
 74
0
 49
0.0
 74
0
 49
-0.508
 74
0
 49
0.0
 74
0
 49
-0.508
 74
0
  0
LTYPE
  5
40
330
2
100
AcDbSymbolTableRecord
100
AcDbLinetypeTableRecord
  2
DIVIDE2
 70
0
  3
Divide(.5x) _ . _ . _ . _ . _ . _ . _ . _
 72
65
 73
6
 40
2.032
 49
1.27
 74
0
 49
-0.254
 74
0
 49
0.0
 74
0
 49
-0.254
 74
0
 49
0.0
 74
0
 49
-0.254
 74
0
  0
ENDTAB
  0
TABLE
  2
LAYER
  5
1
330
0
100
AcDbSymbolTable
 70
7
  0
LAYER
  5
27
330
1
100
AcDbSymbolTableRecord
100
AcDbLayerTableRecord
  2
0
 70
0
 62
7
  6
Continuous
370
-3
390
13
347
21
  0
LAYER
  5
28
330
1
100
AcDbSymbolTableRecord
100
AcDbLayerTableRecord
  2
Defpoints
 70
0
 62
7
  6
Continuous
290
0
370
-3
390
13
347
21
  0
LAYER
  5
8A
330
1
100
AcDbSymbolTableRecord
100
AcDbLayerTableRecord
  2
VISIBLE
 70
0
 62
7
  6
CONTINUOUS
370
-3
390
13
347
21
  0
LAYER
  5
8B
330
1
100
AcDbSymbolTableRecord
100
AcDbLayerTableRecord
  2
OCULTA
 70
0
 62
8
  6
DASHED
370
-3
390
13
347
21
  0
LAYER
  5
8C
330
1
100
AcDbSymbolTableRecord
100
AcDbLayerTableRecord
  2
MARCO
 70
0
 62
7
  6
CONTINUOUS
370
-3
390
13
347
21
  0
LAYER
  5
8D
330
1
100
AcDbSymbolTableRecord
100
AcDbLayerTableRecord
  2
COTAS
 70
0
 62
5
  6
CONTINUOUS
370
-3
390
13
347
21
  0
LAYER
  5
8E
330
1
100
AcDbSymbolTableRecord
100
AcDbLayerTableRecord
  2
CORTE
 70
0
 62
4
  6
CONTINUOUS
370
-3
390
13
347
21
  0
ENDTAB
  0
TABLE
  2
STYLE
  5
5
330
0
100
AcDbSymbolTable
 70
26
  0
STYLE
  5
29
330
5
100
AcDbSymbolTableRecord
100
AcDbTextStyleTableRecord
  2
Standard
 70
0
 40
0.0
 41
1.0
 50
0.0
 71
0
 42
2.5
  3
txt
  4

  0
STYLE
  5
41
330
5
100
AcDbSymbolTableRecord
100
AcDbTextStyleTableRecord
  2
OpenSans-Light
 70
0
 40
0.0
 41
1.0
 50
0.0
 71
0
 42
2.5
  3
OpenSans-Light.ttf
  4

  0
STYLE
  5
42
330
5
100
AcDbSymbolTableRecord
100
AcDbTextStyleTableRecord
  2
OpenSans-Light-Italic
 70
0
 40
0.0
 41
1.0
 50
0.0
 71
0
 42
2.5
  3
OpenSans-LightItalic.ttf
  4

  0
STYLE
  5
43
330
5
100
AcDbSymbolTableRecord
100
AcDbTextStyleTableRecord
  2
OpenSans
 70
0
 40
0.0
 41
1.0
 50
0.0
 71
0
 42
2.5
  3
OpenSans-Regular.ttf
  4

  0
STYLE
  5
44
330
5
100
AcDbSymbolTableRecord
100
AcDbTextStyleTableRecord
  2
OpenSans-Italic
 70
0
 40
0.0
 41
1.0
 50
0.0
 71
0
 42
2.5
  3
OpenSans-Italic.ttf
  4

  0
STYLE
  5
45
330
5
100
AcDbSymbolTableRecord
100
AcDbTextStyleTableRecord
  2
OpenSans-SemiBold
 70
0
 40
0.0
 41
1.0
 50
0.0
 71
0
 42
2.5
  3
OpenSans-SemiBold.ttf
  4

  0
STYLE
  5
46
330
5
100
AcDbSymbolTableRecord
100
AcDbTextStyleTableRecord
  2
OpenSans-SemiBoldItalic
 70
0
 40
0.0
 41
1.0
 50
0.0
 71
0
 42
2.5
  3
OpenSans-SemiBoldItalic.ttf
  4

  0
STYLE
  5
47
330
5
100
AcDbSymbolTableRecord
100
AcDbTextStyleTableRecord
  2
OpenSans-Bold
 70
0
 40
0.0
 41
1.0
 50
0.0
 71
0
 42
2.5
  3
OpenSans-Bold.ttf
  4

  0
STYLE
  5
48
330
5
100
AcDbSymbolTableRecord
100
AcDbTextStyleTableRecord
  2
OpenSans-BoldItalic
 70
0
 40
0.0
 41
1.0
 50
0.0
 71
0
 42
2.5
  3
OpenSans-BoldItalic.ttf
  4

  0
STYLE
  5
49
330
5
100
AcDbSymbolTableRecord
100
AcDbTextStyleTableRecord
  2
OpenSans-ExtraBold
 70
0
 40
0.0
 41
1.0
 50
0.0
 71
0
 42
2.5
  3
OpenSans-ExtraBold.ttf
  4

  0
STYLE
  5
4A
330
5
100
AcDbSymbolTableRecord
100
AcDbTextStyleTableRecord
  2
OpenSans-ExtraBoldItalic
 70
0
 40
0.0
 41
1.0
 50
0.0
 71
0
 42
2.5
  3
OpenSans-ExtraBoldItalic.ttf
  4

  0
STYLE
  5
4B
330
5
100
AcDbSymbolTableRecord
100
AcDbTextStyleTableRecord
  2
OpenSansCondensed-Bold
 70
0
 40
0.0
 41
1.0
 50
0.0
 71
0
 42
2.5
  3
OpenSansCondensed-Bold.ttf
  4

  0
STYLE
  5
4C
330
5
100
AcDbSymbolTableRecord
100
AcDbTextStyleTableRecord
  2
OpenSansCondensed-Light
 70
0
 40
0.0
 41
1.0
 50
0.0
 71
0
 42
2.5
  3
OpenSansCondensed-Light.ttf
  4

  0
STYLE
  5
4D
330
5
100
AcDbSymbolTableRecord
100
AcDbTextStyleTableRecord
  2
OpenSansCondensed-Italic
 70
0
 40
0.0
 41
1.0
 50
0.0
 71
0
 42
2.5
  3
OpenSansCondensed-LightItalic.ttf
  4

  0
STYLE
  5
4E
330
5
100
AcDbSymbolTableRecord
100
AcDbTextStyleTableRecord
  2
LiberationSans
 70
0
 40
0.0
 41
1.0
 50
0.0
 71
0
 42
2.5
  3
LiberationSans-Regular.ttf
  4

  0
STYLE
  5
4F
330
5
100
AcDbSymbolTableRecord
100
AcDbTextStyleTableRecord
  2
LiberationSans-Bold
 70
0
 40
0.0
 41
1.0
 50
0.0
 71
0
 42
2.5
  3
LiberationSans-Bold.ttf
  4

  0
STYLE
  5
50
330
5
100
AcDbSymbolTableRecord
100
AcDbTextStyleTableRecord
  2
LiberationSans-BoldItalic
 70
0
 40
0.0
 41
1.0
 50
0.0
 71
0
 42
2.5
  3
LiberationSans-BoldItalic.ttf
  4

  0
STYLE
  5
51
330
5
100
AcDbSymbolTableRecord
100
AcDbTextStyleTableRecord
  2
LiberationSans-Italic
 70
0
 40
0.0
 41
1.0
 50
0.0
 71
0
 42
2.5
  3
LiberationSans-Italic.ttf
  4

  0
STYLE
  5
52
330
5
100
AcDbSymbolTableRecord
100
AcDbTextStyleTableRecord
  2
LiberationSerif
 70
0
 40
0.0
 41
1.0
 50
0.0
 71
0
 42
2.5
  3
LiberationSerif-Regular.ttf
  4

  0
STYLE
  5
53
330
5
100
AcDbSymbolTableRecord
100
AcDbTextStyleTableRecord
  2
LiberationSerif-Bold
 70
0
 40
0.0
 41
1.0
 50
0.0
 71
0
 42
2.5
  3
LiberationSerif-Bold.ttf
  4

  0
STYLE
  5
54
330
5
100
AcDbSymbolTableRecord
100
AcDbTextStyleTableRecord
  2
LiberationSerif-BoldItalic
 70
0
 40
0.0
 41
1.0
 50
0.0
 71
0
 42
2.5
  3
LiberationSerif-BoldItalic.ttf
  4

  0
STYLE
  5
55
330
5
100
AcDbSymbolTableRecord
100
AcDbTextStyleTableRecord
  2
LiberationSerif-Italic
 70
0
 40
0.0
 41
1.0
 50
0.0
 71
0
 42
2.5
  3
LiberationSerif-Italic.ttf
  4

  0
STYLE
  5
56
330
5
100
AcDbSymbolTableRecord
100
AcDbTextStyleTableRecord
  2
LiberationMono
 70
0
 40
0.0
 41
1.0
 50
0.0
 71
0
 42
2.5
  3
LiberationMono-Regular.ttf
  4

  0
STYLE
  5
57
330
5
100
AcDbSymbolTableRecord
100
AcDbTextStyleTableRecord
  2
LiberationMono-Bold
 70
0
 40
0.0
 41
1.0
 50
0.0
 71
0
 42
2.5
  3
LiberationMono-Bold.ttf
  4

  0
STYLE
  5
58
330
5
100
AcDbSymbolTableRecord
100
AcDbTextStyleTableRecord
  2
LiberationMono-BoldItalic
 70
0
 40
0.0
 41
1.0
 50
0.0
 71
0
 42
2.5
  3
LiberationMono-BoldItalic.ttf
  4

  0
STYLE
  5
59
330
5
100
AcDbSymbolTableRecord
100
AcDbTextStyleTableRecord
  2
LiberationMono-Italic
 70
0
 40
0.0
 41
1.0
 50
0.0
 71
0
 42
2.5
  3
LiberationMono-Italic.ttf
  4

  0
ENDTAB
  0
TABLE
  2
VIEW
  5
7
330
0
100
AcDbSymbolTable
 70
0
  0
ENDTAB
  0
TABLE
  2
UCS
  5
6
330
0
100
AcDbSymbolTable
 70
0
  0
ENDTAB
  0
TABLE
  2
APPID
  5
3
330
0
100
AcDbSymbolTable
 70
3
  0
APPID
  5
2A
330
3
100
AcDbSymbolTableRecord
100
AcDbRegAppTableRecord
  2
ACAD
 70
0
  0
APPID
  5
431
330
3
100
AcDbSymbolTableRecord
100
AcDbRegAppTableRecord
  2
HATCHBACKGROUNDCOLOR
 70
0
  0
APPID
  5
432
330
3
100
AcDbSymbolTableRecord
100
AcDbRegAppTableRecord
  2
EZDXF
 70
0
  0
ENDTAB
  0
TABLE
  2
DIMSTYLE
  5
4
330
0
100
AcDbSymbolTable
 70
12
100
AcDbDimStyleTable
  0
DIMSTYLE
105
2B
330
4
100
AcDbSymbolTableRecord
100
AcDbDimStyleTableRecord
  2
Standard
 70
0
 40
1.0
 41
2.5
 42
0.625
 43
3.75
 44
1.25
 45
0.0
 46
0.0
 47
0.0
 48
0.0
 49
2.5
140
2.5
141
2.5
142
0.0
143
0.03937007874
144
1.0
145
0.0
146
1.0
147
0.625
148
0.0
 69
0
 70
0
 71
0
 72
0
 73
0
 74
0
 75
0
 76
0
 77
1
 78
8
 79
3
170
0
171
3
172
1
173
0
174
0
175
0
176
0
177
0
178
0
179
2
271
2
272
2
273
2
274
3
275
0
276
0
277
2
278
44
279
0
280
0
281
0
282
0
283
0
284
8
285
0
286
0
288
0
289
3
290
0
371
-2
372
-2
  0
DIMSTYLE
105
73
330
4
100
AcDbSymbolTableRecord
100
AcDbDimStyleTableRecord
  2
EZDXF
 70
0
 40
1.0
 41
0.175
 42
0.125
 43
3.75
 44
0.375
 45
0.0
 46
0.0
 47
0.0
 48
0.0
 49
2.5
140
0.25
141
2.5
142
0.0
143
0.03937007874
144
100.0
145
0.0
146
0.5
147
0.1
148
0.0
 69
0
 70
0
 71
0
 72
0
 73
0
 74
0
 75
0
 76
0
 77
1
 78
12
 79
3
170
0
171
3
172
1
173
0
174
0
175
0
176
0
177
0
178
0
179
2
271
2
272
2
273
2
274
3
275
0
276
0
277
2
278
46
279
2
280
0
281
0
282
0
283
0
284
8
285
0
286
0
288
1
289
3
290
0
340
4C
342
74
371
-2
372
-2
  0
DIMSTYLE
105
7C
330
4
100
AcDbSymbolTableRecord
100
AcDbDimStyleTableRecord
  2
EZ_M_100_H25_CM
 70
0
 40
1.0
 41
0.25
 42
0.125
 43
3.75
 44
0.375
 45
0.0
 46
0.0
 47
0.0
 48
0.0
 49
2.5
140
0.25
141
2.5
142
0.125
143
0.03937007874
144
100.0
145
0.0
146
0.5
147
0.1
148
0.0
 69
0
 70
0
 71
0
 72
0
 73
0
 74
0
 75
0
 76
0
 77
1
 78
12
 79
3
170
0
171
3
172
1
173
0
174
0
175
0
176
0
177
0
178
0
179
2
271
2
272
2
273
2
274
3
275
0
276
0
277
2
278
46
279
2
280
0
281
0
282
0
283
0
284
8
285
0
286
0
288
1
289
3
290
0
340
4C
371
-2
372
-2
  0
DIMSTYLE
105
7D
330
4
100
AcDbSymbolTableRecord
100
AcDbDimStyleTableRecord
  2
EZ_M_50_H25_CM
 70
0
 40
1.0
 41
0.125
 42
0.0625
 43
3.75
 44
0.1875
 45
0.0
 46
0.0
 47
0.0
 48
0.0
 49
2.5
140
0.125
141
2.5
142
0.0625
143
0.03937007874
144
100.0
145
0.0
146
0.5
147
0.05
148
0.0
 69
0
 70
0
 71
0
 72
0
 73
0
 74
0
 75
0
 76
0
 77
1
 78
12
 79
3
170
0
171
3
172
1
173
0
174
0
175
0
176
0
177
0
178
0
179
2
271
2
272
2
273
2
274
3
275
0
276
0
277
2
278
46
279
2
280
0
281
0
282
0
283
0
284
8
285
0
286
0
288
1
289
3
290
0
340
4C
371
-2
372
-2
  0
DIMSTYLE
105
7E
330
4
100
AcDbSymbolTableRecord
100
AcDbDimStyleTableRecord
  2
EZ_M_25_H25_CM
 70
0
 40
1.0
 41
0.0625
 42
0.03125
 43
3.75
 44
0.09375
 45
0.0
 46
0.0
 47
0.0
 48
0.0
 49
2.5
140
0.0625
141
2.5
142
0.03125
143
0.03937007874
144
100.0
145
0.0
146
0.5
147
0.025
148
0.0
 69
0
 70
0
 71
0
 72
0
 73
0
 74
0
 75
0
 76
0
 77
1
 78
12
 79
3
170
0
171
3
172
1
173
0
174
0
175
0
176
0
177
0
178
0
179
2
271
2
272
2
273
2
274
3
275
0
276
0
277
2
278
46
279
2
280
0
281
0
282
0
283
0
284
8
285
0
286
0
288
1
289
3
290
0
340
4C
371
-2
372
-2
  0
DIMSTYLE
105
7F
330
4
100
AcDbSymbolTableRecord
100
AcDbDimStyleTableRecord
  2
EZ_M_20_H25_CM
 70
0
 40
1.0
 41
0.05
 42
0.025
 43
3.75
 44
0.07500000000000001
 45
0.0
 46
0.0
 47
0.0
 48
0.0
 49
2.5
140
0.05
141
2.5
142
0.025
143
0.03937007874
144
100.0
145
0.0
146
0.5
147
0.020000000000000004
148
0.0
 69
0
 70
0
 71
0
 72
0
 73
0
 74
0
 75
0
 76
0
 77
1
 78
12
 79
3
170
0
171
3
172
1
173
0
174
0
175
0
176
0
177
0
178
0
179
2
271
2
272
2
273
2
274
3
275
0
276
0
277
2
278
46
279
2
280
0
281
0
282
0
283
0
284
8
285
0
286
0
288
1
289
3
290
0
340
4C
371
-2
372
-2
  0
DIMSTYLE
105
80
330
4
100
AcDbSymbolTableRecord
100
AcDbDimStyleTableRecord
  2
EZ_M_10_H25_CM
 70
0
 40
1.0
 41
0.025
 42
0.0125
 43
3.75
 44
0.037500000000000006
 45
0.0
 46
0.0
 47
0.0
 48
0.0
 49
2.5
140
0.025
141
2.5
142
0.0125
143
0.03937007874
144
100.0
145
0.0
146
0.5
147
0.010000000000000002
148
0.0
 69
0
 70
0
 71
0
 72
0
 73
0
 74
0
 75
0
 76
0
 77
1
 78
12
 79
3
170
0
171
3
172
1
173
0
174
0
175
0
176
0
177
0
178
0
179
2
271
2
272
2
273
2
274
3
275
0
276
0
277
2
278
46
279
2
280
0
281
0
282
0
283
0
284
8
285
0
286
0
288
1
289
3
290
0
340
4C
371
-2
372
-2
  0
DIMSTYLE
105
81
330
4
100
AcDbSymbolTableRecord
100
AcDbDimStyleTableRecord
  2
EZ_M_5_H25_CM
 70
0
 40
1.0
 41
0.0125
 42
0.00625
 43
3.75
 44
0.018750000000000003
 45
0.0
 46
0.0
 47
0.0
 48
0.0
 49
2.5
140
0.0125
141
2.5
142
0.00625
143
0.03937007874
144
100.0
145
0.0
146
0.5
147
0.005000000000000001
148
0.0
 69
0
 70
0
 71
0
 72
0
 73
0
 74
0
 75
0
 76
0
 77
1
 78
12
 79
3
170
0
171
3
172
1
173
0
174
0
175
0
176
0
177
0
178
0
179
2
271
2
272
2
273
2
274
3
275
0
276
0
277
2
278
46
279
2
280
0
281
0
282
0
283
0
284
8
285
0
286
0
288
1
289
3
290
0
340
4C
371
-2
372
-2
  0
DIMSTYLE
105
82
330
4
100
AcDbSymbolTableRecord
100
AcDbDimStyleTableRecord
  2
EZ_M_1_H25_CM
 70
0
 40
1.0
 41
0.0025
 42
0.00125
 43
3.75
 44
0.00375
 45
0.0
 46
0.0
 47
0.0
 48
0.0
 49
2.5
140
0.0025
141
2.5
142
0.00125
143
0.03937007874
144
100.0
145
0.0
146
0.5
147
0.001
148
0.0
 69
0
 70
0
 71
0
 72
0
 73
0
 74
0
 75
0
 76
0
 77
1
 78
12
 79
3
170
0
171
3
172
1
173
0
174
0
175
0
176
0
177
0
178
0
179
2
271
2
272
2
273
2
274
3
275
0
276
0
277
2
278
46
279
2
280
0
281
0
282
0
283
0
284
8
285
0
286
0
288
1
289
3
290
0
340
4C
371
-2
372
-2
  0
DIMSTYLE
105
83
330
4
100
AcDbSymbolTableRecord
100
AcDbDimStyleTableRecord
  2
EZ_RADIUS
 70
0
 40
1.0
 41
0.25
 42
0.125
 43
3.75
 44
0.375
 45
0.0
 46
0.0
 47
0.0
 48
0.0
 49
2.5
140
0.25
141
0.0
142
0.0
143
0.03937007874
144
100.0
145
0.0
146
0.5
147
0.1
148
0.0
 69
0
 70
0
 71
0
 72
0
 73
0
 74
0
 75
0
 76
0
 77
1
 78
12
 79
3
170
0
171
3
172
0
173
0
174
0
175
0
176
0
177
0
178
0
179
2
271
2
272
2
273
2
274
3
275
0
276
0
277
2
278
46
279
1
280
0
281
0
282
0
283
0
284
8
285
0
286
0
288
1
289
3
290
0
340
4C
342
84
371
-2
372
-2
  0
DIMSTYLE
105
88
330
4
100
AcDbSymbolTableRecord
100
AcDbDimStyleTableRecord
  2
EZ_RADIUS_INSIDE
 70
0
 40
1.0
 41
0.25
 42
0.125
 43
3.75
 44
0.375
 45
0.0
 46
0.0
 47
0.0
 48
0.0
 49
2.5
140
0.25
141
0.0
142
0.0
143
0.03937007874
144
100.0
145
0.0
146
0.5
147
0.1
148
0.0
 69
0
 70
0
 71
0
 72
0
 73
0
 74
0
 75
0
 76
0
 77
0
 78
12
 79
3
170
0
171
3
172
0
173
0
174
1
175
0
176
0
177
0
178
0
179
2
271
2
272
2
273
2
274
3
275
0
276
0
277
2
278
46
279
0
280
0
281
0
282
0
283
0
284
8
285
0
286
0
288
1
289
0
290
0
340
4C
342
84
371
-2
372
-2
  0
DIMSTYLE
105
89
330
4
100
AcDbSymbolTableRecord
100
AcDbDimStyleTableRecord
  2
EZ_CURVED
 70
0
 40
1.0
 41
0.25
 42
0.125
 43
3.75
 44
0.375
 45
0.0
 46
0.0
 47
0.0
 48
0.0
 49
2.5
140
0.25
141
2.5
142
0.0
143
0.03937007874
144
100.0
145
0.0
146
0.5
147
0.1
148
0.0
 69
0
 70
0
 71
0
 72
0
 73
0
 74
0
 75
0
 76
0
 77
1
 78
12
 79
2
 90
2
170
0
171
3
172
1
173
0
174
0
175
0
176
0
177
0
178
0
179
2
271
2
272
2
273
2
274
3
275
0
276
0
277
2
278
46
279
2
280
0
281
0
282
0
283
0
284
8
285
0
286
0
288
1
289
3
290
0
340
4C
371
-2
372
-2
  0
ENDTAB
  0
TABLE
  2
BLOCK_RECORD
  5
9
330
0
100
AcDbSymbolTable
 70
5
  0
BLOCK_RECORD
  5
17
330
9
100
AcDbSymbolTableRecord
100
AcDbBlockTableRecord
  2
*Model_Space
340
1A
 70
0
280
1
281
0
  0
BLOCK_RECORD
  5
1B
330
9
100
AcDbSymbolTableRecord
100
AcDbBlockTableRecord
  2
*Paper_Space
340
1E
 70
0
280
1
281
0
  0
BLOCK_RECORD
  5
74
330
9
100
AcDbSymbolTableRecord
100
AcDbBlockTableRecord
  2
_ARCHTICK
340
0
 70
0
280
1
281
0
  0
BLOCK_RECORD
  5
78
330
9
100
AcDbSymbolTableRecord
100
AcDbBlockTableRecord
  2
_CLOSEDFILLED
340
0
 70
0
280
1
281
0
  0
BLOCK_RECORD
  5
84
330
9
100
AcDbSymbolTableRecord
100
AcDbBlockTableRecord
  2
_CLOSEDBLANK
340
0
 70
0
280
1
281
0
  0
ENDTAB
  0
ENDSEC
  0
SECTION
  2
BLOCKS
  0
BLOCK
  5
18
330
17
100
AcDbEntity
  8
0
100
AcDbBlockBegin
  2
*Model_Space
 70
0
 10
0.0
 20
0.0
 30
0.0
  3
*Model_Space
  1

  0
ENDBLK
  5
19
330
17
100
AcDbEntity
  8
0
100
AcDbBlockEnd
  0
BLOCK
  5
1C
330
1B
100
AcDbEntity
  8
0
100
AcDbBlockBegin
  2
*Paper_Space
 70
0
 10
0.0
 20
0.0
 30
0.0
  3
*Paper_Space
  1

  0
ENDBLK
  5
1D
330
1B
100
AcDbEntity
  8
0
100
AcDbBlockEnd
  0
BLOCK
  5
75
330
74
100
AcDbEntity
  8
0
100
AcDbBlockBegin
  2
_ARCHTICK
 70
0
 10
0.0
 20
0.0
 30
0.0
  3
_ARCHTICK
  1

  0
LWPOLYLINE
  5
77
330
74
100
AcDbEntity
  8
0
  6
BYBLOCK
 62
0
100
AcDbPolyline
 90
2
 70
0
 43
0.15
 10
-0.5
 20
-0.5
 10
0.5
 20
0.5
  0
ENDBLK
  5
76
330
74
100
AcDbEntity
  8
0
100
AcDbBlockEnd
  0
BLOCK
  5
79
330
78
100
AcDbEntity
  8
0
100
AcDbBlockBegin
  2
_CLOSEDFILLED
 70
0
 10
0.0
 20
0.0
 30
0.0
  3
_CLOSEDFILLED
  1

  0
SOLID
  5
7B
330
78
100
AcDbEntity
  8
0
  6
BYBLOCK
 62
0
100
AcDbTrace
 10
-1.0
 20
0.16439898372402537
 30
0.0
 11
0.0
 21
0.0
 31
0.0
 12
-1.0
 22
-0.16439898372402537
 32
0.0
 13
-1.0
 23
-0.16439898372402537
 33
0.0
  0
ENDBLK
  5
7A
330
78
100
AcDbEntity
  8
0
100
AcDbBlockEnd
  0
BLOCK
  5
85
330
84
100
AcDbEntity
  8
0
100
AcDbBlockBegin
  2
_CLOSEDBLANK
 70
0
 10
0.0
 20
0.0
 30
0.0
  3
_CLOSEDBLANK
  1

  0
LWPOLYLINE
  5
87
330
84
100
AcDbEntity
  8
0
  6
BYBLOCK
 62
0
100
AcDbPolyline
 90
3
 70
1
 10
-1.0
 20
0.16439898372402537
 10
0.0
 20
0.0
 10
-1.0
 20
-0.16439898372402537
  0
ENDBLK
  5
86
330
84
100
AcDbEntity
  8
0
100
AcDbBlockEnd
  0
ENDSEC
  0
SECTION
  2
ENTITIES
  0
LINE
  5
8F
330
17
100
AcDbEntity
  8
MARCO
100
AcDbLine
 10
10.0
 20
10.0
 30
0.0
 11
410.0
 21
10.0
 31
0.0
  0
LINE
  5
90
330
17
100
AcDbEntity
  8
MARCO
100
AcDbLine
 10
410.0
 20
10.0
 30
0.0
 11
410.0
 21
287.0
 31
0.0
  0
LINE
  5
91
330
17
100
AcDbEntity
  8
MARCO
100
AcDbLine
 10
410.0
 20
287.0
 30
0.0
 11
10.0
 21
287.0
 31
0.0
  0
LINE
  5
92
330
17
100
AcDbEntity
  8
MARCO
100
AcDbLine
 10
10.0
 20
287.0
 30
0.0
 11
10.0
 21
10.0
 31
0.0
  0
LINE
  5
93
330
17
100
AcDbEntity
  8
VISIBLE
100
AcDbLine
 10
112.3
 20
181.79999999999998
 30
0.0
 11
112.3
 21
231.79999999999998
 31
0.0
  0
LINE
  5
94
330
17
100
AcDbEntity
  8
VISIBLE
100
AcDbLine
 10
112.3
 20
181.79999999999998
 30
0.0
 11
113.7
 21
181.79999999999998
 31
0.0
  0
LINE
  5
95
330
17
100
AcDbEntity
  8
VISIBLE
100
AcDbLine
 10
113.7
 20
181.79999999999998
 30
0.0
 11
113.7
 21
231.79999999999998
 31
0.0
  0
LINE
  5
96
330
17
100
AcDbEntity
  8
VISIBLE
100
AcDbLine
 10
112.3
 20
231.79999999999998
 30
0.0
 11
113.7
 21
231.79999999999998
 31
0.0
  0
LINE
  5
97
330
17
100
AcDbEntity
  8
OCULTA
100
AcDbLine
 10
112.3
 20
181.79999999999998
 30
0.0
 11
112.3
 21
231.79999999999998
 31
0.0
  0
LINE
  5
98
330
17
100
AcDbEntity
  8
OCULTA
100
AcDbLine
 10
112.3
 20
223.15999999999997
 30
0.0
 11
112.3
 21
223.27999999999997
 31
0.0
  0
LINE
  5
99
330
17
100
AcDbEntity
  8
OCULTA
100
AcDbLine
 10
112.3
 20
223.27999999999997
 30
0.0
 11
112.3
 21
223.15999999999997
 31
0.0
  0
LINE
  5
9A
330
17
100
AcDbEntity
  8
OCULTA
100
AcDbLine
 10
112.3
 20
223.76
 30
0.0
 11
112.3
 21
223.88
 31
0.0
  0
LINE
  5
9B
330
17
100
AcDbEntity
  8
OCULTA
100
AcDbLine
 10
112.3
 20
223.88
 30
0.0
 11
112.3
 21
223.76
 31
0.0
  0
LINE
  5
9C
330
17
100
AcDbEntity
  8
OCULTA
100
AcDbLine
 10
112.3
 20
230.73999999999998
 30
0.0
 11
112.3
 21
230.85999999999999
 31
0.0
  0
LINE
  5
9D
330
17
100
AcDbEntity
  8
OCULTA
100
AcDbLine
 10
112.3
 20
230.85999999999999
 30
0.0
 11
112.3
 21
230.73999999999998
 31
0.0
  0
LINE
  5
9E
330
17
100
AcDbEntity
  8
OCULTA
100
AcDbLine
 10
112.3
 20
231.33999999999997
 30
0.0
 11
112.3
 21
231.45999999999998
 31
0.0
  0
LINE
  5
9F
330
17
100
AcDbEntity
  8
OCULTA
100
AcDbLine
 10
112.3
 20
231.45999999999998
 30
0.0
 11
112.3
 21
231.33999999999997
 31
0.0
  0
LINE
  5
A0
330
17
100
AcDbEntity
  8
OCULTA
100
AcDbLine
 10
112.3
 20
231.79999999999998
 30
0.0
 11
113.7
 21
231.79999999999998
 31
0.0
  0
LINE
  5
A1
330
17
100
AcDbEntity
  8
OCULTA
100
AcDbLine
 10
112.3
 20
181.79999999999998
 30
0.0
 11
113.7
 21
181.79999999999998
 31
0.0
  0
LINE
  5
A2
330
17
100
AcDbEntity
  8
OCULTA
100
AcDbLine
 10
113.7
 20
181.79999999999998
 30
0.0
 11
113.7
 21
231.79999999999998
 31
0.0
  0
LINE
  5
A3
330
17
100
AcDbEntity
  8
OCULTA
100
AcDbLine
 10
113.7
 20
223.15999999999997
 30
0.0
 11
113.7
 21
223.27999999999997
 31
0.0
  0
LINE
  5
A4
330
17
100
AcDbEntity
  8
OCULTA
100
AcDbLine
 10
113.7
 20
223.27999999999997
 30
0.0
 11
113.7
 21
223.15999999999997
 31
0.0
  0
LINE
  5
A5
330
17
100
AcDbEntity
  8
OCULTA
100
AcDbLine
 10
112.3
 20
223.15999999999997
 30
0.0
 11
113.7
 21
223.15999999999997
 31
0.0
  0
LINE
  5
A6
330
17
100
AcDbEntity
  8
OCULTA
100
AcDbLine
 10
113.7
 20
223.76
 30
0.0
 11
113.7
 21
223.88
 31
0.0
  0
LINE
  5
A7
330
17
100
AcDbEntity
  8
OCULTA
100
AcDbLine
 10
113.7
 20
223.88
 30
0.0
 11
113.7
 21
223.76
 31
0.0
  0
LINE
  5
A8
330
17
100
AcDbEntity
  8
OCULTA
100
AcDbLine
 10
112.3
 20
223.76
 30
0.0
 11
113.7
 21
223.76
 31
0.0
  0
LINE
  5
A9
330
17
100
AcDbEntity
  8
OCULTA
100
AcDbLine
 10
113.7
 20
230.73999999999998
 30
0.0
 11
113.7
 21
230.85999999999999
 31
0.0
  0
LINE
  5
AA
330
17
100
AcDbEntity
  8
OCULTA
100
AcDbLine
 10
113.7
 20
230.85999999999999
 30
0.0
 11
113.7
 21
230.73999999999998
 31
0.0
  0
LINE
  5
AB
330
17
100
AcDbEntity
  8
OCULTA
100
AcDbLine
 10
112.3
 20
230.73999999999998
 30
0.0
 11
113.7
 21
230.73999999999998
 31
0.0
  0
LINE
  5
AC
330
17
100
AcDbEntity
  8
OCULTA
100
AcDbLine
 10
113.7
 20
231.33999999999997
 30
0.0
 11
113.7
 21
231.45999999999998
 31
0.0
  0
LINE
  5
AD
330
17
100
AcDbEntity
  8
OCULTA
100
AcDbLine
 10
113.7
 20
231.45999999999998
 30
0.0
 11
113.7
 21
231.33999999999997
 31
0.0
  0
LINE
  5
AE
330
17
100
AcDbEntity
  8
OCULTA
100
AcDbLine
 10
112.3
 20
231.33999999999997
 30
0.0
 11
113.7
 21
231.33999999999997
 31
0.0
  0
LINE
  5
AF
330
17
100
AcDbEntity
  8
OCULTA
100
AcDbLine
 10
112.3
 20
223.27999999999997
 30
0.0
 11
113.7
 21
223.27999999999997
 31
0.0
  0
LINE
  5
B0
330
17
100
AcDbEntity
  8
OCULTA
100
AcDbLine
 10
112.3
 20
223.88
 30
0.0
 11
113.7
 21
223.88
 31
0.0
  0
LINE
  5
B1
330
17
100
AcDbEntity
  8
OCULTA
100
AcDbLine
 10
112.3
 20
230.85999999999999
 30
0.0
 11
113.7
 21
230.85999999999999
 31
0.0
  0
LINE
  5
B2
330
17
100
AcDbEntity
  8
OCULTA
100
AcDbLine
 10
112.3
 20
231.45999999999998
 30
0.0
 11
113.7
 21
231.45999999999998
 31
0.0
  0
LINE
  5
B3
330
17
100
AcDbEntity
  8
COTAS
100
AcDbLine
 10
112.3
 20
180.29999999999998
 30
0.0
 11
112.3
 21
172.29999999999998
 31
0.0
  0
LINE
  5
B4
330
17
100
AcDbEntity
  8
COTAS
100
AcDbLine
 10
113.7
 20
180.29999999999998
 30
0.0
 11
113.7
 21
172.29999999999998
 31
0.0
  0
LINE
  5
B5
330
17
100
AcDbEntity
  8
COTAS
100
AcDbLine
 10
112.3
 20
173.79999999999998
 30
0.0
 11
113.7
 21
173.79999999999998
 31
0.0
  0
LINE
  5
B6
330
17
100
AcDbEntity
  8
COTAS
100
AcDbLine
 10
111.1
 20
172.6
 30
0.0
 11
113.5
 21
174.99999999999997
 31
0.0
  0
LINE
  5
B7
330
17
100
AcDbEntity
  8
COTAS
100
AcDbLine
 10
112.5
 20
172.6
 30
0.0
 11
114.9
 21
174.99999999999997
 31
0.0
  0
LINE
  5
B8
330
17
100
AcDbEntity
  8
COTAS
100
AcDbLine
 10
110.8
 20
181.79999999999998
 30
0.0
 11
102.8
 21
181.79999999999998
 31
0.0
  0
LINE
  5
B9
330
17
100
AcDbEntity
  8
COTAS
100
AcDbLine
 10
110.8
 20
231.79999999999998
 30
0.0
 11
102.8
 21
231.79999999999998
 31
0.0
  0
LINE
  5
BA
330
17
100
AcDbEntity
  8
COTAS
100
AcDbLine
 10
104.3
 20
181.79999999999998
 30
0.0
 11
104.3
 21
231.79999999999998
 31
0.0
  0
LINE
  5
BB
330
17
100
AcDbEntity
  8
COTAS
100
AcDbLine
 10
103.1
 20
180.6
 30
0.0
 11
105.5
 21
182.99999999999997
 31
0.0
  0
LINE
  5
BC
330
17
100
AcDbEntity
  8
COTAS
100
AcDbLine
 10
103.1
 20
230.6
 30
0.0
 11
105.5
 21
232.99999999999997
 31
0.0
  0
LINE
  5
BD
330
17
100
AcDbEntity
  8
VISIBLE
100
AcDbLine
 10
306.3
 20
181.79999999999998
 30
0.0
 11
306.3
 21
231.79999999999998
 31
0.0
  0
LINE
  5
BE
330
17
100
AcDbEntity
  8
VISIBLE
100
AcDbLine
 10
306.3
 20
231.79999999999998
 30
0.0
 11
307.7
 21
231.79999999999998
 31
0.0
  0
LINE
  5
BF
330
17
100
AcDbEntity
  8
VISIBLE
100
AcDbLine
 10
306.3
 20
181.79999999999998
 30
0.0
 11
307.7
 21
181.79999999999998
 31
0.0
  0
LINE
  5
C0
330
17
100
AcDbEntity
  8
VISIBLE
100
AcDbLine
 10
307.7
 20
181.79999999999998
 30
0.0
 11
307.7
 21
231.79999999999998
 31
0.0
  0
LINE
  5
C1
330
17
100
AcDbEntity
  8
VISIBLE
100
AcDbLine
 10
307.0
 20
223.15999999999997
 30
0.0
 11
307.01552914270616
 21
223.16204445042263
 31
0.0
  0
LINE
  5
C2
330
17
100
AcDbEntity
  8
VISIBLE
100
AcDbLine
 10
307.01552914270616
 20
223.16204445042263
 30
0.0
 11
307.03
 21
223.1680384757729
 31
0.0
  0
LINE
  5
C3
330
17
100
AcDbEntity
  8
VISIBLE
100
AcDbLine
 10
307.03
 20
223.1680384757729
 30
0.0
 11
307.0424264068712
 21
223.17757359312878
 31
0.0
  0
LINE
  5
C4
330
17
100
AcDbEntity
  8
VISIBLE
100
AcDbLine
 10
307.0424264068712
 20
223.17757359312878
 30
0.0
 11
307.05196152422707
 21
223.19
 31
0.0
  0
LINE
  5
C5
330
17
100
AcDbEntity
  8
VISIBLE
100
AcDbLine
 10
307.05196152422707
 20
223.19
 30
0.0
 11
307.05795554957734
 21
223.20447085729384
 31
0.0
  0
LINE
  5
C6
330
17
100
AcDbEntity
  8
VISIBLE
100
AcDbLine
 10
307.05795554957734
 20
223.20447085729384
 30
0.0
 11
307.06
 21
223.21999999999997
 31
0.0
  0
LINE
  5
C7
330
17
100
AcDbEntity
  8
VISIBLE
100
AcDbLine
 10
307.06
 20
223.21999999999997
 30
0.0
 11
307.05795554957734
 21
223.23552914270613
 31
0.0
  0
LINE
  5
C8
330
17
100
AcDbEntity
  8
VISIBLE
100
AcDbLine
 10
307.05795554957734
 20
223.23552914270613
 30
0.0
 11
307.05196152422707
 21
223.24999999999997
 31
0.0
  0
LINE
  5
C9
330
17
100
AcDbEntity
  8
VISIBLE
100
AcDbLine
 10
307.05196152422707
 20
223.24999999999997
 30
0.0
 11
307.0424264068712
 21
223.26242640687119
 31
0.0
  0
LINE
  5
CA
330
17
100
AcDbEntity
  8
VISIBLE
100
AcDbLine
 10
307.0424264068712
 20
223.26242640687119
 30
0.0
 11
307.03
 21
223.27196152422704
 31
0.0
  0
LINE
  5
CB
330
17
100
AcDbEntity
  8
VISIBLE
100
AcDbLine
 10
307.03
 20
223.27196152422704
 30
0.0
 11
307.01552914270616
 21
223.2779555495773
 31
0.0
  0
LINE
  5
CC
330
17
100
AcDbEntity
  8
VISIBLE
100
AcDbLine
 10
307.01552914270616
 20
223.2779555495773
 30
0.0
 11
307.0
 21
223.27999999999997
 31
0.0
  0
LINE
  5
CD
330
17
100
AcDbEntity
  8
VISIBLE
100
AcDbLine
 10
307.0
 20
223.27999999999997
 30
0.0
 11
306.98447085729384
 21
223.2779555495773
 31
0.0
  0
LINE
  5
CE
330
17
100
AcDbEntity
  8
VISIBLE
100
AcDbLine
 10
306.98447085729384
 20
223.2779555495773
 30
0.0
 11
306.97
 21
223.27196152422704
 31
0.0
  0
LINE
  5
CF
330
17
100
AcDbEntity
  8
VISIBLE
100
AcDbLine
 10
306.97
 20
223.27196152422704
 30
0.0
 11
306.9575735931288
 21
223.26242640687119
 31
0.0
  0
LINE
  5
D0
330
17
100
AcDbEntity
  8
VISIBLE
100
AcDbLine
 10
306.9575735931288
 20
223.26242640687119
 30
0.0
 11
306.94803847577293
 21
223.24999999999997
 31
0.0
  0
LINE
  5
D1
330
17
100
AcDbEntity
  8
VISIBLE
100
AcDbLine
 10
306.94803847577293
 20
223.24999999999997
 30
0.0
 11
306.94204445042266
 21
223.23552914270613
 31
0.0
  0
LINE
  5
D2
330
17
100
AcDbEntity
  8
VISIBLE
100
AcDbLine
 10
306.94204445042266
 20
223.23552914270613
 30
0.0
 11
306.94
 21
223.21999999999997
 31
0.0
  0
LINE
  5
D3
330
17
100
AcDbEntity
  8
VISIBLE
100
AcDbLine
 10
306.94
 20
223.21999999999997
 30
0.0
 11
306.94204445042266
 21
223.20447085729384
 31
0.0
  0
LINE
  5
D4
330
17
100
AcDbEntity
  8
VISIBLE
100
AcDbLine
 10
306.94204445042266
 20
223.20447085729384
 30
0.0
 11
306.94803847577293
 21
223.19
 31
0.0
  0
LINE
  5
D5
330
17
100
AcDbEntity
  8
VISIBLE
100
AcDbLine
 10
306.94803847577293
 20
223.19
 30
0.0
 11
306.9575735931288
 21
223.17757359312878
 31
0.0
  0
LINE
  5
D6
330
17
100
AcDbEntity
  8
VISIBLE
100
AcDbLine
 10
306.9575735931288
 20
223.17757359312878
 30
0.0
 11
306.97
 21
223.1680384757729
 31
0.0
  0
LINE
  5
D7
330
17
100
AcDbEntity
  8
VISIBLE
100
AcDbLine
 10
306.97
 20
223.1680384757729
 30
0.0
 11
306.98447085729384
 21
223.16204445042263
 31
0.0
  0
LINE
  5
D8
330
17
100
AcDbEntity
  8
VISIBLE
100
AcDbLine
 10
306.98447085729384
 20
223.16204445042263
 30
0.0
 11
307.0
 21
223.15999999999997
 31
0.0
  0
LINE
  5
D9
330
17
100
AcDbEntity
  8
VISIBLE
100
AcDbLine
 10
307.0
 20
223.76
 30
0.0
 11
307.01552914270616
 21
223.76204445042265
 31
0.0
  0
LINE
  5
DA
330
17
100
AcDbEntity
  8
VISIBLE
100
AcDbLine
 10
307.01552914270616
 20
223.76204445042265
 30
0.0
 11
307.03
 21
223.76803847577293
 31
0.0
  0
LINE
  5
DB
330
17
100
AcDbEntity
  8
VISIBLE
100
AcDbLine
 10
307.03
 20
223.76803847577293
 30
0.0
 11
307.0424264068712
 21
223.77757359312878
 31
0.0
  0
LINE
  5
DC
330
17
100
AcDbEntity
  8
VISIBLE
100
AcDbLine
 10
307.0424264068712
 20
223.77757359312878
 30
0.0
 11
307.05196152422707
 21
223.79
 31
0.0
  0
LINE
  5
DD
330
17
100
AcDbEntity
  8
VISIBLE
100
AcDbLine
 10
307.05196152422707
 20
223.79
 30
0.0
 11
307.05795554957734
 21
223.80447085729384
 31
0.0
  0
LINE
  5
DE
330
17
100
AcDbEntity
  8
VISIBLE
100
AcDbLine
 10
307.05795554957734
 20
223.80447085729384
 30
0.0
 11
307.06
 21
223.82
 31
0.0
  0
LINE
  5
DF
330
17
100
AcDbEntity
  8
VISIBLE
100
AcDbLine
 10
307.06
 20
223.82
 30
0.0
 11
307.05795554957734
 21
223.83552914270612
 31
0.0
  0
LINE
  5
E0
330
17
100
AcDbEntity
  8
VISIBLE
100
AcDbLine
 10
307.05795554957734
 20
223.83552914270612
 30
0.0
 11
307.05196152422707
 21
223.85
 31
0.0
  0
LINE
  5
E1
330
17
100
AcDbEntity
  8
VISIBLE
100
AcDbLine
 10
307.05196152422707
 20
223.85
 30
0.0
 11
307.0424264068712
 21
223.86242640687118
 31
0.0
  0
LINE
  5
E2
330
17
100
AcDbEntity
  8
VISIBLE
100
AcDbLine
 10
307.0424264068712
 20
223.86242640687118
 30
0.0
 11
307.03
 21
223.87196152422706
 31
0.0
  0
LINE
  5
E3
330
17
100
AcDbEntity
  8
VISIBLE
100
AcDbLine
 10
307.03
 20
223.87196152422706
 30
0.0
 11
307.01552914270616
 21
223.87795554957734
 31
0.0
  0
LINE
  5
E4
330
17
100
AcDbEntity
  8
VISIBLE
100
AcDbLine
 10
307.01552914270616
 20
223.87795554957734
 30
0.0
 11
307.0
 21
223.88
 31
0.0
  0
LINE
  5
E5
330
17
100
AcDbEntity
  8
VISIBLE
100
AcDbLine
 10
307.0
 20
223.88
 30
0.0
 11
306.98447085729384
 21
223.87795554957734
 31
0.0
  0
LINE
  5
E6
330
17
100
AcDbEntity
  8
VISIBLE
100
AcDbLine
 10
306.98447085729384
 20
223.87795554957734
 30
0.0
 11
306.97
 21
223.87196152422706
 31
0.0
  0
LINE
  5
E7
330
17
100
AcDbEntity
  8
VISIBLE
100
AcDbLine
 10
306.97
 20
223.87196152422706
 30
0.0
 11
306.9575735931288
 21
223.86242640687118
 31
0.0
  0
LINE
  5
E8
330
17
100
AcDbEntity
  8
VISIBLE
100
AcDbLine
 10
306.9575735931288
 20
223.86242640687118
 30
0.0
 11
306.94803847577293
 21
223.85
 31
0.0
  0
LINE
  5
E9
330
17
100
AcDbEntity
  8
VISIBLE
100
AcDbLine
 10
306.94803847577293
 20
223.85
 30
0.0
 11
306.94204445042266
 21
223.83552914270612
 31
0.0
  0
LINE
  5
EA
330
17
100
AcDbEntity
  8
VISIBLE
100
AcDbLine
 10
306.94204445042266
 20
223.83552914270612
 30
0.0
 11
306.94
 21
223.82
 31
0.0
  0
LINE
  5
EB
330
17
100
AcDbEntity
  8
VISIBLE
100
AcDbLine
 10
306.94
 20
223.82
 30
0.0
 11
306.94204445042266
 21
223.80447085729384
 31
0.0
  0
LINE
  5
EC
330
17
100
AcDbEntity
  8
VISIBLE
100
AcDbLine
 10
306.94204445042266
 20
223.80447085729384
 30
0.0
 11
306.94803847577293
 21
223.79
 31
0.0
  0
LINE
  5
ED
330
17
100
AcDbEntity
  8
VISIBLE
100
AcDbLine
 10
306.94803847577293
 20
223.79
 30
0.0
 11
306.9575735931288
 21
223.77757359312878
 31
0.0
  0
LINE
  5
EE
330
17
100
AcDbEntity
  8
VISIBLE
100
AcDbLine
 10
306.9575735931288
 20
223.77757359312878
 30
0.0
 11
306.97
 21
223.76803847577293
 31
0.0
  0
LINE
  5
EF
330
17
100
AcDbEntity
  8
VISIBLE
100
AcDbLine
 10
306.97
 20
223.76803847577293
 30
0.0
 11
306.98447085729384
 21
223.76204445042265
 31
0.0
  0
LINE
  5
F0
330
17
100
AcDbEntity
  8
VISIBLE
100
AcDbLine
 10
306.98447085729384
 20
223.76204445042265
 30
0.0
 11
307.0
 21
223.76
 31
0.0
  0
LINE
  5
F1
330
17
100
AcDbEntity
  8
VISIBLE
100
AcDbLine
 10
307.0
 20
230.73999999999998
 30
0.0
 11
307.01552914270616
 21
230.74204445042264
 31
0.0
  0
LINE
  5
F2
330
17
100
AcDbEntity
  8
VISIBLE
100
AcDbLine
 10
307.01552914270616
 20
230.74204445042264
 30
0.0
 11
307.03
 21
230.74803847577292
 31
0.0
  0
LINE
  5
F3
330
17
100
AcDbEntity
  8
VISIBLE
100
AcDbLine
 10
307.03
 20
230.74803847577292
 30
0.0
 11
307.0424264068712
 21
230.7575735931288
 31
0.0
  0
LINE
  5
F4
330
17
100
AcDbEntity
  8
VISIBLE
100
AcDbLine
 10
307.0424264068712
 20
230.7575735931288
 30
0.0
 11
307.05196152422707
 21
230.76999999999998
 31
0.0
  0
LINE
  5
F5
330
17
100
AcDbEntity
  8
VISIBLE
100
AcDbLine
 10
307.05196152422707
 20
230.76999999999998
 30
0.0
 11
307.05795554957734
 21
230.78447085729383
 31
0.0
  0
LINE
  5
F6
330
17
100
AcDbEntity
  8
VISIBLE
100
AcDbLine
 10
307.05795554957734
 20
230.78447085729383
 30
0.0
 11
307.06
 21
230.79999999999998
 31
0.0
  0
LINE
  5
F7
330
17
100
AcDbEntity
  8
VISIBLE
100
AcDbLine
 10
307.06
 20
230.79999999999998
 30
0.0
 11
307.05795554957734
 21
230.81552914270614
 31
0.0
  0
LINE
  5
F8
330
17
100
AcDbEntity
  8
VISIBLE
100
AcDbLine
 10
307.05795554957734
 20
230.81552914270614
 30
0.0
 11
307.05196152422707
 21
230.82999999999998
 31
0.0
  0
LINE
  5
F9
330
17
100
AcDbEntity
  8
VISIBLE
100
AcDbLine
 10
307.05196152422707
 20
230.82999999999998
 30
0.0
 11
307.0424264068712
 21
230.84242640687117
 31
0.0
  0
LINE
  5
FA
330
17
100
AcDbEntity
  8
VISIBLE
100
AcDbLine
 10
307.0424264068712
 20
230.84242640687117
 30
0.0
 11
307.03
 21
230.85196152422705
 31
0.0
  0
LINE
  5
FB
330
17
100
AcDbEntity
  8
VISIBLE
100
AcDbLine
 10
307.03
 20
230.85196152422705
 30
0.0
 11
307.01552914270616
 21
230.85795554957733
 31
0.0
  0
LINE
  5
FC
330
17
100
AcDbEntity
  8
VISIBLE
100
AcDbLine
 10
307.01552914270616
 20
230.85795554957733
 30
0.0
 11
307.0
 21
230.85999999999999
 31
0.0
  0
LINE
  5
FD
330
17
100
AcDbEntity
  8
VISIBLE
100
AcDbLine
 10
307.0
 20
230.85999999999999
 30
0.0
 11
306.98447085729384
 21
230.85795554957733
 31
0.0
  0
LINE
  5
FE
330
17
100
AcDbEntity
  8
VISIBLE
100
AcDbLine
 10
306.98447085729384
 20
230.85795554957733
 30
0.0
 11
306.97
 21
230.85196152422705
 31
0.0
  0
LINE
  5
FF
330
17
100
AcDbEntity
  8
VISIBLE
100
AcDbLine
 10
306.97
 20
230.85196152422705
 30
0.0
 11
306.9575735931288
 21
230.84242640687117
 31
0.0
  0
LINE
  5
100
330
17
100
AcDbEntity
  8
VISIBLE
100
AcDbLine
 10
306.9575735931288
 20
230.84242640687117
 30
0.0
 11
306.94803847577293
 21
230.82999999999998
 31
0.0
  0
LINE
  5
101
330
17
100
AcDbEntity
  8
VISIBLE
100
AcDbLine
 10
306.94803847577293
 20
230.82999999999998
 30
0.0
 11
306.94204445042266
 21
230.81552914270614
 31
0.0
  0
LINE
  5
102
330
17
100
AcDbEntity
  8
VISIBLE
100
AcDbLine
 10
306.94204445042266
 20
230.81552914270614
 30
0.0
 11
306.94
 21
230.79999999999998
 31
0.0
  0
LINE
  5
103
330
17
100
AcDbEntity
  8
VISIBLE
100
AcDbLine
 10
306.94
 20
230.79999999999998
 30
0.0
 11
306.94204445042266
 21
230.78447085729383
 31
0.0
  0
LINE
  5
104
330
17
100
AcDbEntity
  8
VISIBLE
100
AcDbLine
 10
306.94204445042266
 20
230.78447085729383
 30
0.0
 11
306.94803847577293
 21
230.76999999999998
 31
0.0
  0
LINE
  5
105
330
17
100
AcDbEntity
  8
VISIBLE
100
AcDbLine
 10
306.94803847577293
 20
230.76999999999998
 30
0.0
 11
306.9575735931288
 21
230.7575735931288
 31
0.0
  0
LINE
  5
106
330
17
100
AcDbEntity
  8
VISIBLE
100
AcDbLine
 10
306.9575735931288
 20
230.7575735931288
 30
0.0
 11
306.97
 21
230.74803847577292
 31
0.0
  0
LINE
  5
107
330
17
100
AcDbEntity
  8
VISIBLE
100
AcDbLine
 10
306.97
 20
230.74803847577292
 30
0.0
 11
306.98447085729384
 21
230.74204445042264
 31
0.0
  0
LINE
  5
108
330
17
100
AcDbEntity
  8
VISIBLE
100
AcDbLine
 10
306.98447085729384
 20
230.74204445042264
 30
0.0
 11
307.0
 21
230.73999999999998
 31
0.0
  0
LINE
  5
109
330
17
100
AcDbEntity
  8
VISIBLE
100
AcDbLine
 10
307.0
 20
231.33999999999997
 30
0.0
 11
307.01552914270616
 21
231.34204445042263
 31
0.0
  0
LINE
  5
10A
330
17
100
AcDbEntity
  8
VISIBLE
100
AcDbLine
 10
307.01552914270616
 20
231.34204445042263
 30
0.0
 11
307.03
 21
231.3480384757729
 31
0.0
  0
LINE
  5
10B
330
17
100
AcDbEntity
  8
VISIBLE
100
AcDbLine
 10
307.03
 20
231.3480384757729
 30
0.0
 11
307.0424264068712
 21
231.3575735931288
 31
0.0
  0
LINE
  5
10C
330
17
100
AcDbEntity
  8
VISIBLE
100
AcDbLine
 10
307.0424264068712
 20
231.3575735931288
 30
0.0
 11
307.05196152422707
 21
231.36999999999998
 31
0.0
  0
LINE
  5
10D
330
17
100
AcDbEntity
  8
VISIBLE
100
AcDbLine
 10
307.05196152422707
 20
231.36999999999998
 30
0.0
 11
307.05795554957734
 21
231.38447085729382
 31
0.0
  0
LINE
  5
10E
330
17
100
AcDbEntity
  8
VISIBLE
100
AcDbLine
 10
307.05795554957734
 20
231.38447085729382
 30
0.0
 11
307.06
 21
231.39999999999998
 31
0.0
  0
LINE
  5
10F
330
17
100
AcDbEntity
  8
VISIBLE
100
AcDbLine
 10
307.06
 20
231.39999999999998
 30
0.0
 11
307.05795554957734
 21
231.41552914270613
 31
0.0
  0
LINE
  5
110
330
17
100
AcDbEntity
  8
VISIBLE
100
AcDbLine
 10
307.05795554957734
 20
231.41552914270613
 30
0.0
 11
307.05196152422707
 21
231.42999999999998
 31
0.0
  0
LINE
  5
111
330
17
100
AcDbEntity
  8
VISIBLE
100
AcDbLine
 10
307.05196152422707
 20
231.42999999999998
 30
0.0
 11
307.0424264068712
 21
231.44242640687116
 31
0.0
  0
LINE
  5
112
330
17
100
AcDbEntity
  8
VISIBLE
100
AcDbLine
 10
307.0424264068712
 20
231.44242640687116
 30
0.0
 11
307.03
 21
231.45196152422704
 31
0.0
  0
LINE
  5
113
330
17
100
AcDbEntity
  8
VISIBLE
100
AcDbLine
 10
307.03
 20
231.45196152422704
 30
0.0
 11
307.01552914270616
 21
231.45795554957732
 31
0.0
  0
LINE
  5
114
330
17
100
AcDbEntity
  8
VISIBLE
100
AcDbLine
 10
307.01552914270616
 20
231.45795554957732
 30
0.0
 11
307.0
 21
231.45999999999998
 31
0.0
  0
LINE
  5
115
330
17
100
AcDbEntity
  8
VISIBLE
100
AcDbLine
 10
307.0
 20
231.45999999999998
 30
0.0
 11
306.98447085729384
 21
231.45795554957732
 31
0.0
  0
LINE
  5
116
330
17
100
AcDbEntity
  8
VISIBLE
100
AcDbLine
 10
306.98447085729384
 20
231.45795554957732
 30
0.0
 11
306.97
 21
231.45196152422704
 31
0.0
  0
LINE
  5
117
330
17
100
AcDbEntity
  8
VISIBLE
100
AcDbLine
 10
306.97
 20
231.45196152422704
 30
0.0
 11
306.9575735931288
 21
231.44242640687116
 31
0.0
  0
LINE
  5
118
330
17
100
AcDbEntity
  8
VISIBLE
100
AcDbLine
 10
306.9575735931288
 20
231.44242640687116
 30
0.0
 11
306.94803847577293
 21
231.42999999999998
 31
0.0
  0
LINE
  5
119
330
17
100
AcDbEntity
  8
VISIBLE
100
AcDbLine
 10
306.94803847577293
 20
231.42999999999998
 30
0.0
 11
306.94204445042266
 21
231.41552914270613
 31
0.0
  0
LINE
  5
11A
330
17
100
AcDbEntity
  8
VISIBLE
100
AcDbLine
 10
306.94204445042266
 20
231.41552914270613
 30
0.0
 11
306.94
 21
231.39999999999998
 31
0.0
  0
LINE
  5
11B
330
17
100
AcDbEntity
  8
VISIBLE
100
AcDbLine
 10
306.94
 20
231.39999999999998
 30
0.0
 11
306.94204445042266
 21
231.38447085729382
 31
0.0
  0
LINE
  5
11C
330
17
100
AcDbEntity
  8
VISIBLE
100
AcDbLine
 10
306.94204445042266
 20
231.38447085729382
 30
0.0
 11
306.94803847577293
 21
231.36999999999998
 31
0.0
  0
LINE
  5
11D
330
17
100
AcDbEntity
  8
VISIBLE
100
AcDbLine
 10
306.94803847577293
 20
231.36999999999998
 30
0.0
 11
306.9575735931288
 21
231.3575735931288
 31
0.0
  0
LINE
  5
11E
330
17
100
AcDbEntity
  8
VISIBLE
100
AcDbLine
 10
306.9575735931288
 20
231.3575735931288
 30
0.0
 11
306.97
 21
231.3480384757729
 31
0.0
  0
LINE
  5
11F
330
17
100
AcDbEntity
  8
VISIBLE
100
AcDbLine
 10
306.97
 20
231.3480384757729
 30
0.0
 11
306.98447085729384
 21
231.34204445042263
 31
0.0
  0
LINE
  5
120
330
17
100
AcDbEntity
  8
VISIBLE
100
AcDbLine
 10
306.98447085729384
 20
231.34204445042263
 30
0.0
 11
307.0
 21
231.33999999999997
 31
0.0
  0
LINE
  5
121
330
17
100
AcDbEntity
  8
OCULTA
100
AcDbLine
 10
306.3
 20
181.79999999999998
 30
0.0
 11
306.3
 21
231.79999999999998
 31
0.0
  0
LINE
  5
122
330
17
100
AcDbEntity
  8
OCULTA
100
AcDbLine
 10
306.3
 20
231.79999999999998
 30
0.0
 11
307.7
 21
231.79999999999998
 31
0.0
  0
LINE
  5
123
330
17
100
AcDbEntity
  8
OCULTA
100
AcDbLine
 10
306.3
 20
181.79999999999998
 30
0.0
 11
307.7
 21
181.79999999999998
 31
0.0
  0
LINE
  5
124
330
17
100
AcDbEntity
  8
OCULTA
100
AcDbLine
 10
307.7
 20
181.79999999999998
 30
0.0
 11
307.7
 21
231.79999999999998
 31
0.0
  0
LINE
  5
125
330
17
100
AcDbEntity
  8
OCULTA
100
AcDbLine
 10
307.0
 20
223.15999999999997
 30
0.0
 11
307.01552914270616
 21
223.16204445042263
 31
0.0
  0
LINE
  5
126
330
17
100
AcDbEntity
  8
OCULTA
100
AcDbLine
 10
307.01552914270616
 20
223.16204445042263
 30
0.0
 11
307.03
 21
223.1680384757729
 31
0.0
  0
LINE
  5
127
330
17
100
AcDbEntity
  8
OCULTA
100
AcDbLine
 10
307.03
 20
223.1680384757729
 30
0.0
 11
307.0424264068712
 21
223.17757359312878
 31
0.0
  0
LINE
  5
128
330
17
100
AcDbEntity
  8
OCULTA
100
AcDbLine
 10
307.0424264068712
 20
223.17757359312878
 30
0.0
 11
307.05196152422707
 21
223.19
 31
0.0
  0
LINE
  5
129
330
17
100
AcDbEntity
  8
OCULTA
100
AcDbLine
 10
307.05196152422707
 20
223.19
 30
0.0
 11
307.05795554957734
 21
223.20447085729384
 31
0.0
  0
LINE
  5
12A
330
17
100
AcDbEntity
  8
OCULTA
100
AcDbLine
 10
307.05795554957734
 20
223.20447085729384
 30
0.0
 11
307.06
 21
223.21999999999997
 31
0.0
  0
LINE
  5
12B
330
17
100
AcDbEntity
  8
OCULTA
100
AcDbLine
 10
307.06
 20
223.21999999999997
 30
0.0
 11
307.05795554957734
 21
223.23552914270613
 31
0.0
  0
LINE
  5
12C
330
17
100
AcDbEntity
  8
OCULTA
100
AcDbLine
 10
307.05795554957734
 20
223.23552914270613
 30
0.0
 11
307.05196152422707
 21
223.24999999999997
 31
0.0
  0
LINE
  5
12D
330
17
100
AcDbEntity
  8
OCULTA
100
AcDbLine
 10
307.05196152422707
 20
223.24999999999997
 30
0.0
 11
307.0424264068712
 21
223.26242640687119
 31
0.0
  0
LINE
  5
12E
330
17
100
AcDbEntity
  8
OCULTA
100
AcDbLine
 10
307.0424264068712
 20
223.26242640687119
 30
0.0
 11
307.03
 21
223.27196152422704
 31
0.0
  0
LINE
  5
12F
330
17
100
AcDbEntity
  8
OCULTA
100
AcDbLine
 10
307.03
 20
223.27196152422704
 30
0.0
 11
307.01552914270616
 21
223.2779555495773
 31
0.0
  0
LINE
  5
130
330
17
100
AcDbEntity
  8
OCULTA
100
AcDbLine
 10
307.01552914270616
 20
223.2779555495773
 30
0.0
 11
307.0
 21
223.27999999999997
 31
0.0
  0
LINE
  5
131
330
17
100
AcDbEntity
  8
OCULTA
100
AcDbLine
 10
307.0
 20
223.27999999999997
 30
0.0
 11
306.98447085729384
 21
223.2779555495773
 31
0.0
  0
LINE
  5
132
330
17
100
AcDbEntity
  8
OCULTA
100
AcDbLine
 10
306.98447085729384
 20
223.2779555495773
 30
0.0
 11
306.97
 21
223.27196152422704
 31
0.0
  0
LINE
  5
133
330
17
100
AcDbEntity
  8
OCULTA
100
AcDbLine
 10
306.97
 20
223.27196152422704
 30
0.0
 11
306.9575735931288
 21
223.26242640687119
 31
0.0
  0
LINE
  5
134
330
17
100
AcDbEntity
  8
OCULTA
100
AcDbLine
 10
306.9575735931288
 20
223.26242640687119
 30
0.0
 11
306.94803847577293
 21
223.24999999999997
 31
0.0
  0
LINE
  5
135
330
17
100
AcDbEntity
  8
OCULTA
100
AcDbLine
 10
306.94803847577293
 20
223.24999999999997
 30
0.0
 11
306.94204445042266
 21
223.23552914270613
 31
0.0
  0
LINE
  5
136
330
17
100
AcDbEntity
  8
OCULTA
100
AcDbLine
 10
306.94204445042266
 20
223.23552914270613
 30
0.0
 11
306.94
 21
223.21999999999997
 31
0.0
  0
LINE
  5
137
330
17
100
AcDbEntity
  8
OCULTA
100
AcDbLine
 10
306.94
 20
223.21999999999997
 30
0.0
 11
306.94204445042266
 21
223.20447085729384
 31
0.0
  0
LINE
  5
138
330
17
100
AcDbEntity
  8
OCULTA
100
AcDbLine
 10
306.94204445042266
 20
223.20447085729384
 30
0.0
 11
306.94803847577293
 21
223.19
 31
0.0
  0
LINE
  5
139
330
17
100
AcDbEntity
  8
OCULTA
100
AcDbLine
 10
306.94803847577293
 20
223.19
 30
0.0
 11
306.9575735931288
 21
223.17757359312878
 31
0.0
  0
LINE
  5
13A
330
17
100
AcDbEntity
  8
OCULTA
100
AcDbLine
 10
306.9575735931288
 20
223.17757359312878
 30
0.0
 11
306.97
 21
223.1680384757729
 31
0.0
  0
LINE
  5
13B
330
17
100
AcDbEntity
  8
OCULTA
100
AcDbLine
 10
306.97
 20
223.1680384757729
 30
0.0
 11
306.98447085729384
 21
223.16204445042263
 31
0.0
  0
LINE
  5
13C
330
17
100
AcDbEntity
  8
OCULTA
100
AcDbLine
 10
306.98447085729384
 20
223.16204445042263
 30
0.0
 11
307.0
 21
223.15999999999997
 31
0.0
  0
LINE
  5
13D
330
17
100
AcDbEntity
  8
OCULTA
100
AcDbLine
 10
307.0
 20
223.76
 30
0.0
 11
307.01552914270616
 21
223.76204445042265
 31
0.0
  0
LINE
  5
13E
330
17
100
AcDbEntity
  8
OCULTA
100
AcDbLine
 10
307.01552914270616
 20
223.76204445042265
 30
0.0
 11
307.03
 21
223.76803847577293
 31
0.0
  0
LINE
  5
13F
330
17
100
AcDbEntity
  8
OCULTA
100
AcDbLine
 10
307.03
 20
223.76803847577293
 30
0.0
 11
307.0424264068712
 21
223.77757359312878
 31
0.0
  0
LINE
  5
140
330
17
100
AcDbEntity
  8
OCULTA
100
AcDbLine
 10
307.0424264068712
 20
223.77757359312878
 30
0.0
 11
307.05196152422707
 21
223.79
 31
0.0
  0
LINE
  5
141
330
17
100
AcDbEntity
  8
OCULTA
100
AcDbLine
 10
307.05196152422707
 20
223.79
 30
0.0
 11
307.05795554957734
 21
223.80447085729384
 31
0.0
  0
LINE
  5
142
330
17
100
AcDbEntity
  8
OCULTA
100
AcDbLine
 10
307.05795554957734
 20
223.80447085729384
 30
0.0
 11
307.06
 21
223.82
 31
0.0
  0
LINE
  5
143
330
17
100
AcDbEntity
  8
OCULTA
100
AcDbLine
 10
307.06
 20
223.82
 30
0.0
 11
307.05795554957734
 21
223.83552914270612
 31
0.0
  0
LINE
  5
144
330
17
100
AcDbEntity
  8
OCULTA
100
AcDbLine
 10
307.05795554957734
 20
223.83552914270612
 30
0.0
 11
307.05196152422707
 21
223.85
 31
0.0
  0
LINE
  5
145
330
17
100
AcDbEntity
  8
OCULTA
100
AcDbLine
 10
307.05196152422707
 20
223.85
 30
0.0
 11
307.0424264068712
 21
223.86242640687118
 31
0.0
  0
LINE
  5
146
330
17
100
AcDbEntity
  8
OCULTA
100
AcDbLine
 10
307.0424264068712
 20
223.86242640687118
 30
0.0
 11
307.03
 21
223.87196152422706
 31
0.0
  0
LINE
  5
147
330
17
100
AcDbEntity
  8
OCULTA
100
AcDbLine
 10
307.03
 20
223.87196152422706
 30
0.0
 11
307.01552914270616
 21
223.87795554957734
 31
0.0
  0
LINE
  5
148
330
17
100
AcDbEntity
  8
OCULTA
100
AcDbLine
 10
307.01552914270616
 20
223.87795554957734
 30
0.0
 11
307.0
 21
223.88
 31
0.0
  0
LINE
  5
149
330
17
100
AcDbEntity
  8
OCULTA
100
AcDbLine
 10
307.0
 20
223.88
 30
0.0
 11
306.98447085729384
 21
223.87795554957734
 31
0.0
  0
LINE
  5
14A
330
17
100
AcDbEntity
  8
OCULTA
100
AcDbLine
 10
306.98447085729384
 20
223.87795554957734
 30
0.0
 11
306.97
 21
223.87196152422706
 31
0.0
  0
LINE
  5
14B
330
17
100
AcDbEntity
  8
OCULTA
100
AcDbLine
 10
306.97
 20
223.87196152422706
 30
0.0
 11
306.9575735931288
 21
223.86242640687118
 31
0.0
  0
LINE
  5
14C
330
17
100
AcDbEntity
  8
OCULTA
100
AcDbLine
 10
306.9575735931288
 20
223.86242640687118
 30
0.0
 11
306.94803847577293
 21
223.85
 31
0.0
  0
LINE
  5
14D
330
17
100
AcDbEntity
  8
OCULTA
100
AcDbLine
 10
306.94803847577293
 20
223.85
 30
0.0
 11
306.94204445042266
 21
223.83552914270612
 31
0.0
  0
LINE
  5
14E
330
17
100
AcDbEntity
  8
OCULTA
100
AcDbLine
 10
306.94204445042266
 20
223.83552914270612
 30
0.0
 11
306.94
 21
223.82
 31
0.0
  0
LINE
  5
14F
330
17
100
AcDbEntity
  8
OCULTA
100
AcDbLine
 10
306.94
 20
223.82
 30
0.0
 11
306.94204445042266
 21
223.80447085729384
 31
0.0
  0
LINE
  5
150
330
17
100
AcDbEntity
  8
OCULTA
100
AcDbLine
 10
306.94204445042266
 20
223.80447085729384
 30
0.0
 11
306.94803847577293
 21
223.79
 31
0.0
  0
LINE
  5
151
330
17
100
AcDbEntity
  8
OCULTA
100
AcDbLine
 10
306.94803847577293
 20
223.79
 30
0.0
 11
306.9575735931288
 21
223.77757359312878
 31
0.0
  0
LINE
  5
152
330
17
100
AcDbEntity
  8
OCULTA
100
AcDbLine
 10
306.9575735931288
 20
223.77757359312878
 30
0.0
 11
306.97
 21
223.76803847577293
 31
0.0
  0
LINE
  5
153
330
17
100
AcDbEntity
  8
OCULTA
100
AcDbLine
 10
306.97
 20
223.76803847577293
 30
0.0
 11
306.98447085729384
 21
223.76204445042265
 31
0.0
  0
LINE
  5
154
330
17
100
AcDbEntity
  8
OCULTA
100
AcDbLine
 10
306.98447085729384
 20
223.76204445042265
 30
0.0
 11
307.0
 21
223.76
 31
0.0
  0
LINE
  5
155
330
17
100
AcDbEntity
  8
OCULTA
100
AcDbLine
 10
307.0
 20
230.73999999999998
 30
0.0
 11
307.01552914270616
 21
230.74204445042264
 31
0.0
  0
LINE
  5
156
330
17
100
AcDbEntity
  8
OCULTA
100
AcDbLine
 10
307.01552914270616
 20
230.74204445042264
 30
0.0
 11
307.03
 21
230.74803847577292
 31
0.0
  0
LINE
  5
157
330
17
100
AcDbEntity
  8
OCULTA
100
AcDbLine
 10
307.03
 20
230.74803847577292
 30
0.0
 11
307.0424264068712
 21
230.7575735931288
 31
0.0
  0
LINE
  5
158
330
17
100
AcDbEntity
  8
OCULTA
100
AcDbLine
 10
307.0424264068712
 20
230.7575735931288
 30
0.0
 11
307.05196152422707
 21
230.76999999999998
 31
0.0
  0
LINE
  5
159
330
17
100
AcDbEntity
  8
OCULTA
100
AcDbLine
 10
307.05196152422707
 20
230.76999999999998
 30
0.0
 11
307.05795554957734
 21
230.78447085729383
 31
0.0
  0
LINE
  5
15A
330
17
100
AcDbEntity
  8
OCULTA
100
AcDbLine
 10
307.05795554957734
 20
230.78447085729383
 30
0.0
 11
307.06
 21
230.79999999999998
 31
0.0
  0
LINE
  5
15B
330
17
100
AcDbEntity
  8
OCULTA
100
AcDbLine
 10
307.06
 20
230.79999999999998
 30
0.0
 11
307.05795554957734
 21
230.81552914270614
 31
0.0
  0
LINE
  5
15C
330
17
100
AcDbEntity
  8
OCULTA
100
AcDbLine
 10
307.05795554957734
 20
230.81552914270614
 30
0.0
 11
307.05196152422707
 21
230.82999999999998
 31
0.0
  0
LINE
  5
15D
330
17
100
AcDbEntity
  8
OCULTA
100
AcDbLine
 10
307.05196152422707
 20
230.82999999999998
 30
0.0
 11
307.0424264068712
 21
230.84242640687117
 31
0.0
  0
LINE
  5
15E
330
17
100
AcDbEntity
  8
OCULTA
100
AcDbLine
 10
307.0424264068712
 20
230.84242640687117
 30
0.0
 11
307.03
 21
230.85196152422705
 31
0.0
  0
LINE
  5
15F
330
17
100
AcDbEntity
  8
OCULTA
100
AcDbLine
 10
307.03
 20
230.85196152422705
 30
0.0
 11
307.01552914270616
 21
230.85795554957733
 31
0.0
  0
LINE
  5
160
330
17
100
AcDbEntity
  8
OCULTA
100
AcDbLine
 10
307.01552914270616
 20
230.85795554957733
 30
0.0
 11
307.0
 21
230.85999999999999
 31
0.0
  0
LINE
  5
161
330
17
100
AcDbEntity
  8
OCULTA
100
AcDbLine
 10
307.0
 20
230.85999999999999
 30
0.0
 11
306.98447085729384
 21
230.85795554957733
 31
0.0
  0
LINE
  5
162
330
17
100
AcDbEntity
  8
OCULTA
100
AcDbLine
 10
306.98447085729384
 20
230.85795554957733
 30
0.0
 11
306.97
 21
230.85196152422705
 31
0.0
  0
LINE
  5
163
330
17
100
AcDbEntity
  8
OCULTA
100
AcDbLine
 10
306.97
 20
230.85196152422705
 30
0.0
 11
306.9575735931288
 21
230.84242640687117
 31
0.0
  0
LINE
  5
164
330
17
100
AcDbEntity
  8
OCULTA
100
AcDbLine
 10
306.9575735931288
 20
230.84242640687117
 30
0.0
 11
306.94803847577293
 21
230.82999999999998
 31
0.0
  0
LINE
  5
165
330
17
100
AcDbEntity
  8
OCULTA
100
AcDbLine
 10
306.94803847577293
 20
230.82999999999998
 30
0.0
 11
306.94204445042266
 21
230.81552914270614
 31
0.0
  0
LINE
  5
166
330
17
100
AcDbEntity
  8
OCULTA
100
AcDbLine
 10
306.94204445042266
 20
230.81552914270614
 30
0.0
 11
306.94
 21
230.79999999999998
 31
0.0
  0
LINE
  5
167
330
17
100
AcDbEntity
  8
OCULTA
100
AcDbLine
 10
306.94
 20
230.79999999999998
 30
0.0
 11
306.94204445042266
 21
230.78447085729383
 31
0.0
  0
LINE
  5
168
330
17
100
AcDbEntity
  8
OCULTA
100
AcDbLine
 10
306.94204445042266
 20
230.78447085729383
 30
0.0
 11
306.94803847577293
 21
230.76999999999998
 31
0.0
  0
LINE
  5
169
330
17
100
AcDbEntity
  8
OCULTA
100
AcDbLine
 10
306.94803847577293
 20
230.76999999999998
 30
0.0
 11
306.9575735931288
 21
230.7575735931288
 31
0.0
  0
LINE
  5
16A
330
17
100
AcDbEntity
  8
OCULTA
100
AcDbLine
 10
306.9575735931288
 20
230.7575735931288
 30
0.0
 11
306.97
 21
230.74803847577292
 31
0.0
  0
LINE
  5
16B
330
17
100
AcDbEntity
  8
OCULTA
100
AcDbLine
 10
306.97
 20
230.74803847577292
 30
0.0
 11
306.98447085729384
 21
230.74204445042264
 31
0.0
  0
LINE
  5
16C
330
17
100
AcDbEntity
  8
OCULTA
100
AcDbLine
 10
306.98447085729384
 20
230.74204445042264
 30
0.0
 11
307.0
 21
230.73999999999998
 31
0.0
  0
LINE
  5
16D
330
17
100
AcDbEntity
  8
OCULTA
100
AcDbLine
 10
307.0
 20
231.33999999999997
 30
0.0
 11
307.01552914270616
 21
231.34204445042263
 31
0.0
  0
LINE
  5
16E
330
17
100
AcDbEntity
  8
OCULTA
100
AcDbLine
 10
307.01552914270616
 20
231.34204445042263
 30
0.0
 11
307.03
 21
231.3480384757729
 31
0.0
  0
LINE
  5
16F
330
17
100
AcDbEntity
  8
OCULTA
100
AcDbLine
 10
307.03
 20
231.3480384757729
 30
0.0
 11
307.0424264068712
 21
231.3575735931288
 31
0.0
  0
LINE
  5
170
330
17
100
AcDbEntity
  8
OCULTA
100
AcDbLine
 10
307.0424264068712
 20
231.3575735931288
 30
0.0
 11
307.05196152422707
 21
231.36999999999998
 31
0.0
  0
LINE
  5
171
330
17
100
AcDbEntity
  8
OCULTA
100
AcDbLine
 10
307.05196152422707
 20
231.36999999999998
 30
0.0
 11
307.05795554957734
 21
231.38447085729382
 31
0.0
  0
LINE
  5
172
330
17
100
AcDbEntity
  8
OCULTA
100
AcDbLine
 10
307.05795554957734
 20
231.38447085729382
 30
0.0
 11
307.06
 21
231.39999999999998
 31
0.0
  0
LINE
  5
173
330
17
100
AcDbEntity
  8
OCULTA
100
AcDbLine
 10
307.06
 20
231.39999999999998
 30
0.0
 11
307.05795554957734
 21
231.41552914270613
 31
0.0
  0
LINE
  5
174
330
17
100
AcDbEntity
  8
OCULTA
100
AcDbLine
 10
307.05795554957734
 20
231.41552914270613
 30
0.0
 11
307.05196152422707
 21
231.42999999999998
 31
0.0
  0
LINE
  5
175
330
17
100
AcDbEntity
  8
OCULTA
100
AcDbLine
 10
307.05196152422707
 20
231.42999999999998
 30
0.0
 11
307.0424264068712
 21
231.44242640687116
 31
0.0
  0
LINE
  5
176
330
17
100
AcDbEntity
  8
OCULTA
100
AcDbLine
 10
307.0424264068712
 20
231.44242640687116
 30
0.0
 11
307.03
 21
231.45196152422704
 31
0.0
  0
LINE
  5
177
330
17
100
AcDbEntity
  8
OCULTA
100
AcDbLine
 10
307.03
 20
231.45196152422704
 30
0.0
 11
307.01552914270616
 21
231.45795554957732
 31
0.0
  0
LINE
  5
178
330
17
100
AcDbEntity
  8
OCULTA
100
AcDbLine
 10
307.01552914270616
 20
231.45795554957732
 30
0.0
 11
307.0
 21
231.45999999999998
 31
0.0
  0
LINE
  5
179
330
17
100
AcDbEntity
  8
OCULTA
100
AcDbLine
 10
307.0
 20
231.45999999999998
 30
0.0
 11
306.98447085729384
 21
231.45795554957732
 31
0.0
  0
LINE
  5
17A
330
17
100
AcDbEntity
  8
OCULTA
100
AcDbLine
 10
306.98447085729384
 20
231.45795554957732
 30
0.0
 11
306.97
 21
231.45196152422704
 31
0.0
  0
LINE
  5
17B
330
17
100
AcDbEntity
  8
OCULTA
100
AcDbLine
 10
306.97
 20
231.45196152422704
 30
0.0
 11
306.9575735931288
 21
231.44242640687116
 31
0.0
  0
LINE
  5
17C
330
17
100
AcDbEntity
  8
OCULTA
100
AcDbLine
 10
306.9575735931288
 20
231.44242640687116
 30
0.0
 11
306.94803847577293
 21
231.42999999999998
 31
0.0
  0
LINE
  5
17D
330
17
100
AcDbEntity
  8
OCULTA
100
AcDbLine
 10
306.94803847577293
 20
231.42999999999998
 30
0.0
 11
306.94204445042266
 21
231.41552914270613
 31
0.0
  0
LINE
  5
17E
330
17
100
AcDbEntity
  8
OCULTA
100
AcDbLine
 10
306.94204445042266
 20
231.41552914270613
 30
0.0
 11
306.94
 21
231.39999999999998
 31
0.0
  0
LINE
  5
17F
330
17
100
AcDbEntity
  8
OCULTA
100
AcDbLine
 10
306.94
 20
231.39999999999998
 30
0.0
 11
306.94204445042266
 21
231.38447085729382
 31
0.0
  0
LINE
  5
180
330
17
100
AcDbEntity
  8
OCULTA
100
AcDbLine
 10
306.94204445042266
 20
231.38447085729382
 30
0.0
 11
306.94803847577293
 21
231.36999999999998
 31
0.0
  0
LINE
  5
181
330
17
100
AcDbEntity
  8
OCULTA
100
AcDbLine
 10
306.94803847577293
 20
231.36999999999998
 30
0.0
 11
306.9575735931288
 21
231.3575735931288
 31
0.0
  0
LINE
  5
182
330
17
100
AcDbEntity
  8
OCULTA
100
AcDbLine
 10
306.9575735931288
 20
231.3575735931288
 30
0.0
 11
306.97
 21
231.3480384757729
 31
0.0
  0
LINE
  5
183
330
17
100
AcDbEntity
  8
OCULTA
100
AcDbLine
 10
306.97
 20
231.3480384757729
 30
0.0
 11
306.98447085729384
 21
231.34204445042263
 31
0.0
  0
LINE
  5
184
330
17
100
AcDbEntity
  8
OCULTA
100
AcDbLine
 10
306.98447085729384
 20
231.34204445042263
 30
0.0
 11
307.0
 21
231.33999999999997
 31
0.0
  0
LINE
  5
185
330
17
100
AcDbEntity
  8
COTAS
100
AcDbLine
 10
306.3
 20
180.29999999999998
 30
0.0
 11
306.3
 21
172.29999999999998
 31
0.0
  0
LINE
  5
186
330
17
100
AcDbEntity
  8
COTAS
100
AcDbLine
 10
307.7
 20
180.29999999999998
 30
0.0
 11
307.7
 21
172.29999999999998
 31
0.0
  0
LINE
  5
187
330
17
100
AcDbEntity
  8
COTAS
100
AcDbLine
 10
306.3
 20
173.79999999999998
 30
0.0
 11
307.7
 21
173.79999999999998
 31
0.0
  0
LINE
  5
188
330
17
100
AcDbEntity
  8
COTAS
100
AcDbLine
 10
305.1
 20
172.6
 30
0.0
 11
307.5
 21
174.99999999999997
 31
0.0
  0
LINE
  5
189
330
17
100
AcDbEntity
  8
COTAS
100
AcDbLine
 10
306.5
 20
172.6
 30
0.0
 11
308.9
 21
174.99999999999997
 31
0.0
  0
LINE
  5
18A
330
17
100
AcDbEntity
  8
COTAS
100
AcDbLine
 10
304.8
 20
181.79999999999998
 30
0.0
 11
296.8
 21
181.79999999999998
 31
0.0
  0
LINE
  5
18B
330
17
100
AcDbEntity
  8
COTAS
100
AcDbLine
 10
304.8
 20
231.79999999999998
 30
0.0
 11
296.8
 21
231.79999999999998
 31
0.0
  0
LINE
  5
18C
330
17
100
AcDbEntity
  8
COTAS
100
AcDbLine
 10
298.3
 20
181.79999999999998
 30
0.0
 11
298.3
 21
231.79999999999998
 31
0.0
  0
LINE
  5
18D
330
17
100
AcDbEntity
  8
COTAS
100
AcDbLine
 10
297.1
 20
180.6
 30
0.0
 11
299.5
 21
182.99999999999997
 31
0.0
  0
LINE
  5
18E
330
17
100
AcDbEntity
  8
COTAS
100
AcDbLine
 10
297.1
 20
230.6
 30
0.0
 11
299.5
 21
232.99999999999997
 31
0.0
  0
LINE
  5
18F
330
17
100
AcDbEntity
  8
VISIBLE
100
AcDbLine
 10
112.3
 20
84.2
 30
0.0
 11
112.3
 21
85.60000000000001
 31
0.0
  0
LINE
  5
190
330
17
100
AcDbEntity
  8
VISIBLE
100
AcDbLine
 10
112.3
 20
84.2
 30
0.0
 11
113.7
 21
84.2
 31
0.0
  0
LINE
  5
191
330
17
100
AcDbEntity
  8
VISIBLE
100
AcDbLine
 10
112.3
 20
85.60000000000001
 30
0.0
 11
113.7
 21
85.60000000000001
 31
0.0
  0
LINE
  5
192
330
17
100
AcDbEntity
  8
VISIBLE
100
AcDbLine
 10
113.7
 20
84.2
 30
0.0
 11
113.7
 21
85.60000000000001
 31
0.0
  0
LINE
  5
193
330
17
100
AcDbEntity
  8
OCULTA
100
AcDbLine
 10
112.3
 20
84.2
 30
0.0
 11
112.3
 21
85.60000000000001
 31
0.0
  0
LINE
  5
194
330
17
100
AcDbEntity
  8
OCULTA
100
AcDbLine
 10
112.3
 20
84.9
 30
0.0
 11
112.3
 21
84.96000000000001
 31
0.0
  0
LINE
  5
195
330
17
100
AcDbEntity
  8
OCULTA
100
AcDbLine
 10
112.3
 20
84.96000000000001
 30
0.0
 11
112.3
 21
84.84
 31
0.0
  0
LINE
  5
196
330
17
100
AcDbEntity
  8
OCULTA
100
AcDbLine
 10
112.3
 20
84.84
 30
0.0
 11
112.3
 21
84.9
 31
0.0
  0
LINE
  5
197
330
17
100
AcDbEntity
  8
OCULTA
100
AcDbLine
 10
112.3
 20
84.9
 30
0.0
 11
112.3
 21
84.96000000000001
 31
0.0
  0
LINE
  5
198
330
17
100
AcDbEntity
  8
OCULTA
100
AcDbLine
 10
112.3
 20
84.96000000000001
 30
0.0
 11
112.3
 21
84.84
 31
0.0
  0
LINE
  5
199
330
17
100
AcDbEntity
  8
OCULTA
100
AcDbLine
 10
112.3
 20
84.84
 30
0.0
 11
112.3
 21
84.9
 31
0.0
  0
LINE
  5
19A
330
17
100
AcDbEntity
  8
OCULTA
100
AcDbLine
 10
112.3
 20
84.9
 30
0.0
 11
112.3
 21
84.96000000000001
 31
0.0
  0
LINE
  5
19B
330
17
100
AcDbEntity
  8
OCULTA
100
AcDbLine
 10
112.3
 20
84.96000000000001
 30
0.0
 11
112.3
 21
84.84
 31
0.0
  0
LINE
  5
19C
330
17
100
AcDbEntity
  8
OCULTA
100
AcDbLine
 10
112.3
 20
84.84
 30
0.0
 11
112.3
 21
84.9
 31
0.0
  0
LINE
  5
19D
330
17
100
AcDbEntity
  8
OCULTA
100
AcDbLine
 10
112.3
 20
84.9
 30
0.0
 11
112.3
 21
84.96000000000001
 31
0.0
  0
LINE
  5
19E
330
17
100
AcDbEntity
  8
OCULTA
100
AcDbLine
 10
112.3
 20
84.96000000000001
 30
0.0
 11
112.3
 21
84.84
 31
0.0
  0
LINE
  5
19F
330
17
100
AcDbEntity
  8
OCULTA
100
AcDbLine
 10
112.3
 20
84.84
 30
0.0
 11
112.3
 21
84.9
 31
0.0
  0
LINE
  5
1A0
330
17
100
AcDbEntity
  8
OCULTA
100
AcDbLine
 10
112.3
 20
84.2
 30
0.0
 11
113.7
 21
84.2
 31
0.0
  0
LINE
  5
1A1
330
17
100
AcDbEntity
  8
OCULTA
100
AcDbLine
 10
112.3
 20
85.60000000000001
 30
0.0
 11
113.7
 21
85.60000000000001
 31
0.0
  0
LINE
  5
1A2
330
17
100
AcDbEntity
  8
OCULTA
100
AcDbLine
 10
113.7
 20
84.2
 30
0.0
 11
113.7
 21
85.60000000000001
 31
0.0
  0
LINE
  5
1A3
330
17
100
AcDbEntity
  8
OCULTA
100
AcDbLine
 10
113.7
 20
84.9
 30
0.0
 11
113.7
 21
84.96000000000001
 31
0.0
  0
LINE
  5
1A4
330
17
100
AcDbEntity
  8
OCULTA
100
AcDbLine
 10
113.7
 20
84.96000000000001
 30
0.0
 11
113.7
 21
84.84
 31
0.0
  0
LINE
  5
1A5
330
17
100
AcDbEntity
  8
OCULTA
100
AcDbLine
 10
113.7
 20
84.84
 30
0.0
 11
113.7
 21
84.9
 31
0.0
  0
LINE
  5
1A6
330
17
100
AcDbEntity
  8
OCULTA
100
AcDbLine
 10
113.7
 20
84.9
 30
0.0
 11
113.7
 21
84.96000000000001
 31
0.0
  0
LINE
  5
1A7
330
17
100
AcDbEntity
  8
OCULTA
100
AcDbLine
 10
113.7
 20
84.96000000000001
 30
0.0
 11
113.7
 21
84.84
 31
0.0
  0
LINE
  5
1A8
330
17
100
AcDbEntity
  8
OCULTA
100
AcDbLine
 10
113.7
 20
84.84
 30
0.0
 11
113.7
 21
84.9
 31
0.0
  0
LINE
  5
1A9
330
17
100
AcDbEntity
  8
OCULTA
100
AcDbLine
 10
113.7
 20
84.9
 30
0.0
 11
113.7
 21
84.96000000000001
 31
0.0
  0
LINE
  5
1AA
330
17
100
AcDbEntity
  8
OCULTA
100
AcDbLine
 10
113.7
 20
84.96000000000001
 30
0.0
 11
113.7
 21
84.84
 31
0.0
  0
LINE
  5
1AB
330
17
100
AcDbEntity
  8
OCULTA
100
AcDbLine
 10
113.7
 20
84.84
 30
0.0
 11
113.7
 21
84.9
 31
0.0
  0
LINE
  5
1AC
330
17
100
AcDbEntity
  8
OCULTA
100
AcDbLine
 10
113.7
 20
84.9
 30
0.0
 11
113.7
 21
84.96000000000001
 31
0.0
  0
LINE
  5
1AD
330
17
100
AcDbEntity
  8
OCULTA
100
AcDbLine
 10
113.7
 20
84.96000000000001
 30
0.0
 11
113.7
 21
84.84
 31
0.0
  0
LINE
  5
1AE
330
17
100
AcDbEntity
  8
OCULTA
100
AcDbLine
 10
113.7
 20
84.84
 30
0.0
 11
113.7
 21
84.9
 31
0.0
  0
LINE
  5
1AF
330
17
100
AcDbEntity
  8
OCULTA
100
AcDbLine
 10
112.3
 20
84.84
 30
0.0
 11
113.7
 21
84.84
 31
0.0
  0
LINE
  5
1B0
330
17
100
AcDbEntity
  8
OCULTA
100
AcDbLine
 10
112.3
 20
84.96000000000001
 30
0.0
 11
113.7
 21
84.96000000000001
 31
0.0
  0
LINE
  5
1B1
330
17
100
AcDbEntity
  8
OCULTA
100
AcDbLine
 10
112.3
 20
84.84
 30
0.0
 11
113.7
 21
84.84
 31
0.0
  0
LINE
  5
1B2
330
17
100
AcDbEntity
  8
OCULTA
100
AcDbLine
 10
112.3
 20
84.96000000000001
 30
0.0
 11
113.7
 21
84.96000000000001
 31
0.0
  0
LINE
  5
1B3
330
17
100
AcDbEntity
  8
OCULTA
100
AcDbLine
 10
112.3
 20
84.84
 30
0.0
 11
113.7
 21
84.84
 31
0.0
  0
LINE
  5
1B4
330
17
100
AcDbEntity
  8
OCULTA
100
AcDbLine
 10
112.3
 20
84.96000000000001
 30
0.0
 11
113.7
 21
84.96000000000001
 31
0.0
  0
LINE
  5
1B5
330
17
100
AcDbEntity
  8
OCULTA
100
AcDbLine
 10
112.3
 20
84.84
 30
0.0
 11
113.7
 21
84.84
 31
0.0
  0
LINE
  5
1B6
330
17
100
AcDbEntity
  8
OCULTA
100
AcDbLine
 10
112.3
 20
84.96000000000001
 30
0.0
 11
113.7
 21
84.96000000000001
 31
0.0
  0
LINE
  5
1B7
330
17
100
AcDbEntity
  8
COTAS
100
AcDbLine
 10
112.3
 20
82.7
 30
0.0
 11
112.3
 21
74.7
 31
0.0
  0
LINE
  5
1B8
330
17
100
AcDbEntity
  8
COTAS
100
AcDbLine
 10
113.7
 20
82.7
 30
0.0
 11
113.7
 21
74.7
 31
0.0
  0
LINE
  5
1B9
330
17
100
AcDbEntity
  8
COTAS
100
AcDbLine
 10
112.3
 20
76.2
 30
0.0
 11
113.7
 21
76.2
 31
0.0
  0
LINE
  5
1BA
330
17
100
AcDbEntity
  8
COTAS
100
AcDbLine
 10
111.1
 20
75.0
 30
0.0
 11
113.5
 21
77.4
 31
0.0
  0
LINE
  5
1BB
330
17
100
AcDbEntity
  8
COTAS
100
AcDbLine
 10
112.5
 20
75.0
 30
0.0
 11
114.9
 21
77.4
 31
0.0
  0
LINE
  5
1BC
330
17
100
AcDbEntity
  8
COTAS
100
AcDbLine
 10
110.8
 20
84.2
 30
0.0
 11
102.8
 21
84.2
 31
0.0
  0
LINE
  5
1BD
330
17
100
AcDbEntity
  8
COTAS
100
AcDbLine
 10
110.8
 20
85.60000000000001
 30
0.0
 11
102.8
 21
85.60000000000001
 31
0.0
  0
LINE
  5
1BE
330
17
100
AcDbEntity
  8
COTAS
100
AcDbLine
 10
104.3
 20
84.2
 30
0.0
 11
104.3
 21
85.60000000000001
 31
0.0
  0
LINE
  5
1BF
330
17
100
AcDbEntity
  8
COTAS
100
AcDbLine
 10
103.1
 20
83.0
 30
0.0
 11
105.5
 21
85.4
 31
0.0
  0
LINE
  5
1C0
330
17
100
AcDbEntity
  8
COTAS
100
AcDbLine
 10
103.1
 20
84.4
 30
0.0
 11
105.5
 21
86.80000000000001
 31
0.0
  0
LINE
  5
1C1
330
17
100
AcDbEntity
  8
COTAS
100
AcDbLine
 10
112.3
 20
91.10000000000001
 30
0.0
 11
113.7
 21
91.10000000000001
 31
0.0
  0
LINE
  5
1C2
330
17
100
AcDbEntity
  8
COTAS
100
AcDbLine
 10
112.3
 20
89.60000000000001
 30
0.0
 11
112.3
 21
92.60000000000001
 31
0.0
  0
LINE
  5
1C3
330
17
100
AcDbEntity
  8
COTAS
100
AcDbLine
 10
113.7
 20
89.60000000000001
 30
0.0
 11
113.7
 21
92.60000000000001
 31
0.0
  0
LINE
  5
1C4
330
17
100
AcDbEntity
  8
COTAS
100
AcDbLine
 10
111.1
 20
89.9
 30
0.0
 11
113.5
 21
92.30000000000001
 31
0.0
  0
LINE
  5
1C5
330
17
100
AcDbEntity
  8
COTAS
100
AcDbLine
 10
112.5
 20
89.9
 30
0.0
 11
114.9
 21
92.30000000000001
 31
0.0
  0
LINE
  5
1C6
330
17
100
AcDbEntity
  8
VISIBLE
100
AcDbLine
 10
305.02763222535333
 20
46.84612676056338
 30
0.0
 11
305.02763222535333
 21
133.55387323943663
 31
0.0
  0
LINE
  5
1C7
330
17
100
AcDbEntity
  8
VISIBLE
100
AcDbLine
 10
305.02763222535333
 20
133.55387323943663
 30
0.0
 11
307.0
 21
134.525
 31
0.0
  0
LINE
  5
1C8
330
17
100
AcDbEntity
  8
VISIBLE
100
AcDbLine
 10
305.02763222535333
 20
46.84612676056338
 30
0.0
 11
307.0
 21
45.875
 31
0.0
  0
LINE
  5
1C9
330
17
100
AcDbEntity
  8
VISIBLE
100
AcDbLine
 10
307.0
 20
45.87500000000001
 30
0.0
 11
307.0
 21
132.58274647887325
 31
0.0
  0
LINE
  5
1CA
330
17
100
AcDbEntity
  8
VISIBLE
100
AcDbLine
 10
305.02763222535333
 20
133.55387323943663
 30
0.0
 11
307.0
 21
132.58274647887325
 31
0.0
  0
LINE
  5
1CB
330
17
100
AcDbEntity
  8
VISIBLE
100
AcDbLine
 10
307.0
 20
134.525
 30
0.0
 11
308.97236777464667
 21
133.5538732394366
 31
0.0
  0
LINE
  5
1CC
330
17
100
AcDbEntity
  8
VISIBLE
100
AcDbLine
 10
307.0
 20
132.58274647887325
 30
0.0
 11
308.97236777464667
 21
133.55387323943663
 31
0.0
  0
LINE
  5
1CD
330
17
100
AcDbEntity
  8
VISIBLE
100
AcDbLine
 10
307.0
 20
45.87500000000001
 30
0.0
 11
308.97236777464667
 21
46.84612676056339
 31
0.0
  0
LINE
  5
1CE
330
17
100
AcDbEntity
  8
VISIBLE
100
AcDbLine
 10
308.97236777464667
 20
46.84612676056338
 30
0.0
 11
308.97236777464667
 21
133.55387323943663
 31
0.0
  0
LINE
  5
1CF
330
17
100
AcDbEntity
  8
VISIBLE
100
AcDbLine
 10
307.9861838873233
 20
118.08521126760564
 30
0.0
 11
307.9953736264856
 21
118.09035269418897
 31
0.0
  0
LINE
  5
1D0
330
17
100
AcDbEntity
  8
VISIBLE
100
AcDbLine
 10
307.9953736264856
 20
118.09035269418897
 30
0.0
 11
308.0040333621914
 21
118.09634592527165
 31
0.0
  0
LINE
  5
1D1
330
17
100
AcDbEntity
  8
VISIBLE
100
AcDbLine
 10
308.0040333621914
 20
118.09634592527165
 30
0.0
 11
308.01216463104635
 21
118.10303981971545
 31
0.0
  0
LINE
  5
1D2
330
17
100
AcDbEntity
  8
VISIBLE
100
AcDbLine
 10
308.01216463104635
 20
118.10303981971545
 30
0.0
 11
308.01977620542107
 21
118.11031995192417
 31
0.0
  0
LINE
  5
1D3
330
17
100
AcDbEntity
  8
VISIBLE
100
AcDbLine
 10
308.01977620542107
 20
118.11031995192417
 30
0.0
 11
308.0268780439832
 21
118.1180986080121
 31
0.0
  0
LINE
  5
1D4
330
17
100
AcDbEntity
  8
VISIBLE
100
AcDbLine
 10
308.0268780439832
 20
118.1180986080121
 30
0.0
 11
308.03347833224024
 21
118.12630742711985
 31
0.0
  0
LINE
  5
1D5
330
17
100
AcDbEntity
  8
VISIBLE
100
AcDbLine
 10
308.03347833224024
 20
118.12630742711985
 30
0.0
 11
308.03958201240596
 21
118.13489211730366
 31
0.0
  0
LINE
  5
1D6
330
17
100
AcDbEntity
  8
VISIBLE
100
AcDbLine
 10
308.03958201240596
 20
118.13489211730366
 30
0.0
 11
308.04518998990034
 21
118.14380864731257
 31
0.0
  0
LINE
  5
1D7
330
17
100
AcDbEntity
  8
VISIBLE
100
AcDbLine
 10
308.04518998990034
 20
118.14380864731257
 30
0.0
 11
308.05029860021807
 21
118.15302044224492
 31
0.0
  0
LINE
  5
1D8
330
17
100
AcDbEntity
  8
VISIBLE
100
AcDbLine
 10
308.05029860021807
 20
118.15302044224492
 30
0.0
 11
308.0548991120276
 21
118.162496236278
 31
0.0
  0
LINE
  5
1D9
330
17
100
AcDbEntity
  8
VISIBLE
100
AcDbLine
 10
308.0548991120276
 20
118.162496236278
 30
0.0
 11
308.0589771309967
 21
118.17220832475547
 31
0.0
  0
LINE
  5
1DA
330
17
100
AcDbEntity
  8
VISIBLE
100
AcDbLine
 10
308.0589771309967
 20
118.17220832475547
 30
0.0
 11
308.06251180399795
 21
118.18213100887964
 31
0.0
  0
LINE
  5
1DB
330
17
100
AcDbEntity
  8
VISIBLE
100
AcDbLine
 10
308.06251180399795
 20
118.18213100887964
 30
0.0
 11
308.06547472913724
 21
118.19223904161501
 31
0.0
  0
LINE
  5
1DC
330
17
100
AcDbEntity
  8
VISIBLE
100
AcDbLine
 10
308.06547472913724
 20
118.19223904161501
 30
0.0
 11
308.0678284655994
 21
118.20250586128404
 31
0.0
  0
LINE
  5
1DD
330
17
100
AcDbEntity
  8
VISIBLE
100
AcDbLine
 10
308.0678284655994
 20
118.20250586128404
 30
0.0
 11
308.0695245174787
 21
118.21290132916555
 31
0.0
  0
LINE
  5
1DE
330
17
100
AcDbEntity
  8
VISIBLE
100
AcDbLine
 10
308.0695245174787
 20
118.21290132916555
 30
0.0
 11
308.0705006525457
 21
118.2233885453926
 31
0.0
  0
LINE
  5
1DF
330
17
100
AcDbEntity
  8
VISIBLE
100
AcDbLine
 10
308.0705006525457
 20
118.2233885453926
 30
0.0
 11
308.0706774497978
 21
118.23391906091943
 31
0.0
  0
LINE
  5
1E0
330
17
100
AcDbEntity
  8
VISIBLE
100
AcDbLine
 10
308.0706774497978
 20
118.23391906091943
 30
0.0
 11
308.0699541578326
 21
118.24442537059973
 31
0.0
  0
LINE
  5
1E1
330
17
100
AcDbEntity
  8
VISIBLE
100
AcDbLine
 10
308.0699541578326
 20
118.24442537059973
 30
0.0
 11
308.0682045783905
 21
118.25480892296835
 31
0.0
  0
LINE
  5
1E2
330
17
100
AcDbEntity
  8
VISIBLE
100
AcDbLine
 10
308.0682045783905
 20
118.25480892296835
 30
0.0
 11
308.06527546594543
 21
118.26492121490558
 31
0.0
  0
LINE
  5
1E3
330
17
100
AcDbEntity
  8
VISIBLE
100
AcDbLine
 10
308.06527546594543
 20
118.26492121490558
 30
0.0
 11
308.0609942314308
 21
118.27453611889524
 31
0.0
  0
LINE
  5
1E4
330
17
100
AcDbEntity
  8
VISIBLE
100
AcDbLine
 10
308.0609942314308
 20
118.27453611889524
 30
0.0
 11
308.0552006813933
 21
118.28331793305036
 31
0.0
  0
LINE
  5
1E5
330
17
100
AcDbEntity
  8
VISIBLE
100
AcDbLine
 10
308.0552006813933
 20
118.28331793305036
 30
0.0
 11
308.04782281735163
 21
118.29081097303863
 31
0.0
  0
LINE
  5
1E6
330
17
100
AcDbEntity
  8
VISIBLE
100
AcDbLine
 10
308.04782281735163
 20
118.29081097303863
 30
0.0
 11
308.03898938935663
 21
118.29650904500402
 31
0.0
  0
LINE
  5
1E7
330
17
100
AcDbEntity
  8
VISIBLE
100
AcDbLine
 10
308.03898938935663
 20
118.29650904500402
 30
0.0
 11
308.0268504966501
 21
118.30050040684172
 31
0.0
  0
LINE
  5
1E8
330
17
100
AcDbEntity
  8
VISIBLE
100
AcDbLine
 10
308.0268504966501
 20
118.30050040684172
 30
0.0
 11
308.0140829097693
 21
118.30121587633786
 31
0.0
  0
LINE
  5
1E9
330
17
100
AcDbEntity
  8
VISIBLE
100
AcDbLine
 10
308.0140829097693
 20
118.30121587633786
 30
0.0
 11
308.00145787647483
 21
118.29911755267354
 31
0.0
  0
LINE
  5
1EA
330
17
100
AcDbEntity
  8
VISIBLE
100
AcDbLine
 10
308.00145787647483
 20
118.29911755267354
 30
0.0
 11
307.9893961234094
 21
118.29481629972777
 31
0.0
  0
LINE
  5
1EB
330
17
100
AcDbEntity
  8
VISIBLE
100
AcDbLine
 10
307.9893961234094
 20
118.29481629972777
 30
0.0
 11
307.9780686958068
 21
118.28883360967131
 31
0.0
  0
LINE
  5
1EC
330
17
100
AcDbEntity
  8
VISIBLE
100
AcDbLine
 10
307.9780686958068
 20
118.28883360967131
 30
0.0
 11
307.96752366101913
 21
118.28155528609072
 31
0.0
  0
LINE
  5
1ED
330
17
100
AcDbEntity
  8
VISIBLE
100
AcDbLine
 10
307.96752366101913
 20
118.28155528609072
 30
0.0
 11
307.9577597886287
 21
118.27325591495968
 31
0.0
  0
LINE
  5
1EE
330
17
100
AcDbEntity
  8
VISIBLE
100
AcDbLine
 10
307.9577597886287
 20
118.27325591495968
 30
0.0
 11
307.9487607319062
 21
118.26413150022861
 31
0.0
  0
LINE
  5
1EF
330
17
100
AcDbEntity
  8
VISIBLE
100
AcDbLine
 10
307.9487607319062
 20
118.26413150022861
 30
0.0
 11
307.9405096750007
 21
118.25432467636293
 31
0.0
  0
LINE
  5
1F0
330
17
100
AcDbEntity
  8
VISIBLE
100
AcDbLine
 10
307.9405096750007
 20
118.25432467636293
 30
0.0
 11
307.9329954974558
 21
118.24394196609602
 31
0.0
  0
LINE
  5
1F1
330
17
100
AcDbEntity
  8
VISIBLE
100
AcDbLine
 10
307.9329954974558
 20
118.24394196609602
 30
0.0
 11
307.9262155125189
 21
118.23306533664623
 31
0.0
  0
LINE
  5
1F2
330
17
100
AcDbEntity
  8
VISIBLE
100
AcDbLine
 10
307.9262155125189
 20
118.23306533664623
 30
0.0
 11
307.9201770081427
 21
118.2217600999375
 31
0.0
  0
LINE
  5
1F3
330
17
100
AcDbEntity
  8
VISIBLE
100
AcDbLine
 10
307.9201770081427
 20
118.2217600999375
 30
0.0
 11
307.91489861592197
 21
118.21008060989024
 31
0.0
  0
LINE
  5
1F4
330
17
100
AcDbEntity
  8
VISIBLE
100
AcDbLine
 10
307.91489861592197
 20
118.21008060989024
 30
0.0
 11
307.9104120554623
 21
118.19807477633383
 31
0.0
  0
LINE
  5
1F5
330
17
100
AcDbEntity
  8
VISIBLE
100
AcDbLine
 10
307.9104120554623
 20
118.19807477633383
 30
0.0
 11
307.9067646484202
 21
118.18578819995957
 31
0.0
  0
LINE
  5
1F6
330
17
100
AcDbEntity
  8
VISIBLE
100
AcDbLine
 10
307.9067646484202
 20
118.18578819995957
 30
0.0
 11
307.90402299939836
 21
118.17326873128557
 31
0.0
  0
LINE
  5
1F7
330
17
100
AcDbEntity
  8
VISIBLE
100
AcDbLine
 10
307.90402299939836
 20
118.17326873128557
 30
0.0
 11
307.9022783179417
 21
118.16057250924952
 31
0.0
  0
LINE
  5
1F8
330
17
100
AcDbEntity
  8
VISIBLE
100
AcDbLine
 10
307.9022783179417
 20
118.16057250924952
 30
0.0
 11
307.9016539081696
 21
118.14777317804572
 31
0.0
  0
LINE
  5
1F9
330
17
100
AcDbEntity
  8
VISIBLE
100
AcDbLine
 10
307.9016539081696
 20
118.14777317804572
 30
0.0
 11
307.90231508822865
 21
118.13497729608775
 31
0.0
  0
LINE
  5
1FA
330
17
100
AcDbEntity
  8
VISIBLE
100
AcDbLine
 10
307.90231508822865
 20
118.13497729608775
 30
0.0
 11
307.9044802422482
 21
118.12235131873254
 31
0.0
  0
LINE
  5
1FB
330
17
100
AcDbEntity
  8
VISIBLE
100
AcDbLine
 10
307.9044802422482
 20
118.12235131873254
 30
0.0
 11
307.90842584455686
 21
118.11016858990256
 31
0.0
  0
LINE
  5
1FC
330
17
100
AcDbEntity
  8
VISIBLE
100
AcDbLine
 10
307.90842584455686
 20
118.11016858990256
 30
0.0
 11
307.91446092809946
 21
118.09888266146348
 31
0.0
  0
LINE
  5
1FD
330
17
100
AcDbEntity
  8
VISIBLE
100
AcDbLine
 10
307.91446092809946
 20
118.09888266146348
 30
0.0
 11
307.92281311545145
 21
118.0891994751796
 31
0.0
  0
LINE
  5
1FE
330
17
100
AcDbEntity
  8
VISIBLE
100
AcDbLine
 10
307.92281311545145
 20
118.0891994751796
 30
0.0
 11
307.93337838529
 21
118.08201208175659
 31
0.0
  0
LINE
  5
1FF
330
17
100
AcDbEntity
  8
VISIBLE
100
AcDbLine
 10
307.93337838529
 20
118.08201208175659
 30
0.0
 11
307.9354523796089
 21
118.0810551054808
 31
0.0
  0
LINE
  5
200
330
17
100
AcDbEntity
  8
VISIBLE
100
AcDbLine
 10
307.9354523796089
 20
118.0810551054808
 30
0.0
 11
307.9375718763603
 21
118.08020363620399
 31
0.0
  0
LINE
  5
201
330
17
100
AcDbEntity
  8
VISIBLE
100
AcDbLine
 10
307.9375718763603
 20
118.08020363620399
 30
0.0
 11
307.9397312516791
 21
118.07945906591415
 31
0.0
  0
LINE
  5
202
330
17
100
AcDbEntity
  8
VISIBLE
100
AcDbLine
 10
307.9397312516791
 20
118.07945906591415
 30
0.0
 11
307.94192475355715
 21
118.0788219902208
 31
0.0
  0
LINE
  5
203
330
17
100
AcDbEntity
  8
VISIBLE
100
AcDbLine
 10
307.94192475355715
 20
118.0788219902208
 30
0.0
 11
307.9441466238382
 21
118.07829223053136
 31
0.0
  0
LINE
  5
204
330
17
100
AcDbEntity
  8
VISIBLE
100
AcDbLine
 10
307.9441466238382
 20
118.07829223053136
 30
0.0
 11
307.9463912113595
 21
118.0778688832824
 31
0.0
  0
LINE
  5
205
330
17
100
AcDbEntity
  8
VISIBLE
100
AcDbLine
 10
307.9463912113595
 20
118.0778688832824
 30
0.0
 11
307.94865307041124
 21
118.07755039081532
 31
0.0
  0
LINE
  5
206
330
17
100
AcDbEntity
  8
VISIBLE
100
AcDbLine
 10
307.94865307041124
 20
118.07755039081532
 30
0.0
 11
307.9509270406843
 21
118.07733462735993
 31
0.0
  0
LINE
  5
207
330
17
100
AcDbEntity
  8
VISIBLE
100
AcDbLine
 10
307.9509270406843
 20
118.07733462735993
 30
0.0
 11
307.9532083069803
 21
118.0772189933665
 31
0.0
  0
LINE
  5
208
330
17
100
AcDbEntity
  8
VISIBLE
100
AcDbLine
 10
307.9532083069803
 20
118.0772189933665
 30
0.0
 11
307.9554924388443
 21
118.0772005119604
 31
0.0
  0
LINE
  5
209
330
17
100
AcDbEntity
  8
VISIBLE
100
AcDbLine
 10
307.9554924388443
 20
118.0772005119604
 30
0.0
 11
307.95777541175045
 21
118.07727592235035
 31
0.0
  0
LINE
  5
20A
330
17
100
AcDbEntity
  8
VISIBLE
100
AcDbLine
 10
307.95777541175045
 20
118.07727592235035
 30
0.0
 11
307.9600536124265
 21
118.07744176633389
 31
0.0
  0
LINE
  5
20B
330
17
100
AcDbEntity
  8
VISIBLE
100
AcDbLine
 10
307.9600536124265
 20
118.07744176633389
 30
0.0
 11
307.96232383138016
 21
118.0776944653851
 31
0.0
  0
LINE
  5
20C
330
17
100
AcDbEntity
  8
VISIBLE
100
AcDbLine
 10
307.96232383138016
 20
118.0776944653851
 30
0.0
 11
307.9645832457586
 21
118.07803038701482
 31
0.0
  0
LINE
  5
20D
330
17
100
AcDbEntity
  8
VISIBLE
100
AcDbLine
 10
307.9645832457586
 20
118.07803038701482
 30
0.0
 11
307.96682939546196
 21
118.07844590007177
 31
0.0
  0
LINE
  5
20E
330
17
100
AcDbEntity
  8
VISIBLE
100
AcDbLine
 10
307.96682939546196
 20
118.07844590007177
 30
0.0
 11
307.96906015504294
 21
118.07893741937187
 31
0.0
  0
LINE
  5
20F
330
17
100
AcDbEntity
  8
VISIBLE
100
AcDbLine
 10
307.96906015504294
 20
118.07893741937187
 30
0.0
 11
307.97127370346607
 21
118.07950144051892
 31
0.0
  0
LINE
  5
210
330
17
100
AcDbEntity
  8
VISIBLE
100
AcDbLine
 10
307.97127370346607
 20
118.07950144051892
 30
0.0
 11
307.97346849333115
 21
118.08013456604615
 31
0.0
  0
LINE
  5
211
330
17
100
AcDbEntity
  8
VISIBLE
100
AcDbLine
 10
307.97346849333115
 20
118.08013456604615
 30
0.0
 11
307.9756432207365
 21
118.08083352411654
 31
0.0
  0
LINE
  5
212
330
17
100
AcDbEntity
  8
VISIBLE
100
AcDbLine
 10
307.9756432207365
 20
118.08083352411654
 30
0.0
 11
307.97779679658987
 21
118.08159518101394
 31
0.0
  0
LINE
  5
213
330
17
100
AcDbEntity
  8
VISIBLE
100
AcDbLine
 10
307.97779679658987
 20
118.08159518101394
 30
0.0
 11
307.9799283198765
 21
118.08241654857851
 31
0.0
  0
LINE
  5
214
330
17
100
AcDbEntity
  8
VISIBLE
100
AcDbLine
 10
307.9799283198765
 20
118.08241654857851
 30
0.0
 11
307.98203705316297
 21
118.08329478762082
 31
0.0
  0
LINE
  5
215
330
17
100
AcDbEntity
  8
VISIBLE
100
AcDbLine
 10
307.98203705316297
 20
118.08329478762082
 30
0.0
 11
307.98412240044473
 21
118.08422720821169
 31
0.0
  0
LINE
  5
216
330
17
100
AcDbEntity
  8
VISIBLE
100
AcDbLine
 10
307.98412240044473
 20
118.08422720821169
 30
0.0
 11
307.9861838873233
 21
118.08521126760564
 31
0.0
  0
LINE
  5
217
330
17
100
AcDbEntity
  8
VISIBLE
100
AcDbLine
 10
307.9861838873233
 20
119.12570422535212
 30
0.0
 11
307.9953736264856
 21
119.13084565193545
 31
0.0
  0
LINE
  5
218
330
17
100
AcDbEntity
  8
VISIBLE
100
AcDbLine
 10
307.9953736264856
 20
119.13084565193545
 30
0.0
 11
308.0040333621914
 21
119.13683888301813
 31
0.0
  0
LINE
  5
219
330
17
100
AcDbEntity
  8
VISIBLE
100
AcDbLine
 10
308.0040333621914
 20
119.13683888301813
 30
0.0
 11
308.01216463104635
 21
119.14353277746193
 31
0.0
  0
LINE
  5
21A
330
17
100
AcDbEntity
  8
VISIBLE
100
AcDbLine
 10
308.01216463104635
 20
119.14353277746193
 30
0.0
 11
308.01977620542107
 21
119.15081290967065
 31
0.0
  0
LINE
  5
21B
330
17
100
AcDbEntity
  8
VISIBLE
100
AcDbLine
 10
308.01977620542107
 20
119.15081290967065
 30
0.0
 11
308.0268780439832
 21
119.15859156575858
 31
0.0
  0
LINE
  5
21C
330
17
100
AcDbEntity
  8
VISIBLE
100
AcDbLine
 10
308.0268780439832
 20
119.15859156575858
 30
0.0
 11
308.03347833224024
 21
119.16680038486633
 31
0.0
  0
LINE
  5
21D
330
17
100
AcDbEntity
  8
VISIBLE
100
AcDbLine
 10
308.03347833224024
 20
119.16680038486633
 30
0.0
 11
308.03958201240596
 21
119.17538507505014
 31
0.0
  0
LINE
  5
21E
330
17
100
AcDbEntity
  8
VISIBLE
100
AcDbLine
 10
308.03958201240596
 20
119.17538507505014
 30
0.0
 11
308.04518998990034
 21
119.18430160505905
 31
0.0
  0
LINE
  5
21F
330
17
100
AcDbEntity
  8
VISIBLE
100
AcDbLine
 10
308.04518998990034
 20
119.18430160505905
 30
0.0
 11
308.05029860021807
 21
119.19351339999139
 31
0.0
  0
LINE
  5
220
330
17
100
AcDbEntity
  8
VISIBLE
100
AcDbLine
 10
308.05029860021807
 20
119.19351339999139
 30
0.0
 11
308.0548991120276
 21
119.20298919402448
 31
0.0
  0
LINE
  5
221
330
17
100
AcDbEntity
  8
VISIBLE
100
AcDbLine
 10
308.0548991120276
 20
119.20298919402448
 30
0.0
 11
308.0589771309967
 21
119.21270128250195
 31
0.0
  0
LINE
  5
222
330
17
100
AcDbEntity
  8
VISIBLE
100
AcDbLine
 10
308.0589771309967
 20
119.21270128250195
 30
0.0
 11
308.06251180399795
 21
119.22262396662612
 31
0.0
  0
LINE
  5
223
330
17
100
AcDbEntity
  8
VISIBLE
100
AcDbLine
 10
308.06251180399795
 20
119.22262396662612
 30
0.0
 11
308.06547472913724
 21
119.23273199936149
 31
0.0
  0
LINE
  5
224
330
17
100
AcDbEntity
  8
VISIBLE
100
AcDbLine
 10
308.06547472913724
 20
119.23273199936149
 30
0.0
 11
308.0678284655994
 21
119.24299881903053
 31
0.0
  0
LINE
  5
225
330
17
100
AcDbEntity
  8
VISIBLE
100
AcDbLine
 10
308.0678284655994
 20
119.24299881903053
 30
0.0
 11
308.0695245174787
 21
119.25339428691203
 31
0.0
  0
LINE
  5
226
330
17
100
AcDbEntity
  8
VISIBLE
100
AcDbLine
 10
308.0695245174787
 20
119.25339428691203
 30
0.0
 11
308.0705006525457
 21
119.26388150313906
 31
0.0
  0
LINE
  5
227
330
17
100
AcDbEntity
  8
VISIBLE
100
AcDbLine
 10
308.0705006525457
 20
119.26388150313906
 30
0.0
 11
308.0706774497978
 21
119.27441201866591
 31
0.0
  0
LINE
  5
228
330
17
100
AcDbEntity
  8
VISIBLE
100
AcDbLine
 10
308.0706774497978
 20
119.27441201866591
 30
0.0
 11
308.0699541578326
 21
119.28491832834621
 31
0.0
  0
LINE
  5
229
330
17
100
AcDbEntity
  8
VISIBLE
100
AcDbLine
 10
308.0699541578326
 20
119.28491832834621
 30
0.0
 11
308.0682045783905
 21
119.29530188071483
 31
0.0
  0
LINE
  5
22A
330
17
100
AcDbEntity
  8
VISIBLE
100
AcDbLine
 10
308.0682045783905
 20
119.29530188071483
 30
0.0
 11
308.06527546594543
 21
119.30541417265206
 31
0.0
  0
LINE
  5
22B
330
17
100
AcDbEntity
  8
VISIBLE
100
AcDbLine
 10
308.06527546594543
 20
119.30541417265206
 30
0.0
 11
308.0609942314308
 21
119.31502907664172
 31
0.0
  0
LINE
  5
22C
330
17
100
AcDbEntity
  8
VISIBLE
100
AcDbLine
 10
308.0609942314308
 20
119.31502907664172
 30
0.0
 11
308.0552006813933
 21
119.32381089079684
 31
0.0
  0
LINE
  5
22D
330
17
100
AcDbEntity
  8
VISIBLE
100
AcDbLine
 10
308.0552006813933
 20
119.32381089079684
 30
0.0
 11
308.04782281735163
 21
119.33130393078511
 31
0.0
  0
LINE
  5
22E
330
17
100
AcDbEntity
  8
VISIBLE
100
AcDbLine
 10
308.04782281735163
 20
119.33130393078511
 30
0.0
 11
308.03898938935663
 21
119.3370020027505
 31
0.0
  0
LINE
  5
22F
330
17
100
AcDbEntity
  8
VISIBLE
100
AcDbLine
 10
308.03898938935663
 20
119.3370020027505
 30
0.0
 11
308.0268504966501
 21
119.3409933645882
 31
0.0
  0
LINE
  5
230
330
17
100
AcDbEntity
  8
VISIBLE
100
AcDbLine
 10
308.0268504966501
 20
119.3409933645882
 30
0.0
 11
308.0140829097693
 21
119.34170883408434
 31
0.0
  0
LINE
  5
231
330
17
100
AcDbEntity
  8
VISIBLE
100
AcDbLine
 10
308.0140829097693
 20
119.34170883408434
 30
0.0
 11
308.00145787647483
 21
119.33961051042002
 31
0.0
  0
LINE
  5
232
330
17
100
AcDbEntity
  8
VISIBLE
100
AcDbLine
 10
308.00145787647483
 20
119.33961051042002
 30
0.0
 11
307.9893961234094
 21
119.33530925747425
 31
0.0
  0
LINE
  5
233
330
17
100
AcDbEntity
  8
VISIBLE
100
AcDbLine
 10
307.9893961234094
 20
119.33530925747425
 30
0.0
 11
307.9780686958068
 21
119.3293265674178
 31
0.0
  0
LINE
  5
234
330
17
100
AcDbEntity
  8
VISIBLE
100
AcDbLine
 10
307.9780686958068
 20
119.3293265674178
 30
0.0
 11
307.96752366101913
 21
119.3220482438372
 31
0.0
  0
LINE
  5
235
330
17
100
AcDbEntity
  8
VISIBLE
100
AcDbLine
 10
307.96752366101913
 20
119.3220482438372
 30
0.0
 11
307.9577597886287
 21
119.31374887270616
 31
0.0
  0
LINE
  5
236
330
17
100
AcDbEntity
  8
VISIBLE
100
AcDbLine
 10
307.9577597886287
 20
119.31374887270616
 30
0.0
 11
307.9487607319062
 21
119.3046244579751
 31
0.0
  0
LINE
  5
237
330
17
100
AcDbEntity
  8
VISIBLE
100
AcDbLine
 10
307.9487607319062
 20
119.3046244579751
 30
0.0
 11
307.9405096750007
 21
119.2948176341094
 31
0.0
  0
LINE
  5
238
330
17
100
AcDbEntity
  8
VISIBLE
100
AcDbLine
 10
307.9405096750007
 20
119.2948176341094
 30
0.0
 11
307.9329954974558
 21
119.2844349238425
 31
0.0
  0
LINE
  5
239
330
17
100
AcDbEntity
  8
VISIBLE
100
AcDbLine
 10
307.9329954974558
 20
119.2844349238425
 30
0.0
 11
307.9262155125189
 21
119.2735582943927
 31
0.0
  0
LINE
  5
23A
330
17
100
AcDbEntity
  8
VISIBLE
100
AcDbLine
 10
307.9262155125189
 20
119.2735582943927
 30
0.0
 11
307.9201770081427
 21
119.26225305768398
 31
0.0
  0
LINE
  5
23B
330
17
100
AcDbEntity
  8
VISIBLE
100
AcDbLine
 10
307.9201770081427
 20
119.26225305768398
 30
0.0
 11
307.91489861592197
 21
119.25057356763674
 31
0.0
  0
LINE
  5
23C
330
17
100
AcDbEntity
  8
VISIBLE
100
AcDbLine
 10
307.91489861592197
 20
119.25057356763674
 30
0.0
 11
307.9104120554623
 21
119.2385677340803
 31
0.0
  0
LINE
  5
23D
330
17
100
AcDbEntity
  8
VISIBLE
100
AcDbLine
 10
307.9104120554623
 20
119.2385677340803
 30
0.0
 11
307.9067646484202
 21
119.22628115770607
 31
0.0
  0
LINE
  5
23E
330
17
100
AcDbEntity
  8
VISIBLE
100
AcDbLine
 10
307.9067646484202
 20
119.22628115770607
 30
0.0
 11
307.90402299939836
 21
119.21376168903205
 31
0.0
  0
LINE
  5
23F
330
17
100
AcDbEntity
  8
VISIBLE
100
AcDbLine
 10
307.90402299939836
 20
119.21376168903205
 30
0.0
 11
307.9022783179417
 21
119.201065466996
 31
0.0
  0
LINE
  5
240
330
17
100
AcDbEntity
  8
VISIBLE
100
AcDbLine
 10
307.9022783179417
 20
119.201065466996
 30
0.0
 11
307.9016539081696
 21
119.1882661357922
 31
0.0
  0
LINE
  5
241
330
17
100
AcDbEntity
  8
VISIBLE
100
AcDbLine
 10
307.9016539081696
 20
119.1882661357922
 30
0.0
 11
307.90231508822865
 21
119.17547025383423
 31
0.0
  0
LINE
  5
242
330
17
100
AcDbEntity
  8
VISIBLE
100
AcDbLine
 10
307.90231508822865
 20
119.17547025383423
 30
0.0
 11
307.9044802422482
 21
119.16284427647902
 31
0.0
  0
LINE
  5
243
330
17
100
AcDbEntity
  8
VISIBLE
100
AcDbLine
 10
307.9044802422482
 20
119.16284427647902
 30
0.0
 11
307.90842584455686
 21
119.15066154764904
 31
0.0
  0
LINE
  5
244
330
17
100
AcDbEntity
  8
VISIBLE
100
AcDbLine
 10
307.90842584455686
 20
119.15066154764904
 30
0.0
 11
307.91446092809946
 21
119.13937561920994
 31
0.0
  0
LINE
  5
245
330
17
100
AcDbEntity
  8
VISIBLE
100
AcDbLine
 10
307.91446092809946
 20
119.13937561920994
 30
0.0
 11
307.92281311545145
 21
119.12969243292608
 31
0.0
  0
LINE
  5
246
330
17
100
AcDbEntity
  8
VISIBLE
100
AcDbLine
 10
307.92281311545145
 20
119.12969243292608
 30
0.0
 11
307.93337838529
 21
119.12250503950307
 31
0.0
  0
LINE
  5
247
330
17
100
AcDbEntity
  8
VISIBLE
100
AcDbLine
 10
307.93337838529
 20
119.12250503950307
 30
0.0
 11
307.9354523796089
 21
119.12154806322728
 31
0.0
  0
LINE
  5
248
330
17
100
AcDbEntity
  8
VISIBLE
100
AcDbLine
 10
307.9354523796089
 20
119.12154806322728
 30
0.0
 11
307.9375718763603
 21
119.12069659395047
 31
0.0
  0
LINE
  5
249
330
17
100
AcDbEntity
  8
VISIBLE
100
AcDbLine
 10
307.9375718763603
 20
119.12069659395047
 30
0.0
 11
307.9397312516791
 21
119.11995202366063
 31
0.0
  0
LINE
  5
24A
330
17
100
AcDbEntity
  8
VISIBLE
100
AcDbLine
 10
307.9397312516791
 20
119.11995202366063
 30
0.0
 11
307.94192475355715
 21
119.11931494796728
 31
0.0
  0
LINE
  5
24B
330
17
100
AcDbEntity
  8
VISIBLE
100
AcDbLine
 10
307.94192475355715
 20
119.11931494796728
 30
0.0
 11
307.9441466238382
 21
119.11878518827783
 31
0.0
  0
LINE
  5
24C
330
17
100
AcDbEntity
  8
VISIBLE
100
AcDbLine
 10
307.9441466238382
 20
119.11878518827783
 30
0.0
 11
307.9463912113595
 21
119.1183618410289
 31
0.0
  0
LINE
  5
24D
330
17
100
AcDbEntity
  8
VISIBLE
100
AcDbLine
 10
307.9463912113595
 20
119.1183618410289
 30
0.0
 11
307.94865307041124
 21
119.1180433485618
 31
0.0
  0
LINE
  5
24E
330
17
100
AcDbEntity
  8
VISIBLE
100
AcDbLine
 10
307.94865307041124
 20
119.1180433485618
 30
0.0
 11
307.9509270406843
 21
119.1178275851064
 31
0.0
  0
LINE
  5
24F
330
17
100
AcDbEntity
  8
VISIBLE
100
AcDbLine
 10
307.9509270406843
 20
119.1178275851064
 30
0.0
 11
307.9532083069803
 21
119.11771195111298
 31
0.0
  0
LINE
  5
250
330
17
100
AcDbEntity
  8
VISIBLE
100
AcDbLine
 10
307.9532083069803
 20
119.11771195111298
 30
0.0
 11
307.9554924388443
 21
119.11769346970688
 31
0.0
  0
LINE
  5
251
330
17
100
AcDbEntity
  8
VISIBLE
100
AcDbLine
 10
307.9554924388443
 20
119.11769346970688
 30
0.0
 11
307.95777541175045
 21
119.11776888009683
 31
0.0
  0
LINE
  5
252
330
17
100
AcDbEntity
  8
VISIBLE
100
AcDbLine
 10
307.95777541175045
 20
119.11776888009683
 30
0.0
 11
307.9600536124265
 21
119.11793472408037
 31
0.0
  0
LINE
  5
253
330
17
100
AcDbEntity
  8
VISIBLE
100
AcDbLine
 10
307.9600536124265
 20
119.11793472408037
 30
0.0
 11
307.96232383138016
 21
119.11818742313157
 31
0.0
  0
LINE
  5
254
330
17
100
AcDbEntity
  8
VISIBLE
100
AcDbLine
 10
307.96232383138016
 20
119.11818742313157
 30
0.0
 11
307.9645832457586
 21
119.11852334476131
 31
0.0
  0
LINE
  5
255
330
17
100
AcDbEntity
  8
VISIBLE
100
AcDbLine
 10
307.9645832457586
 20
119.11852334476131
 30
0.0
 11
307.96682939546196
 21
119.11893885781825
 31
0.0
  0
LINE
  5
256
330
17
100
AcDbEntity
  8
VISIBLE
100
AcDbLine
 10
307.96682939546196
 20
119.11893885781825
 30
0.0
 11
307.96906015504294
 21
119.11943037711836
 31
0.0
  0
LINE
  5
257
330
17
100
AcDbEntity
  8
VISIBLE
100
AcDbLine
 10
307.96906015504294
 20
119.11943037711836
 30
0.0
 11
307.97127370346607
 21
119.1199943982654
 31
0.0
  0
LINE
  5
258
330
17
100
AcDbEntity
  8
VISIBLE
100
AcDbLine
 10
307.97127370346607
 20
119.1199943982654
 30
0.0
 11
307.97346849333115
 21
119.12062752379263
 31
0.0
  0
LINE
  5
259
330
17
100
AcDbEntity
  8
VISIBLE
100
AcDbLine
 10
307.97346849333115
 20
119.12062752379263
 30
0.0
 11
307.9756432207365
 21
119.12132648186302
 31
0.0
  0
LINE
  5
25A
330
17
100
AcDbEntity
  8
VISIBLE
100
AcDbLine
 10
307.9756432207365
 20
119.12132648186302
 30
0.0
 11
307.97779679658987
 21
119.12208813876043
 31
0.0
  0
LINE
  5
25B
330
17
100
AcDbEntity
  8
VISIBLE
100
AcDbLine
 10
307.97779679658987
 20
119.12208813876043
 30
0.0
 11
307.9799283198765
 21
119.12290950632499
 31
0.0
  0
LINE
  5
25C
330
17
100
AcDbEntity
  8
VISIBLE
100
AcDbLine
 10
307.9799283198765
 20
119.12290950632499
 30
0.0
 11
307.98203705316297
 21
119.1237877453673
 31
0.0
  0
LINE
  5
25D
330
17
100
AcDbEntity
  8
VISIBLE
100
AcDbLine
 10
307.98203705316297
 20
119.1237877453673
 30
0.0
 11
307.98412240044473
 21
119.12472016595817
 31
0.0
  0
LINE
  5
25E
330
17
100
AcDbEntity
  8
VISIBLE
100
AcDbLine
 10
307.98412240044473
 20
119.12472016595817
 30
0.0
 11
307.9861838873233
 21
119.12570422535212
 31
0.0
  0
LINE
  5
25F
330
17
100
AcDbEntity
  8
VISIBLE
100
AcDbLine
 10
307.9861838873233
 20
131.23010563380285
 30
0.0
 11
307.9953736264856
 21
131.23524706038614
 31
0.0
  0
LINE
  5
260
330
17
100
AcDbEntity
  8
VISIBLE
100
AcDbLine
 10
307.9953736264856
 20
131.23524706038614
 30
0.0
 11
308.0040333621914
 21
131.24124029146884
 31
0.0
  0
LINE
  5
261
330
17
100
AcDbEntity
  8
VISIBLE
100
AcDbLine
 10
308.0040333621914
 20
131.24124029146884
 30
0.0
 11
308.01216463104635
 21
131.24793418591264
 31
0.0
  0
LINE
  5
262
330
17
100
AcDbEntity
  8
VISIBLE
100
AcDbLine
 10
308.01216463104635
 20
131.24793418591264
 30
0.0
 11
308.01977620542107
 21
131.25521431812135
 31
0.0
  0
LINE
  5
263
330
17
100
AcDbEntity
  8
VISIBLE
100
AcDbLine
 10
308.01977620542107
 20
131.25521431812135
 30
0.0
 11
308.0268780439832
 21
131.26299297420928
 31
0.0
  0
LINE
  5
264
330
17
100
AcDbEntity
  8
VISIBLE
100
AcDbLine
 10
308.0268780439832
 20
131.26299297420928
 30
0.0
 11
308.03347833224024
 21
131.27120179331706
 31
0.0
  0
LINE
  5
265
330
17
100
AcDbEntity
  8
VISIBLE
100
AcDbLine
 10
308.03347833224024
 20
131.27120179331706
 30
0.0
 11
308.03958201240596
 21
131.27978648350086
 31
0.0
  0
LINE
  5
266
330
17
100
AcDbEntity
  8
VISIBLE
100
AcDbLine
 10
308.03958201240596
 20
131.27978648350086
 30
0.0
 11
308.04518998990034
 21
131.28870301350975
 31
0.0
  0
LINE
  5
267
330
17
100
AcDbEntity
  8
VISIBLE
100
AcDbLine
 10
308.04518998990034
 20
131.28870301350975
 30
0.0
 11
308.05029860021807
 21
131.2979148084421
 31
0.0
  0
LINE
  5
268
330
17
100
AcDbEntity
  8
VISIBLE
100
AcDbLine
 10
308.05029860021807
 20
131.2979148084421
 30
0.0
 11
308.0548991120276
 21
131.3073906024752
 31
0.0
  0
LINE
  5
269
330
17
100
AcDbEntity
  8
VISIBLE
100
AcDbLine
 10
308.0548991120276
 20
131.3073906024752
 30
0.0
 11
308.0589771309967
 21
131.31710269095265
 31
0.0
  0
LINE
  5
26A
330
17
100
AcDbEntity
  8
VISIBLE
100
AcDbLine
 10
308.0589771309967
 20
131.31710269095265
 30
0.0
 11
308.06251180399795
 21
131.32702537507683
 31
0.0
  0
LINE
  5
26B
330
17
100
AcDbEntity
  8
VISIBLE
100
AcDbLine
 10
308.06251180399795
 20
131.32702537507683
 30
0.0
 11
308.06547472913724
 21
131.3371334078122
 31
0.0
  0
LINE
  5
26C
330
17
100
AcDbEntity
  8
VISIBLE
100
AcDbLine
 10
308.06547472913724
 20
131.3371334078122
 30
0.0
 11
308.0678284655994
 21
131.34740022748124
 31
0.0
  0
LINE
  5
26D
330
17
100
AcDbEntity
  8
VISIBLE
100
AcDbLine
 10
308.0678284655994
 20
131.34740022748124
 30
0.0
 11
308.0695245174787
 21
131.35779569536274
 31
0.0
  0
LINE
  5
26E
330
17
100
AcDbEntity
  8
VISIBLE
100
AcDbLine
 10
308.0695245174787
 20
131.35779569536274
 30
0.0
 11
308.0705006525457
 21
131.3682829115898
 31
0.0
  0
LINE
  5
26F
330
17
100
AcDbEntity
  8
VISIBLE
100
AcDbLine
 10
308.0705006525457
 20
131.3682829115898
 30
0.0
 11
308.0706774497978
 21
131.37881342711663
 31
0.0
  0
LINE
  5
270
330
17
100
AcDbEntity
  8
VISIBLE
100
AcDbLine
 10
308.0706774497978
 20
131.37881342711663
 30
0.0
 11
308.0699541578326
 21
131.38931973679692
 31
0.0
  0
LINE
  5
271
330
17
100
AcDbEntity
  8
VISIBLE
100
AcDbLine
 10
308.0699541578326
 20
131.38931973679692
 30
0.0
 11
308.0682045783905
 21
131.39970328916553
 31
0.0
  0
LINE
  5
272
330
17
100
AcDbEntity
  8
VISIBLE
100
AcDbLine
 10
308.0682045783905
 20
131.39970328916553
 30
0.0
 11
308.06527546594543
 21
131.40981558110278
 31
0.0
  0
LINE
  5
273
330
17
100
AcDbEntity
  8
VISIBLE
100
AcDbLine
 10
308.06527546594543
 20
131.40981558110278
 30
0.0
 11
308.0609942314308
 21
131.41943048509245
 31
0.0
  0
LINE
  5
274
330
17
100
AcDbEntity
  8
VISIBLE
100
AcDbLine
 10
308.0609942314308
 20
131.41943048509245
 30
0.0
 11
308.0552006813933
 21
131.42821229924755
 31
0.0
  0
LINE
  5
275
330
17
100
AcDbEntity
  8
VISIBLE
100
AcDbLine
 10
308.0552006813933
 20
131.42821229924755
 30
0.0
 11
308.04782281735163
 21
131.43570533923582
 31
0.0
  0
LINE
  5
276
330
17
100
AcDbEntity
  8
VISIBLE
100
AcDbLine
 10
308.04782281735163
 20
131.43570533923582
 30
0.0
 11
308.03898938935663
 21
131.4414034112012
 31
0.0
  0
LINE
  5
277
330
17
100
AcDbEntity
  8
VISIBLE
100
AcDbLine
 10
308.03898938935663
 20
131.4414034112012
 30
0.0
 11
308.0268504966501
 21
131.4453947730389
 31
0.0
  0
LINE
  5
278
330
17
100
AcDbEntity
  8
VISIBLE
100
AcDbLine
 10
308.0268504966501
 20
131.4453947730389
 30
0.0
 11
308.0140829097693
 21
131.44611024253504
 31
0.0
  0
LINE
  5
279
330
17
100
AcDbEntity
  8
VISIBLE
100
AcDbLine
 10
308.0140829097693
 20
131.44611024253504
 30
0.0
 11
308.00145787647483
 21
131.44401191887073
 31
0.0
  0
LINE
  5
27A
330
17
100
AcDbEntity
  8
VISIBLE
100
AcDbLine
 10
308.00145787647483
 20
131.44401191887073
 30
0.0
 11
307.9893961234094
 21
131.43971066592496
 31
0.0
  0
LINE
  5
27B
330
17
100
AcDbEntity
  8
VISIBLE
100
AcDbLine
 10
307.9893961234094
 20
131.43971066592496
 30
0.0
 11
307.9780686958068
 21
131.43372797586852
 31
0.0
  0
LINE
  5
27C
330
17
100
AcDbEntity
  8
VISIBLE
100
AcDbLine
 10
307.9780686958068
 20
131.43372797586852
 30
0.0
 11
307.96752366101913
 21
131.4264496522879
 31
0.0
  0
LINE
  5
27D
330
17
100
AcDbEntity
  8
VISIBLE
100
AcDbLine
 10
307.96752366101913
 20
131.4264496522879
 30
0.0
 11
307.9577597886287
 21
131.41815028115687
 31
0.0
  0
LINE
  5
27E
330
17
100
AcDbEntity
  8
VISIBLE
100
AcDbLine
 10
307.9577597886287
 20
131.41815028115687
 30
0.0
 11
307.9487607319062
 21
131.4090258664258
 31
0.0
  0
LINE
  5
27F
330
17
100
AcDbEntity
  8
VISIBLE
100
AcDbLine
 10
307.9487607319062
 20
131.4090258664258
 30
0.0
 11
307.9405096750007
 21
131.3992190425601
 31
0.0
  0
LINE
  5
280
330
17
100
AcDbEntity
  8
VISIBLE
100
AcDbLine
 10
307.9405096750007
 20
131.3992190425601
 30
0.0
 11
307.9329954974558
 21
131.3888363322932
 31
0.0
  0
LINE
  5
281
330
17
100
AcDbEntity
  8
VISIBLE
100
AcDbLine
 10
307.9329954974558
 20
131.3888363322932
 30
0.0
 11
307.9262155125189
 21
131.3779597028434
 31
0.0
  0
LINE
  5
282
330
17
100
AcDbEntity
  8
VISIBLE
100
AcDbLine
 10
307.9262155125189
 20
131.3779597028434
 30
0.0
 11
307.9201770081427
 21
131.3666544661347
 31
0.0
  0
LINE
  5
283
330
17
100
AcDbEntity
  8
VISIBLE
100
AcDbLine
 10
307.9201770081427
 20
131.3666544661347
 30
0.0
 11
307.91489861592197
 21
131.35497497608745
 31
0.0
  0
LINE
  5
284
330
17
100
AcDbEntity
  8
VISIBLE
100
AcDbLine
 10
307.91489861592197
 20
131.35497497608745
 30
0.0
 11
307.9104120554623
 21
131.34296914253102
 31
0.0
  0
LINE
  5
285
330
17
100
AcDbEntity
  8
VISIBLE
100
AcDbLine
 10
307.9104120554623
 20
131.34296914253102
 30
0.0
 11
307.9067646484202
 21
131.33068256615678
 31
0.0
  0
LINE
  5
286
330
17
100
AcDbEntity
  8
VISIBLE
100
AcDbLine
 10
307.9067646484202
 20
131.33068256615678
 30
0.0
 11
307.90402299939836
 21
131.31816309748277
 31
0.0
  0
LINE
  5
287
330
17
100
AcDbEntity
  8
VISIBLE
100
AcDbLine
 10
307.90402299939836
 20
131.31816309748277
 30
0.0
 11
307.9022783179417
 21
131.3054668754467
 31
0.0
  0
LINE
  5
288
330
17
100
AcDbEntity
  8
VISIBLE
100
AcDbLine
 10
307.9022783179417
 20
131.3054668754467
 30
0.0
 11
307.9016539081696
 21
131.29266754424293
 31
0.0
  0
LINE
  5
289
330
17
100
AcDbEntity
  8
VISIBLE
100
AcDbLine
 10
307.9016539081696
 20
131.29266754424293
 30
0.0
 11
307.90231508822865
 21
131.27987166228496
 31
0.0
  0
LINE
  5
28A
330
17
100
AcDbEntity
  8
VISIBLE
100
AcDbLine
 10
307.90231508822865
 20
131.27987166228496
 30
0.0
 11
307.9044802422482
 21
131.26724568492972
 31
0.0
  0
LINE
  5
28B
330
17
100
AcDbEntity
  8
VISIBLE
100
AcDbLine
 10
307.9044802422482
 20
131.26724568492972
 30
0.0
 11
307.90842584455686
 21
131.25506295609975
 31
0.0
  0
LINE
  5
28C
330
17
100
AcDbEntity
  8
VISIBLE
100
AcDbLine
 10
307.90842584455686
 20
131.25506295609975
 30
0.0
 11
307.91446092809946
 21
131.24377702766066
 31
0.0
  0
LINE
  5
28D
330
17
100
AcDbEntity
  8
VISIBLE
100
AcDbLine
 10
307.91446092809946
 20
131.24377702766066
 30
0.0
 11
307.92281311545145
 21
131.2340938413768
 31
0.0
  0
LINE
  5
28E
330
17
100
AcDbEntity
  8
VISIBLE
100
AcDbLine
 10
307.92281311545145
 20
131.2340938413768
 30
0.0
 11
307.93337838529
 21
131.22690644795375
 31
0.0
  0
LINE
  5
28F
330
17
100
AcDbEntity
  8
VISIBLE
100
AcDbLine
 10
307.93337838529
 20
131.22690644795375
 30
0.0
 11
307.9354523796089
 21
131.225949471678
 31
0.0
  0
LINE
  5
290
330
17
100
AcDbEntity
  8
VISIBLE
100
AcDbLine
 10
307.9354523796089
 20
131.225949471678
 30
0.0
 11
307.9375718763603
 21
131.22509800240118
 31
0.0
  0
LINE
  5
291
330
17
100
AcDbEntity
  8
VISIBLE
100
AcDbLine
 10
307.9375718763603
 20
131.22509800240118
 30
0.0
 11
307.9397312516791
 21
131.22435343211134
 31
0.0
  0
LINE
  5
292
330
17
100
AcDbEntity
  8
VISIBLE
100
AcDbLine
 10
307.9397312516791
 20
131.22435343211134
 30
0.0
 11
307.94192475355715
 21
131.22371635641798
 31
0.0
  0
LINE
  5
293
330
17
100
AcDbEntity
  8
VISIBLE
100
AcDbLine
 10
307.94192475355715
 20
131.22371635641798
 30
0.0
 11
307.9441466238382
 21
131.22318659672854
 31
0.0
  0
LINE
  5
294
330
17
100
AcDbEntity
  8
VISIBLE
100
AcDbLine
 10
307.9441466238382
 20
131.22318659672854
 30
0.0
 11
307.9463912113595
 21
131.2227632494796
 31
0.0
  0
LINE
  5
295
330
17
100
AcDbEntity
  8
VISIBLE
100
AcDbLine
 10
307.9463912113595
 20
131.2227632494796
 30
0.0
 11
307.94865307041124
 21
131.2224447570125
 31
0.0
  0
LINE
  5
296
330
17
100
AcDbEntity
  8
VISIBLE
100
AcDbLine
 10
307.94865307041124
 20
131.2224447570125
 30
0.0
 11
307.9509270406843
 21
131.2222289935571
 31
0.0
  0
LINE
  5
297
330
17
100
AcDbEntity
  8
VISIBLE
100
AcDbLine
 10
307.9509270406843
 20
131.2222289935571
 30
0.0
 11
307.9532083069803
 21
131.22211335956368
 31
0.0
  0
LINE
  5
298
330
17
100
AcDbEntity
  8
VISIBLE
100
AcDbLine
 10
307.9532083069803
 20
131.22211335956368
 30
0.0
 11
307.9554924388443
 21
131.2220948781576
 31
0.0
  0
LINE
  5
299
330
17
100
AcDbEntity
  8
VISIBLE
100
AcDbLine
 10
307.9554924388443
 20
131.2220948781576
 30
0.0
 11
307.95777541175045
 21
131.22217028854755
 31
0.0
  0
LINE
  5
29A
330
17
100
AcDbEntity
  8
VISIBLE
100
AcDbLine
 10
307.95777541175045
 20
131.22217028854755
 30
0.0
 11
307.9600536124265
 21
131.2223361325311
 31
0.0
  0
LINE
  5
29B
330
17
100
AcDbEntity
  8
VISIBLE
100
AcDbLine
 10
307.9600536124265
 20
131.2223361325311
 30
0.0
 11
307.96232383138016
 21
131.2225888315823
 31
0.0
  0
LINE
  5
29C
330
17
100
AcDbEntity
  8
VISIBLE
100
AcDbLine
 10
307.96232383138016
 20
131.2225888315823
 30
0.0
 11
307.9645832457586
 21
131.22292475321203
 31
0.0
  0
LINE
  5
29D
330
17
100
AcDbEntity
  8
VISIBLE
100
AcDbLine
 10
307.9645832457586
 20
131.22292475321203
 30
0.0
 11
307.96682939546196
 21
131.22334026626896
 31
0.0
  0
LINE
  5
29E
330
17
100
AcDbEntity
  8
VISIBLE
100
AcDbLine
 10
307.96682939546196
 20
131.22334026626896
 30
0.0
 11
307.96906015504294
 21
131.22383178556908
 31
0.0
  0
LINE
  5
29F
330
17
100
AcDbEntity
  8
VISIBLE
100
AcDbLine
 10
307.96906015504294
 20
131.22383178556908
 30
0.0
 11
307.97127370346607
 21
131.22439580671613
 31
0.0
  0
LINE
  5
2A0
330
17
100
AcDbEntity
  8
VISIBLE
100
AcDbLine
 10
307.97127370346607
 20
131.22439580671613
 30
0.0
 11
307.97346849333115
 21
131.22502893224333
 31
0.0
  0
LINE
  5
2A1
330
17
100
AcDbEntity
  8
VISIBLE
100
AcDbLine
 10
307.97346849333115
 20
131.22502893224333
 30
0.0
 11
307.9756432207365
 21
131.22572789031375
 31
0.0
  0
LINE
  5
2A2
330
17
100
AcDbEntity
  8
VISIBLE
100
AcDbLine
 10
307.9756432207365
 20
131.22572789031375
 30
0.0
 11
307.97779679658987
 21
131.22648954721114
 31
0.0
  0
LINE
  5
2A3
330
17
100
AcDbEntity
  8
VISIBLE
100
AcDbLine
 10
307.97779679658987
 20
131.22648954721114
 30
0.0
 11
307.9799283198765
 21
131.2273109147757
 31
0.0
  0
LINE
  5
2A4
330
17
100
AcDbEntity
  8
VISIBLE
100
AcDbLine
 10
307.9799283198765
 20
131.2273109147757
 30
0.0
 11
307.98203705316297
 21
131.228189153818
 31
0.0
  0
LINE
  5
2A5
330
17
100
AcDbEntity
  8
VISIBLE
100
AcDbLine
 10
307.98203705316297
 20
131.228189153818
 30
0.0
 11
307.98412240044473
 21
131.22912157440888
 31
0.0
  0
LINE
  5
2A6
330
17
100
AcDbEntity
  8
VISIBLE
100
AcDbLine
 10
307.98412240044473
 20
131.22912157440888
 30
0.0
 11
307.9861838873233
 21
131.23010563380285
 31
0.0
  0
LINE
  5
2A7
330
17
100
AcDbEntity
  8
VISIBLE
100
AcDbLine
 10
307.9861838873233
 20
132.2705985915493
 30
0.0
 11
307.9953736264856
 21
132.2757400181326
 31
0.0
  0
LINE
  5
2A8
330
17
100
AcDbEntity
  8
VISIBLE
100
AcDbLine
 10
307.9953736264856
 20
132.2757400181326
 30
0.0
 11
308.0040333621914
 21
132.2817332492153
 31
0.0
  0
LINE
  5
2A9
330
17
100
AcDbEntity
  8
VISIBLE
100
AcDbLine
 10
308.0040333621914
 20
132.2817332492153
 30
0.0
 11
308.01216463104635
 21
132.2884271436591
 31
0.0
  0
LINE
  5
2AA
330
17
100
AcDbEntity
  8
VISIBLE
100
AcDbLine
 10
308.01216463104635
 20
132.2884271436591
 30
0.0
 11
308.01977620542107
 21
132.2957072758678
 31
0.0
  0
LINE
  5
2AB
330
17
100
AcDbEntity
  8
VISIBLE
100
AcDbLine
 10
308.01977620542107
 20
132.2957072758678
 30
0.0
 11
308.0268780439832
 21
132.30348593195575
 31
0.0
  0
LINE
  5
2AC
330
17
100
AcDbEntity
  8
VISIBLE
100
AcDbLine
 10
308.0268780439832
 20
132.30348593195575
 30
0.0
 11
308.03347833224024
 21
132.3116947510635
 31
0.0
  0
LINE
  5
2AD
330
17
100
AcDbEntity
  8
VISIBLE
100
AcDbLine
 10
308.03347833224024
 20
132.3116947510635
 30
0.0
 11
308.03958201240596
 21
132.32027944124732
 31
0.0
  0
LINE
  5
2AE
330
17
100
AcDbEntity
  8
VISIBLE
100
AcDbLine
 10
308.03958201240596
 20
132.32027944124732
 30
0.0
 11
308.04518998990034
 21
132.3291959712562
 31
0.0
  0
LINE
  5
2AF
330
17
100
AcDbEntity
  8
VISIBLE
100
AcDbLine
 10
308.04518998990034
 20
132.3291959712562
 30
0.0
 11
308.05029860021807
 21
132.33840776618857
 31
0.0
  0
LINE
  5
2B0
330
17
100
AcDbEntity
  8
VISIBLE
100
AcDbLine
 10
308.05029860021807
 20
132.33840776618857
 30
0.0
 11
308.0548991120276
 21
132.34788356022165
 31
0.0
  0
LINE
  5
2B1
330
17
100
AcDbEntity
  8
VISIBLE
100
AcDbLine
 10
308.0548991120276
 20
132.34788356022165
 30
0.0
 11
308.0589771309967
 21
132.35759564869912
 31
0.0
  0
LINE
  5
2B2
330
17
100
AcDbEntity
  8
VISIBLE
100
AcDbLine
 10
308.0589771309967
 20
132.35759564869912
 30
0.0
 11
308.06251180399795
 21
132.3675183328233
 31
0.0
  0
LINE
  5
2B3
330
17
100
AcDbEntity
  8
VISIBLE
100
AcDbLine
 10
308.06251180399795
 20
132.3675183328233
 30
0.0
 11
308.06547472913724
 21
132.37762636555868
 31
0.0
  0
LINE
  5
2B4
330
17
100
AcDbEntity
  8
VISIBLE
100
AcDbLine
 10
308.06547472913724
 20
132.37762636555868
 30
0.0
 11
308.0678284655994
 21
132.3878931852277
 31
0.0
  0
LINE
  5
2B5
330
17
100
AcDbEntity
  8
VISIBLE
100
AcDbLine
 10
308.0678284655994
 20
132.3878931852277
 30
0.0
 11
308.0695245174787
 21
132.3982886531092
 31
0.0
  0
LINE
  5
2B6
330
17
100
AcDbEntity
  8
VISIBLE
100
AcDbLine
 10
308.0695245174787
 20
132.3982886531092
 30
0.0
 11
308.0705006525457
 21
132.40877586933624
 31
0.0
  0
LINE
  5
2B7
330
17
100
AcDbEntity
  8
VISIBLE
100
AcDbLine
 10
308.0705006525457
 20
132.40877586933624
 30
0.0
 11
308.0706774497978
 21
132.4193063848631
 31
0.0
  0
LINE
  5
2B8
330
17
100
AcDbEntity
  8
VISIBLE
100
AcDbLine
 10
308.0706774497978
 20
132.4193063848631
 30
0.0
 11
308.0699541578326
 21
132.4298126945434
 31
0.0
  0
LINE
  5
2B9
330
17
100
AcDbEntity
  8
VISIBLE
100
AcDbLine
 10
308.0699541578326
 20
132.4298126945434
 30
0.0
 11
308.0682045783905
 21
132.440196246912
 31
0.0
  0
LINE
  5
2BA
330
17
100
AcDbEntity
  8
VISIBLE
100
AcDbLine
 10
308.0682045783905
 20
132.440196246912
 30
0.0
 11
308.06527546594543
 21
132.45030853884924
 31
0.0
  0
LINE
  5
2BB
330
17
100
AcDbEntity
  8
VISIBLE
100
AcDbLine
 10
308.06527546594543
 20
132.45030853884924
 30
0.0
 11
308.0609942314308
 21
132.45992344283889
 31
0.0
  0
LINE
  5
2BC
330
17
100
AcDbEntity
  8
VISIBLE
100
AcDbLine
 10
308.0609942314308
 20
132.45992344283889
 30
0.0
 11
308.0552006813933
 21
132.468705256994
 31
0.0
  0
LINE
  5
2BD
330
17
100
AcDbEntity
  8
VISIBLE
100
AcDbLine
 10
308.0552006813933
 20
132.468705256994
 30
0.0
 11
308.04782281735163
 21
132.4761982969823
 31
0.0
  0
LINE
  5
2BE
330
17
100
AcDbEntity
  8
VISIBLE
100
AcDbLine
 10
308.04782281735163
 20
132.4761982969823
 30
0.0
 11
308.03898938935663
 21
132.48189636894767
 31
0.0
  0
LINE
  5
2BF
330
17
100
AcDbEntity
  8
VISIBLE
100
AcDbLine
 10
308.03898938935663
 20
132.48189636894767
 30
0.0
 11
308.0268504966501
 21
132.48588773078538
 31
0.0
  0
LINE
  5
2C0
330
17
100
AcDbEntity
  8
VISIBLE
100
AcDbLine
 10
308.0268504966501
 20
132.48588773078538
 30
0.0
 11
308.0140829097693
 21
132.4866032002815
 31
0.0
  0
LINE
  5
2C1
330
17
100
AcDbEntity
  8
VISIBLE
100
AcDbLine
 10
308.0140829097693
 20
132.4866032002815
 30
0.0
 11
308.00145787647483
 21
132.4845048766172
 31
0.0
  0
LINE
  5
2C2
330
17
100
AcDbEntity
  8
VISIBLE
100
AcDbLine
 10
308.00145787647483
 20
132.4845048766172
 30
0.0
 11
307.9893961234094
 21
132.48020362367143
 31
0.0
  0
LINE
  5
2C3
330
17
100
AcDbEntity
  8
VISIBLE
100
AcDbLine
 10
307.9893961234094
 20
132.48020362367143
 30
0.0
 11
307.9780686958068
 21
132.47422093361496
 31
0.0
  0
LINE
  5
2C4
330
17
100
AcDbEntity
  8
VISIBLE
100
AcDbLine
 10
307.9780686958068
 20
132.47422093361496
 30
0.0
 11
307.96752366101913
 21
132.46694261003438
 31
0.0
  0
LINE
  5
2C5
330
17
100
AcDbEntity
  8
VISIBLE
100
AcDbLine
 10
307.96752366101913
 20
132.46694261003438
 30
0.0
 11
307.9577597886287
 21
132.45864323890333
 31
0.0
  0
LINE
  5
2C6
330
17
100
AcDbEntity
  8
VISIBLE
100
AcDbLine
 10
307.9577597886287
 20
132.45864323890333
 30
0.0
 11
307.9487607319062
 21
132.4495188241723
 31
0.0
  0
LINE
  5
2C7
330
17
100
AcDbEntity
  8
VISIBLE
100
AcDbLine
 10
307.9487607319062
 20
132.4495188241723
 30
0.0
 11
307.9405096750007
 21
132.43971200030657
 31
0.0
  0
LINE
  5
2C8
330
17
100
AcDbEntity
  8
VISIBLE
100
AcDbLine
 10
307.9405096750007
 20
132.43971200030657
 30
0.0
 11
307.9329954974558
 21
132.42932929003968
 31
0.0
  0
LINE
  5
2C9
330
17
100
AcDbEntity
  8
VISIBLE
100
AcDbLine
 10
307.9329954974558
 20
132.42932929003968
 30
0.0
 11
307.9262155125189
 21
132.41845266058988
 31
0.0
  0
LINE
  5
2CA
330
17
100
AcDbEntity
  8
VISIBLE
100
AcDbLine
 10
307.9262155125189
 20
132.41845266058988
 30
0.0
 11
307.9201770081427
 21
132.40714742388116
 31
0.0
  0
LINE
  5
2CB
330
17
100
AcDbEntity
  8
VISIBLE
100
AcDbLine
 10
307.9201770081427
 20
132.40714742388116
 30
0.0
 11
307.91489861592197
 21
132.3954679338339
 31
0.0
  0
LINE
  5
2CC
330
17
100
AcDbEntity
  8
VISIBLE
100
AcDbLine
 10
307.91489861592197
 20
132.3954679338339
 30
0.0
 11
307.9104120554623
 21
132.38346210027748
 31
0.0
  0
LINE
  5
2CD
330
17
100
AcDbEntity
  8
VISIBLE
100
AcDbLine
 10
307.9104120554623
 20
132.38346210027748
 30
0.0
 11
307.9067646484202
 21
132.37117552390325
 31
0.0
  0
LINE
  5
2CE
330
17
100
AcDbEntity
  8
VISIBLE
100
AcDbLine
 10
307.9067646484202
 20
132.37117552390325
 30
0.0
 11
307.90402299939836
 21
132.35865605522923
 31
0.0
  0
LINE
  5
2CF
330
17
100
AcDbEntity
  8
VISIBLE
100
AcDbLine
 10
307.90402299939836
 20
132.35865605522923
 30
0.0
 11
307.9022783179417
 21
132.34595983319318
 31
0.0
  0
LINE
  5
2D0
330
17
100
AcDbEntity
  8
VISIBLE
100
AcDbLine
 10
307.9022783179417
 20
132.34595983319318
 30
0.0
 11
307.9016539081696
 21
132.33316050198937
 31
0.0
  0
LINE
  5
2D1
330
17
100
AcDbEntity
  8
VISIBLE
100
AcDbLine
 10
307.9016539081696
 20
132.33316050198937
 30
0.0
 11
307.90231508822865
 21
132.32036462003143
 31
0.0
  0
LINE
  5
2D2
330
17
100
AcDbEntity
  8
VISIBLE
100
AcDbLine
 10
307.90231508822865
 20
132.32036462003143
 30
0.0
 11
307.9044802422482
 21
132.30773864267618
 31
0.0
  0
LINE
  5
2D3
330
17
100
AcDbEntity
  8
VISIBLE
100
AcDbLine
 10
307.9044802422482
 20
132.30773864267618
 30
0.0
 11
307.90842584455686
 21
132.29555591384621
 31
0.0
  0
LINE
  5
2D4
330
17
100
AcDbEntity
  8
VISIBLE
100
AcDbLine
 10
307.90842584455686
 20
132.29555591384621
 30
0.0
 11
307.91446092809946
 21
132.28426998540712
 31
0.0
  0
LINE
  5
2D5
330
17
100
AcDbEntity
  8
VISIBLE
100
AcDbLine
 10
307.91446092809946
 20
132.28426998540712
 30
0.0
 11
307.92281311545145
 21
132.27458679912326
 31
0.0
  0
LINE
  5
2D6
330
17
100
AcDbEntity
  8
VISIBLE
100
AcDbLine
 10
307.92281311545145
 20
132.27458679912326
 30
0.0
 11
307.93337838529
 21
132.26739940570025
 31
0.0
  0
LINE
  5
2D7
330
17
100
AcDbEntity
  8
VISIBLE
100
AcDbLine
 10
307.93337838529
 20
132.26739940570025
 30
0.0
 11
307.9354523796089
 21
132.26644242942444
 31
0.0
  0
LINE
  5
2D8
330
17
100
AcDbEntity
  8
VISIBLE
100
AcDbLine
 10
307.9354523796089
 20
132.26644242942444
 30
0.0
 11
307.9375718763603
 21
132.26559096014762
 31
0.0
  0
LINE
  5
2D9
330
17
100
AcDbEntity
  8
VISIBLE
100
AcDbLine
 10
307.9375718763603
 20
132.26559096014762
 30
0.0
 11
307.9397312516791
 21
132.2648463898578
 31
0.0
  0
LINE
  5
2DA
330
17
100
AcDbEntity
  8
VISIBLE
100
AcDbLine
 10
307.9397312516791
 20
132.2648463898578
 30
0.0
 11
307.94192475355715
 21
132.26420931416448
 31
0.0
  0
LINE
  5
2DB
330
17
100
AcDbEntity
  8
VISIBLE
100
AcDbLine
 10
307.94192475355715
 20
132.26420931416448
 30
0.0
 11
307.9441466238382
 21
132.263679554475
 31
0.0
  0
LINE
  5
2DC
330
17
100
AcDbEntity
  8
VISIBLE
100
AcDbLine
 10
307.9441466238382
 20
132.263679554475
 30
0.0
 11
307.9463912113595
 21
132.26325620722605
 31
0.0
  0
LINE
  5
2DD
330
17
100
AcDbEntity
  8
VISIBLE
100
AcDbLine
 10
307.9463912113595
 20
132.26325620722605
 30
0.0
 11
307.94865307041124
 21
132.26293771475895
 31
0.0
  0
LINE
  5
2DE
330
17
100
AcDbEntity
  8
VISIBLE
100
AcDbLine
 10
307.94865307041124
 20
132.26293771475895
 30
0.0
 11
307.9509270406843
 21
132.26272195130358
 31
0.0
  0
LINE
  5
2DF
330
17
100
AcDbEntity
  8
VISIBLE
100
AcDbLine
 10
307.9509270406843
 20
132.26272195130358
 30
0.0
 11
307.9532083069803
 21
132.26260631731014
 31
0.0
  0
LINE
  5
2E0
330
17
100
AcDbEntity
  8
VISIBLE
100
AcDbLine
 10
307.9532083069803
 20
132.26260631731014
 30
0.0
 11
307.9554924388443
 21
132.26258783590407
 31
0.0
  0
LINE
  5
2E1
330
17
100
AcDbEntity
  8
VISIBLE
100
AcDbLine
 10
307.9554924388443
 20
132.26258783590407
 30
0.0
 11
307.95777541175045
 21
132.262663246294
 31
0.0
  0
LINE
  5
2E2
330
17
100
AcDbEntity
  8
VISIBLE
100
AcDbLine
 10
307.95777541175045
 20
132.262663246294
 30
0.0
 11
307.9600536124265
 21
132.26282909027753
 31
0.0
  0
LINE
  5
2E3
330
17
100
AcDbEntity
  8
VISIBLE
100
AcDbLine
 10
307.9600536124265
 20
132.26282909027753
 30
0.0
 11
307.96232383138016
 21
132.26308178932874
 31
0.0
  0
LINE
  5
2E4
330
17
100
AcDbEntity
  8
VISIBLE
100
AcDbLine
 10
307.96232383138016
 20
132.26308178932874
 30
0.0
 11
307.9645832457586
 21
132.2634177109585
 31
0.0
  0
LINE
  5
2E5
330
17
100
AcDbEntity
  8
VISIBLE
100
AcDbLine
 10
307.9645832457586
 20
132.2634177109585
 30
0.0
 11
307.96682939546196
 21
132.26383322401543
 31
0.0
  0
LINE
  5
2E6
330
17
100
AcDbEntity
  8
VISIBLE
100
AcDbLine
 10
307.96682939546196
 20
132.26383322401543
 30
0.0
 11
307.96906015504294
 21
132.2643247433155
 31
0.0
  0
LINE
  5
2E7
330
17
100
AcDbEntity
  8
VISIBLE
100
AcDbLine
 10
307.96906015504294
 20
132.2643247433155
 30
0.0
 11
307.97127370346607
 21
132.26488876446257
 31
0.0
  0
LINE
  5
2E8
330
17
100
AcDbEntity
  8
VISIBLE
100
AcDbLine
 10
307.97127370346607
 20
132.26488876446257
 30
0.0
 11
307.97346849333115
 21
132.2655218899898
 31
0.0
  0
LINE
  5
2E9
330
17
100
AcDbEntity
  8
VISIBLE
100
AcDbLine
 10
307.97346849333115
 20
132.2655218899898
 30
0.0
 11
307.9756432207365
 21
132.2662208480602
 31
0.0
  0
LINE
  5
2EA
330
17
100
AcDbEntity
  8
VISIBLE
100
AcDbLine
 10
307.9756432207365
 20
132.2662208480602
 30
0.0
 11
307.97779679658987
 21
132.26698250495758
 31
0.0
  0
LINE
  5
2EB
330
17
100
AcDbEntity
  8
VISIBLE
100
AcDbLine
 10
307.97779679658987
 20
132.26698250495758
 30
0.0
 11
307.9799283198765
 21
132.26780387252217
 31
0.0
  0
LINE
  5
2EC
330
17
100
AcDbEntity
  8
VISIBLE
100
AcDbLine
 10
307.9799283198765
 20
132.26780387252217
 30
0.0
 11
307.98203705316297
 21
132.26868211156446
 31
0.0
  0
LINE
  5
2ED
330
17
100
AcDbEntity
  8
VISIBLE
100
AcDbLine
 10
307.98203705316297
 20
132.26868211156446
 30
0.0
 11
307.98412240044473
 21
132.26961453215534
 31
0.0
  0
LINE
  5
2EE
330
17
100
AcDbEntity
  8
VISIBLE
100
AcDbLine
 10
307.98412240044473
 20
132.26961453215534
 30
0.0
 11
307.9861838873233
 21
132.2705985915493
 31
0.0
  0
LINE
  5
2EF
330
17
100
AcDbEntity
  8
OCULTA
100
AcDbLine
 10
305.02763222535333
 20
46.84612676056338
 30
0.0
 11
307.0
 21
47.817253521126766
 31
0.0
  0
LINE
  5
2F0
330
17
100
AcDbEntity
  8
OCULTA
100
AcDbLine
 10
307.0
 20
47.817253521126766
 30
0.0
 11
307.0
 21
134.525
 31
0.0
  0
LINE
  5
2F1
330
17
100
AcDbEntity
  8
OCULTA
100
AcDbLine
 10
306.0138161126767
 20
119.05633802816902
 30
0.0
 11
306.023005851839
 21
119.06147945475234
 31
0.0
  0
LINE
  5
2F2
330
17
100
AcDbEntity
  8
OCULTA
100
AcDbLine
 10
306.023005851839
 20
119.06147945475234
 30
0.0
 11
306.03166558754475
 21
119.06747268583503
 31
0.0
  0
LINE
  5
2F3
330
17
100
AcDbEntity
  8
OCULTA
100
AcDbLine
 10
306.03166558754475
 20
119.06747268583503
 30
0.0
 11
306.0397968563997
 21
119.07416658027883
 31
0.0
  0
LINE
  5
2F4
330
17
100
AcDbEntity
  8
OCULTA
100
AcDbLine
 10
306.0397968563997
 20
119.07416658027883
 30
0.0
 11
306.0474084307744
 21
119.08144671248755
 31
0.0
  0
LINE
  5
2F5
330
17
100
AcDbEntity
  8
OCULTA
100
AcDbLine
 10
306.0474084307744
 20
119.08144671248755
 30
0.0
 11
306.05451026933656
 21
119.08922536857547
 31
0.0
  0
LINE
  5
2F6
330
17
100
AcDbEntity
  8
OCULTA
100
AcDbLine
 10
306.05451026933656
 20
119.08922536857547
 30
0.0
 11
306.0611105575936
 21
119.09743418768323
 31
0.0
  0
LINE
  5
2F7
330
17
100
AcDbEntity
  8
OCULTA
100
AcDbLine
 10
306.0611105575936
 20
119.09743418768323
 30
0.0
 11
306.06721423775934
 21
119.10601887786704
 31
0.0
  0
LINE
  5
2F8
330
17
100
AcDbEntity
  8
OCULTA
100
AcDbLine
 10
306.06721423775934
 20
119.10601887786704
 30
0.0
 11
306.07282221525367
 21
119.11493540787595
 31
0.0
  0
LINE
  5
2F9
330
17
100
AcDbEntity
  8
OCULTA
100
AcDbLine
 10
306.07282221525367
 20
119.11493540787595
 30
0.0
 11
306.0779308255714
 21
119.12414720280829
 31
0.0
  0
LINE
  5
2FA
330
17
100
AcDbEntity
  8
OCULTA
100
AcDbLine
 10
306.0779308255714
 20
119.12414720280829
 30
0.0
 11
306.08253133738094
 21
119.13362299684138
 31
0.0
  0
LINE
  5
2FB
330
17
100
AcDbEntity
  8
OCULTA
100
AcDbLine
 10
306.08253133738094
 20
119.13362299684138
 30
0.0
 11
306.08660935635004
 21
119.14333508531884
 31
0.0
  0
LINE
  5
2FC
330
17
100
AcDbEntity
  8
OCULTA
100
AcDbLine
 10
306.08660935635004
 20
119.14333508531884
 30
0.0
 11
306.0901440293513
 21
119.15325776944302
 31
0.0
  0
LINE
  5
2FD
330
17
100
AcDbEntity
  8
OCULTA
100
AcDbLine
 10
306.0901440293513
 20
119.15325776944302
 30
0.0
 11
306.09310695449057
 21
119.16336580217839
 31
0.0
  0
LINE
  5
2FE
330
17
100
AcDbEntity
  8
OCULTA
100
AcDbLine
 10
306.09310695449057
 20
119.16336580217839
 30
0.0
 11
306.09546069095273
 21
119.17363262184742
 31
0.0
  0
LINE
  5
2FF
330
17
100
AcDbEntity
  8
OCULTA
100
AcDbLine
 10
306.09546069095273
 20
119.17363262184742
 30
0.0
 11
306.0971567428321
 21
119.18402808972893
 31
0.0
  0
LINE
  5
300
330
17
100
AcDbEntity
  8
OCULTA
100
AcDbLine
 10
306.0971567428321
 20
119.18402808972893
 30
0.0
 11
306.09813287789905
 21
119.19451530595596
 31
0.0
  0
LINE
  5
301
330
17
100
AcDbEntity
  8
OCULTA
100
AcDbLine
 10
306.09813287789905
 20
119.19451530595596
 30
0.0
 11
306.09830967515114
 21
119.2050458214828
 31
0.0
  0
LINE
  5
302
330
17
100
AcDbEntity
  8
OCULTA
100
AcDbLine
 10
306.09830967515114
 20
119.2050458214828
 30
0.0
 11
306.097586383186
 21
119.21555213116311
 31
0.0
  0
LINE
  5
303
330
17
100
AcDbEntity
  8
OCULTA
100
AcDbLine
 10
306.097586383186
 20
119.21555213116311
 30
0.0
 11
306.09583680374385
 21
119.22593568353173
 31
0.0
  0
LINE
  5
304
330
17
100
AcDbEntity
  8
OCULTA
100
AcDbLine
 10
306.09583680374385
 20
119.22593568353173
 30
0.0
 11
306.0929076912988
 21
119.23604797546895
 31
0.0
  0
LINE
  5
305
330
17
100
AcDbEntity
  8
OCULTA
100
AcDbLine
 10
306.0929076912988
 20
119.23604797546895
 30
0.0
 11
306.08862645678414
 21
119.24566287945862
 31
0.0
  0
LINE
  5
306
330
17
100
AcDbEntity
  8
OCULTA
100
AcDbLine
 10
306.08862645678414
 20
119.24566287945862
 30
0.0
 11
306.0828329067466
 21
119.25444469361372
 31
0.0
  0
LINE
  5
307
330
17
100
AcDbEntity
  8
OCULTA
100
AcDbLine
 10
306.0828329067466
 20
119.25444469361372
 30
0.0
 11
306.07545504270496
 21
119.261937733602
 31
0.0
  0
LINE
  5
308
330
17
100
AcDbEntity
  8
OCULTA
100
AcDbLine
 10
306.07545504270496
 20
119.261937733602
 30
0.0
 11
306.06662161471
 21
119.26763580556738
 31
0.0
  0
LINE
  5
309
330
17
100
AcDbEntity
  8
OCULTA
100
AcDbLine
 10
306.06662161471
 20
119.26763580556738
 30
0.0
 11
306.0544827220035
 21
119.2716271674051
 31
0.0
  0
LINE
  5
30A
330
17
100
AcDbEntity
  8
OCULTA
100
AcDbLine
 10
306.0544827220035
 20
119.2716271674051
 30
0.0
 11
306.0417151351226
 21
119.27234263690124
 31
0.0
  0
LINE
  5
30B
330
17
100
AcDbEntity
  8
OCULTA
100
AcDbLine
 10
306.0417151351226
 20
119.27234263690124
 30
0.0
 11
306.02909010182816
 21
119.27024431323692
 31
0.0
  0
LINE
  5
30C
330
17
100
AcDbEntity
  8
OCULTA
100
AcDbLine
 10
306.02909010182816
 20
119.27024431323692
 30
0.0
 11
306.0170283487627
 21
119.26594306029114
 31
0.0
  0
LINE
  5
30D
330
17
100
AcDbEntity
  8
OCULTA
100
AcDbLine
 10
306.0170283487627
 20
119.26594306029114
 30
0.0
 11
306.00570092116016
 21
119.25996037023468
 31
0.0
  0
LINE
  5
30E
330
17
100
AcDbEntity
  8
OCULTA
100
AcDbLine
 10
306.00570092116016
 20
119.25996037023468
 30
0.0
 11
305.9951558863725
 21
119.25268204665409
 31
0.0
  0
LINE
  5
30F
330
17
100
AcDbEntity
  8
OCULTA
100
AcDbLine
 10
305.9951558863725
 20
119.25268204665409
 30
0.0
 11
305.9853920139821
 21
119.24438267552306
 31
0.0
  0
LINE
  5
310
330
17
100
AcDbEntity
  8
OCULTA
100
AcDbLine
 10
305.9853920139821
 20
119.24438267552306
 30
0.0
 11
305.9763929572595
 21
119.235258260792
 31
0.0
  0
LINE
  5
311
330
17
100
AcDbEntity
  8
OCULTA
100
AcDbLine
 10
305.9763929572595
 20
119.235258260792
 30
0.0
 11
305.96814190035406
 21
119.22545143692629
 31
0.0
  0
LINE
  5
312
330
17
100
AcDbEntity
  8
OCULTA
100
AcDbLine
 10
305.96814190035406
 20
119.22545143692629
 30
0.0
 11
305.96062772280914
 21
119.21506872665938
 31
0.0
  0
LINE
  5
313
330
17
100
AcDbEntity
  8
OCULTA
100
AcDbLine
 10
305.96062772280914
 20
119.21506872665938
 30
0.0
 11
305.95384773787225
 21
119.2041920972096
 31
0.0
  0
LINE
  5
314
330
17
100
AcDbEntity
  8
OCULTA
100
AcDbLine
 10
305.95384773787225
 20
119.2041920972096
 30
0.0
 11
305.94780923349606
 21
119.19288686050086
 31
0.0
  0
LINE
  5
315
330
17
100
AcDbEntity
  8
OCULTA
100
AcDbLine
 10
305.94780923349606
 20
119.19288686050086
 30
0.0
 11
305.9425308412753
 21
119.18120737045362
 31
0.0
  0
LINE
  5
316
330
17
100
AcDbEntity
  8
OCULTA
100
AcDbLine
 10
305.9425308412753
 20
119.18120737045362
 30
0.0
 11
305.93804428081563
 21
119.16920153689719
 31
0.0
  0
LINE
  5
317
330
17
100
AcDbEntity
  8
OCULTA
100
AcDbLine
 10
305.93804428081563
 20
119.16920153689719
 30
0.0
 11
305.9343968737736
 21
119.15691496052295
 31
0.0
  0
LINE
  5
318
330
17
100
AcDbEntity
  8
OCULTA
100
AcDbLine
 10
305.9343968737736
 20
119.15691496052295
 30
0.0
 11
305.9316552247517
 21
119.14439549184895
 31
0.0
  0
LINE
  5
319
330
17
100
AcDbEntity
  8
OCULTA
100
AcDbLine
 10
305.9316552247517
 20
119.14439549184895
 30
0.0
 11
305.9299105432951
 21
119.13169926981288
 31
0.0
  0
LINE
  5
31A
330
17
100
AcDbEntity
  8
OCULTA
100
AcDbLine
 10
305.9299105432951
 20
119.13169926981288
 30
0.0
 11
305.9292861335229
 21
119.1188999386091
 31
0.0
  0
LINE
  5
31B
330
17
100
AcDbEntity
  8
OCULTA
100
AcDbLine
 10
305.9292861335229
 20
119.1188999386091
 30
0.0
 11
305.929947313582
 21
119.10610405665113
 31
0.0
  0
LINE
  5
31C
330
17
100
AcDbEntity
  8
OCULTA
100
AcDbLine
 10
305.929947313582
 20
119.10610405665113
 30
0.0
 11
305.93211246760154
 21
119.09347807929592
 31
0.0
  0
LINE
  5
31D
330
17
100
AcDbEntity
  8
OCULTA
100
AcDbLine
 10
305.93211246760154
 20
119.09347807929592
 30
0.0
 11
305.9360580699102
 21
119.08129535046592
 31
0.0
  0
LINE
  5
31E
330
17
100
AcDbEntity
  8
OCULTA
100
AcDbLine
 10
305.9360580699102
 20
119.08129535046592
 30
0.0
 11
305.9420931534528
 21
119.07000942202684
 31
0.0
  0
LINE
  5
31F
330
17
100
AcDbEntity
  8
OCULTA
100
AcDbLine
 10
305.9420931534528
 20
119.07000942202684
 30
0.0
 11
305.95044534080483
 21
119.06032623574296
 31
0.0
  0
LINE
  5
320
330
17
100
AcDbEntity
  8
OCULTA
100
AcDbLine
 10
305.95044534080483
 20
119.06032623574296
 30
0.0
 11
305.96101061064337
 21
119.05313884231995
 31
0.0
  0
LINE
  5
321
330
17
100
AcDbEntity
  8
OCULTA
100
AcDbLine
 10
305.96101061064337
 20
119.05313884231995
 30
0.0
 11
305.96308460496226
 21
119.05218186604418
 31
0.0
  0
LINE
  5
322
330
17
100
AcDbEntity
  8
OCULTA
100
AcDbLine
 10
305.96308460496226
 20
119.05218186604418
 30
0.0
 11
305.9652041017137
 21
119.05133039676736
 31
0.0
  0
LINE
  5
323
330
17
100
AcDbEntity
  8
OCULTA
100
AcDbLine
 10
305.9652041017137
 20
119.05133039676736
 30
0.0
 11
305.96736347703245
 21
119.05058582647753
 31
0.0
  0
LINE
  5
324
330
17
100
AcDbEntity
  8
OCULTA
100
AcDbLine
 10
305.96736347703245
 20
119.05058582647753
 30
0.0
 11
305.9695569789105
 21
119.04994875078418
 31
0.0
  0
LINE
  5
325
330
17
100
AcDbEntity
  8
OCULTA
100
AcDbLine
 10
305.9695569789105
 20
119.04994875078418
 30
0.0
 11
305.97177884919154
 21
119.04941899109473
 31
0.0
  0
LINE
  5
326
330
17
100
AcDbEntity
  8
OCULTA
100
AcDbLine
 10
305.97177884919154
 20
119.04941899109473
 30
0.0
 11
305.97402343671286
 21
119.04899564384579
 31
0.0
  0
LINE
  5
327
330
17
100
AcDbEntity
  8
OCULTA
100
AcDbLine
 10
305.97402343671286
 20
119.04899564384579
 30
0.0
 11
305.97628529576457
 21
119.04867715137868
 31
0.0
  0
LINE
  5
328
330
17
100
AcDbEntity
  8
OCULTA
100
AcDbLine
 10
305.97628529576457
 20
119.04867715137868
 30
0.0
 11
305.9785592660377
 21
119.0484613879233
 31
0.0
  0
LINE
  5
329
330
17
100
AcDbEntity
  8
OCULTA
100
AcDbLine
 10
305.9785592660377
 20
119.0484613879233
 30
0.0
 11
305.9808405323336
 21
119.04834575392987
 31
0.0
  0
LINE
  5
32A
330
17
100
AcDbEntity
  8
OCULTA
100
AcDbLine
 10
305.9808405323336
 20
119.04834575392987
 30
0.0
 11
305.98312466419765
 21
119.04832727252378
 31
0.0
  0
LINE
  5
32B
330
17
100
AcDbEntity
  8
OCULTA
100
AcDbLine
 10
305.98312466419765
 20
119.04832727252378
 30
0.0
 11
305.9854076371038
 21
119.04840268291373
 31
0.0
  0
LINE
  5
32C
330
17
100
AcDbEntity
  8
OCULTA
100
AcDbLine
 10
305.9854076371038
 20
119.04840268291373
 30
0.0
 11
305.98768583777985
 21
119.04856852689727
 31
0.0
  0
LINE
  5
32D
330
17
100
AcDbEntity
  8
OCULTA
100
AcDbLine
 10
305.98768583777985
 20
119.04856852689727
 30
0.0
 11
305.9899560567335
 21
119.04882122594847
 31
0.0
  0
LINE
  5
32E
330
17
100
AcDbEntity
  8
OCULTA
100
AcDbLine
 10
305.9899560567335
 20
119.04882122594847
 30
0.0
 11
305.99221547111193
 21
119.0491571475782
 31
0.0
  0
LINE
  5
32F
330
17
100
AcDbEntity
  8
OCULTA
100
AcDbLine
 10
305.99221547111193
 20
119.0491571475782
 30
0.0
 11
305.99446162081534
 21
119.04957266063514
 31
0.0
  0
LINE
  5
330
330
17
100
AcDbEntity
  8
OCULTA
100
AcDbLine
 10
305.99446162081534
 20
119.04957266063514
 30
0.0
 11
305.99669238039627
 21
119.05006417993525
 31
0.0
  0
LINE
  5
331
330
17
100
AcDbEntity
  8
OCULTA
100
AcDbLine
 10
305.99669238039627
 20
119.05006417993525
 30
0.0
 11
305.9989059288194
 21
119.0506282010823
 31
0.0
  0
LINE
  5
332
330
17
100
AcDbEntity
  8
OCULTA
100
AcDbLine
 10
305.9989059288194
 20
119.0506282010823
 30
0.0
 11
306.0011007186845
 21
119.05126132660953
 31
0.0
  0
LINE
  5
333
330
17
100
AcDbEntity
  8
OCULTA
100
AcDbLine
 10
306.0011007186845
 20
119.05126132660953
 30
0.0
 11
306.00327544608984
 21
119.05196028467992
 31
0.0
  0
LINE
  5
334
330
17
100
AcDbEntity
  8
OCULTA
100
AcDbLine
 10
306.00327544608984
 20
119.05196028467992
 30
0.0
 11
306.0054290219432
 21
119.05272194157732
 31
0.0
  0
LINE
  5
335
330
17
100
AcDbEntity
  8
OCULTA
100
AcDbLine
 10
306.0054290219432
 20
119.05272194157732
 30
0.0
 11
306.0075605452298
 21
119.05354330914187
 31
0.0
  0
LINE
  5
336
330
17
100
AcDbEntity
  8
OCULTA
100
AcDbLine
 10
306.0075605452298
 20
119.05354330914187
 30
0.0
 11
306.00966927851636
 21
119.0544215481842
 31
0.0
  0
LINE
  5
337
330
17
100
AcDbEntity
  8
OCULTA
100
AcDbLine
 10
306.00966927851636
 20
119.0544215481842
 30
0.0
 11
306.01175462579806
 21
119.05535396877505
 31
0.0
  0
LINE
  5
338
330
17
100
AcDbEntity
  8
OCULTA
100
AcDbLine
 10
306.01175462579806
 20
119.05535396877505
 30
0.0
 11
306.0138161126767
 21
119.05633802816902
 31
0.0
  0
LINE
  5
339
330
17
100
AcDbEntity
  8
OCULTA
100
AcDbLine
 10
306.0138161126767
 20
120.0968309859155
 30
0.0
 11
306.023005851839
 21
120.10197241249882
 31
0.0
  0
LINE
  5
33A
330
17
100
AcDbEntity
  8
OCULTA
100
AcDbLine
 10
306.023005851839
 20
120.10197241249882
 30
0.0
 11
306.03166558754475
 21
120.10796564358151
 31
0.0
  0
LINE
  5
33B
330
17
100
AcDbEntity
  8
OCULTA
100
AcDbLine
 10
306.03166558754475
 20
120.10796564358151
 30
0.0
 11
306.0397968563997
 21
120.11465953802531
 31
0.0
  0
LINE
  5
33C
330
17
100
AcDbEntity
  8
OCULTA
100
AcDbLine
 10
306.0397968563997
 20
120.11465953802531
 30
0.0
 11
306.0474084307744
 21
120.12193967023403
 31
0.0
  0
LINE
  5
33D
330
17
100
AcDbEntity
  8
OCULTA
100
AcDbLine
 10
306.0474084307744
 20
120.12193967023403
 30
0.0
 11
306.05451026933656
 21
120.12971832632195
 31
0.0
  0
LINE
  5
33E
330
17
100
AcDbEntity
  8
OCULTA
100
AcDbLine
 10
306.05451026933656
 20
120.12971832632195
 30
0.0
 11
306.0611105575936
 21
120.13792714542971
 31
0.0
  0
LINE
  5
33F
330
17
100
AcDbEntity
  8
OCULTA
100
AcDbLine
 10
306.0611105575936
 20
120.13792714542971
 30
0.0
 11
306.06721423775934
 21
120.14651183561352
 31
0.0
  0
LINE
  5
340
330
17
100
AcDbEntity
  8
OCULTA
100
AcDbLine
 10
306.06721423775934
 20
120.14651183561352
 30
0.0
 11
306.07282221525367
 21
120.15542836562243
 31
0.0
  0
LINE
  5
341
330
17
100
AcDbEntity
  8
OCULTA
100
AcDbLine
 10
306.07282221525367
 20
120.15542836562243
 30
0.0
 11
306.0779308255714
 21
120.16464016055477
 31
0.0
  0
LINE
  5
342
330
17
100
AcDbEntity
  8
OCULTA
100
AcDbLine
 10
306.0779308255714
 20
120.16464016055477
 30
0.0
 11
306.08253133738094
 21
120.17411595458785
 31
0.0
  0
LINE
  5
343
330
17
100
AcDbEntity
  8
OCULTA
100
AcDbLine
 10
306.08253133738094
 20
120.17411595458785
 30
0.0
 11
306.08660935635004
 21
120.18382804306532
 31
0.0
  0
LINE
  5
344
330
17
100
AcDbEntity
  8
OCULTA
100
AcDbLine
 10
306.08660935635004
 20
120.18382804306532
 30
0.0
 11
306.0901440293513
 21
120.1937507271895
 31
0.0
  0
LINE
  5
345
330
17
100
AcDbEntity
  8
OCULTA
100
AcDbLine
 10
306.0901440293513
 20
120.1937507271895
 30
0.0
 11
306.09310695449057
 21
120.20385875992487
 31
0.0
  0
LINE
  5
346
330
17
100
AcDbEntity
  8
OCULTA
100
AcDbLine
 10
306.09310695449057
 20
120.20385875992487
 30
0.0
 11
306.09546069095273
 21
120.2141255795939
 31
0.0
  0
LINE
  5
347
330
17
100
AcDbEntity
  8
OCULTA
100
AcDbLine
 10
306.09546069095273
 20
120.2141255795939
 30
0.0
 11
306.0971567428321
 21
120.2245210474754
 31
0.0
  0
LINE
  5
348
330
17
100
AcDbEntity
  8
OCULTA
100
AcDbLine
 10
306.0971567428321
 20
120.2245210474754
 30
0.0
 11
306.09813287789905
 21
120.23500826370244
 31
0.0
  0
LINE
  5
349
330
17
100
AcDbEntity
  8
OCULTA
100
AcDbLine
 10
306.09813287789905
 20
120.23500826370244
 30
0.0
 11
306.09830967515114
 21
120.24553877922928
 31
0.0
  0
LINE
  5
34A
330
17
100
AcDbEntity
  8
OCULTA
100
AcDbLine
 10
306.09830967515114
 20
120.24553877922928
 30
0.0
 11
306.097586383186
 21
120.25604508890959
 31
0.0
  0
LINE
  5
34B
330
17
100
AcDbEntity
  8
OCULTA
100
AcDbLine
 10
306.097586383186
 20
120.25604508890959
 30
0.0
 11
306.09583680374385
 21
120.26642864127821
 31
0.0
  0
LINE
  5
34C
330
17
100
AcDbEntity
  8
OCULTA
100
AcDbLine
 10
306.09583680374385
 20
120.26642864127821
 30
0.0
 11
306.0929076912988
 21
120.27654093321543
 31
0.0
  0
LINE
  5
34D
330
17
100
AcDbEntity
  8
OCULTA
100
AcDbLine
 10
306.0929076912988
 20
120.27654093321543
 30
0.0
 11
306.08862645678414
 21
120.28615583720509
 31
0.0
  0
LINE
  5
34E
330
17
100
AcDbEntity
  8
OCULTA
100
AcDbLine
 10
306.08862645678414
 20
120.28615583720509
 30
0.0
 11
306.0828329067466
 21
120.2949376513602
 31
0.0
  0
LINE
  5
34F
330
17
100
AcDbEntity
  8
OCULTA
100
AcDbLine
 10
306.0828329067466
 20
120.2949376513602
 30
0.0
 11
306.07545504270496
 21
120.30243069134849
 31
0.0
  0
LINE
  5
350
330
17
100
AcDbEntity
  8
OCULTA
100
AcDbLine
 10
306.07545504270496
 20
120.30243069134849
 30
0.0
 11
306.06662161471
 21
120.30812876331386
 31
0.0
  0
LINE
  5
351
330
17
100
AcDbEntity
  8
OCULTA
100
AcDbLine
 10
306.06662161471
 20
120.30812876331386
 30
0.0
 11
306.0544827220035
 21
120.31212012515158
 31
0.0
  0
LINE
  5
352
330
17
100
AcDbEntity
  8
OCULTA
100
AcDbLine
 10
306.0544827220035
 20
120.31212012515158
 30
0.0
 11
306.0417151351226
 21
120.31283559464772
 31
0.0
  0
LINE
  5
353
330
17
100
AcDbEntity
  8
OCULTA
100
AcDbLine
 10
306.0417151351226
 20
120.31283559464772
 30
0.0
 11
306.02909010182816
 21
120.3107372709834
 31
0.0
  0
LINE
  5
354
330
17
100
AcDbEntity
  8
OCULTA
100
AcDbLine
 10
306.02909010182816
 20
120.3107372709834
 30
0.0
 11
306.0170283487627
 21
120.30643601803762
 31
0.0
  0
LINE
  5
355
330
17
100
AcDbEntity
  8
OCULTA
100
AcDbLine
 10
306.0170283487627
 20
120.30643601803762
 30
0.0
 11
306.00570092116016
 21
120.30045332798116
 31
0.0
  0
LINE
  5
356
330
17
100
AcDbEntity
  8
OCULTA
100
AcDbLine
 10
306.00570092116016
 20
120.30045332798116
 30
0.0
 11
305.9951558863725
 21
120.29317500440058
 31
0.0
  0
LINE
  5
357
330
17
100
AcDbEntity
  8
OCULTA
100
AcDbLine
 10
305.9951558863725
 20
120.29317500440058
 30
0.0
 11
305.9853920139821
 21
120.28487563326954
 31
0.0
  0
LINE
  5
358
330
17
100
AcDbEntity
  8
OCULTA
100
AcDbLine
 10
305.9853920139821
 20
120.28487563326954
 30
0.0
 11
305.9763929572595
 21
120.27575121853847
 31
0.0
  0
LINE
  5
359
330
17
100
AcDbEntity
  8
OCULTA
100
AcDbLine
 10
305.9763929572595
 20
120.27575121853847
 30
0.0
 11
305.96814190035406
 21
120.26594439467277
 31
0.0
  0
LINE
  5
35A
330
17
100
AcDbEntity
  8
OCULTA
100
AcDbLine
 10
305.96814190035406
 20
120.26594439467277
 30
0.0
 11
305.96062772280914
 21
120.25556168440588
 31
0.0
  0
LINE
  5
35B
330
17
100
AcDbEntity
  8
OCULTA
100
AcDbLine
 10
305.96062772280914
 20
120.25556168440588
 30
0.0
 11
305.95384773787225
 21
120.24468505495608
 31
0.0
  0
LINE
  5
35C
330
17
100
AcDbEntity
  8
OCULTA
100
AcDbLine
 10
305.95384773787225
 20
120.24468505495608
 30
0.0
 11
305.94780923349606
 21
120.23337981824736
 31
0.0
  0
LINE
  5
35D
330
17
100
AcDbEntity
  8
OCULTA
100
AcDbLine
 10
305.94780923349606
 20
120.23337981824736
 30
0.0
 11
305.9425308412753
 21
120.2217003282001
 31
0.0
  0
LINE
  5
35E
330
17
100
AcDbEntity
  8
OCULTA
100
AcDbLine
 10
305.9425308412753
 20
120.2217003282001
 30
0.0
 11
305.93804428081563
 21
120.20969449464368
 31
0.0
  0
LINE
  5
35F
330
17
100
AcDbEntity
  8
OCULTA
100
AcDbLine
 10
305.93804428081563
 20
120.20969449464368
 30
0.0
 11
305.9343968737736
 21
120.19740791826943
 31
0.0
  0
LINE
  5
360
330
17
100
AcDbEntity
  8
OCULTA
100
AcDbLine
 10
305.9343968737736
 20
120.19740791826943
 30
0.0
 11
305.9316552247517
 21
120.18488844959543
 31
0.0
  0
LINE
  5
361
330
17
100
AcDbEntity
  8
OCULTA
100
AcDbLine
 10
305.9316552247517
 20
120.18488844959543
 30
0.0
 11
305.9299105432951
 21
120.17219222755938
 31
0.0
  0
LINE
  5
362
330
17
100
AcDbEntity
  8
OCULTA
100
AcDbLine
 10
305.9299105432951
 20
120.17219222755938
 30
0.0
 11
305.9292861335229
 21
120.15939289635557
 31
0.0
  0
LINE
  5
363
330
17
100
AcDbEntity
  8
OCULTA
100
AcDbLine
 10
305.9292861335229
 20
120.15939289635557
 30
0.0
 11
305.929947313582
 21
120.14659701439761
 31
0.0
  0
LINE
  5
364
330
17
100
AcDbEntity
  8
OCULTA
100
AcDbLine
 10
305.929947313582
 20
120.14659701439761
 30
0.0
 11
305.93211246760154
 21
120.13397103704239
 31
0.0
  0
LINE
  5
365
330
17
100
AcDbEntity
  8
OCULTA
100
AcDbLine
 10
305.93211246760154
 20
120.13397103704239
 30
0.0
 11
305.9360580699102
 21
120.12178830821242
 31
0.0
  0
LINE
  5
366
330
17
100
AcDbEntity
  8
OCULTA
100
AcDbLine
 10
305.9360580699102
 20
120.12178830821242
 30
0.0
 11
305.9420931534528
 21
120.11050237977332
 31
0.0
  0
LINE
  5
367
330
17
100
AcDbEntity
  8
OCULTA
100
AcDbLine
 10
305.9420931534528
 20
120.11050237977332
 30
0.0
 11
305.95044534080483
 21
120.10081919348946
 31
0.0
  0
LINE
  5
368
330
17
100
AcDbEntity
  8
OCULTA
100
AcDbLine
 10
305.95044534080483
 20
120.10081919348946
 30
0.0
 11
305.96101061064337
 21
120.09363180006643
 31
0.0
  0
LINE
  5
369
330
17
100
AcDbEntity
  8
OCULTA
100
AcDbLine
 10
305.96101061064337
 20
120.09363180006643
 30
0.0
 11
305.96308460496226
 21
120.09267482379066
 31
0.0
  0
LINE
  5
36A
330
17
100
AcDbEntity
  8
OCULTA
100
AcDbLine
 10
305.96308460496226
 20
120.09267482379066
 30
0.0
 11
305.9652041017137
 21
120.09182335451385
 31
0.0
  0
LINE
  5
36B
330
17
100
AcDbEntity
  8
OCULTA
100
AcDbLine
 10
305.9652041017137
 20
120.09182335451385
 30
0.0
 11
305.96736347703245
 21
120.09107878422401
 31
0.0
  0
LINE
  5
36C
330
17
100
AcDbEntity
  8
OCULTA
100
AcDbLine
 10
305.96736347703245
 20
120.09107878422401
 30
0.0
 11
305.9695569789105
 21
120.09044170853066
 31
0.0
  0
LINE
  5
36D
330
17
100
AcDbEntity
  8
OCULTA
100
AcDbLine
 10
305.9695569789105
 20
120.09044170853066
 30
0.0
 11
305.97177884919154
 21
120.0899119488412
 31
0.0
  0
LINE
  5
36E
330
17
100
AcDbEntity
  8
OCULTA
100
AcDbLine
 10
305.97177884919154
 20
120.0899119488412
 30
0.0
 11
305.97402343671286
 21
120.08948860159227
 31
0.0
  0
LINE
  5
36F
330
17
100
AcDbEntity
  8
OCULTA
100
AcDbLine
 10
305.97402343671286
 20
120.08948860159227
 30
0.0
 11
305.97628529576457
 21
120.08917010912516
 31
0.0
  0
LINE
  5
370
330
17
100
AcDbEntity
  8
OCULTA
100
AcDbLine
 10
305.97628529576457
 20
120.08917010912516
 30
0.0
 11
305.9785592660377
 21
120.08895434566978
 31
0.0
  0
LINE
  5
371
330
17
100
AcDbEntity
  8
OCULTA
100
AcDbLine
 10
305.9785592660377
 20
120.08895434566978
 30
0.0
 11
305.9808405323336
 21
120.08883871167635
 31
0.0
  0
LINE
  5
372
330
17
100
AcDbEntity
  8
OCULTA
100
AcDbLine
 10
305.9808405323336
 20
120.08883871167635
 30
0.0
 11
305.98312466419765
 21
120.08882023027026
 31
0.0
  0
LINE
  5
373
330
17
100
AcDbEntity
  8
OCULTA
100
AcDbLine
 10
305.98312466419765
 20
120.08882023027026
 30
0.0
 11
305.9854076371038
 21
120.08889564066021
 31
0.0
  0
LINE
  5
374
330
17
100
AcDbEntity
  8
OCULTA
100
AcDbLine
 10
305.9854076371038
 20
120.08889564066021
 30
0.0
 11
305.98768583777985
 21
120.08906148464375
 31
0.0
  0
LINE
  5
375
330
17
100
AcDbEntity
  8
OCULTA
100
AcDbLine
 10
305.98768583777985
 20
120.08906148464375
 30
0.0
 11
305.9899560567335
 21
120.08931418369494
 31
0.0
  0
LINE
  5
376
330
17
100
AcDbEntity
  8
OCULTA
100
AcDbLine
 10
305.9899560567335
 20
120.08931418369494
 30
0.0
 11
305.99221547111193
 21
120.08965010532468
 31
0.0
  0
LINE
  5
377
330
17
100
AcDbEntity
  8
OCULTA
100
AcDbLine
 10
305.99221547111193
 20
120.08965010532468
 30
0.0
 11
305.99446162081534
 21
120.09006561838163
 31
0.0
  0
LINE
  5
378
330
17
100
AcDbEntity
  8
OCULTA
100
AcDbLine
 10
305.99446162081534
 20
120.09006561838163
 30
0.0
 11
305.99669238039627
 21
120.09055713768173
 31
0.0
  0
LINE
  5
379
330
17
100
AcDbEntity
  8
OCULTA
100
AcDbLine
 10
305.99669238039627
 20
120.09055713768173
 30
0.0
 11
305.9989059288194
 21
120.09112115882878
 31
0.0
  0
LINE
  5
37A
330
17
100
AcDbEntity
  8
OCULTA
100
AcDbLine
 10
305.9989059288194
 20
120.09112115882878
 30
0.0
 11
306.0011007186845
 21
120.091754284356
 31
0.0
  0
LINE
  5
37B
330
17
100
AcDbEntity
  8
OCULTA
100
AcDbLine
 10
306.0011007186845
 20
120.091754284356
 30
0.0
 11
306.00327544608984
 21
120.0924532424264
 31
0.0
  0
LINE
  5
37C
330
17
100
AcDbEntity
  8
OCULTA
100
AcDbLine
 10
306.00327544608984
 20
120.0924532424264
 30
0.0
 11
306.0054290219432
 21
120.0932148993238
 31
0.0
  0
LINE
  5
37D
330
17
100
AcDbEntity
  8
OCULTA
100
AcDbLine
 10
306.0054290219432
 20
120.0932148993238
 30
0.0
 11
306.0075605452298
 21
120.09403626688837
 31
0.0
  0
LINE
  5
37E
330
17
100
AcDbEntity
  8
OCULTA
100
AcDbLine
 10
306.0075605452298
 20
120.09403626688837
 30
0.0
 11
306.00966927851636
 21
120.09491450593066
 31
0.0
  0
LINE
  5
37F
330
17
100
AcDbEntity
  8
OCULTA
100
AcDbLine
 10
306.00966927851636
 20
120.09491450593066
 30
0.0
 11
306.01175462579806
 21
120.09584692652155
 31
0.0
  0
LINE
  5
380
330
17
100
AcDbEntity
  8
OCULTA
100
AcDbLine
 10
306.01175462579806
 20
120.09584692652155
 30
0.0
 11
306.0138161126767
 21
120.0968309859155
 31
0.0
  0
LINE
  5
381
330
17
100
AcDbEntity
  8
OCULTA
100
AcDbLine
 10
306.0138161126767
 20
132.20123239436623
 30
0.0
 11
306.023005851839
 21
132.20637382094952
 31
0.0
  0
LINE
  5
382
330
17
100
AcDbEntity
  8
OCULTA
100
AcDbLine
 10
306.023005851839
 20
132.20637382094952
 30
0.0
 11
306.03166558754475
 21
132.21236705203222
 31
0.0
  0
LINE
  5
383
330
17
100
AcDbEntity
  8
OCULTA
100
AcDbLine
 10
306.03166558754475
 20
132.21236705203222
 30
0.0
 11
306.0397968563997
 21
132.21906094647602
 31
0.0
  0
LINE
  5
384
330
17
100
AcDbEntity
  8
OCULTA
100
AcDbLine
 10
306.0397968563997
 20
132.21906094647602
 30
0.0
 11
306.0474084307744
 21
132.22634107868473
 31
0.0
  0
LINE
  5
385
330
17
100
AcDbEntity
  8
OCULTA
100
AcDbLine
 10
306.0474084307744
 20
132.22634107868473
 30
0.0
 11
306.05451026933656
 21
132.23411973477266
 31
0.0
  0
LINE
  5
386
330
17
100
AcDbEntity
  8
OCULTA
100
AcDbLine
 10
306.05451026933656
 20
132.23411973477266
 30
0.0
 11
306.0611105575936
 21
132.2423285538804
 31
0.0
  0
LINE
  5
387
330
17
100
AcDbEntity
  8
OCULTA
100
AcDbLine
 10
306.0611105575936
 20
132.2423285538804
 30
0.0
 11
306.06721423775934
 21
132.25091324406424
 31
0.0
  0
LINE
  5
388
330
17
100
AcDbEntity
  8
OCULTA
100
AcDbLine
 10
306.06721423775934
 20
132.25091324406424
 30
0.0
 11
306.07282221525367
 21
132.25982977407313
 31
0.0
  0
LINE
  5
389
330
17
100
AcDbEntity
  8
OCULTA
100
AcDbLine
 10
306.07282221525367
 20
132.25982977407313
 30
0.0
 11
306.0779308255714
 21
132.26904156900548
 31
0.0
  0
LINE
  5
38A
330
17
100
AcDbEntity
  8
OCULTA
100
AcDbLine
 10
306.0779308255714
 20
132.26904156900548
 30
0.0
 11
306.08253133738094
 21
132.27851736303856
 31
0.0
  0
LINE
  5
38B
330
17
100
AcDbEntity
  8
OCULTA
100
AcDbLine
 10
306.08253133738094
 20
132.27851736303856
 30
0.0
 11
306.08660935635004
 21
132.28822945151603
 31
0.0
  0
LINE
  5
38C
330
17
100
AcDbEntity
  8
OCULTA
100
AcDbLine
 10
306.08660935635004
 20
132.28822945151603
 30
0.0
 11
306.0901440293513
 21
132.2981521356402
 31
0.0
  0
LINE
  5
38D
330
17
100
AcDbEntity
  8
OCULTA
100
AcDbLine
 10
306.0901440293513
 20
132.2981521356402
 30
0.0
 11
306.09310695449057
 21
132.30826016837557
 31
0.0
  0
LINE
  5
38E
330
17
100
AcDbEntity
  8
OCULTA
100
AcDbLine
 10
306.09310695449057
 20
132.30826016837557
 30
0.0
 11
306.09546069095273
 21
132.31852698804462
 31
0.0
  0
LINE
  5
38F
330
17
100
AcDbEntity
  8
OCULTA
100
AcDbLine
 10
306.09546069095273
 20
132.31852698804462
 30
0.0
 11
306.0971567428321
 21
132.32892245592612
 31
0.0
  0
LINE
  5
390
330
17
100
AcDbEntity
  8
OCULTA
100
AcDbLine
 10
306.0971567428321
 20
132.32892245592612
 30
0.0
 11
306.09813287789905
 21
132.33940967215315
 31
0.0
  0
LINE
  5
391
330
17
100
AcDbEntity
  8
OCULTA
100
AcDbLine
 10
306.09813287789905
 20
132.33940967215315
 30
0.0
 11
306.09830967515114
 21
132.34994018767998
 31
0.0
  0
LINE
  5
392
330
17
100
AcDbEntity
  8
OCULTA
100
AcDbLine
 10
306.09830967515114
 20
132.34994018767998
 30
0.0
 11
306.097586383186
 21
132.3604464973603
 31
0.0
  0
LINE
  5
393
330
17
100
AcDbEntity
  8
OCULTA
100
AcDbLine
 10
306.097586383186
 20
132.3604464973603
 30
0.0
 11
306.09583680374385
 21
132.3708300497289
 31
0.0
  0
LINE
  5
394
330
17
100
AcDbEntity
  8
OCULTA
100
AcDbLine
 10
306.09583680374385
 20
132.3708300497289
 30
0.0
 11
306.0929076912988
 21
132.38094234166613
 31
0.0
  0
LINE
  5
395
330
17
100
AcDbEntity
  8
OCULTA
100
AcDbLine
 10
306.0929076912988
 20
132.38094234166613
 30
0.0
 11
306.08862645678414
 21
132.39055724565583
 31
0.0
  0
LINE
  5
396
330
17
100
AcDbEntity
  8
OCULTA
100
AcDbLine
 10
306.08862645678414
 20
132.39055724565583
 30
0.0
 11
306.0828329067466
 21
132.39933905981093
 31
0.0
  0
LINE
  5
397
330
17
100
AcDbEntity
  8
OCULTA
100
AcDbLine
 10
306.0828329067466
 20
132.39933905981093
 30
0.0
 11
306.07545504270496
 21
132.4068320997992
 31
0.0
  0
LINE
  5
398
330
17
100
AcDbEntity
  8
OCULTA
100
AcDbLine
 10
306.07545504270496
 20
132.4068320997992
 30
0.0
 11
306.06662161471
 21
132.4125301717646
 31
0.0
  0
LINE
  5
399
330
17
100
AcDbEntity
  8
OCULTA
100
AcDbLine
 10
306.06662161471
 20
132.4125301717646
 30
0.0
 11
306.0544827220035
 21
132.4165215336023
 31
0.0
  0
LINE
  5
39A
330
17
100
AcDbEntity
  8
OCULTA
100
AcDbLine
 10
306.0544827220035
 20
132.4165215336023
 30
0.0
 11
306.0417151351226
 21
132.41723700309842
 31
0.0
  0
LINE
  5
39B
330
17
100
AcDbEntity
  8
OCULTA
100
AcDbLine
 10
306.0417151351226
 20
132.41723700309842
 30
0.0
 11
306.02909010182816
 21
132.4151386794341
 31
0.0
  0
LINE
  5
39C
330
17
100
AcDbEntity
  8
OCULTA
100
AcDbLine
 10
306.02909010182816
 20
132.4151386794341
 30
0.0
 11
306.0170283487627
 21
132.41083742648834
 31
0.0
  0
LINE
  5
39D
330
17
100
AcDbEntity
  8
OCULTA
100
AcDbLine
 10
306.0170283487627
 20
132.41083742648834
 30
0.0
 11
306.00570092116016
 21
132.40485473643187
 31
0.0
  0
LINE
  5
39E
330
17
100
AcDbEntity
  8
OCULTA
100
AcDbLine
 10
306.00570092116016
 20
132.40485473643187
 30
0.0
 11
305.9951558863725
 21
132.3975764128513
 31
0.0
  0
LINE
  5
39F
330
17
100
AcDbEntity
  8
OCULTA
100
AcDbLine
 10
305.9951558863725
 20
132.3975764128513
 30
0.0
 11
305.9853920139821
 21
132.38927704172025
 31
0.0
  0
LINE
  5
3A0
330
17
100
AcDbEntity
  8
OCULTA
100
AcDbLine
 10
305.9853920139821
 20
132.38927704172025
 30
0.0
 11
305.9763929572595
 21
132.38015262698917
 31
0.0
  0
LINE
  5
3A1
330
17
100
AcDbEntity
  8
OCULTA
100
AcDbLine
 10
305.9763929572595
 20
132.38015262698917
 30
0.0
 11
305.96814190035406
 21
132.37034580312348
 31
0.0
  0
LINE
  5
3A2
330
17
100
AcDbEntity
  8
OCULTA
100
AcDbLine
 10
305.96814190035406
 20
132.37034580312348
 30
0.0
 11
305.96062772280914
 21
132.35996309285656
 31
0.0
  0
LINE
  5
3A3
330
17
100
AcDbEntity
  8
OCULTA
100
AcDbLine
 10
305.96062772280914
 20
132.35996309285656
 30
0.0
 11
305.95384773787225
 21
132.3490864634068
 31
0.0
  0
LINE
  5
3A4
330
17
100
AcDbEntity
  8
OCULTA
100
AcDbLine
 10
305.95384773787225
 20
132.3490864634068
 30
0.0
 11
305.94780923349606
 21
132.33778122669804
 31
0.0
  0
LINE
  5
3A5
330
17
100
AcDbEntity
  8
OCULTA
100
AcDbLine
 10
305.94780923349606
 20
132.33778122669804
 30
0.0
 11
305.9425308412753
 21
132.3261017366508
 31
0.0
  0
LINE
  5
3A6
330
17
100
AcDbEntity
  8
OCULTA
100
AcDbLine
 10
305.9425308412753
 20
132.3261017366508
 30
0.0
 11
305.93804428081563
 21
132.3140959030944
 31
0.0
  0
LINE
  5
3A7
330
17
100
AcDbEntity
  8
OCULTA
100
AcDbLine
 10
305.93804428081563
 20
132.3140959030944
 30
0.0
 11
305.9343968737736
 21
132.30180932672016
 31
0.0
  0
LINE
  5
3A8
330
17
100
AcDbEntity
  8
OCULTA
100
AcDbLine
 10
305.9343968737736
 20
132.30180932672016
 30
0.0
 11
305.9316552247517
 21
132.28928985804615
 31
0.0
  0
LINE
  5
3A9
330
17
100
AcDbEntity
  8
OCULTA
100
AcDbLine
 10
305.9316552247517
 20
132.28928985804615
 30
0.0
 11
305.9299105432951
 21
132.2765936360101
 31
0.0
  0
LINE
  5
3AA
330
17
100
AcDbEntity
  8
OCULTA
100
AcDbLine
 10
305.9299105432951
 20
132.2765936360101
 30
0.0
 11
305.9292861335229
 21
132.26379430480628
 31
0.0
  0
LINE
  5
3AB
330
17
100
AcDbEntity
  8
OCULTA
100
AcDbLine
 10
305.9292861335229
 20
132.26379430480628
 30
0.0
 11
305.929947313582
 21
132.25099842284834
 31
0.0
  0
LINE
  5
3AC
330
17
100
AcDbEntity
  8
OCULTA
100
AcDbLine
 10
305.929947313582
 20
132.25099842284834
 30
0.0
 11
305.93211246760154
 21
132.2383724454931
 31
0.0
  0
LINE
  5
3AD
330
17
100
AcDbEntity
  8
OCULTA
100
AcDbLine
 10
305.93211246760154
 20
132.2383724454931
 30
0.0
 11
305.9360580699102
 21
132.22618971666313
 31
0.0
  0
LINE
  5
3AE
330
17
100
AcDbEntity
  8
OCULTA
100
AcDbLine
 10
305.9360580699102
 20
132.22618971666313
 30
0.0
 11
305.9420931534528
 21
132.21490378822403
 31
0.0
  0
LINE
  5
3AF
330
17
100
AcDbEntity
  8
OCULTA
100
AcDbLine
 10
305.9420931534528
 20
132.21490378822403
 30
0.0
 11
305.95044534080483
 21
132.20522060194017
 31
0.0
  0
LINE
  5
3B0
330
17
100
AcDbEntity
  8
OCULTA
100
AcDbLine
 10
305.95044534080483
 20
132.20522060194017
 30
0.0
 11
305.96101061064337
 21
132.19803320851713
 31
0.0
  0
LINE
  5
3B1
330
17
100
AcDbEntity
  8
OCULTA
100
AcDbLine
 10
305.96101061064337
 20
132.19803320851713
 30
0.0
 11
305.96308460496226
 21
132.19707623224136
 31
0.0
  0
LINE
  5
3B2
330
17
100
AcDbEntity
  8
OCULTA
100
AcDbLine
 10
305.96308460496226
 20
132.19707623224136
 30
0.0
 11
305.9652041017137
 21
132.19622476296456
 31
0.0
  0
LINE
  5
3B3
330
17
100
AcDbEntity
  8
OCULTA
100
AcDbLine
 10
305.9652041017137
 20
132.19622476296456
 30
0.0
 11
305.96736347703245
 21
132.19548019267472
 31
0.0
  0
LINE
  5
3B4
330
17
100
AcDbEntity
  8
OCULTA
100
AcDbLine
 10
305.96736347703245
 20
132.19548019267472
 30
0.0
 11
305.9695569789105
 21
132.19484311698136
 31
0.0
  0
LINE
  5
3B5
330
17
100
AcDbEntity
  8
OCULTA
100
AcDbLine
 10
305.9695569789105
 20
132.19484311698136
 30
0.0
 11
305.97177884919154
 21
132.19431335729192
 31
0.0
  0
LINE
  5
3B6
330
17
100
AcDbEntity
  8
OCULTA
100
AcDbLine
 10
305.97177884919154
 20
132.19431335729192
 30
0.0
 11
305.97402343671286
 21
132.193890010043
 31
0.0
  0
LINE
  5
3B7
330
17
100
AcDbEntity
  8
OCULTA
100
AcDbLine
 10
305.97402343671286
 20
132.193890010043
 30
0.0
 11
305.97628529576457
 21
132.1935715175759
 31
0.0
  0
LINE
  5
3B8
330
17
100
AcDbEntity
  8
OCULTA
100
AcDbLine
 10
305.97628529576457
 20
132.1935715175759
 30
0.0
 11
305.9785592660377
 21
132.1933557541205
 31
0.0
  0
LINE
  5
3B9
330
17
100
AcDbEntity
  8
OCULTA
100
AcDbLine
 10
305.9785592660377
 20
132.1933557541205
 30
0.0
 11
305.9808405323336
 21
132.19324012012706
 31
0.0
  0
LINE
  5
3BA
330
17
100
AcDbEntity
  8
OCULTA
100
AcDbLine
 10
305.9808405323336
 20
132.19324012012706
 30
0.0
 11
305.98312466419765
 21
132.19322163872096
 31
0.0
  0
LINE
  5
3BB
330
17
100
AcDbEntity
  8
OCULTA
100
AcDbLine
 10
305.98312466419765
 20
132.19322163872096
 30
0.0
 11
305.9854076371038
 21
132.19329704911092
 31
0.0
  0
LINE
  5
3BC
330
17
100
AcDbEntity
  8
OCULTA
100
AcDbLine
 10
305.9854076371038
 20
132.19329704911092
 30
0.0
 11
305.98768583777985
 21
132.19346289309448
 31
0.0
  0
LINE
  5
3BD
330
17
100
AcDbEntity
  8
OCULTA
100
AcDbLine
 10
305.98768583777985
 20
132.19346289309448
 30
0.0
 11
305.9899560567335
 21
132.19371559214565
 31
0.0
  0
LINE
  5
3BE
330
17
100
AcDbEntity
  8
OCULTA
100
AcDbLine
 10
305.9899560567335
 20
132.19371559214565
 30
0.0
 11
305.99221547111193
 21
132.19405151377538
 31
0.0
  0
LINE
  5
3BF
330
17
100
AcDbEntity
  8
OCULTA
100
AcDbLine
 10
305.99221547111193
 20
132.19405151377538
 30
0.0
 11
305.99446162081534
 21
132.19446702683234
 31
0.0
  0
LINE
  5
3C0
330
17
100
AcDbEntity
  8
OCULTA
100
AcDbLine
 10
305.99446162081534
 20
132.19446702683234
 30
0.0
 11
305.99669238039627
 21
132.19495854613245
 31
0.0
  0
LINE
  5
3C1
330
17
100
AcDbEntity
  8
OCULTA
100
AcDbLine
 10
305.99669238039627
 20
132.19495854613245
 30
0.0
 11
305.9989059288194
 21
132.1955225672795
 31
0.0
  0
LINE
  5
3C2
330
17
100
AcDbEntity
  8
OCULTA
100
AcDbLine
 10
305.9989059288194
 20
132.1955225672795
 30
0.0
 11
306.0011007186845
 21
132.1961556928067
 31
0.0
  0
LINE
  5
3C3
330
17
100
AcDbEntity
  8
OCULTA
100
AcDbLine
 10
306.0011007186845
 20
132.1961556928067
 30
0.0
 11
306.00327544608984
 21
132.1968546508771
 31
0.0
  0
LINE
  5
3C4
330
17
100
AcDbEntity
  8
OCULTA
100
AcDbLine
 10
306.00327544608984
 20
132.1968546508771
 30
0.0
 11
306.0054290219432
 21
132.19761630777452
 31
0.0
  0
LINE
  5
3C5
330
17
100
AcDbEntity
  8
OCULTA
100
AcDbLine
 10
306.0054290219432
 20
132.19761630777452
 30
0.0
 11
306.0075605452298
 21
132.19843767533908
 31
0.0
  0
LINE
  5
3C6
330
17
100
AcDbEntity
  8
OCULTA
100
AcDbLine
 10
306.0075605452298
 20
132.19843767533908
 30
0.0
 11
306.00966927851636
 21
132.19931591438137
 31
0.0
  0
LINE
  5
3C7
330
17
100
AcDbEntity
  8
OCULTA
100
AcDbLine
 10
306.00966927851636
 20
132.19931591438137
 30
0.0
 11
306.01175462579806
 21
132.20024833497226
 31
0.0
  0
LINE
  5
3C8
330
17
100
AcDbEntity
  8
OCULTA
100
AcDbLine
 10
306.01175462579806
 20
132.20024833497226
 30
0.0
 11
306.0138161126767
 21
132.20123239436623
 31
0.0
  0
LINE
  5
3C9
330
17
100
AcDbEntity
  8
OCULTA
100
AcDbLine
 10
306.0138161126767
 20
133.24172535211267
 30
0.0
 11
306.023005851839
 21
133.246866778696
 31
0.0
  0
LINE
  5
3CA
330
17
100
AcDbEntity
  8
OCULTA
100
AcDbLine
 10
306.023005851839
 20
133.246866778696
 30
0.0
 11
306.03166558754475
 21
133.25286000977866
 31
0.0
  0
LINE
  5
3CB
330
17
100
AcDbEntity
  8
OCULTA
100
AcDbLine
 10
306.03166558754475
 20
133.25286000977866
 30
0.0
 11
306.0397968563997
 21
133.25955390422249
 31
0.0
  0
LINE
  5
3CC
330
17
100
AcDbEntity
  8
OCULTA
100
AcDbLine
 10
306.0397968563997
 20
133.25955390422249
 30
0.0
 11
306.0474084307744
 21
133.2668340364312
 31
0.0
  0
LINE
  5
3CD
330
17
100
AcDbEntity
  8
OCULTA
100
AcDbLine
 10
306.0474084307744
 20
133.2668340364312
 30
0.0
 11
306.05451026933656
 21
133.27461269251913
 31
0.0
  0
LINE
  5
3CE
330
17
100
AcDbEntity
  8
OCULTA
100
AcDbLine
 10
306.05451026933656
 20
133.27461269251913
 30
0.0
 11
306.0611105575936
 21
133.28282151162688
 31
0.0
  0
LINE
  5
3CF
330
17
100
AcDbEntity
  8
OCULTA
100
AcDbLine
 10
306.0611105575936
 20
133.28282151162688
 30
0.0
 11
306.06721423775934
 21
133.2914062018107
 31
0.0
  0
LINE
  5
3D0
330
17
100
AcDbEntity
  8
OCULTA
100
AcDbLine
 10
306.06721423775934
 20
133.2914062018107
 30
0.0
 11
306.07282221525367
 21
133.3003227318196
 31
0.0
  0
LINE
  5
3D1
330
17
100
AcDbEntity
  8
OCULTA
100
AcDbLine
 10
306.07282221525367
 20
133.3003227318196
 30
0.0
 11
306.0779308255714
 21
133.30953452675195
 31
0.0
  0
LINE
  5
3D2
330
17
100
AcDbEntity
  8
OCULTA
100
AcDbLine
 10
306.0779308255714
 20
133.30953452675195
 30
0.0
 11
306.08253133738094
 21
133.31901032078503
 31
0.0
  0
LINE
  5
3D3
330
17
100
AcDbEntity
  8
OCULTA
100
AcDbLine
 10
306.08253133738094
 20
133.31901032078503
 30
0.0
 11
306.08660935635004
 21
133.3287224092625
 31
0.0
  0
LINE
  5
3D4
330
17
100
AcDbEntity
  8
OCULTA
100
AcDbLine
 10
306.08660935635004
 20
133.3287224092625
 30
0.0
 11
306.0901440293513
 21
133.33864509338667
 31
0.0
  0
LINE
  5
3D5
330
17
100
AcDbEntity
  8
OCULTA
100
AcDbLine
 10
306.0901440293513
 20
133.33864509338667
 30
0.0
 11
306.09310695449057
 21
133.34875312612203
 31
0.0
  0
LINE
  5
3D6
330
17
100
AcDbEntity
  8
OCULTA
100
AcDbLine
 10
306.09310695449057
 20
133.34875312612203
 30
0.0
 11
306.09546069095273
 21
133.3590199457911
 31
0.0
  0
LINE
  5
3D7
330
17
100
AcDbEntity
  8
OCULTA
100
AcDbLine
 10
306.09546069095273
 20
133.3590199457911
 30
0.0
 11
306.0971567428321
 21
133.36941541367258
 31
0.0
  0
LINE
  5
3D8
330
17
100
AcDbEntity
  8
OCULTA
100
AcDbLine
 10
306.0971567428321
 20
133.36941541367258
 30
0.0
 11
306.09813287789905
 21
133.37990262989962
 31
0.0
  0
LINE
  5
3D9
330
17
100
AcDbEntity
  8
OCULTA
100
AcDbLine
 10
306.09813287789905
 20
133.37990262989962
 30
0.0
 11
306.09830967515114
 21
133.39043314542647
 31
0.0
  0
LINE
  5
3DA
330
17
100
AcDbEntity
  8
OCULTA
100
AcDbLine
 10
306.09830967515114
 20
133.39043314542647
 30
0.0
 11
306.097586383186
 21
133.40093945510677
 31
0.0
  0
LINE
  5
3DB
330
17
100
AcDbEntity
  8
OCULTA
100
AcDbLine
 10
306.097586383186
 20
133.40093945510677
 30
0.0
 11
306.09583680374385
 21
133.41132300747537
 31
0.0
  0
LINE
  5
3DC
330
17
100
AcDbEntity
  8
OCULTA
100
AcDbLine
 10
306.09583680374385
 20
133.41132300747537
 30
0.0
 11
306.0929076912988
 21
133.42143529941262
 31
0.0
  0
LINE
  5
3DD
330
17
100
AcDbEntity
  8
OCULTA
100
AcDbLine
 10
306.0929076912988
 20
133.42143529941262
 30
0.0
 11
306.08862645678414
 21
133.43105020340226
 31
0.0
  0
LINE
  5
3DE
330
17
100
AcDbEntity
  8
OCULTA
100
AcDbLine
 10
306.08862645678414
 20
133.43105020340226
 30
0.0
 11
306.0828329067466
 21
133.4398320175574
 31
0.0
  0
LINE
  5
3DF
330
17
100
AcDbEntity
  8
OCULTA
100
AcDbLine
 10
306.0828329067466
 20
133.4398320175574
 30
0.0
 11
306.07545504270496
 21
133.44732505754564
 31
0.0
  0
LINE
  5
3E0
330
17
100
AcDbEntity
  8
OCULTA
100
AcDbLine
 10
306.07545504270496
 20
133.44732505754564
 30
0.0
 11
306.06662161471
 21
133.45302312951105
 31
0.0
  0
LINE
  5
3E1
330
17
100
AcDbEntity
  8
OCULTA
100
AcDbLine
 10
306.06662161471
 20
133.45302312951105
 30
0.0
 11
306.0544827220035
 21
133.45701449134873
 31
0.0
  0
LINE
  5
3E2
330
17
100
AcDbEntity
  8
OCULTA
100
AcDbLine
 10
306.0544827220035
 20
133.45701449134873
 30
0.0
 11
306.0417151351226
 21
133.4577299608449
 31
0.0
  0
LINE
  5
3E3
330
17
100
AcDbEntity
  8
OCULTA
100
AcDbLine
 10
306.0417151351226
 20
133.4577299608449
 30
0.0
 11
306.02909010182816
 21
133.45563163718055
 31
0.0
  0
LINE
  5
3E4
330
17
100
AcDbEntity
  8
OCULTA
100
AcDbLine
 10
306.02909010182816
 20
133.45563163718055
 30
0.0
 11
306.0170283487627
 21
133.45133038423478
 31
0.0
  0
LINE
  5
3E5
330
17
100
AcDbEntity
  8
OCULTA
100
AcDbLine
 10
306.0170283487627
 20
133.45133038423478
 30
0.0
 11
306.00570092116016
 21
133.44534769417834
 31
0.0
  0
LINE
  5
3E6
330
17
100
AcDbEntity
  8
OCULTA
100
AcDbLine
 10
306.00570092116016
 20
133.44534769417834
 30
0.0
 11
305.9951558863725
 21
133.43806937059776
 31
0.0
  0
LINE
  5
3E7
330
17
100
AcDbEntity
  8
OCULTA
100
AcDbLine
 10
305.9951558863725
 20
133.43806937059776
 30
0.0
 11
305.9853920139821
 21
133.4297699994667
 31
0.0
  0
LINE
  5
3E8
330
17
100
AcDbEntity
  8
OCULTA
100
AcDbLine
 10
305.9853920139821
 20
133.4297699994667
 30
0.0
 11
305.9763929572595
 21
133.42064558473564
 31
0.0
  0
LINE
  5
3E9
330
17
100
AcDbEntity
  8
OCULTA
100
AcDbLine
 10
305.9763929572595
 20
133.42064558473564
 30
0.0
 11
305.96814190035406
 21
133.41083876086995
 31
0.0
  0
LINE
  5
3EA
330
17
100
AcDbEntity
  8
OCULTA
100
AcDbLine
 10
305.96814190035406
 20
133.41083876086995
 30
0.0
 11
305.96062772280914
 21
133.40045605060305
 31
0.0
  0
LINE
  5
3EB
330
17
100
AcDbEntity
  8
OCULTA
100
AcDbLine
 10
305.96062772280914
 20
133.40045605060305
 30
0.0
 11
305.95384773787225
 21
133.38957942115326
 31
0.0
  0
LINE
  5
3EC
330
17
100
AcDbEntity
  8
OCULTA
100
AcDbLine
 10
305.95384773787225
 20
133.38957942115326
 30
0.0
 11
305.94780923349606
 21
133.3782741844445
 31
0.0
  0
LINE
  5
3ED
330
17
100
AcDbEntity
  8
OCULTA
100
AcDbLine
 10
305.94780923349606
 20
133.3782741844445
 30
0.0
 11
305.9425308412753
 21
133.36659469439726
 31
0.0
  0
LINE
  5
3EE
330
17
100
AcDbEntity
  8
OCULTA
100
AcDbLine
 10
305.9425308412753
 20
133.36659469439726
 30
0.0
 11
305.93804428081563
 21
133.35458886084086
 31
0.0
  0
LINE
  5
3EF
330
17
100
AcDbEntity
  8
OCULTA
100
AcDbLine
 10
305.93804428081563
 20
133.35458886084086
 30
0.0
 11
305.9343968737736
 21
133.3423022844666
 31
0.0
  0
LINE
  5
3F0
330
17
100
AcDbEntity
  8
OCULTA
100
AcDbLine
 10
305.9343968737736
 20
133.3423022844666
 30
0.0
 11
305.9316552247517
 21
133.3297828157926
 31
0.0
  0
LINE
  5
3F1
330
17
100
AcDbEntity
  8
OCULTA
100
AcDbLine
 10
305.9316552247517
 20
133.3297828157926
 30
0.0
 11
305.9299105432951
 21
133.31708659375656
 31
0.0
  0
LINE
  5
3F2
330
17
100
AcDbEntity
  8
OCULTA
100
AcDbLine
 10
305.9299105432951
 20
133.31708659375656
 30
0.0
 11
305.9292861335229
 21
133.30428726255275
 31
0.0
  0
LINE
  5
3F3
330
17
100
AcDbEntity
  8
OCULTA
100
AcDbLine
 10
305.9292861335229
 20
133.30428726255275
 30
0.0
 11
305.929947313582
 21
133.29149138059478
 31
0.0
  0
LINE
  5
3F4
330
17
100
AcDbEntity
  8
OCULTA
100
AcDbLine
 10
305.929947313582
 20
133.29149138059478
 30
0.0
 11
305.93211246760154
 21
133.27886540323956
 31
0.0
  0
LINE
  5
3F5
330
17
100
AcDbEntity
  8
OCULTA
100
AcDbLine
 10
305.93211246760154
 20
133.27886540323956
 30
0.0
 11
305.9360580699102
 21
133.2666826744096
 31
0.0
  0
LINE
  5
3F6
330
17
100
AcDbEntity
  8
OCULTA
100
AcDbLine
 10
305.9360580699102
 20
133.2666826744096
 30
0.0
 11
305.9420931534528
 21
133.2553967459705
 31
0.0
  0
LINE
  5
3F7
330
17
100
AcDbEntity
  8
OCULTA
100
AcDbLine
 10
305.9420931534528
 20
133.2553967459705
 30
0.0
 11
305.95044534080483
 21
133.24571355968664
 31
0.0
  0
LINE
  5
3F8
330
17
100
AcDbEntity
  8
OCULTA
100
AcDbLine
 10
305.95044534080483
 20
133.24571355968664
 30
0.0
 11
305.96101061064337
 21
133.2385261662636
 31
0.0
  0
LINE
  5
3F9
330
17
100
AcDbEntity
  8
OCULTA
100
AcDbLine
 10
305.96101061064337
 20
133.2385261662636
 30
0.0
 11
305.96308460496226
 21
133.23756918998782
 31
0.0
  0
LINE
  5
3FA
330
17
100
AcDbEntity
  8
OCULTA
100
AcDbLine
 10
305.96308460496226
 20
133.23756918998782
 30
0.0
 11
305.9652041017137
 21
133.236717720711
 31
0.0
  0
LINE
  5
3FB
330
17
100
AcDbEntity
  8
OCULTA
100
AcDbLine
 10
305.9652041017137
 20
133.236717720711
 30
0.0
 11
305.96736347703245
 21
133.23597315042116
 31
0.0
  0
LINE
  5
3FC
330
17
100
AcDbEntity
  8
OCULTA
100
AcDbLine
 10
305.96736347703245
 20
133.23597315042116
 30
0.0
 11
305.9695569789105
 21
133.23533607472783
 31
0.0
  0
LINE
  5
3FD
330
17
100
AcDbEntity
  8
OCULTA
100
AcDbLine
 10
305.9695569789105
 20
133.23533607472783
 30
0.0
 11
305.97177884919154
 21
133.23480631503838
 31
0.0
  0
LINE
  5
3FE
330
17
100
AcDbEntity
  8
OCULTA
100
AcDbLine
 10
305.97177884919154
 20
133.23480631503838
 30
0.0
 11
305.97402343671286
 21
133.23438296778943
 31
0.0
  0
LINE
  5
3FF
330
17
100
AcDbEntity
  8
OCULTA
100
AcDbLine
 10
305.97402343671286
 20
133.23438296778943
 30
0.0
 11
305.97628529576457
 21
133.23406447532233
 31
0.0
  0
LINE
  5
400
330
17
100
AcDbEntity
  8
OCULTA
100
AcDbLine
 10
305.97628529576457
 20
133.23406447532233
 30
0.0
 11
305.9785592660377
 21
133.23384871186695
 31
0.0
  0
LINE
  5
401
330
17
100
AcDbEntity
  8
OCULTA
100
AcDbLine
 10
305.9785592660377
 20
133.23384871186695
 30
0.0
 11
305.9808405323336
 21
133.23373307787352
 31
0.0
  0
LINE
  5
402
330
17
100
AcDbEntity
  8
OCULTA
100
AcDbLine
 10
305.9808405323336
 20
133.23373307787352
 30
0.0
 11
305.98312466419765
 21
133.23371459646745
 31
0.0
  0
LINE
  5
403
330
17
100
AcDbEntity
  8
OCULTA
100
AcDbLine
 10
305.98312466419765
 20
133.23371459646745
 30
0.0
 11
305.9854076371038
 21
133.2337900068574
 31
0.0
  0
LINE
  5
404
330
17
100
AcDbEntity
  8
OCULTA
100
AcDbLine
 10
305.9854076371038
 20
133.2337900068574
 30
0.0
 11
305.98768583777985
 21
133.2339558508409
 31
0.0
  0
LINE
  5
405
330
17
100
AcDbEntity
  8
OCULTA
100
AcDbLine
 10
305.98768583777985
 20
133.2339558508409
 30
0.0
 11
305.9899560567335
 21
133.23420854989212
 31
0.0
  0
LINE
  5
406
330
17
100
AcDbEntity
  8
OCULTA
100
AcDbLine
 10
305.9899560567335
 20
133.23420854989212
 30
0.0
 11
305.99221547111193
 21
133.23454447152184
 31
0.0
  0
LINE
  5
407
330
17
100
AcDbEntity
  8
OCULTA
100
AcDbLine
 10
305.99221547111193
 20
133.23454447152184
 30
0.0
 11
305.99446162081534
 21
133.23495998457878
 31
0.0
  0
LINE
  5
408
330
17
100
AcDbEntity
  8
OCULTA
100
AcDbLine
 10
305.99446162081534
 20
133.23495998457878
 30
0.0
 11
305.99669238039627
 21
133.2354515038789
 31
0.0
  0
LINE
  5
409
330
17
100
AcDbEntity
  8
OCULTA
100
AcDbLine
 10
305.99669238039627
 20
133.2354515038789
 30
0.0
 11
305.9989059288194
 21
133.23601552502595
 31
0.0
  0
LINE
  5
40A
330
17
100
AcDbEntity
  8
OCULTA
100
AcDbLine
 10
305.9989059288194
 20
133.23601552502595
 30
0.0
 11
306.0011007186845
 21
133.23664865055318
 31
0.0
  0
LINE
  5
40B
330
17
100
AcDbEntity
  8
OCULTA
100
AcDbLine
 10
306.0011007186845
 20
133.23664865055318
 30
0.0
 11
306.00327544608984
 21
133.23734760862357
 31
0.0
  0
LINE
  5
40C
330
17
100
AcDbEntity
  8
OCULTA
100
AcDbLine
 10
306.00327544608984
 20
133.23734760862357
 30
0.0
 11
306.0054290219432
 21
133.23810926552096
 31
0.0
  0
LINE
  5
40D
330
17
100
AcDbEntity
  8
OCULTA
100
AcDbLine
 10
306.0054290219432
 20
133.23810926552096
 30
0.0
 11
306.0075605452298
 21
133.23893063308554
 31
0.0
  0
LINE
  5
40E
330
17
100
AcDbEntity
  8
OCULTA
100
AcDbLine
 10
306.0075605452298
 20
133.23893063308554
 30
0.0
 11
306.00966927851636
 21
133.23980887212784
 31
0.0
  0
LINE
  5
40F
330
17
100
AcDbEntity
  8
OCULTA
100
AcDbLine
 10
306.00966927851636
 20
133.23980887212784
 30
0.0
 11
306.01175462579806
 21
133.24074129271872
 31
0.0
  0
LINE
  5
410
330
17
100
AcDbEntity
  8
OCULTA
100
AcDbLine
 10
306.01175462579806
 20
133.24074129271872
 30
0.0
 11
306.0138161126767
 21
133.24172535211267
 31
0.0
  0
LINE
  5
411
330
17
100
AcDbEntity
  8
OCULTA
100
AcDbLine
 10
307.0
 20
47.817253521126766
 30
0.0
 11
308.97236777464667
 21
46.84612676056338
 31
0.0
  0
LINE
  5
412
330
17
100
AcDbEntity
  8
OCULTA
100
AcDbLine
 10
305.96101061064337
 20
119.05313884231995
 30
0.0
 11
307.93337838529
 21
118.08201208175659
 31
0.0
  0
LINE
  5
413
330
17
100
AcDbEntity
  8
OCULTA
100
AcDbLine
 10
306.06662161471
 20
119.26763580556738
 30
0.0
 11
308.03898938935663
 21
118.296509045004
 31
0.0
  0
LINE
  5
414
330
17
100
AcDbEntity
  8
OCULTA
100
AcDbLine
 10
305.96101061064337
 20
120.09363180006645
 30
0.0
 11
307.93337838529
 21
119.12250503950307
 31
0.0
  0
LINE
  5
415
330
17
100
AcDbEntity
  8
OCULTA
100
AcDbLine
 10
306.06662161471
 20
120.30812876331386
 30
0.0
 11
308.03898938935663
 21
119.33700200275048
 31
0.0
  0
LINE
  5
416
330
17
100
AcDbEntity
  8
OCULTA
100
AcDbLine
 10
305.96101061064337
 20
132.19803320851716
 30
0.0
 11
307.93337838529
 21
131.22690644795375
 31
0.0
  0
LINE
  5
417
330
17
100
AcDbEntity
  8
OCULTA
100
AcDbLine
 10
306.06662161471
 20
132.41253017176456
 30
0.0
 11
308.03898938935663
 21
131.44140341120118
 31
0.0
  0
LINE
  5
418
330
17
100
AcDbEntity
  8
OCULTA
100
AcDbLine
 10
305.96101061064337
 20
133.23852616626363
 30
0.0
 11
307.93337838529
 21
132.26739940570025
 31
0.0
  0
LINE
  5
419
330
17
100
AcDbEntity
  8
OCULTA
100
AcDbLine
 10
306.06662161471
 20
133.45302312951105
 30
0.0
 11
308.03898938935663
 21
132.48189636894767
 31
0.0
  0
LINE
  5
41A
330
17
100
AcDbEntity
  8
MARCO
100
AcDbLine
 10
250.0
 20
10.0
 30
0.0
 11
410.0
 21
10.0
 31
0.0
  0
LINE
  5
41B
330
17
100
AcDbEntity
  8
MARCO
100
AcDbLine
 10
410.0
 20
10.0
 30
0.0
 11
410.0
 21
36.0
 31
0.0
  0
LINE
  5
41C
330
17
100
AcDbEntity
  8
MARCO
100
AcDbLine
 10
410.0
 20
36.0
 30
0.0
 11
250.0
 21
36.0
 31
0.0
  0
LINE
  5
41D
330
17
100
AcDbEntity
  8
MARCO
100
AcDbLine
 10
250.0
 20
36.0
 30
0.0
 11
250.0
 21
10.0
 31
0.0
  0
LINE
  5
41E
330
17
100
AcDbEntity
  8
MARCO
100
AcDbLine
 10
250.0
 20
23.0
 30
0.0
 11
410.0
 21
23.0
 31
0.0
  0
LINE
  5
41F
330
17
100
AcDbEntity
  8
MARCO
100
AcDbLine
 10
322.0
 20
10.0
 30
0.0
 11
322.0
 21
36.0
 31
0.0
  0
LINE
  5
420
330
17
100
AcDbEntity
  8
MARCO
100
AcDbLine
 10
365.2
 20
10.0
 30
0.0
 11
365.2
 21
23.0
 31
0.0
  0
TEXT
  5
421
330
17
100
AcDbEntity
  8
COTAS
100
AcDbText
 10
113.0
 20
175.2
 30
0.0
 40
3.2
  1
70
100
AcDbText
  0
TEXT
  5
422
330
17
100
AcDbEntity
  8
COTAS
100
AcDbText
 10
102.7
 20
206.79999999999998
 30
0.0
 40
3.2
  1
2500
 50
90.0
100
AcDbText
  0
TEXT
  5
423
330
17
100
AcDbEntity
  8
COTAS
100
AcDbText
 10
113.0
 20
167.29999999999998
 30
0.0
 40
3.6
  1
ALZADO
100
AcDbText
  0
TEXT
  5
424
330
17
100
AcDbEntity
  8
COTAS
100
AcDbText
 10
307.0
 20
175.2
 30
0.0
 40
3.2
  1
70
100
AcDbText
  0
TEXT
  5
425
330
17
100
AcDbEntity
  8
COTAS
100
AcDbText
 10
296.7
 20
206.79999999999998
 30
0.0
 40
3.2
  1
2500
 50
90.0
100
AcDbText
  0
TEXT
  5
426
330
17
100
AcDbEntity
  8
COTAS
100
AcDbText
 10
307.0
 20
167.29999999999998
 30
0.0
 40
3.6
  1
PERFIL
100
AcDbText
  0
TEXT
  5
427
330
17
100
AcDbEntity
  8
COTAS
100
AcDbText
 10
113.0
 20
77.60000000000001
 30
0.0
 40
3.2
  1
70
100
AcDbText
  0
TEXT
  5
428
330
17
100
AcDbEntity
  8
COTAS
100
AcDbText
 10
102.7
 20
84.9
 30
0.0
 40
3.2
  1
70
 50
90.0
100
AcDbText
  0
TEXT
  5
429
330
17
100
AcDbEntity
  8
COTAS
100
AcDbText
 10
113.0
 20
69.7
 30
0.0
 40
3.6
  1
PLANTA
100
AcDbText
  0
TEXT
  5
42A
330
17
100
AcDbEntity
  8
COTAS
100
AcDbText
 10
113.0
 20
92.30000000000001
 30
0.0
 40
2.6
  1
Marco jamba izq 70
100
AcDbText
  0
TEXT
  5
42B
330
17
100
AcDbEntity
  8
COTAS
100
AcDbText
 10
307.0
 20
39.875
 30
0.0
 40
3.0
  1
ISOMÉTRICA (sin escala)
100
AcDbText
  0
TEXT
  5
42C
330
17
100
AcDbEntity
  8
COTAS
100
AcDbText
 10
253.0
 20
28.72
 30
0.0
 40
3.6
  1
puerta-plegable-bifold
100
AcDbText
  0
TEXT
  5
42D
330
17
100
AcDbEntity
  8
COTAS
100
AcDbText
 10
253.0
 20
15.719999999999999
 30
0.0
 40
2.8
  1
1 sólidos · unidades mm
100
AcDbText
  0
TEXT
  5
42E
330
17
100
AcDbEntity
  8
COTAS
100
AcDbText
 10
325.0
 20
28.72
 30
0.0
 40
3.0
  1
Genix Apolo CAD
100
AcDbText
  0
TEXT
  5
42F
330
17
100
AcDbEntity
  8
COTAS
100
AcDbText
 10
325.0
 20
15.719999999999999
 30
0.0
 40
2.8
  1
2026-06-18
100
AcDbText
  0
TEXT
  5
430
330
17
100
AcDbEntity
  8
COTAS
100
AcDbText
 10
368.2
 20
15.719999999999999
 30
0.0
 40
2.8
  1
Escala 1:50 · A3
100
AcDbText
  0
ENDSEC
  0
SECTION
  2
OBJECTS
  0
DICTIONARY
  5
A
330
0
100
AcDbDictionary
281
1
  3
ACAD_COLOR
350
B
  3
ACAD_GROUP
350
C
  3
ACAD_LAYOUT
350
D
  3
ACAD_MATERIAL
350
E
  3
ACAD_MLEADERSTYLE
350
F
  3
ACAD_MLINESTYLE
350
10
  3
ACAD_PLOTSETTINGS
350
11
  3
ACAD_PLOTSTYLENAME
350
12
  3
ACAD_SCALELIST
350
14
  3
ACAD_TABLESTYLE
350
15
  3
ACAD_VISUALSTYLE
350
16
  3
EZDXF_META
350
2D
  0
DICTIONARY
  5
B
330
A
100
AcDbDictionary
281
1
  0
DICTIONARY
  5
C
330
A
100
AcDbDictionary
281
1
  0
DICTIONARY
  5
D
330
A
100
AcDbDictionary
281
1
  3
Model
350
1A
  3
Layout1
350
1E
  0
DICTIONARY
  5
E
330
A
100
AcDbDictionary
281
1
  3
ByBlock
350
1F
  3
ByLayer
350
20
  3
Global
350
21
  0
DICTIONARY
  5
F
330
A
100
AcDbDictionary
281
1
  3
Standard
350
2C
  0
DICTIONARY
  5
10
330
A
100
AcDbDictionary
281
1
  3
Standard
350
22
  0
DICTIONARY
  5
11
330
A
100
AcDbDictionary
281
1
  0
ACDBDICTIONARYWDFLT
  5
12
330
A
100
AcDbDictionary
281
1
  3
Normal
350
13
100
AcDbDictionaryWithDefault
340
13
  0
ACDBPLACEHOLDER
  5
13
330
12
  0
DICTIONARY
  5
14
330
A
100
AcDbDictionary
281
1
  0
DICTIONARY
  5
15
330
A
100
AcDbDictionary
281
1
  0
DICTIONARY
  5
16
330
A
100
AcDbDictionary
281
1
  3
2dWireframe
350
5A
  3
Basic
350
5B
  3
Brighten
350
5C
  3
ColorChange
350
5D
  3
Conceptual
350
5E
  3
Dim
350
5F
  3
EdgeColorOff
350
60
  3
Facepattern
350
61
  3
Flat
350
62
  3
FlatWithEdges
350
63
  3
Gouraud
350
64
  3
GouraudWithEdges
350
65
  3
Hidden
350
66
  3
JitterOff
350
67
  3
Linepattern
350
68
  3
Modeling
350
69
  3
OverhangOff
350
6A
  3
Realistic
350
6B
  3
Shaded
350
6C
  3
Shaded with edges
350
6D
  3
Shades of Gray
350
6E
  3
Sketchy
350
6F
  3
Thicken
350
70
  3
Wireframe
350
71
  3
X-Ray
350
72
  0
LAYOUT
  5
1A
330
D
100
AcDbPlotSettings
  1

  4
A3
  6

 40
7.5
 41
20.0
 42
7.5
 43
20.0
 44
420.0
 45
297.0
 46
0.0
 47
0.0
 48
0.0
 49
0.0
140
0.0
141
0.0
142
1.0
143
1.0
 70
1024
 72
1
 73
0
 74
5
  7

 75
16
 76
0
 77
2
 78
300
147
1.0
148
0.0
149
0.0
100
AcDbLayout
  1
Model
 70
1
 71
0
 10
0.0
 20
0.0
 11
420.0
 21
297.0
 12
0.0
 22
0.0
 32
0.0
 14
1e+20
 24
1e+20
 34
1e+20
 15
-1e+20
 25
-1e+20
 35
-1e+20
146
0.0
 13
0.0
 23
0.0
 33
0.0
 16
1.0
 26
0.0
 36
0.0
 17
0.0
 27
1.0
 37
0.0
 76
1
330
17
  0
LAYOUT
  5
1E
330
D
100
AcDbPlotSettings
  1

  4
A3
  6

 40
7.5
 41
20.0
 42
7.5
 43
20.0
 44
420.0
 45
297.0
 46
0.0
 47
0.0
 48
0.0
 49
0.0
140
0.0
141
0.0
142
1.0
143
1.0
 70
0
 72
1
 73
0
 74
5
  7

 75
16
 76
0
 77
2
 78
300
147
1.0
148
0.0
149
0.0
100
AcDbLayout
  1
Layout1
 70
1
 71
1
 10
0.0
 20
0.0
 11
420.0
 21
297.0
 12
0.0
 22
0.0
 32
0.0
 14
1e+20
 24
1e+20
 34
1e+20
 15
-1e+20
 25
-1e+20
 35
-1e+20
146
0.0
 13
0.0
 23
0.0
 33
0.0
 16
1.0
 26
0.0
 36
0.0
 17
0.0
 27
1.0
 37
0.0
 76
1
330
1B
  0
MATERIAL
  5
1F
102
{ACAD_REACTORS
330
E
102
}
330
E
100
AcDbMaterial
  1
ByBlock
  2

 70
0
 40
1.0
 71
1
 41
1.0
 91
-1023410177
 42
1.0
 72
1
  3

 73
1
 74
1
 75
1
 44
0.5
 73
0
 45
1.0
 46
1.0
 77
1
  4

 78
1
 79
1
170
1
 48
1.0
171
1
  6

172
1
173
1
174
1
140
1.0
141
1.0
175
1
  7

176
1
177
1
178
1
143
1.0
179
1
  8

270
1
271
1
272
1
145
1.0
146
1.0
273
1
  9

274
1
275
1
276
1
 42
1.0
 72
1
  3

 73
1
 74
1
 75
1
 94
63
  0
MATERIAL
  5
20
102
{ACAD_REACTORS
330
E
102
}
330
E
100
AcDbMaterial
  1
ByLayer
  2

 70
0
 40
1.0
 71
1
 41
1.0
 91
-1023410177
 42
1.0
 72
1
  3

 73
1
 74
1
 75
1
 44
0.5
 73
0
 45
1.0
 46
1.0
 77
1
  4

 78
1
 79
1
170
1
 48
1.0
171
1
  6

172
1
173
1
174
1
140
1.0
141
1.0
175
1
  7

176
1
177
1
178
1
143
1.0
179
1
  8

270
1
271
1
272
1
145
1.0
146
1.0
273
1
  9

274
1
275
1
276
1
 42
1.0
 72
1
  3

 73
1
 74
1
 75
1
 94
63
  0
MATERIAL
  5
21
102
{ACAD_REACTORS
330
E
102
}
330
E
100
AcDbMaterial
  1
Global
  2

 70
0
 40
1.0
 71
1
 41
1.0
 91
-1023410177
 42
1.0
 72
1
  3

 73
1
 74
1
 75
1
 44
0.5
 73
0
 45
1.0
 46
1.0
 77
1
  4

 78
1
 79
1
170
1
 48
1.0
171
1
  6

172
1
173
1
174
1
140
1.0
141
1.0
175
1
  7

176
1
177
1
178
1
143
1.0
179
1
  8

270
1
271
1
272
1
145
1.0
146
1.0
273
1
  9

274
1
275
1
276
1
 42
1.0
 72
1
  3

 73
1
 74
1
 75
1
 94
63
  0
MLINESTYLE
  5
22
102
{ACAD_REACTORS
330
10
102
}
330
10
100
AcDbMlineStyle
  2
Standard
 70
0
  3

 62
256
 51
90.0
 52
90.0
 71
2
 49
0.5
 62
256
  6
BYLAYER
 49
-0.5
 62
256
  6
BYLAYER
  0
MLEADERSTYLE
  5
2C
102
{ACAD_REACTORS
330
F
102
}
330
F
100
AcDbMLeaderStyle
179
2
170
2
171
1
172
0
 90
2
 40
0.0
 41
0.0
173
1
 91
-1056964608
 92
-2
290
1
 42
2.0
291
1
 43
8.0
  3
Standard
 44
4.0
300

342
29
174
1
175
1
176
0
178
1
 93
-1056964608
 45
4.0
292
0
297
0
 46
4.0
 94
-1056964608
 47
1.0
 49
1.0
140
1.0
294
1
141
0.0
177
0
142
1.0
295
0
296
0
143
3.75
271
0
272
9
273
9
  0
DICTIONARY
  5
2D
330
A
100
AcDbDictionary
280
1
281
1
  3
CREATED_BY_EZDXF
350
2E
  3
WRITTEN_BY_EZDXF
350
433
  0
DICTIONARYVAR
  5
2E
330
2D
100
DictionaryVariables
280
0
  1
1.4.4 @ 2026-06-18T16:01:27.006950+00:00
  0
VISUALSTYLE
  5
5A
102
{ACAD_REACTORS
330
16
102
}
330
16
100
AcDbVisualStyle
  2
2dWireframe
 70
4
 90
0
 40
0.6
 62
7
290
0
291
0
  0
VISUALSTYLE
  5
5B
102
{ACAD_REACTORS
330
16
102
}
330
16
100
AcDbVisualStyle
  2
Basic
 70
7
 90
1
 40
0.6
 62
7
290
0
291
1
  0
VISUALSTYLE
  5
5C
102
{ACAD_REACTORS
330
16
102
}
330
16
100
AcDbVisualStyle
  2
Brighten
 70
12
 90
2
 40
0.6
 62
7
290
0
291
1
  0
VISUALSTYLE
  5
5D
102
{ACAD_REACTORS
330
16
102
}
330
16
100
AcDbVisualStyle
  2
ColorChange
 70
16
 90
2
 40
0.6
 62
8
290
0
291
1
  0
VISUALSTYLE
  5
5E
102
{ACAD_REACTORS
330
16
102
}
330
16
100
AcDbVisualStyle
  2
Conceptual
 70
9
 90
3
 40
0.6
 62
7
290
0
291
0
  0
VISUALSTYLE
  5
5F
102
{ACAD_REACTORS
330
16
102
}
330
16
100
AcDbVisualStyle
  2
Dim
 70
11
 90
2
 40
0.6
 62
7
290
0
291
1
  0
VISUALSTYLE
  5
60
102
{ACAD_REACTORS
330
16
102
}
330
16
100
AcDbVisualStyle
  2
EdgeColorOff
 70
22
 90
2
 40
0.6
 62
7
290
0
291
1
  0
VISUALSTYLE
  5
61
102
{ACAD_REACTORS
330
16
102
}
330
16
100
AcDbVisualStyle
  2
Facepattern
 70
15
 90
2
 40
0.6
 62
7
290
0
291
1
  0
VISUALSTYLE
  5
62
102
{ACAD_REACTORS
330
16
102
}
330
16
100
AcDbVisualStyle
  2
Flat
 70
0
 90
2
 40
0.6
 62
7
290
0
291
1
  0
VISUALSTYLE
  5
63
102
{ACAD_REACTORS
330
16
102
}
330
16
100
AcDbVisualStyle
  2
FlatWithEdges
 70
1
 90
2
 40
0.6
 62
7
290
0
291
1
  0
VISUALSTYLE
  5
64
102
{ACAD_REACTORS
330
16
102
}
330
16
100
AcDbVisualStyle
  2
Gouraud
 70
2
 90
2
 40
0.6
 62
7
290
0
291
1
  0
VISUALSTYLE
  5
65
102
{ACAD_REACTORS
330
16
102
}
330
16
100
AcDbVisualStyle
  2
GouraudWithEdges
 70
3
 90
2
 40
0.6
 62
7
290
0
291
1
  0
VISUALSTYLE
  5
66
102
{ACAD_REACTORS
330
16
102
}
330
16
100
AcDbVisualStyle
  2
Hidden
 70
6
 90
1
 40
0.6
 62
7
290
0
291
0
  0
VISUALSTYLE
  5
67
102
{ACAD_REACTORS
330
16
102
}
330
16
100
AcDbVisualStyle
  2
JitterOff
 70
20
 90
2
 40
0.6
 62
7
290
0
291
1
  0
VISUALSTYLE
  5
68
102
{ACAD_REACTORS
330
16
102
}
330
16
100
AcDbVisualStyle
  2
Linepattern
 70
14
 90
2
 40
0.6
 62
7
290
0
291
1
  0
VISUALSTYLE
  5
69
102
{ACAD_REACTORS
330
16
102
}
330
16
100
AcDbVisualStyle
  2
Modeling
 70
10
 90
2
 40
0.6
 62
7
290
0
291
0
  0
VISUALSTYLE
  5
6A
102
{ACAD_REACTORS
330
16
102
}
330
16
100
AcDbVisualStyle
  2
OverhangOff
 70
21
 90
2
 40
0.6
 62
7
290
0
291
1
  0
VISUALSTYLE
  5
6B
102
{ACAD_REACTORS
330
16
102
}
330
16
100
AcDbVisualStyle
  2
Realistic
 70
8
 90
2
 40
0.6
 62
7
290
0
291
0
  0
VISUALSTYLE
  5
6C
102
{ACAD_REACTORS
330
16
102
}
330
16
100
AcDbVisualStyle
  2
Shaded
 70
27
 90
2
 40
0.6
 62
7
290
0
291
0
  0
VISUALSTYLE
  5
6D
102
{ACAD_REACTORS
330
16
102
}
330
16
100
AcDbVisualStyle
  2
Shaded with edges
 70
26
 90
2
 40
0.6
 62
7
290
0
291
0
  0
VISUALSTYLE
  5
6E
102
{ACAD_REACTORS
330
16
102
}
330
16
100
AcDbVisualStyle
  2
Shades of Gray
 70
23
 90
2
 40
0.6
 62
7
290
0
291
0
  0
VISUALSTYLE
  5
6F
102
{ACAD_REACTORS
330
16
102
}
330
16
100
AcDbVisualStyle
  2
Sketchy
 70
24
 90
1
 40
0.6
 62
7
290
0
291
0
  0
VISUALSTYLE
  5
70
102
{ACAD_REACTORS
330
16
102
}
330
16
100
AcDbVisualStyle
  2
Thicken
 70
13
 90
2
 40
0.6
 62
7
290
0
291
1
  0
VISUALSTYLE
  5
71
102
{ACAD_REACTORS
330
16
102
}
330
16
100
AcDbVisualStyle
  2
Wireframe
 70
5
 90
0
 40
0.6
 62
7
290
0
291
0
  0
VISUALSTYLE
  5
72
102
{ACAD_REACTORS
330
16
102
}
330
16
100
AcDbVisualStyle
  2
X-Ray
 70
25
 90
2
 40
0.5
 62
7
290
0
291
0
  0
DICTIONARYVAR
  5
433
330
2D
100
DictionaryVariables
280
0
  1
1.4.4 @ 2026-06-18T16:01:27.091662+00:00
  0
ENDSEC
  0
EOF
