  0
SECTION
  2
HEADER
  9
$ACADVER
  1
AC1024
  9
$ACADMAINTVER
 70
6
  9
$DWGCODEPAGE
  3
ANSI_1252
  9
$LASTSAVEDBY
  1
ezdxf
  9
$INSBASE
 10
0.0
 20
0.0
 30
0.0
  9
$EXTMIN
 10
1e+20
 20
1e+20
 30
1e+20
  9
$EXTMAX
 10
-1e+20
 20
-1e+20
 30
-1e+20
  9
$LIMMIN
 10
0.0
 20
0.0
  9
$LIMMAX
 10
420.0
 20
297.0
  9
$ORTHOMODE
 70
0
  9
$REGENMODE
 70
1
  9
$FILLMODE
 70
1
  9
$QTEXTMODE
 70
0
  9
$MIRRTEXT
 70
1
  9
$LTSCALE
 40
1.0
  9
$ATTMODE
 70
1
  9
$TEXTSIZE
 40
2.5
  9
$TRACEWID
 40
1.0
  9
$TEXTSTYLE
  7
OpenSans
  9
$CLAYER
  8
0
  9
$CELTYPE
  6
ByLayer
  9
$CECOLOR
 62
256
  9
$CELTSCALE
 40
1.0
  9
$DISPSILH
 70
0
  9
$DIMSCALE
 40
1.0
  9
$DIMASZ
 40
0.175
  9
$DIMEXO
 40
0.125
  9
$DIMDLI
 40
3.75
  9
$DIMRND
 40
0.0
  9
$DIMDLE
 40
0.0
  9
$DIMEXE
 40
0.375
  9
$DIMTP
 40
0.0
  9
$DIMTM
 40
0.0
  9
$DIMTXT
 40
0.25
  9
$DIMCEN
 40
2.5
  9
$DIMTSZ
 40
0.0
  9
$DIMTOL
 70
0
  9
$DIMLIM
 70
0
  9
$DIMTIH
 70
0
  9
$DIMTOH
 70
0
  9
$DIMSE1
 70
0
  9
$DIMSE2
 70
0
  9
$DIMTAD
 70
1
  9
$DIMZIN
 70
12
  9
$DIMBLK
  1
ARCHTICK
  9
$DIMASO
 70
1
  9
$DIMSHO
 70
1
  9
$DIMPOST
  1

  9
$DIMAPOST
  1

  9
$DIMALT
 70
0
  9
$DIMALTD
 70
3
  9
$DIMALTF
 40
0.03937007874
  9
$DIMLFAC
 40
100.0
  9
$DIMTOFL
 70
1
  9
$DIMTVP
 40
0.0
  9
$DIMTIX
 70
0
  9
$DIMSOXD
 70
0
  9
$DIMSAH
 70
0
  9
$DIMBLK1
  1

  9
$DIMBLK2
  1

  9
$DIMSTYLE
  2
EZDXF
  9
$DIMCLRD
 70
0
  9
$DIMCLRE
 70
0
  9
$DIMCLRT
 70
0
  9
$DIMTFAC
 40
0.5
  9
$DIMGAP
 40
0.1
  9
$DIMJUST
 70
0
  9
$DIMSD1
 70
0
  9
$DIMSD2
 70
0
  9
$DIMTOLJ
 70
0
  9
$DIMTZIN
 70
8
  9
$DIMALTZ
 70
0
  9
$DIMALTTZ
 70
0
  9
$DIMUPT
 70
1
  9
$DIMDEC
 70
2
  9
$DIMTDEC
 70
2
  9
$DIMALTU
 70
2
  9
$DIMALTTD
 70
3
  9
$DIMTXSTY
  7
OpenSansCondensed-Light
  9
$DIMAUNIT
 70
0
  9
$DIMADEC
 70
2
  9
$DIMALTRND
 40
0.0
  9
$DIMAZIN
 70
3
  9
$DIMDSEP
 70
46
  9
$DIMATFIT
 70
3
  9
$DIMFRAC
 70
0
  9
$DIMLDRBLK
  1

  9
$DIMLUNIT
 70
2
  9
$DIMLWD
 70
-2
  9
$DIMLWE
 70
-2
  9
$DIMTMOVE
 70
2
  9
$DIMFXL
 40
1.0
  9
$DIMFXLON
 70
0
  9
$DIMJOGANG
 40
0.785398163397
  9
$DIMTFILL
 70
0
  9
$DIMTFILLCLR
 70
0
  9
$DIMARCSYM
 70
0
  9
$DIMLTYPE
  6

  9
$DIMLTEX1
  6

  9
$DIMLTEX2
  6

  9
$DIMTXTDIRECTION
 70
0
  9
$LUNITS
 70
2
  9
$LUPREC
 70
4
  9
$SKETCHINC
 40
1.0
  9
$FILLETRAD
 40
10.0
  9
$AUNITS
 70
0
  9
$AUPREC
 70
2
  9
$MENU
  1
.
  9
$ELEVATION
 40
0.0
  9
$PELEVATION
 40
0.0
  9
$THICKNESS
 40
0.0
  9
$LIMCHECK
 70
0
  9
$CHAMFERA
 40
0.0
  9
$CHAMFERB
 40
0.0
  9
$CHAMFERC
 40
0.0
  9
$CHAMFERD
 40
0.0
  9
$SKPOLY
 70
0
  9
$TDCREATE
 40
2461210.459386574
  9
$TDUCREATE
 40
2458532.153996898
  9
$TDUPDATE
 40
2461210.459386574
  9
$TDUUPDATE
 40
2458532.1544311
  9
$TDINDWG
 40
0.0
  9
$TDUSRTIMER
 40
0.0
  9
$USRTIMER
 70
1
  9
$ANGBASE
 50
0.0
  9
$ANGDIR
 70
0
  9
$PDMODE
 70
0
  9
$PDSIZE
 40
0.0
  9
$PLINEWID
 40
0.0
  9
$SPLFRAME
 70
0
  9
$SPLINETYPE
 70
6
  9
$SPLINESEGS
 70
8
  9
$HANDSEED
  5
294
  9
$SURFTAB1
 70
6
  9
$SURFTAB2
 70
6
  9
$SURFTYPE
 70
6
  9
$SURFU
 70
6
  9
$SURFV
 70
6
  9
$UCSBASE
  2

  9
$UCSNAME
  2

  9
$UCSORG
 10
0.0
 20
0.0
 30
0.0
  9
$UCSXDIR
 10
1.0
 20
0.0
 30
0.0
  9
$UCSYDIR
 10
0.0
 20
1.0
 30
0.0
  9
$UCSORTHOREF
  2

  9
$UCSORTHOVIEW
 70
0
  9
$UCSORGTOP
 10
0.0
 20
0.0
 30
0.0
  9
$UCSORGBOTTOM
 10
0.0
 20
0.0
 30
0.0
  9
$UCSORGLEFT
 10
0.0
 20
0.0
 30
0.0
  9
$UCSORGRIGHT
 10
0.0
 20
0.0
 30
0.0
  9
$UCSORGFRONT
 10
0.0
 20
0.0
 30
0.0
  9
$UCSORGBACK
 10
0.0
 20
0.0
 30
0.0
  9
$PUCSBASE
  2

  9
$PUCSNAME
  2

  9
$PUCSORG
 10
0.0
 20
0.0
 30
0.0
  9
$PUCSXDIR
 10
1.0
 20
0.0
 30
0.0
  9
$PUCSYDIR
 10
0.0
 20
1.0
 30
0.0
  9
$PUCSORTHOREF
  2

  9
$PUCSORTHOVIEW
 70
0
  9
$PUCSORGTOP
 10
0.0
 20
0.0
 30
0.0
  9
$PUCSORGBOTTOM
 10
0.0
 20
0.0
 30
0.0
  9
$PUCSORGLEFT
 10
0.0
 20
0.0
 30
0.0
  9
$PUCSORGRIGHT
 10
0.0
 20
0.0
 30
0.0
  9
$PUCSORGFRONT
 10
0.0
 20
0.0
 30
0.0
  9
$PUCSORGBACK
 10
0.0
 20
0.0
 30
0.0
  9
$USERI1
 70
0
  9
$USERI2
 70
0
  9
$USERI3
 70
0
  9
$USERI4
 70
0
  9
$USERI5
 70
0
  9
$USERR1
 40
0.0
  9
$USERR2
 40
0.0
  9
$USERR3
 40
0.0
  9
$USERR4
 40
0.0
  9
$USERR5
 40
0.0
  9
$WORLDVIEW
 70
1
  9
$SHADEDGE
 70
3
  9
$SHADEDIF
 70
70
  9
$TILEMODE
 70
1
  9
$MAXACTVP
 70
64
  9
$PINSBASE
 10
0.0
 20
0.0
 30
0.0
  9
$PLIMCHECK
 70
0
  9
$PEXTMIN
 10
1e+20
 20
1e+20
 30
1e+20
  9
$PEXTMAX
 10
-1e+20
 20
-1e+20
 30
-1e+20
  9
$PLIMMIN
 10
0.0
 20
0.0
  9
$PLIMMAX
 10
420.0
 20
297.0
  9
$UNITMODE
 70
0
  9
$VISRETAIN
 70
1
  9
$PLINEGEN
 70
0
  9
$PSLTSCALE
 70
1
  9
$TREEDEPTH
 70
3020
  9
$CMLSTYLE
  2
Standard
  9
$CMLJUST
 70
0
  9
$CMLSCALE
 40
20.0
  9
$PROXYGRAPHICS
 70
1
  9
$MEASUREMENT
 70
1
  9
$CELWEIGHT
370
-1
  9
$ENDCAPS
280
0
  9
$JOINSTYLE
280
0
  9
$LWDISPLAY
290
0
  9
$INSUNITS
 70
6
  9
$HYPERLINKBASE
  1

  9
$STYLESHEET
  1

  9
$XEDIT
290
1
  9
$CEPSNTYPE
380
0
  9
$PSTYLEMODE
290
1
  9
$FINGERPRINTGUID
  2
{FDD91102-2578-403D-8B6E-4925A1104B65}
  9
$VERSIONGUID
  2
{7C6AD77F-DFC6-40B0-A6E4-626E2282F8A4}
  9
$EXTNAMES
290
1
  9
$PSVPSCALE
 40
0.0
  9
$OLESTARTUP
290
0
  9
$SORTENTS
280
127
  9
$INDEXCTL
280
0
  9
$HIDETEXT
280
1
  9
$XCLIPFRAME
280
1
  9
$HALOGAP
280
0
  9
$OBSCOLOR
 70
257
  9
$OBSLTYPE
280
0
  9
$INTERSECTIONDISPLAY
280
0
  9
$INTERSECTIONCOLOR
 70
257
  9
$DIMASSOC
280
2
  9
$PROJECTNAME
  1

  9
$CAMERADISPLAY
290
0
  9
$LENSLENGTH
 40
50.0
  9
$CAMERAHEIGHT
 40
0.0
  9
$STEPSPERSEC
 40
24.0
  9
$STEPSIZE
 40
100.0
  9
$3DDWFPREC
 40
2.0
  9
$PSOLWIDTH
 40
0.005
  9
$PSOLHEIGHT
 40
0.08
  9
$LOFTANG1
 40
1.570796326795
  9
$LOFTANG2
 40
1.570796326795
  9
$LOFTMAG1
 40
0.0
  9
$LOFTMAG2
 40
0.0
  9
$LOFTPARAM
 70
7
  9
$LOFTNORMALS
280
1
  9
$LATITUDE
 40
37.795
  9
$LONGITUDE
 40
-122.394
  9
$NORTHDIRECTION
 40
0.0
  9
$TIMEZONE
 70
-8000
  9
$LIGHTGLYPHDISPLAY
280
1
  9
$TILEMODELIGHTSYNCH
280
1
  9
$CMATERIAL
347
20
  9
$SOLIDHIST
280
0
  9
$SHOWHIST
280
1
  9
$DWFFRAME
280
2
  9
$DGNFRAME
280
2
  9
$REALWORLDSCALE
290
1
  9
$INTERFERECOLOR
 62
256
  9
$CSHADOW
280
0
  9
$SHADOWPLANELOCATION
 40
0.0
  0
ENDSEC
  0
SECTION
  2
CLASSES
  0
CLASS
  1
ACDBDICTIONARYWDFLT
  2
AcDbDictionaryWithDefault
  3
ObjectDBX Classes
 90
0
 91
0
280
0
281
0
  0
CLASS
  1
SUN
  2
AcDbSun
  3
SCENEOE
 90
1153
 91
0
280
0
281
0
  0
CLASS
  1
VISUALSTYLE
  2
AcDbVisualStyle
  3
ObjectDBX Classes
 90
4095
 91
0
280
0
281
0
  0
CLASS
  1
MATERIAL
  2
AcDbMaterial
  3
ObjectDBX Classes
 90
1153
 91
0
280
0
281
0
  0
CLASS
  1
SCALE
  2
AcDbScale
  3
ObjectDBX Classes
 90
1153
 91
0
280
0
281
0
  0
CLASS
  1
TABLESTYLE
  2
AcDbTableStyle
  3
ObjectDBX Classes
 90
4095
 91
0
280
0
281
0
  0
CLASS
  1
MLEADERSTYLE
  2
AcDbMLeaderStyle
  3
ACDB_MLEADERSTYLE_CLASS
 90
4095
 91
0
280
0
281
0
  0
CLASS
  1
DICTIONARYVAR
  2
AcDbDictionaryVar
  3
ObjectDBX Classes
 90
0
 91
0
280
0
281
0
  0
CLASS
  1
CELLSTYLEMAP
  2
AcDbCellStyleMap
  3
ObjectDBX Classes
 90
1152
 91
0
280
0
281
0
  0
CLASS
  1
MENTALRAYRENDERSETTINGS
  2
AcDbMentalRayRenderSettings
  3
SCENEOE
 90
1024
 91
0
280
0
281
0
  0
CLASS
  1
ACDBDETAILVIEWSTYLE
  2
AcDbDetailViewStyle
  3
ObjectDBX Classes
 90
1025
 91
0
280
0
281
0
  0
CLASS
  1
ACDBSECTIONVIEWSTYLE
  2
AcDbSectionViewStyle
  3
ObjectDBX Classes
 90
1025
 91
0
280
0
281
0
  0
CLASS
  1
RASTERVARIABLES
  2
AcDbRasterVariables
  3
ISM
 90
0
 91
0
280
0
281
0
  0
CLASS
  1
ACDBPLACEHOLDER
  2
AcDbPlaceHolder
  3
ObjectDBX Classes
 90
0
 91
0
280
0
281
0
  0
CLASS
  1
LAYOUT
  2
AcDbLayout
  3
ObjectDBX Classes
 90
0
 91
0
280
0
281
0
  0
ENDSEC
  0
SECTION
  2
TABLES
  0
TABLE
  2
VPORT
  5
8
330
0
100
AcDbSymbolTable
 70
1
  0
VPORT
  5
23
330
8
100
AcDbSymbolTableRecord
100
AcDbViewportTableRecord
  2
*Active
 70
0
 10
0.0
 20
0.0
 11
1.0
 21
1.0
 12
0.0
 22
0.0
 13
0.0
 23
0.0
 14
0.5
 24
0.5
 15
0.5
 25
0.5
 16
0.0
 26
0.0
 36
1.0
 17
0.0
 27
0.0
 37
0.0
 40
1000.0
 41
1.34
 42
50.0
 43
0.0
 44
0.0
 50
0.0
 51
0.0
 71
0
 72
1000
 73
1
 74
3
 75
0
 76
0
 77
0
 78
0
281
0
 65
0
146
0.0
  0
ENDTAB
  0
TABLE
  2
LTYPE
  5
2
330
0
100
AcDbSymbolTable
 70
21
  0
LTYPE
  5
24
330
2
100
AcDbSymbolTableRecord
100
AcDbLinetypeTableRecord
  2
ByBlock
 70
0
  3

 72
65
 73
0
 40
0.0
  0
LTYPE
  5
25
330
2
100
AcDbSymbolTableRecord
100
AcDbLinetypeTableRecord
  2
ByLayer
 70
0
  3

 72
65
 73
0
 40
0.0
  0
LTYPE
  5
26
330
2
100
AcDbSymbolTableRecord
100
AcDbLinetypeTableRecord
  2
Continuous
 70
0
  3

 72
65
 73
0
 40
0.0
  0
LTYPE
  5
2F
330
2
100
AcDbSymbolTableRecord
100
AcDbLinetypeTableRecord
  2
CENTER
 70
0
  3
Center ____ _ ____ _ ____ _ ____ _ ____ _ ____
 72
65
 73
4
 40
5.08
 49
3.175
 74
0
 49
-0.635
 74
0
 49
0.635
 74
0
 49
-0.635
 74
0
  0
LTYPE
  5
30
330
2
100
AcDbSymbolTableRecord
100
AcDbLinetypeTableRecord
  2
CENTERX2
 70
0
  3
Center (2x) ________  __  ________  __  ________
 72
65
 73
4
 40
8.89
 49
6.35
 74
0
 49
-0.635
 74
0
 49
1.27
 74
0
 49
-0.635
 74
0
  0
LTYPE
  5
31
330
2
100
AcDbSymbolTableRecord
100
AcDbLinetypeTableRecord
  2
CENTER2
 70
0
  3
Center (.5x) ____ _ ____ _ ____ _ ____ _ ____
 72
65
 73
4
 40
2.54
 49
1.587
 74
0
 49
-0.318
 74
0
 49
0.318
 74
0
 49
-0.318
 74
0
  0
LTYPE
  5
32
330
2
100
AcDbSymbolTableRecord
100
AcDbLinetypeTableRecord
  2
DASHED
 70
0
  3
Dashed __ __ __ __ __ __ __ __ __ __ __ __ __ _
 72
65
 73
2
 40
1.524
 49
1.27
 74
0
 49
-0.254
 74
0
  0
LTYPE
  5
33
330
2
100
AcDbSymbolTableRecord
100
AcDbLinetypeTableRecord
  2
DASHEDX2
 70
0
  3
Dashed (2x) ____  ____  ____  ____  ____  ____
 72
65
 73
2
 40
3.048
 49
2.54
 74
0
 49
-0.508
 74
0
  0
LTYPE
  5
34
330
2
100
AcDbSymbolTableRecord
100
AcDbLinetypeTableRecord
  2
DASHED2
 70
0
  3
Dashed (.5x) _ _ _ _ _ _ _ _ _ _ _ _ _ _
 72
65
 73
2
 40
0.762
 49
0.635
 74
0
 49
-0.127
 74
0
  0
LTYPE
  5
35
330
2
100
AcDbSymbolTableRecord
100
AcDbLinetypeTableRecord
  2
PHANTOM
 70
0
  3
Phantom ______  __  __  ______  __  __  ______
 72
65
 73
6
 40
6.35
 49
3.175
 74
0
 49
-0.635
 74
0
 49
0.635
 74
0
 49
-0.635
 74
0
 49
0.635
 74
0
 49
-0.635
 74
0
  0
LTYPE
  5
36
330
2
100
AcDbSymbolTableRecord
100
AcDbLinetypeTableRecord
  2
PHANTOMX2
 70
0
  3
Phantom (2x)____________    ____    ____    ____________
 72
65
 73
6
 40
10.795
 49
6.35
 74
0
 49
-0.635
 74
0
 49
1.27
 74
0
 49
-0.635
 74
0
 49
1.27
 74
0
 49
-0.635
 74
0
  0
LTYPE
  5
37
330
2
100
AcDbSymbolTableRecord
100
AcDbLinetypeTableRecord
  2
PHANTOM2
 70
0
  3
Phantom (.5x) ___ _ _ ___ _ _ ___ _ _ ___ _ _ ___
 72
65
 73
6
 40
3.175
 49
1.587
 74
0
 49
-0.318
 74
0
 49
0.318
 74
0
 49
-0.318
 74
0
 49
0.318
 74
0
 49
-0.318
 74
0
  0
LTYPE
  5
38
330
2
100
AcDbSymbolTableRecord
100
AcDbLinetypeTableRecord
  2
DASHDOT
 70
0
  3
Dash dot __ . __ . __ . __ . __ . __ . __ . __
 72
65
 73
4
 40
3.556
 49
2.54
 74
0
 49
-0.508
 74
0
 49
0.0
 74
0
 49
-0.508
 74
0
  0
LTYPE
  5
39
330
2
100
AcDbSymbolTableRecord
100
AcDbLinetypeTableRecord
  2
DASHDOTX2
 70
0
  3
Dash dot (2x) ____  .  ____  .  ____  .  ____
 72
65
 73
4
 40
6.096
 49
5.08
 74
0
 49
-0.508
 74
0
 49
0.0
 74
0
 49
-0.508
 74
0
  0
LTYPE
  5
3A
330
2
100
AcDbSymbolTableRecord
100
AcDbLinetypeTableRecord
  2
DASHDOT2
 70
0
  3
Dash dot (.5x) _ . _ . _ . _ . _ . _ . _ . _
 72
65
 73
4
 40
1.778
 49
1.27
 74
0
 49
-0.254
 74
0
 49
0.0
 74
0
 49
-0.254
 74
0
  0
LTYPE
  5
3B
330
2
100
AcDbSymbolTableRecord
100
AcDbLinetypeTableRecord
  2
DOT
 70
0
  3
Dot .  .  .  .  .  .  .  .  .  .  .  .  .  .  .  .
 72
65
 73
2
 40
0.508
 49
0.0
 74
0
 49
-0.508
 74
0
  0
LTYPE
  5
3C
330
2
100
AcDbSymbolTableRecord
100
AcDbLinetypeTableRecord
  2
DOTX2
 70
0
  3
Dot (2x) .    .    .    .    .    .    .    . 
 72
65
 73
2
 40
1.016
 49
0.0
 74
0
 49
-1.016
 74
0
  0
LTYPE
  5
3D
330
2
100
AcDbSymbolTableRecord
100
AcDbLinetypeTableRecord
  2
DOT2
 70
0
  3
Dot (.5) . . . . . . . . . . . . . . . . . . . 
 72
65
 73
2
 40
0.254
 49
0.0
 74
0
 49
-0.254
 74
0
  0
LTYPE
  5
3E
330
2
100
AcDbSymbolTableRecord
100
AcDbLinetypeTableRecord
  2
DIVIDE
 70
0
  3
Divide __ . . __ . . __ . . __ . . __ . . __
 72
65
 73
6
 40
4.064
 49
2.54
 74
0
 49
-0.508
 74
0
 49
0.0
 74
0
 49
-0.508
 74
0
 49
0.0
 74
0
 49
-0.508
 74
0
  0
LTYPE
  5
3F
330
2
100
AcDbSymbolTableRecord
100
AcDbLinetypeTableRecord
  2
DIVIDEX2
 70
0
  3
Divide (2x) ____  . .  ____  . .  ____  . .  ____
 72
65
 73
6
 40
6.604
 49
5.08
 74
0
 49
-0.508
 74
0
 49
0.0
 74
0
 49
-0.508
 74
0
 49
0.0
 74
0
 49
-0.508
 74
0
  0
LTYPE
  5
40
330
2
100
AcDbSymbolTableRecord
100
AcDbLinetypeTableRecord
  2
DIVIDE2
 70
0
  3
Divide(.5x) _ . _ . _ . _ . _ . _ . _ . _
 72
65
 73
6
 40
2.032
 49
1.27
 74
0
 49
-0.254
 74
0
 49
0.0
 74
0
 49
-0.254
 74
0
 49
0.0
 74
0
 49
-0.254
 74
0
  0
ENDTAB
  0
TABLE
  2
LAYER
  5
1
330
0
100
AcDbSymbolTable
 70
7
  0
LAYER
  5
27
330
1
100
AcDbSymbolTableRecord
100
AcDbLayerTableRecord
  2
0
 70
0
 62
7
  6
Continuous
370
-3
390
13
347
21
  0
LAYER
  5
28
330
1
100
AcDbSymbolTableRecord
100
AcDbLayerTableRecord
  2
Defpoints
 70
0
 62
7
  6
Continuous
290
0
370
-3
390
13
347
21
  0
LAYER
  5
8A
330
1
100
AcDbSymbolTableRecord
100
AcDbLayerTableRecord
  2
VISIBLE
 70
0
 62
7
  6
CONTINUOUS
370
-3
390
13
347
21
  0
LAYER
  5
8B
330
1
100
AcDbSymbolTableRecord
100
AcDbLayerTableRecord
  2
OCULTA
 70
0
 62
8
  6
DASHED
370
-3
390
13
347
21
  0
LAYER
  5
8C
330
1
100
AcDbSymbolTableRecord
100
AcDbLayerTableRecord
  2
MARCO
 70
0
 62
7
  6
CONTINUOUS
370
-3
390
13
347
21
  0
LAYER
  5
8D
330
1
100
AcDbSymbolTableRecord
100
AcDbLayerTableRecord
  2
COTAS
 70
0
 62
5
  6
CONTINUOUS
370
-3
390
13
347
21
  0
LAYER
  5
8E
330
1
100
AcDbSymbolTableRecord
100
AcDbLayerTableRecord
  2
CORTE
 70
0
 62
4
  6
CONTINUOUS
370
-3
390
13
347
21
  0
ENDTAB
  0
TABLE
  2
STYLE
  5
5
330
0
100
AcDbSymbolTable
 70
26
  0
STYLE
  5
29
330
5
100
AcDbSymbolTableRecord
100
AcDbTextStyleTableRecord
  2
Standard
 70
0
 40
0.0
 41
1.0
 50
0.0
 71
0
 42
2.5
  3
txt
  4

  0
STYLE
  5
41
330
5
100
AcDbSymbolTableRecord
100
AcDbTextStyleTableRecord
  2
OpenSans-Light
 70
0
 40
0.0
 41
1.0
 50
0.0
 71
0
 42
2.5
  3
OpenSans-Light.ttf
  4

  0
STYLE
  5
42
330
5
100
AcDbSymbolTableRecord
100
AcDbTextStyleTableRecord
  2
OpenSans-Light-Italic
 70
0
 40
0.0
 41
1.0
 50
0.0
 71
0
 42
2.5
  3
OpenSans-LightItalic.ttf
  4

  0
STYLE
  5
43
330
5
100
AcDbSymbolTableRecord
100
AcDbTextStyleTableRecord
  2
OpenSans
 70
0
 40
0.0
 41
1.0
 50
0.0
 71
0
 42
2.5
  3
OpenSans-Regular.ttf
  4

  0
STYLE
  5
44
330
5
100
AcDbSymbolTableRecord
100
AcDbTextStyleTableRecord
  2
OpenSans-Italic
 70
0
 40
0.0
 41
1.0
 50
0.0
 71
0
 42
2.5
  3
OpenSans-Italic.ttf
  4

  0
STYLE
  5
45
330
5
100
AcDbSymbolTableRecord
100
AcDbTextStyleTableRecord
  2
OpenSans-SemiBold
 70
0
 40
0.0
 41
1.0
 50
0.0
 71
0
 42
2.5
  3
OpenSans-SemiBold.ttf
  4

  0
STYLE
  5
46
330
5
100
AcDbSymbolTableRecord
100
AcDbTextStyleTableRecord
  2
OpenSans-SemiBoldItalic
 70
0
 40
0.0
 41
1.0
 50
0.0
 71
0
 42
2.5
  3
OpenSans-SemiBoldItalic.ttf
  4

  0
STYLE
  5
47
330
5
100
AcDbSymbolTableRecord
100
AcDbTextStyleTableRecord
  2
OpenSans-Bold
 70
0
 40
0.0
 41
1.0
 50
0.0
 71
0
 42
2.5
  3
OpenSans-Bold.ttf
  4

  0
STYLE
  5
48
330
5
100
AcDbSymbolTableRecord
100
AcDbTextStyleTableRecord
  2
OpenSans-BoldItalic
 70
0
 40
0.0
 41
1.0
 50
0.0
 71
0
 42
2.5
  3
OpenSans-BoldItalic.ttf
  4

  0
STYLE
  5
49
330
5
100
AcDbSymbolTableRecord
100
AcDbTextStyleTableRecord
  2
OpenSans-ExtraBold
 70
0
 40
0.0
 41
1.0
 50
0.0
 71
0
 42
2.5
  3
OpenSans-ExtraBold.ttf
  4

  0
STYLE
  5
4A
330
5
100
AcDbSymbolTableRecord
100
AcDbTextStyleTableRecord
  2
OpenSans-ExtraBoldItalic
 70
0
 40
0.0
 41
1.0
 50
0.0
 71
0
 42
2.5
  3
OpenSans-ExtraBoldItalic.ttf
  4

  0
STYLE
  5
4B
330
5
100
AcDbSymbolTableRecord
100
AcDbTextStyleTableRecord
  2
OpenSansCondensed-Bold
 70
0
 40
0.0
 41
1.0
 50
0.0
 71
0
 42
2.5
  3
OpenSansCondensed-Bold.ttf
  4

  0
STYLE
  5
4C
330
5
100
AcDbSymbolTableRecord
100
AcDbTextStyleTableRecord
  2
OpenSansCondensed-Light
 70
0
 40
0.0
 41
1.0
 50
0.0
 71
0
 42
2.5
  3
OpenSansCondensed-Light.ttf
  4

  0
STYLE
  5
4D
330
5
100
AcDbSymbolTableRecord
100
AcDbTextStyleTableRecord
  2
OpenSansCondensed-Italic
 70
0
 40
0.0
 41
1.0
 50
0.0
 71
0
 42
2.5
  3
OpenSansCondensed-LightItalic.ttf
  4

  0
STYLE
  5
4E
330
5
100
AcDbSymbolTableRecord
100
AcDbTextStyleTableRecord
  2
LiberationSans
 70
0
 40
0.0
 41
1.0
 50
0.0
 71
0
 42
2.5
  3
LiberationSans-Regular.ttf
  4

  0
STYLE
  5
4F
330
5
100
AcDbSymbolTableRecord
100
AcDbTextStyleTableRecord
  2
LiberationSans-Bold
 70
0
 40
0.0
 41
1.0
 50
0.0
 71
0
 42
2.5
  3
LiberationSans-Bold.ttf
  4

  0
STYLE
  5
50
330
5
100
AcDbSymbolTableRecord
100
AcDbTextStyleTableRecord
  2
LiberationSans-BoldItalic
 70
0
 40
0.0
 41
1.0
 50
0.0
 71
0
 42
2.5
  3
LiberationSans-BoldItalic.ttf
  4

  0
STYLE
  5
51
330
5
100
AcDbSymbolTableRecord
100
AcDbTextStyleTableRecord
  2
LiberationSans-Italic
 70
0
 40
0.0
 41
1.0
 50
0.0
 71
0
 42
2.5
  3
LiberationSans-Italic.ttf
  4

  0
STYLE
  5
52
330
5
100
AcDbSymbolTableRecord
100
AcDbTextStyleTableRecord
  2
LiberationSerif
 70
0
 40
0.0
 41
1.0
 50
0.0
 71
0
 42
2.5
  3
LiberationSerif-Regular.ttf
  4

  0
STYLE
  5
53
330
5
100
AcDbSymbolTableRecord
100
AcDbTextStyleTableRecord
  2
LiberationSerif-Bold
 70
0
 40
0.0
 41
1.0
 50
0.0
 71
0
 42
2.5
  3
LiberationSerif-Bold.ttf
  4

  0
STYLE
  5
54
330
5
100
AcDbSymbolTableRecord
100
AcDbTextStyleTableRecord
  2
LiberationSerif-BoldItalic
 70
0
 40
0.0
 41
1.0
 50
0.0
 71
0
 42
2.5
  3
LiberationSerif-BoldItalic.ttf
  4

  0
STYLE
  5
55
330
5
100
AcDbSymbolTableRecord
100
AcDbTextStyleTableRecord
  2
LiberationSerif-Italic
 70
0
 40
0.0
 41
1.0
 50
0.0
 71
0
 42
2.5
  3
LiberationSerif-Italic.ttf
  4

  0
STYLE
  5
56
330
5
100
AcDbSymbolTableRecord
100
AcDbTextStyleTableRecord
  2
LiberationMono
 70
0
 40
0.0
 41
1.0
 50
0.0
 71
0
 42
2.5
  3
LiberationMono-Regular.ttf
  4

  0
STYLE
  5
57
330
5
100
AcDbSymbolTableRecord
100
AcDbTextStyleTableRecord
  2
LiberationMono-Bold
 70
0
 40
0.0
 41
1.0
 50
0.0
 71
0
 42
2.5
  3
LiberationMono-Bold.ttf
  4

  0
STYLE
  5
58
330
5
100
AcDbSymbolTableRecord
100
AcDbTextStyleTableRecord
  2
LiberationMono-BoldItalic
 70
0
 40
0.0
 41
1.0
 50
0.0
 71
0
 42
2.5
  3
LiberationMono-BoldItalic.ttf
  4

  0
STYLE
  5
59
330
5
100
AcDbSymbolTableRecord
100
AcDbTextStyleTableRecord
  2
LiberationMono-Italic
 70
0
 40
0.0
 41
1.0
 50
0.0
 71
0
 42
2.5
  3
LiberationMono-Italic.ttf
  4

  0
ENDTAB
  0
TABLE
  2
VIEW
  5
7
330
0
100
AcDbSymbolTable
 70
0
  0
ENDTAB
  0
TABLE
  2
UCS
  5
6
330
0
100
AcDbSymbolTable
 70
0
  0
ENDTAB
  0
TABLE
  2
APPID
  5
3
330
0
100
AcDbSymbolTable
 70
3
  0
APPID
  5
2A
330
3
100
AcDbSymbolTableRecord
100
AcDbRegAppTableRecord
  2
ACAD
 70
0
  0
APPID
  5
291
330
3
100
AcDbSymbolTableRecord
100
AcDbRegAppTableRecord
  2
HATCHBACKGROUNDCOLOR
 70
0
  0
APPID
  5
292
330
3
100
AcDbSymbolTableRecord
100
AcDbRegAppTableRecord
  2
EZDXF
 70
0
  0
ENDTAB
  0
TABLE
  2
DIMSTYLE
  5
4
330
0
100
AcDbSymbolTable
 70
12
100
AcDbDimStyleTable
  0
DIMSTYLE
105
2B
330
4
100
AcDbSymbolTableRecord
100
AcDbDimStyleTableRecord
  2
Standard
 70
0
 40
1.0
 41
2.5
 42
0.625
 43
3.75
 44
1.25
 45
0.0
 46
0.0
 47
0.0
 48
0.0
 49
2.5
140
2.5
141
2.5
142
0.0
143
0.03937007874
144
1.0
145
0.0
146
1.0
147
0.625
148
0.0
 69
0
 70
0
 71
0
 72
0
 73
0
 74
0
 75
0
 76
0
 77
1
 78
8
 79
3
170
0
171
3
172
1
173
0
174
0
175
0
176
0
177
0
178
0
179
2
271
2
272
2
273
2
274
3
275
0
276
0
277
2
278
44
279
0
280
0
281
0
282
0
283
0
284
8
285
0
286
0
288
0
289
3
290
0
371
-2
372
-2
  0
DIMSTYLE
105
73
330
4
100
AcDbSymbolTableRecord
100
AcDbDimStyleTableRecord
  2
EZDXF
 70
0
 40
1.0
 41
0.175
 42
0.125
 43
3.75
 44
0.375
 45
0.0
 46
0.0
 47
0.0
 48
0.0
 49
2.5
140
0.25
141
2.5
142
0.0
143
0.03937007874
144
100.0
145
0.0
146
0.5
147
0.1
148
0.0
 69
0
 70
0
 71
0
 72
0
 73
0
 74
0
 75
0
 76
0
 77
1
 78
12
 79
3
170
0
171
3
172
1
173
0
174
0
175
0
176
0
177
0
178
0
179
2
271
2
272
2
273
2
274
3
275
0
276
0
277
2
278
46
279
2
280
0
281
0
282
0
283
0
284
8
285
0
286
0
288
1
289
3
290
0
340
4C
342
74
371
-2
372
-2
  0
DIMSTYLE
105
7C
330
4
100
AcDbSymbolTableRecord
100
AcDbDimStyleTableRecord
  2
EZ_M_100_H25_CM
 70
0
 40
1.0
 41
0.25
 42
0.125
 43
3.75
 44
0.375
 45
0.0
 46
0.0
 47
0.0
 48
0.0
 49
2.5
140
0.25
141
2.5
142
0.125
143
0.03937007874
144
100.0
145
0.0
146
0.5
147
0.1
148
0.0
 69
0
 70
0
 71
0
 72
0
 73
0
 74
0
 75
0
 76
0
 77
1
 78
12
 79
3
170
0
171
3
172
1
173
0
174
0
175
0
176
0
177
0
178
0
179
2
271
2
272
2
273
2
274
3
275
0
276
0
277
2
278
46
279
2
280
0
281
0
282
0
283
0
284
8
285
0
286
0
288
1
289
3
290
0
340
4C
371
-2
372
-2
  0
DIMSTYLE
105
7D
330
4
100
AcDbSymbolTableRecord
100
AcDbDimStyleTableRecord
  2
EZ_M_50_H25_CM
 70
0
 40
1.0
 41
0.125
 42
0.0625
 43
3.75
 44
0.1875
 45
0.0
 46
0.0
 47
0.0
 48
0.0
 49
2.5
140
0.125
141
2.5
142
0.0625
143
0.03937007874
144
100.0
145
0.0
146
0.5
147
0.05
148
0.0
 69
0
 70
0
 71
0
 72
0
 73
0
 74
0
 75
0
 76
0
 77
1
 78
12
 79
3
170
0
171
3
172
1
173
0
174
0
175
0
176
0
177
0
178
0
179
2
271
2
272
2
273
2
274
3
275
0
276
0
277
2
278
46
279
2
280
0
281
0
282
0
283
0
284
8
285
0
286
0
288
1
289
3
290
0
340
4C
371
-2
372
-2
  0
DIMSTYLE
105
7E
330
4
100
AcDbSymbolTableRecord
100
AcDbDimStyleTableRecord
  2
EZ_M_25_H25_CM
 70
0
 40
1.0
 41
0.0625
 42
0.03125
 43
3.75
 44
0.09375
 45
0.0
 46
0.0
 47
0.0
 48
0.0
 49
2.5
140
0.0625
141
2.5
142
0.03125
143
0.03937007874
144
100.0
145
0.0
146
0.5
147
0.025
148
0.0
 69
0
 70
0
 71
0
 72
0
 73
0
 74
0
 75
0
 76
0
 77
1
 78
12
 79
3
170
0
171
3
172
1
173
0
174
0
175
0
176
0
177
0
178
0
179
2
271
2
272
2
273
2
274
3
275
0
276
0
277
2
278
46
279
2
280
0
281
0
282
0
283
0
284
8
285
0
286
0
288
1
289
3
290
0
340
4C
371
-2
372
-2
  0
DIMSTYLE
105
7F
330
4
100
AcDbSymbolTableRecord
100
AcDbDimStyleTableRecord
  2
EZ_M_20_H25_CM
 70
0
 40
1.0
 41
0.05
 42
0.025
 43
3.75
 44
0.07500000000000001
 45
0.0
 46
0.0
 47
0.0
 48
0.0
 49
2.5
140
0.05
141
2.5
142
0.025
143
0.03937007874
144
100.0
145
0.0
146
0.5
147
0.020000000000000004
148
0.0
 69
0
 70
0
 71
0
 72
0
 73
0
 74
0
 75
0
 76
0
 77
1
 78
12
 79
3
170
0
171
3
172
1
173
0
174
0
175
0
176
0
177
0
178
0
179
2
271
2
272
2
273
2
274
3
275
0
276
0
277
2
278
46
279
2
280
0
281
0
282
0
283
0
284
8
285
0
286
0
288
1
289
3
290
0
340
4C
371
-2
372
-2
  0
DIMSTYLE
105
80
330
4
100
AcDbSymbolTableRecord
100
AcDbDimStyleTableRecord
  2
EZ_M_10_H25_CM
 70
0
 40
1.0
 41
0.025
 42
0.0125
 43
3.75
 44
0.037500000000000006
 45
0.0
 46
0.0
 47
0.0
 48
0.0
 49
2.5
140
0.025
141
2.5
142
0.0125
143
0.03937007874
144
100.0
145
0.0
146
0.5
147
0.010000000000000002
148
0.0
 69
0
 70
0
 71
0
 72
0
 73
0
 74
0
 75
0
 76
0
 77
1
 78
12
 79
3
170
0
171
3
172
1
173
0
174
0
175
0
176
0
177
0
178
0
179
2
271
2
272
2
273
2
274
3
275
0
276
0
277
2
278
46
279
2
280
0
281
0
282
0
283
0
284
8
285
0
286
0
288
1
289
3
290
0
340
4C
371
-2
372
-2
  0
DIMSTYLE
105
81
330
4
100
AcDbSymbolTableRecord
100
AcDbDimStyleTableRecord
  2
EZ_M_5_H25_CM
 70
0
 40
1.0
 41
0.0125
 42
0.00625
 43
3.75
 44
0.018750000000000003
 45
0.0
 46
0.0
 47
0.0
 48
0.0
 49
2.5
140
0.0125
141
2.5
142
0.00625
143
0.03937007874
144
100.0
145
0.0
146
0.5
147
0.005000000000000001
148
0.0
 69
0
 70
0
 71
0
 72
0
 73
0
 74
0
 75
0
 76
0
 77
1
 78
12
 79
3
170
0
171
3
172
1
173
0
174
0
175
0
176
0
177
0
178
0
179
2
271
2
272
2
273
2
274
3
275
0
276
0
277
2
278
46
279
2
280
0
281
0
282
0
283
0
284
8
285
0
286
0
288
1
289
3
290
0
340
4C
371
-2
372
-2
  0
DIMSTYLE
105
82
330
4
100
AcDbSymbolTableRecord
100
AcDbDimStyleTableRecord
  2
EZ_M_1_H25_CM
 70
0
 40
1.0
 41
0.0025
 42
0.00125
 43
3.75
 44
0.00375
 45
0.0
 46
0.0
 47
0.0
 48
0.0
 49
2.5
140
0.0025
141
2.5
142
0.00125
143
0.03937007874
144
100.0
145
0.0
146
0.5
147
0.001
148
0.0
 69
0
 70
0
 71
0
 72
0
 73
0
 74
0
 75
0
 76
0
 77
1
 78
12
 79
3
170
0
171
3
172
1
173
0
174
0
175
0
176
0
177
0
178
0
179
2
271
2
272
2
273
2
274
3
275
0
276
0
277
2
278
46
279
2
280
0
281
0
282
0
283
0
284
8
285
0
286
0
288
1
289
3
290
0
340
4C
371
-2
372
-2
  0
DIMSTYLE
105
83
330
4
100
AcDbSymbolTableRecord
100
AcDbDimStyleTableRecord
  2
EZ_RADIUS
 70
0
 40
1.0
 41
0.25
 42
0.125
 43
3.75
 44
0.375
 45
0.0
 46
0.0
 47
0.0
 48
0.0
 49
2.5
140
0.25
141
0.0
142
0.0
143
0.03937007874
144
100.0
145
0.0
146
0.5
147
0.1
148
0.0
 69
0
 70
0
 71
0
 72
0
 73
0
 74
0
 75
0
 76
0
 77
1
 78
12
 79
3
170
0
171
3
172
0
173
0
174
0
175
0
176
0
177
0
178
0
179
2
271
2
272
2
273
2
274
3
275
0
276
0
277
2
278
46
279
1
280
0
281
0
282
0
283
0
284
8
285
0
286
0
288
1
289
3
290
0
340
4C
342
84
371
-2
372
-2
  0
DIMSTYLE
105
88
330
4
100
AcDbSymbolTableRecord
100
AcDbDimStyleTableRecord
  2
EZ_RADIUS_INSIDE
 70
0
 40
1.0
 41
0.25
 42
0.125
 43
3.75
 44
0.375
 45
0.0
 46
0.0
 47
0.0
 48
0.0
 49
2.5
140
0.25
141
0.0
142
0.0
143
0.03937007874
144
100.0
145
0.0
146
0.5
147
0.1
148
0.0
 69
0
 70
0
 71
0
 72
0
 73
0
 74
0
 75
0
 76
0
 77
0
 78
12
 79
3
170
0
171
3
172
0
173
0
174
1
175
0
176
0
177
0
178
0
179
2
271
2
272
2
273
2
274
3
275
0
276
0
277
2
278
46
279
0
280
0
281
0
282
0
283
0
284
8
285
0
286
0
288
1
289
0
290
0
340
4C
342
84
371
-2
372
-2
  0
DIMSTYLE
105
89
330
4
100
AcDbSymbolTableRecord
100
AcDbDimStyleTableRecord
  2
EZ_CURVED
 70
0
 40
1.0
 41
0.25
 42
0.125
 43
3.75
 44
0.375
 45
0.0
 46
0.0
 47
0.0
 48
0.0
 49
2.5
140
0.25
141
2.5
142
0.0
143
0.03937007874
144
100.0
145
0.0
146
0.5
147
0.1
148
0.0
 69
0
 70
0
 71
0
 72
0
 73
0
 74
0
 75
0
 76
0
 77
1
 78
12
 79
2
 90
2
170
0
171
3
172
1
173
0
174
0
175
0
176
0
177
0
178
0
179
2
271
2
272
2
273
2
274
3
275
0
276
0
277
2
278
46
279
2
280
0
281
0
282
0
283
0
284
8
285
0
286
0
288
1
289
3
290
0
340
4C
371
-2
372
-2
  0
ENDTAB
  0
TABLE
  2
BLOCK_RECORD
  5
9
330
0
100
AcDbSymbolTable
 70
5
  0
BLOCK_RECORD
  5
17
330
9
100
AcDbSymbolTableRecord
100
AcDbBlockTableRecord
  2
*Model_Space
340
1A
 70
0
280
1
281
0
  0
BLOCK_RECORD
  5
1B
330
9
100
AcDbSymbolTableRecord
100
AcDbBlockTableRecord
  2
*Paper_Space
340
1E
 70
0
280
1
281
0
  0
BLOCK_RECORD
  5
74
330
9
100
AcDbSymbolTableRecord
100
AcDbBlockTableRecord
  2
_ARCHTICK
340
0
 70
0
280
1
281
0
  0
BLOCK_RECORD
  5
78
330
9
100
AcDbSymbolTableRecord
100
AcDbBlockTableRecord
  2
_CLOSEDFILLED
340
0
 70
0
280
1
281
0
  0
BLOCK_RECORD
  5
84
330
9
100
AcDbSymbolTableRecord
100
AcDbBlockTableRecord
  2
_CLOSEDBLANK
340
0
 70
0
280
1
281
0
  0
ENDTAB
  0
ENDSEC
  0
SECTION
  2
BLOCKS
  0
BLOCK
  5
18
330
17
100
AcDbEntity
  8
0
100
AcDbBlockBegin
  2
*Model_Space
 70
0
 10
0.0
 20
0.0
 30
0.0
  3
*Model_Space
  1

  0
ENDBLK
  5
19
330
17
100
AcDbEntity
  8
0
100
AcDbBlockEnd
  0
BLOCK
  5
1C
330
1B
100
AcDbEntity
  8
0
100
AcDbBlockBegin
  2
*Paper_Space
 70
0
 10
0.0
 20
0.0
 30
0.0
  3
*Paper_Space
  1

  0
ENDBLK
  5
1D
330
1B
100
AcDbEntity
  8
0
100
AcDbBlockEnd
  0
BLOCK
  5
75
330
74
100
AcDbEntity
  8
0
100
AcDbBlockBegin
  2
_ARCHTICK
 70
0
 10
0.0
 20
0.0
 30
0.0
  3
_ARCHTICK
  1

  0
LWPOLYLINE
  5
77
330
74
100
AcDbEntity
  8
0
  6
BYBLOCK
 62
0
100
AcDbPolyline
 90
2
 70
0
 43
0.15
 10
-0.5
 20
-0.5
 10
0.5
 20
0.5
  0
ENDBLK
  5
76
330
74
100
AcDbEntity
  8
0
100
AcDbBlockEnd
  0
BLOCK
  5
79
330
78
100
AcDbEntity
  8
0
100
AcDbBlockBegin
  2
_CLOSEDFILLED
 70
0
 10
0.0
 20
0.0
 30
0.0
  3
_CLOSEDFILLED
  1

  0
SOLID
  5
7B
330
78
100
AcDbEntity
  8
0
  6
BYBLOCK
 62
0
100
AcDbTrace
 10
-1.0
 20
0.16439898372402537
 30
0.0
 11
0.0
 21
0.0
 31
0.0
 12
-1.0
 22
-0.16439898372402537
 32
0.0
 13
-1.0
 23
-0.16439898372402537
 33
0.0
  0
ENDBLK
  5
7A
330
78
100
AcDbEntity
  8
0
100
AcDbBlockEnd
  0
BLOCK
  5
85
330
84
100
AcDbEntity
  8
0
100
AcDbBlockBegin
  2
_CLOSEDBLANK
 70
0
 10
0.0
 20
0.0
 30
0.0
  3
_CLOSEDBLANK
  1

  0
LWPOLYLINE
  5
87
330
84
100
AcDbEntity
  8
0
  6
BYBLOCK
 62
0
100
AcDbPolyline
 90
3
 70
1
 10
-1.0
 20
0.16439898372402537
 10
0.0
 20
0.0
 10
-1.0
 20
-0.16439898372402537
  0
ENDBLK
  5
86
330
84
100
AcDbEntity
  8
0
100
AcDbBlockEnd
  0
ENDSEC
  0
SECTION
  2
ENTITIES
  0
LINE
  5
8F
330
17
100
AcDbEntity
  8
MARCO
100
AcDbLine
 10
10.0
 20
10.0
 30
0.0
 11
410.0
 21
10.0
 31
0.0
  0
LINE
  5
90
330
17
100
AcDbEntity
  8
MARCO
100
AcDbLine
 10
410.0
 20
10.0
 30
0.0
 11
410.0
 21
287.0
 31
0.0
  0
LINE
  5
91
330
17
100
AcDbEntity
  8
MARCO
100
AcDbLine
 10
410.0
 20
287.0
 30
0.0
 11
10.0
 21
287.0
 31
0.0
  0
LINE
  5
92
330
17
100
AcDbEntity
  8
MARCO
100
AcDbLine
 10
10.0
 20
287.0
 30
0.0
 11
10.0
 21
10.0
 31
0.0
  0
LINE
  5
93
330
17
100
AcDbEntity
  8
VISIBLE
100
AcDbLine
 10
108.0
 20
175.89999999999998
 30
0.0
 11
108.0
 21
237.7
 31
0.0
  0
LINE
  5
94
330
17
100
AcDbEntity
  8
VISIBLE
100
AcDbLine
 10
108.0
 20
175.89999999999998
 30
0.0
 11
118.0
 21
175.89999999999998
 31
0.0
  0
LINE
  5
95
330
17
100
AcDbEntity
  8
VISIBLE
100
AcDbLine
 10
118.0
 20
175.89999999999998
 30
0.0
 11
118.0
 21
237.7
 31
0.0
  0
LINE
  5
96
330
17
100
AcDbEntity
  8
VISIBLE
100
AcDbLine
 10
108.0
 20
237.7
 30
0.0
 11
118.0
 21
237.7
 31
0.0
  0
LINE
  5
97
330
17
100
AcDbEntity
  8
OCULTA
100
AcDbLine
 10
108.0
 20
175.89999999999998
 30
0.0
 11
108.0
 21
237.7
 31
0.0
  0
LINE
  5
98
330
17
100
AcDbEntity
  8
OCULTA
100
AcDbLine
 10
108.0
 20
237.7
 30
0.0
 11
118.0
 21
237.7
 31
0.0
  0
LINE
  5
99
330
17
100
AcDbEntity
  8
OCULTA
100
AcDbLine
 10
113.35
 20
237.7
 30
0.0
 11
112.45
 21
237.7
 31
0.0
  0
LINE
  5
9A
330
17
100
AcDbEntity
  8
OCULTA
100
AcDbLine
 10
112.45
 20
237.7
 30
0.0
 11
113.35
 21
237.7
 31
0.0
  0
LINE
  5
9B
330
17
100
AcDbEntity
  8
OCULTA
100
AcDbLine
 10
108.0
 20
175.89999999999998
 30
0.0
 11
118.0
 21
175.89999999999998
 31
0.0
  0
LINE
  5
9C
330
17
100
AcDbEntity
  8
OCULTA
100
AcDbLine
 10
118.0
 20
175.89999999999998
 30
0.0
 11
118.0
 21
237.7
 31
0.0
  0
LINE
  5
9D
330
17
100
AcDbEntity
  8
OCULTA
100
AcDbLine
 10
113.35
 20
175.89999999999998
 30
0.0
 11
112.45
 21
175.89999999999998
 31
0.0
  0
LINE
  5
9E
330
17
100
AcDbEntity
  8
OCULTA
100
AcDbLine
 10
112.45
 20
175.89999999999998
 30
0.0
 11
113.35
 21
175.89999999999998
 31
0.0
  0
LINE
  5
9F
330
17
100
AcDbEntity
  8
OCULTA
100
AcDbLine
 10
113.35
 20
233.7
 30
0.0
 11
113.35
 21
237.7
 31
0.0
  0
LINE
  5
A0
330
17
100
AcDbEntity
  8
OCULTA
100
AcDbLine
 10
113.35
 20
233.7
 30
0.0
 11
112.45
 21
233.7
 31
0.0
  0
LINE
  5
A1
330
17
100
AcDbEntity
  8
OCULTA
100
AcDbLine
 10
112.45
 20
233.7
 30
0.0
 11
113.35
 21
233.7
 31
0.0
  0
LINE
  5
A2
330
17
100
AcDbEntity
  8
OCULTA
100
AcDbLine
 10
113.35
 20
175.89999999999998
 30
0.0
 11
113.35
 21
179.89999999999998
 31
0.0
  0
LINE
  5
A3
330
17
100
AcDbEntity
  8
OCULTA
100
AcDbLine
 10
113.35
 20
179.89999999999998
 30
0.0
 11
112.45
 21
179.89999999999998
 31
0.0
  0
LINE
  5
A4
330
17
100
AcDbEntity
  8
OCULTA
100
AcDbLine
 10
112.45
 20
179.89999999999998
 30
0.0
 11
113.35
 21
179.89999999999998
 31
0.0
  0
LINE
  5
A5
330
17
100
AcDbEntity
  8
OCULTA
100
AcDbLine
 10
112.45
 20
233.7
 30
0.0
 11
112.45
 21
237.7
 31
0.0
  0
LINE
  5
A6
330
17
100
AcDbEntity
  8
OCULTA
100
AcDbLine
 10
112.45
 20
175.89999999999998
 30
0.0
 11
112.45
 21
179.89999999999998
 31
0.0
  0
LINE
  5
A7
330
17
100
AcDbEntity
  8
COTAS
100
AcDbLine
 10
108.0
 20
174.39999999999998
 30
0.0
 11
108.0
 21
166.39999999999998
 31
0.0
  0
LINE
  5
A8
330
17
100
AcDbEntity
  8
COTAS
100
AcDbLine
 10
118.0
 20
174.39999999999998
 30
0.0
 11
118.0
 21
166.39999999999998
 31
0.0
  0
LINE
  5
A9
330
17
100
AcDbEntity
  8
COTAS
100
AcDbLine
 10
108.0
 20
167.89999999999998
 30
0.0
 11
118.0
 21
167.89999999999998
 31
0.0
  0
LINE
  5
AA
330
17
100
AcDbEntity
  8
COTAS
100
AcDbLine
 10
106.8
 20
166.7
 30
0.0
 11
109.2
 21
169.09999999999997
 31
0.0
  0
LINE
  5
AB
330
17
100
AcDbEntity
  8
COTAS
100
AcDbLine
 10
116.8
 20
166.7
 30
0.0
 11
119.2
 21
169.09999999999997
 31
0.0
  0
LINE
  5
AC
330
17
100
AcDbEntity
  8
COTAS
100
AcDbLine
 10
106.5
 20
175.89999999999998
 30
0.0
 11
98.5
 21
175.89999999999998
 31
0.0
  0
LINE
  5
AD
330
17
100
AcDbEntity
  8
COTAS
100
AcDbLine
 10
106.5
 20
237.7
 30
0.0
 11
98.5
 21
237.7
 31
0.0
  0
LINE
  5
AE
330
17
100
AcDbEntity
  8
COTAS
100
AcDbLine
 10
100.0
 20
175.89999999999998
 30
0.0
 11
100.0
 21
237.7
 31
0.0
  0
LINE
  5
AF
330
17
100
AcDbEntity
  8
COTAS
100
AcDbLine
 10
98.8
 20
174.7
 30
0.0
 11
101.2
 21
177.09999999999997
 31
0.0
  0
LINE
  5
B0
330
17
100
AcDbEntity
  8
COTAS
100
AcDbLine
 10
98.8
 20
236.5
 30
0.0
 11
101.2
 21
238.89999999999998
 31
0.0
  0
LINE
  5
B1
330
17
100
AcDbEntity
  8
VISIBLE
100
AcDbLine
 10
302.8
 20
175.89999999999998
 30
0.0
 11
302.8
 21
237.7
 31
0.0
  0
LINE
  5
B2
330
17
100
AcDbEntity
  8
VISIBLE
100
AcDbLine
 10
302.8
 20
237.7
 30
0.0
 11
311.2
 21
237.7
 31
0.0
  0
LINE
  5
B3
330
17
100
AcDbEntity
  8
VISIBLE
100
AcDbLine
 10
311.2
 20
175.89999999999998
 30
0.0
 11
311.2
 21
237.7
 31
0.0
  0
LINE
  5
B4
330
17
100
AcDbEntity
  8
VISIBLE
100
AcDbLine
 10
302.8
 20
175.89999999999998
 30
0.0
 11
311.2
 21
175.89999999999998
 31
0.0
  0
LINE
  5
B5
330
17
100
AcDbEntity
  8
OCULTA
100
AcDbLine
 10
302.8
 20
175.89999999999998
 30
0.0
 11
302.8
 21
237.7
 31
0.0
  0
LINE
  5
B6
330
17
100
AcDbEntity
  8
OCULTA
100
AcDbLine
 10
302.8
 20
237.7
 30
0.0
 11
311.2
 21
237.7
 31
0.0
  0
LINE
  5
B7
330
17
100
AcDbEntity
  8
OCULTA
100
AcDbLine
 10
311.2
 20
175.89999999999998
 30
0.0
 11
311.2
 21
237.7
 31
0.0
  0
LINE
  5
B8
330
17
100
AcDbEntity
  8
OCULTA
100
AcDbLine
 10
302.8
 20
175.89999999999998
 30
0.0
 11
311.2
 21
175.89999999999998
 31
0.0
  0
LINE
  5
B9
330
17
100
AcDbEntity
  8
OCULTA
100
AcDbLine
 10
307.0
 20
237.7
 30
0.0
 11
307.45
 21
237.7
 31
0.0
  0
LINE
  5
BA
330
17
100
AcDbEntity
  8
OCULTA
100
AcDbLine
 10
307.45
 20
237.7
 30
0.0
 11
306.55
 21
237.7
 31
0.0
  0
LINE
  5
BB
330
17
100
AcDbEntity
  8
OCULTA
100
AcDbLine
 10
306.55
 20
237.7
 30
0.0
 11
307.0
 21
237.7
 31
0.0
  0
LINE
  5
BC
330
17
100
AcDbEntity
  8
OCULTA
100
AcDbLine
 10
307.0
 20
175.89999999999998
 30
0.0
 11
307.45
 21
175.89999999999998
 31
0.0
  0
LINE
  5
BD
330
17
100
AcDbEntity
  8
OCULTA
100
AcDbLine
 10
307.45
 20
175.89999999999998
 30
0.0
 11
306.55
 21
175.89999999999998
 31
0.0
  0
LINE
  5
BE
330
17
100
AcDbEntity
  8
OCULTA
100
AcDbLine
 10
306.55
 20
175.89999999999998
 30
0.0
 11
307.0
 21
175.89999999999998
 31
0.0
  0
LINE
  5
BF
330
17
100
AcDbEntity
  8
OCULTA
100
AcDbLine
 10
307.0
 20
233.7
 30
0.0
 11
307.45
 21
233.7
 31
0.0
  0
LINE
  5
C0
330
17
100
AcDbEntity
  8
OCULTA
100
AcDbLine
 10
307.45
 20
233.7
 30
0.0
 11
306.55
 21
233.7
 31
0.0
  0
LINE
  5
C1
330
17
100
AcDbEntity
  8
OCULTA
100
AcDbLine
 10
306.55
 20
233.7
 30
0.0
 11
307.0
 21
233.7
 31
0.0
  0
LINE
  5
C2
330
17
100
AcDbEntity
  8
OCULTA
100
AcDbLine
 10
307.0
 20
179.89999999999998
 30
0.0
 11
307.45
 21
179.89999999999998
 31
0.0
  0
LINE
  5
C3
330
17
100
AcDbEntity
  8
OCULTA
100
AcDbLine
 10
307.45
 20
179.89999999999998
 30
0.0
 11
306.55
 21
179.89999999999998
 31
0.0
  0
LINE
  5
C4
330
17
100
AcDbEntity
  8
OCULTA
100
AcDbLine
 10
306.55
 20
179.89999999999998
 30
0.0
 11
307.0
 21
179.89999999999998
 31
0.0
  0
LINE
  5
C5
330
17
100
AcDbEntity
  8
OCULTA
100
AcDbLine
 10
307.45
 20
233.7
 30
0.0
 11
307.45
 21
237.7
 31
0.0
  0
LINE
  5
C6
330
17
100
AcDbEntity
  8
OCULTA
100
AcDbLine
 10
306.55
 20
233.7
 30
0.0
 11
306.55
 21
237.7
 31
0.0
  0
LINE
  5
C7
330
17
100
AcDbEntity
  8
OCULTA
100
AcDbLine
 10
307.45
 20
175.89999999999998
 30
0.0
 11
307.45
 21
179.89999999999998
 31
0.0
  0
LINE
  5
C8
330
17
100
AcDbEntity
  8
OCULTA
100
AcDbLine
 10
306.55
 20
175.89999999999998
 30
0.0
 11
306.55
 21
179.89999999999998
 31
0.0
  0
LINE
  5
C9
330
17
100
AcDbEntity
  8
COTAS
100
AcDbLine
 10
302.8
 20
174.39999999999998
 30
0.0
 11
302.8
 21
166.39999999999998
 31
0.0
  0
LINE
  5
CA
330
17
100
AcDbEntity
  8
COTAS
100
AcDbLine
 10
311.2
 20
174.39999999999998
 30
0.0
 11
311.2
 21
166.39999999999998
 31
0.0
  0
LINE
  5
CB
330
17
100
AcDbEntity
  8
COTAS
100
AcDbLine
 10
302.8
 20
167.89999999999998
 30
0.0
 11
311.2
 21
167.89999999999998
 31
0.0
  0
LINE
  5
CC
330
17
100
AcDbEntity
  8
COTAS
100
AcDbLine
 10
301.6
 20
166.7
 30
0.0
 11
304.0
 21
169.09999999999997
 31
0.0
  0
LINE
  5
CD
330
17
100
AcDbEntity
  8
COTAS
100
AcDbLine
 10
310.0
 20
166.7
 30
0.0
 11
312.4
 21
169.09999999999997
 31
0.0
  0
LINE
  5
CE
330
17
100
AcDbEntity
  8
COTAS
100
AcDbLine
 10
301.3
 20
175.89999999999998
 30
0.0
 11
293.3
 21
175.89999999999998
 31
0.0
  0
LINE
  5
CF
330
17
100
AcDbEntity
  8
COTAS
100
AcDbLine
 10
301.3
 20
237.7
 30
0.0
 11
293.3
 21
237.7
 31
0.0
  0
LINE
  5
D0
330
17
100
AcDbEntity
  8
COTAS
100
AcDbLine
 10
294.8
 20
175.89999999999998
 30
0.0
 11
294.8
 21
237.7
 31
0.0
  0
LINE
  5
D1
330
17
100
AcDbEntity
  8
COTAS
100
AcDbLine
 10
293.6
 20
174.7
 30
0.0
 11
296.0
 21
177.09999999999997
 31
0.0
  0
LINE
  5
D2
330
17
100
AcDbEntity
  8
COTAS
100
AcDbLine
 10
293.6
 20
236.5
 30
0.0
 11
296.0
 21
238.89999999999998
 31
0.0
  0
LINE
  5
D3
330
17
100
AcDbEntity
  8
VISIBLE
100
AcDbLine
 10
108.0
 20
80.7
 30
0.0
 11
108.0
 21
89.10000000000001
 31
0.0
  0
LINE
  5
D4
330
17
100
AcDbEntity
  8
VISIBLE
100
AcDbLine
 10
108.0
 20
80.7
 30
0.0
 11
118.0
 21
80.7
 31
0.0
  0
LINE
  5
D5
330
17
100
AcDbEntity
  8
VISIBLE
100
AcDbLine
 10
108.0
 20
89.10000000000001
 30
0.0
 11
118.0
 21
89.10000000000001
 31
0.0
  0
LINE
  5
D6
330
17
100
AcDbEntity
  8
VISIBLE
100
AcDbLine
 10
118.0
 20
80.7
 30
0.0
 11
118.0
 21
89.10000000000001
 31
0.0
  0
LINE
  5
D7
330
17
100
AcDbEntity
  8
VISIBLE
100
AcDbLine
 10
113.35
 20
84.9
 30
0.0
 11
113.33466662183008
 21
85.01646857029614
 31
0.0
  0
LINE
  5
D8
330
17
100
AcDbEntity
  8
VISIBLE
100
AcDbLine
 10
113.33466662183008
 20
85.01646857029614
 30
0.0
 11
113.289711431703
 21
85.125
 31
0.0
  0
LINE
  5
D9
330
17
100
AcDbEntity
  8
VISIBLE
100
AcDbLine
 10
113.289711431703
 20
85.125
 30
0.0
 11
113.21819805153395
 21
85.21819805153395
 31
0.0
  0
LINE
  5
DA
330
17
100
AcDbEntity
  8
VISIBLE
100
AcDbLine
 10
113.21819805153395
 20
85.21819805153395
 30
0.0
 11
113.125
 21
85.289711431703
 31
0.0
  0
LINE
  5
DB
330
17
100
AcDbEntity
  8
VISIBLE
100
AcDbLine
 10
113.125
 20
85.289711431703
 30
0.0
 11
113.01646857029614
 21
85.33466662183008
 31
0.0
  0
LINE
  5
DC
330
17
100
AcDbEntity
  8
VISIBLE
100
AcDbLine
 10
113.01646857029614
 20
85.33466662183008
 30
0.0
 11
112.9
 21
85.35000000000001
 31
0.0
  0
LINE
  5
DD
330
17
100
AcDbEntity
  8
VISIBLE
100
AcDbLine
 10
112.9
 20
85.35000000000001
 30
0.0
 11
112.78353142970387
 21
85.33466662183008
 31
0.0
  0
LINE
  5
DE
330
17
100
AcDbEntity
  8
VISIBLE
100
AcDbLine
 10
112.78353142970387
 20
85.33466662183008
 30
0.0
 11
112.675
 21
85.289711431703
 31
0.0
  0
LINE
  5
DF
330
17
100
AcDbEntity
  8
VISIBLE
100
AcDbLine
 10
112.675
 20
85.289711431703
 30
0.0
 11
112.58180194846605
 21
85.21819805153395
 31
0.0
  0
LINE
  5
E0
330
17
100
AcDbEntity
  8
VISIBLE
100
AcDbLine
 10
112.58180194846605
 20
85.21819805153395
 30
0.0
 11
112.510288568297
 21
85.125
 31
0.0
  0
LINE
  5
E1
330
17
100
AcDbEntity
  8
VISIBLE
100
AcDbLine
 10
112.510288568297
 20
85.125
 30
0.0
 11
112.46533337816992
 21
85.01646857029614
 31
0.0
  0
LINE
  5
E2
330
17
100
AcDbEntity
  8
VISIBLE
100
AcDbLine
 10
112.46533337816992
 20
85.01646857029614
 30
0.0
 11
112.45
 21
84.9
 31
0.0
  0
LINE
  5
E3
330
17
100
AcDbEntity
  8
VISIBLE
100
AcDbLine
 10
112.45
 20
84.9
 30
0.0
 11
112.46533337816992
 21
84.78353142970387
 31
0.0
  0
LINE
  5
E4
330
17
100
AcDbEntity
  8
VISIBLE
100
AcDbLine
 10
112.46533337816992
 20
84.78353142970387
 30
0.0
 11
112.510288568297
 21
84.67500000000001
 31
0.0
  0
LINE
  5
E5
330
17
100
AcDbEntity
  8
VISIBLE
100
AcDbLine
 10
112.510288568297
 20
84.67500000000001
 30
0.0
 11
112.58180194846605
 21
84.58180194846607
 31
0.0
  0
LINE
  5
E6
330
17
100
AcDbEntity
  8
VISIBLE
100
AcDbLine
 10
112.58180194846605
 20
84.58180194846607
 30
0.0
 11
112.675
 21
84.51028856829701
 31
0.0
  0
LINE
  5
E7
330
17
100
AcDbEntity
  8
VISIBLE
100
AcDbLine
 10
112.675
 20
84.51028856829701
 30
0.0
 11
112.78353142970387
 21
84.46533337816993
 31
0.0
  0
LINE
  5
E8
330
17
100
AcDbEntity
  8
VISIBLE
100
AcDbLine
 10
112.78353142970387
 20
84.46533337816993
 30
0.0
 11
112.9
 21
84.45
 31
0.0
  0
LINE
  5
E9
330
17
100
AcDbEntity
  8
VISIBLE
100
AcDbLine
 10
112.9
 20
84.45
 30
0.0
 11
113.01646857029614
 21
84.46533337816993
 31
0.0
  0
LINE
  5
EA
330
17
100
AcDbEntity
  8
VISIBLE
100
AcDbLine
 10
113.01646857029614
 20
84.46533337816993
 30
0.0
 11
113.125
 21
84.51028856829701
 31
0.0
  0
LINE
  5
EB
330
17
100
AcDbEntity
  8
VISIBLE
100
AcDbLine
 10
113.125
 20
84.51028856829701
 30
0.0
 11
113.21819805153395
 21
84.58180194846607
 31
0.0
  0
LINE
  5
EC
330
17
100
AcDbEntity
  8
VISIBLE
100
AcDbLine
 10
113.21819805153395
 20
84.58180194846607
 30
0.0
 11
113.289711431703
 21
84.67500000000001
 31
0.0
  0
LINE
  5
ED
330
17
100
AcDbEntity
  8
VISIBLE
100
AcDbLine
 10
113.289711431703
 20
84.67500000000001
 30
0.0
 11
113.33466662183008
 21
84.78353142970387
 31
0.0
  0
LINE
  5
EE
330
17
100
AcDbEntity
  8
VISIBLE
100
AcDbLine
 10
113.33466662183008
 20
84.78353142970387
 30
0.0
 11
113.35
 21
84.9
 31
0.0
  0
LINE
  5
EF
330
17
100
AcDbEntity
  8
OCULTA
100
AcDbLine
 10
108.0
 20
80.7
 30
0.0
 11
108.0
 21
89.10000000000001
 31
0.0
  0
LINE
  5
F0
330
17
100
AcDbEntity
  8
OCULTA
100
AcDbLine
 10
108.0
 20
80.7
 30
0.0
 11
118.0
 21
80.7
 31
0.0
  0
LINE
  5
F1
330
17
100
AcDbEntity
  8
OCULTA
100
AcDbLine
 10
108.0
 20
89.10000000000001
 30
0.0
 11
118.0
 21
89.10000000000001
 31
0.0
  0
LINE
  5
F2
330
17
100
AcDbEntity
  8
OCULTA
100
AcDbLine
 10
118.0
 20
80.7
 30
0.0
 11
118.0
 21
89.10000000000001
 31
0.0
  0
LINE
  5
F3
330
17
100
AcDbEntity
  8
OCULTA
100
AcDbLine
 10
113.35
 20
84.9
 30
0.0
 11
113.33466662183008
 21
85.01646857029614
 31
0.0
  0
LINE
  5
F4
330
17
100
AcDbEntity
  8
OCULTA
100
AcDbLine
 10
113.33466662183008
 20
85.01646857029614
 30
0.0
 11
113.289711431703
 21
85.125
 31
0.0
  0
LINE
  5
F5
330
17
100
AcDbEntity
  8
OCULTA
100
AcDbLine
 10
113.289711431703
 20
85.125
 30
0.0
 11
113.21819805153395
 21
85.21819805153395
 31
0.0
  0
LINE
  5
F6
330
17
100
AcDbEntity
  8
OCULTA
100
AcDbLine
 10
113.21819805153395
 20
85.21819805153395
 30
0.0
 11
113.125
 21
85.289711431703
 31
0.0
  0
LINE
  5
F7
330
17
100
AcDbEntity
  8
OCULTA
100
AcDbLine
 10
113.125
 20
85.289711431703
 30
0.0
 11
113.01646857029614
 21
85.33466662183008
 31
0.0
  0
LINE
  5
F8
330
17
100
AcDbEntity
  8
OCULTA
100
AcDbLine
 10
113.01646857029614
 20
85.33466662183008
 30
0.0
 11
112.9
 21
85.35000000000001
 31
0.0
  0
LINE
  5
F9
330
17
100
AcDbEntity
  8
OCULTA
100
AcDbLine
 10
112.9
 20
85.35000000000001
 30
0.0
 11
112.78353142970387
 21
85.33466662183008
 31
0.0
  0
LINE
  5
FA
330
17
100
AcDbEntity
  8
OCULTA
100
AcDbLine
 10
112.78353142970387
 20
85.33466662183008
 30
0.0
 11
112.675
 21
85.289711431703
 31
0.0
  0
LINE
  5
FB
330
17
100
AcDbEntity
  8
OCULTA
100
AcDbLine
 10
112.675
 20
85.289711431703
 30
0.0
 11
112.58180194846605
 21
85.21819805153395
 31
0.0
  0
LINE
  5
FC
330
17
100
AcDbEntity
  8
OCULTA
100
AcDbLine
 10
112.58180194846605
 20
85.21819805153395
 30
0.0
 11
112.510288568297
 21
85.125
 31
0.0
  0
LINE
  5
FD
330
17
100
AcDbEntity
  8
OCULTA
100
AcDbLine
 10
112.510288568297
 20
85.125
 30
0.0
 11
112.46533337816992
 21
85.01646857029614
 31
0.0
  0
LINE
  5
FE
330
17
100
AcDbEntity
  8
OCULTA
100
AcDbLine
 10
112.46533337816992
 20
85.01646857029614
 30
0.0
 11
112.45
 21
84.9
 31
0.0
  0
LINE
  5
FF
330
17
100
AcDbEntity
  8
OCULTA
100
AcDbLine
 10
112.45
 20
84.9
 30
0.0
 11
112.46533337816992
 21
84.78353142970387
 31
0.0
  0
LINE
  5
100
330
17
100
AcDbEntity
  8
OCULTA
100
AcDbLine
 10
112.46533337816992
 20
84.78353142970387
 30
0.0
 11
112.510288568297
 21
84.67500000000001
 31
0.0
  0
LINE
  5
101
330
17
100
AcDbEntity
  8
OCULTA
100
AcDbLine
 10
112.510288568297
 20
84.67500000000001
 30
0.0
 11
112.58180194846605
 21
84.58180194846607
 31
0.0
  0
LINE
  5
102
330
17
100
AcDbEntity
  8
OCULTA
100
AcDbLine
 10
112.58180194846605
 20
84.58180194846607
 30
0.0
 11
112.675
 21
84.51028856829701
 31
0.0
  0
LINE
  5
103
330
17
100
AcDbEntity
  8
OCULTA
100
AcDbLine
 10
112.675
 20
84.51028856829701
 30
0.0
 11
112.78353142970387
 21
84.46533337816993
 31
0.0
  0
LINE
  5
104
330
17
100
AcDbEntity
  8
OCULTA
100
AcDbLine
 10
112.78353142970387
 20
84.46533337816993
 30
0.0
 11
112.9
 21
84.45
 31
0.0
  0
LINE
  5
105
330
17
100
AcDbEntity
  8
OCULTA
100
AcDbLine
 10
112.9
 20
84.45
 30
0.0
 11
113.01646857029614
 21
84.46533337816993
 31
0.0
  0
LINE
  5
106
330
17
100
AcDbEntity
  8
OCULTA
100
AcDbLine
 10
113.01646857029614
 20
84.46533337816993
 30
0.0
 11
113.125
 21
84.51028856829701
 31
0.0
  0
LINE
  5
107
330
17
100
AcDbEntity
  8
OCULTA
100
AcDbLine
 10
113.125
 20
84.51028856829701
 30
0.0
 11
113.21819805153395
 21
84.58180194846607
 31
0.0
  0
LINE
  5
108
330
17
100
AcDbEntity
  8
OCULTA
100
AcDbLine
 10
113.21819805153395
 20
84.58180194846607
 30
0.0
 11
113.289711431703
 21
84.67500000000001
 31
0.0
  0
LINE
  5
109
330
17
100
AcDbEntity
  8
OCULTA
100
AcDbLine
 10
113.289711431703
 20
84.67500000000001
 30
0.0
 11
113.33466662183008
 21
84.78353142970387
 31
0.0
  0
LINE
  5
10A
330
17
100
AcDbEntity
  8
OCULTA
100
AcDbLine
 10
113.33466662183008
 20
84.78353142970387
 30
0.0
 11
113.35
 21
84.9
 31
0.0
  0
LINE
  5
10B
330
17
100
AcDbEntity
  8
OCULTA
100
AcDbLine
 10
113.35
 20
84.9
 30
0.0
 11
113.33466662183008
 21
85.01646857029614
 31
0.0
  0
LINE
  5
10C
330
17
100
AcDbEntity
  8
OCULTA
100
AcDbLine
 10
113.33466662183008
 20
85.01646857029614
 30
0.0
 11
113.289711431703
 21
85.125
 31
0.0
  0
LINE
  5
10D
330
17
100
AcDbEntity
  8
OCULTA
100
AcDbLine
 10
113.289711431703
 20
85.125
 30
0.0
 11
113.21819805153395
 21
85.21819805153395
 31
0.0
  0
LINE
  5
10E
330
17
100
AcDbEntity
  8
OCULTA
100
AcDbLine
 10
113.21819805153395
 20
85.21819805153395
 30
0.0
 11
113.125
 21
85.289711431703
 31
0.0
  0
LINE
  5
10F
330
17
100
AcDbEntity
  8
OCULTA
100
AcDbLine
 10
113.125
 20
85.289711431703
 30
0.0
 11
113.01646857029614
 21
85.33466662183008
 31
0.0
  0
LINE
  5
110
330
17
100
AcDbEntity
  8
OCULTA
100
AcDbLine
 10
113.01646857029614
 20
85.33466662183008
 30
0.0
 11
112.9
 21
85.35000000000001
 31
0.0
  0
LINE
  5
111
330
17
100
AcDbEntity
  8
OCULTA
100
AcDbLine
 10
112.9
 20
85.35000000000001
 30
0.0
 11
112.78353142970387
 21
85.33466662183008
 31
0.0
  0
LINE
  5
112
330
17
100
AcDbEntity
  8
OCULTA
100
AcDbLine
 10
112.78353142970387
 20
85.33466662183008
 30
0.0
 11
112.675
 21
85.289711431703
 31
0.0
  0
LINE
  5
113
330
17
100
AcDbEntity
  8
OCULTA
100
AcDbLine
 10
112.675
 20
85.289711431703
 30
0.0
 11
112.58180194846605
 21
85.21819805153395
 31
0.0
  0
LINE
  5
114
330
17
100
AcDbEntity
  8
OCULTA
100
AcDbLine
 10
112.58180194846605
 20
85.21819805153395
 30
0.0
 11
112.510288568297
 21
85.125
 31
0.0
  0
LINE
  5
115
330
17
100
AcDbEntity
  8
OCULTA
100
AcDbLine
 10
112.510288568297
 20
85.125
 30
0.0
 11
112.46533337816992
 21
85.01646857029614
 31
0.0
  0
LINE
  5
116
330
17
100
AcDbEntity
  8
OCULTA
100
AcDbLine
 10
112.46533337816992
 20
85.01646857029614
 30
0.0
 11
112.45
 21
84.9
 31
0.0
  0
LINE
  5
117
330
17
100
AcDbEntity
  8
OCULTA
100
AcDbLine
 10
112.45
 20
84.9
 30
0.0
 11
112.46533337816992
 21
84.78353142970387
 31
0.0
  0
LINE
  5
118
330
17
100
AcDbEntity
  8
OCULTA
100
AcDbLine
 10
112.46533337816992
 20
84.78353142970387
 30
0.0
 11
112.510288568297
 21
84.67500000000001
 31
0.0
  0
LINE
  5
119
330
17
100
AcDbEntity
  8
OCULTA
100
AcDbLine
 10
112.510288568297
 20
84.67500000000001
 30
0.0
 11
112.58180194846605
 21
84.58180194846607
 31
0.0
  0
LINE
  5
11A
330
17
100
AcDbEntity
  8
OCULTA
100
AcDbLine
 10
112.58180194846605
 20
84.58180194846607
 30
0.0
 11
112.675
 21
84.51028856829701
 31
0.0
  0
LINE
  5
11B
330
17
100
AcDbEntity
  8
OCULTA
100
AcDbLine
 10
112.675
 20
84.51028856829701
 30
0.0
 11
112.78353142970387
 21
84.46533337816993
 31
0.0
  0
LINE
  5
11C
330
17
100
AcDbEntity
  8
OCULTA
100
AcDbLine
 10
112.78353142970387
 20
84.46533337816993
 30
0.0
 11
112.9
 21
84.45
 31
0.0
  0
LINE
  5
11D
330
17
100
AcDbEntity
  8
OCULTA
100
AcDbLine
 10
112.9
 20
84.45
 30
0.0
 11
113.01646857029614
 21
84.46533337816993
 31
0.0
  0
LINE
  5
11E
330
17
100
AcDbEntity
  8
OCULTA
100
AcDbLine
 10
113.01646857029614
 20
84.46533337816993
 30
0.0
 11
113.125
 21
84.51028856829701
 31
0.0
  0
LINE
  5
11F
330
17
100
AcDbEntity
  8
OCULTA
100
AcDbLine
 10
113.125
 20
84.51028856829701
 30
0.0
 11
113.21819805153395
 21
84.58180194846607
 31
0.0
  0
LINE
  5
120
330
17
100
AcDbEntity
  8
OCULTA
100
AcDbLine
 10
113.21819805153395
 20
84.58180194846607
 30
0.0
 11
113.289711431703
 21
84.67500000000001
 31
0.0
  0
LINE
  5
121
330
17
100
AcDbEntity
  8
OCULTA
100
AcDbLine
 10
113.289711431703
 20
84.67500000000001
 30
0.0
 11
113.33466662183008
 21
84.78353142970387
 31
0.0
  0
LINE
  5
122
330
17
100
AcDbEntity
  8
OCULTA
100
AcDbLine
 10
113.33466662183008
 20
84.78353142970387
 30
0.0
 11
113.35
 21
84.9
 31
0.0
  0
LINE
  5
123
330
17
100
AcDbEntity
  8
OCULTA
100
AcDbLine
 10
113.35
 20
84.9
 30
0.0
 11
113.33466662183008
 21
85.01646857029614
 31
0.0
  0
LINE
  5
124
330
17
100
AcDbEntity
  8
OCULTA
100
AcDbLine
 10
113.33466662183008
 20
85.01646857029614
 30
0.0
 11
113.289711431703
 21
85.125
 31
0.0
  0
LINE
  5
125
330
17
100
AcDbEntity
  8
OCULTA
100
AcDbLine
 10
113.289711431703
 20
85.125
 30
0.0
 11
113.21819805153395
 21
85.21819805153395
 31
0.0
  0
LINE
  5
126
330
17
100
AcDbEntity
  8
OCULTA
100
AcDbLine
 10
113.21819805153395
 20
85.21819805153395
 30
0.0
 11
113.125
 21
85.289711431703
 31
0.0
  0
LINE
  5
127
330
17
100
AcDbEntity
  8
OCULTA
100
AcDbLine
 10
113.125
 20
85.289711431703
 30
0.0
 11
113.01646857029614
 21
85.33466662183008
 31
0.0
  0
LINE
  5
128
330
17
100
AcDbEntity
  8
OCULTA
100
AcDbLine
 10
113.01646857029614
 20
85.33466662183008
 30
0.0
 11
112.9
 21
85.35000000000001
 31
0.0
  0
LINE
  5
129
330
17
100
AcDbEntity
  8
OCULTA
100
AcDbLine
 10
112.9
 20
85.35000000000001
 30
0.0
 11
112.78353142970387
 21
85.33466662183008
 31
0.0
  0
LINE
  5
12A
330
17
100
AcDbEntity
  8
OCULTA
100
AcDbLine
 10
112.78353142970387
 20
85.33466662183008
 30
0.0
 11
112.675
 21
85.289711431703
 31
0.0
  0
LINE
  5
12B
330
17
100
AcDbEntity
  8
OCULTA
100
AcDbLine
 10
112.675
 20
85.289711431703
 30
0.0
 11
112.58180194846605
 21
85.21819805153395
 31
0.0
  0
LINE
  5
12C
330
17
100
AcDbEntity
  8
OCULTA
100
AcDbLine
 10
112.58180194846605
 20
85.21819805153395
 30
0.0
 11
112.510288568297
 21
85.125
 31
0.0
  0
LINE
  5
12D
330
17
100
AcDbEntity
  8
OCULTA
100
AcDbLine
 10
112.510288568297
 20
85.125
 30
0.0
 11
112.46533337816992
 21
85.01646857029614
 31
0.0
  0
LINE
  5
12E
330
17
100
AcDbEntity
  8
OCULTA
100
AcDbLine
 10
112.46533337816992
 20
85.01646857029614
 30
0.0
 11
112.45
 21
84.9
 31
0.0
  0
LINE
  5
12F
330
17
100
AcDbEntity
  8
OCULTA
100
AcDbLine
 10
112.45
 20
84.9
 30
0.0
 11
112.46533337816992
 21
84.78353142970387
 31
0.0
  0
LINE
  5
130
330
17
100
AcDbEntity
  8
OCULTA
100
AcDbLine
 10
112.46533337816992
 20
84.78353142970387
 30
0.0
 11
112.510288568297
 21
84.67500000000001
 31
0.0
  0
LINE
  5
131
330
17
100
AcDbEntity
  8
OCULTA
100
AcDbLine
 10
112.510288568297
 20
84.67500000000001
 30
0.0
 11
112.58180194846605
 21
84.58180194846607
 31
0.0
  0
LINE
  5
132
330
17
100
AcDbEntity
  8
OCULTA
100
AcDbLine
 10
112.58180194846605
 20
84.58180194846607
 30
0.0
 11
112.675
 21
84.51028856829701
 31
0.0
  0
LINE
  5
133
330
17
100
AcDbEntity
  8
OCULTA
100
AcDbLine
 10
112.675
 20
84.51028856829701
 30
0.0
 11
112.78353142970387
 21
84.46533337816993
 31
0.0
  0
LINE
  5
134
330
17
100
AcDbEntity
  8
OCULTA
100
AcDbLine
 10
112.78353142970387
 20
84.46533337816993
 30
0.0
 11
112.9
 21
84.45
 31
0.0
  0
LINE
  5
135
330
17
100
AcDbEntity
  8
OCULTA
100
AcDbLine
 10
112.9
 20
84.45
 30
0.0
 11
113.01646857029614
 21
84.46533337816993
 31
0.0
  0
LINE
  5
136
330
17
100
AcDbEntity
  8
OCULTA
100
AcDbLine
 10
113.01646857029614
 20
84.46533337816993
 30
0.0
 11
113.125
 21
84.51028856829701
 31
0.0
  0
LINE
  5
137
330
17
100
AcDbEntity
  8
OCULTA
100
AcDbLine
 10
113.125
 20
84.51028856829701
 30
0.0
 11
113.21819805153395
 21
84.58180194846607
 31
0.0
  0
LINE
  5
138
330
17
100
AcDbEntity
  8
OCULTA
100
AcDbLine
 10
113.21819805153395
 20
84.58180194846607
 30
0.0
 11
113.289711431703
 21
84.67500000000001
 31
0.0
  0
LINE
  5
139
330
17
100
AcDbEntity
  8
OCULTA
100
AcDbLine
 10
113.289711431703
 20
84.67500000000001
 30
0.0
 11
113.33466662183008
 21
84.78353142970387
 31
0.0
  0
LINE
  5
13A
330
17
100
AcDbEntity
  8
OCULTA
100
AcDbLine
 10
113.33466662183008
 20
84.78353142970387
 30
0.0
 11
113.35
 21
84.9
 31
0.0
  0
LINE
  5
13B
330
17
100
AcDbEntity
  8
COTAS
100
AcDbLine
 10
108.0
 20
79.2
 30
0.0
 11
108.0
 21
71.2
 31
0.0
  0
LINE
  5
13C
330
17
100
AcDbEntity
  8
COTAS
100
AcDbLine
 10
118.0
 20
79.2
 30
0.0
 11
118.0
 21
71.2
 31
0.0
  0
LINE
  5
13D
330
17
100
AcDbEntity
  8
COTAS
100
AcDbLine
 10
108.0
 20
72.7
 30
0.0
 11
118.0
 21
72.7
 31
0.0
  0
LINE
  5
13E
330
17
100
AcDbEntity
  8
COTAS
100
AcDbLine
 10
106.8
 20
71.5
 30
0.0
 11
109.2
 21
73.9
 31
0.0
  0
LINE
  5
13F
330
17
100
AcDbEntity
  8
COTAS
100
AcDbLine
 10
116.8
 20
71.5
 30
0.0
 11
119.2
 21
73.9
 31
0.0
  0
LINE
  5
140
330
17
100
AcDbEntity
  8
COTAS
100
AcDbLine
 10
106.5
 20
80.7
 30
0.0
 11
98.5
 21
80.7
 31
0.0
  0
LINE
  5
141
330
17
100
AcDbEntity
  8
COTAS
100
AcDbLine
 10
106.5
 20
89.10000000000001
 30
0.0
 11
98.5
 21
89.10000000000001
 31
0.0
  0
LINE
  5
142
330
17
100
AcDbEntity
  8
COTAS
100
AcDbLine
 10
100.0
 20
80.7
 30
0.0
 11
100.0
 21
89.10000000000001
 31
0.0
  0
LINE
  5
143
330
17
100
AcDbEntity
  8
COTAS
100
AcDbLine
 10
98.8
 20
79.5
 30
0.0
 11
101.2
 21
81.9
 31
0.0
  0
LINE
  5
144
330
17
100
AcDbEntity
  8
COTAS
100
AcDbLine
 10
98.8
 20
87.9
 30
0.0
 11
101.2
 21
90.30000000000001
 31
0.0
  0
LINE
  5
145
330
17
100
AcDbEntity
  8
COTAS
100
AcDbLine
 10
108.0
 20
94.60000000000001
 30
0.0
 11
118.0
 21
94.60000000000001
 31
0.0
  0
LINE
  5
146
330
17
100
AcDbEntity
  8
COTAS
100
AcDbLine
 10
108.0
 20
93.10000000000001
 30
0.0
 11
108.0
 21
96.10000000000001
 31
0.0
  0
LINE
  5
147
330
17
100
AcDbEntity
  8
COTAS
100
AcDbLine
 10
118.0
 20
93.10000000000001
 30
0.0
 11
118.0
 21
96.10000000000001
 31
0.0
  0
LINE
  5
148
330
17
100
AcDbEntity
  8
COTAS
100
AcDbLine
 10
106.8
 20
93.4
 30
0.0
 11
109.2
 21
95.80000000000001
 31
0.0
  0
LINE
  5
149
330
17
100
AcDbEntity
  8
COTAS
100
AcDbLine
 10
116.8
 20
93.4
 30
0.0
 11
119.2
 21
95.80000000000001
 31
0.0
  0
LINE
  5
14A
330
17
100
AcDbEntity
  8
VISIBLE
100
AcDbLine
 10
297.41960202132304
 20
51.002241179872755
 30
0.0
 11
297.41960202132304
 21
130.21811740890686
 31
0.0
  0
LINE
  5
14B
330
17
100
AcDbEntity
  8
VISIBLE
100
AcDbLine
 10
297.41960202132304
 20
130.2181174089069
 30
0.0
 11
306.16692191489767
 21
134.525
 31
0.0
  0
LINE
  5
14C
330
17
100
AcDbEntity
  8
VISIBLE
100
AcDbLine
 10
297.41960202132304
 20
51.002241179872755
 30
0.0
 11
307.83307808510233
 21
45.87500000000001
 31
0.0
  0
LINE
  5
14D
330
17
100
AcDbEntity
  8
VISIBLE
100
AcDbLine
 10
307.83307808510233
 20
45.87499999999999
 30
0.0
 11
307.83307808510233
 21
125.09087622903411
 31
0.0
  0
LINE
  5
14E
330
17
100
AcDbEntity
  8
VISIBLE
100
AcDbLine
 10
297.41960202132304
 20
130.2181174089069
 30
0.0
 11
307.83307808510233
 21
125.09087622903414
 31
0.0
  0
LINE
  5
14F
330
17
100
AcDbEntity
  8
VISIBLE
100
AcDbLine
 10
306.16692191489767
 20
134.525
 30
0.0
 11
316.58039797867696
 21
129.39775882012725
 31
0.0
  0
LINE
  5
150
330
17
100
AcDbEntity
  8
VISIBLE
100
AcDbLine
 10
307.83307808510233
 20
125.09087622903414
 30
0.0
 11
316.58039797867696
 21
129.39775882012725
 31
0.0
  0
LINE
  5
151
330
17
100
AcDbEntity
  8
VISIBLE
100
AcDbLine
 10
307.3644716622323
 20
129.62848467322152
 30
0.0
 11
307.37626907410544
 21
129.63444337964162
 31
0.0
  0
LINE
  5
152
330
17
100
AcDbEntity
  8
VISIBLE
100
AcDbLine
 10
307.37626907410544
 20
129.63444337964162
 30
0.0
 11
307.38793851187205
 21
129.64064891800302
 31
0.0
  0
LINE
  5
153
330
17
100
AcDbEntity
  8
VISIBLE
100
AcDbLine
 10
307.38793851187205
 20
129.64064891800302
 30
0.0
 11
307.3994678998603
 21
129.64711088166626
 31
0.0
  0
LINE
  5
154
330
17
100
AcDbEntity
  8
VISIBLE
100
AcDbLine
 10
307.3994678998603
 20
129.64711088166626
 30
0.0
 11
307.4108436811609
 21
129.65383951623875
 31
0.0
  0
LINE
  5
155
330
17
100
AcDbEntity
  8
VISIBLE
100
AcDbLine
 10
307.4108436811609
 20
129.65383951623875
 30
0.0
 11
307.4220505913485
 21
129.6608457356563
 31
0.0
  0
LINE
  5
156
330
17
100
AcDbEntity
  8
VISIBLE
100
AcDbLine
 10
307.4220505913485
 20
129.6608457356563
 30
0.0
 11
307.43307139494453
 21
129.6681411240338
 31
0.0
  0
LINE
  5
157
330
17
100
AcDbEntity
  8
VISIBLE
100
AcDbLine
 10
307.43307139494453
 20
129.6681411240338
 30
0.0
 11
307.4438865793952
 21
129.67573791587301
 31
0.0
  0
LINE
  5
158
330
17
100
AcDbEntity
  8
VISIBLE
100
AcDbLine
 10
307.4438865793952
 20
129.67573791587301
 30
0.0
 11
307.45447400152585
 21
129.68364894430715
 31
0.0
  0
LINE
  5
159
330
17
100
AcDbEntity
  8
VISIBLE
100
AcDbLine
 10
307.45447400152585
 20
129.68364894430715
 30
0.0
 11
307.4648084823943
 21
129.69188754318668
 31
0.0
  0
LINE
  5
15A
330
17
100
AcDbEntity
  8
VISIBLE
100
AcDbLine
 10
307.4648084823943
 20
129.69188754318668
 30
0.0
 11
307.4748613487623
 21
129.7004673837507
 31
0.0
  0
LINE
  5
15B
330
17
100
AcDbEntity
  8
VISIBLE
100
AcDbLine
 10
307.4748613487623
 20
129.7004673837507
 30
0.0
 11
307.4845999238917
 21
129.70940222024507
 31
0.0
  0
LINE
  5
15C
330
17
100
AcDbEntity
  8
VISIBLE
100
AcDbLine
 10
307.4845999238917
 20
129.70940222024507
 30
0.0
 11
307.4939869783106
 21
129.71870551119338
 31
0.0
  0
LINE
  5
15D
330
17
100
AcDbEntity
  8
VISIBLE
100
AcDbLine
 10
307.4939869783106
 20
129.71870551119338
 30
0.0
 11
307.50298016431867
 21
129.72838987461898
 31
0.0
  0
LINE
  5
15E
330
17
100
AcDbEntity
  8
VISIBLE
100
AcDbLine
 10
307.50298016431867
 20
129.72838987461898
 30
0.0
 11
307.51153147849936
 21
129.7384663277884
 31
0.0
  0
LINE
  5
15F
330
17
100
AcDbEntity
  8
VISIBLE
100
AcDbLine
 10
307.51153147849936
 20
129.7384663277884
 30
0.0
 11
307.5195868266677
 21
129.74894325801733
 31
0.0
  0
LINE
  5
160
330
17
100
AcDbEntity
  8
VISIBLE
100
AcDbLine
 10
307.5195868266677
 20
129.74894325801733
 30
0.0
 11
307.527085806935
 21
129.75982507627012
 31
0.0
  0
LINE
  5
161
330
17
100
AcDbEntity
  8
VISIBLE
100
AcDbLine
 10
307.527085806935
 20
129.75982507627012
 30
0.0
 11
307.5339618773437
 21
129.77111052843892
 31
0.0
  0
LINE
  5
162
330
17
100
AcDbEntity
  8
VISIBLE
100
AcDbLine
 10
307.5339618773437
 20
129.77111052843892
 30
0.0
 11
307.5401431265743
 21
129.78279069205132
 31
0.0
  0
LINE
  5
163
330
17
100
AcDbEntity
  8
VISIBLE
100
AcDbLine
 10
307.5401431265743
 20
129.78279069205132
 30
0.0
 11
307.5455538997361
 21
129.7948467802777
 31
0.0
  0
LINE
  5
164
330
17
100
AcDbEntity
  8
VISIBLE
100
AcDbLine
 10
307.5455538997361
 20
129.7948467802777
 30
0.0
 11
307.5501175112653
 21
129.8072480134416
 31
0.0
  0
LINE
  5
165
330
17
100
AcDbEntity
  8
VISIBLE
100
AcDbLine
 10
307.5501175112653
 20
129.8072480134416
 30
0.0
 11
307.5537601576027
 21
129.819949980422
 31
0.0
  0
LINE
  5
166
330
17
100
AcDbEntity
  8
VISIBLE
100
AcDbLine
 10
307.5537601576027
 20
129.819949980422
 30
0.0
 11
307.5564158880605
 21
129.83289403942481
 31
0.0
  0
LINE
  5
167
330
17
100
AcDbEntity
  8
VISIBLE
100
AcDbLine
 10
307.5564158880605
 20
129.83289403942481
 30
0.0
 11
307.5580321193886
 21
129.8460083033052
 31
0.0
  0
LINE
  5
168
330
17
100
AcDbEntity
  8
VISIBLE
100
AcDbLine
 10
307.5580321193886
 20
129.8460083033052
 30
0.0
 11
307.55857479800017
 21
129.8592105263158
 31
0.0
  0
LINE
  5
169
330
17
100
AcDbEntity
  8
VISIBLE
100
AcDbLine
 10
307.55857479800017
 20
129.8592105263158
 30
0.0
 11
307.5453522750426
 21
129.924065702214
 31
0.0
  0
LINE
  5
16A
330
17
100
AcDbEntity
  8
VISIBLE
100
AcDbLine
 10
307.5453522750426
 20
129.924065702214
 30
0.0
 11
307.5108617082366
 21
129.98077936441047
 31
0.0
  0
LINE
  5
16B
330
17
100
AcDbEntity
  8
VISIBLE
100
AcDbLine
 10
307.5108617082366
 20
129.98077936441047
 30
0.0
 11
307.4635768066332
 21
130.02754463528262
 31
0.0
  0
LINE
  5
16C
330
17
100
AcDbEntity
  8
VISIBLE
100
AcDbLine
 10
307.4635768066332
 20
130.02754463528262
 30
0.0
 11
307.4090259190969
 21
130.06568164155112
 31
0.0
  0
LINE
  5
16D
330
17
100
AcDbEntity
  8
VISIBLE
100
AcDbLine
 10
307.4090259190969
 20
130.06568164155112
 30
0.0
 11
307.3501496095715
 21
130.0967788489127
 31
0.0
  0
LINE
  5
16E
330
17
100
AcDbEntity
  8
VISIBLE
100
AcDbLine
 10
307.3501496095715
 20
130.0967788489127
 30
0.0
 11
307.28853829227205
 21
130.12205825623198
 31
0.0
  0
LINE
  5
16F
330
17
100
AcDbEntity
  8
VISIBLE
100
AcDbLine
 10
307.28853829227205
 20
130.12205825623198
 30
0.0
 11
307.22511457682873
 21
130.1423868105856
 31
0.0
  0
LINE
  5
170
330
17
100
AcDbEntity
  8
VISIBLE
100
AcDbLine
 10
307.22511457682873
 20
130.1423868105856
 30
0.0
 11
307.1604556600836
 21
130.15837131955507
 31
0.0
  0
LINE
  5
171
330
17
100
AcDbEntity
  8
VISIBLE
100
AcDbLine
 10
307.1604556600836
 20
130.15837131955507
 30
0.0
 11
307.09494969639206
 21
130.1704346346284
 31
0.0
  0
LINE
  5
172
330
17
100
AcDbEntity
  8
VISIBLE
100
AcDbLine
 10
307.09494969639206
 20
130.1704346346284
 30
0.0
 11
307.0288768103887
 21
130.17886635679534
 31
0.0
  0
LINE
  5
173
330
17
100
AcDbEntity
  8
VISIBLE
100
AcDbLine
 10
307.0288768103887
 20
130.17886635679534
 30
0.0
 11
306.96245444662867
 21
130.18385479282665
 31
0.0
  0
LINE
  5
174
330
17
100
AcDbEntity
  8
VISIBLE
100
AcDbLine
 10
306.96245444662867
 20
130.18385479282665
 30
0.0
 11
306.89586517409856
 21
130.18550615695182
 31
0.0
  0
LINE
  5
175
330
17
100
AcDbEntity
  8
VISIBLE
100
AcDbLine
 10
306.89586517409856
 20
130.18550615695182
 30
0.0
 11
306.8292759016764
 21
130.18385478634158
 31
0.0
  0
LINE
  5
176
330
17
100
AcDbEntity
  8
VISIBLE
100
AcDbLine
 10
306.8292759016764
 20
130.18385478634158
 30
0.0
 11
306.76285353831975
 21
130.17886634368
 31
0.0
  0
LINE
  5
177
330
17
100
AcDbEntity
  8
VISIBLE
100
AcDbLine
 10
306.76285353831975
 20
130.17886634368
 30
0.0
 11
306.6967806532566
 21
130.17043461461205
 31
0.0
  0
LINE
  5
178
330
17
100
AcDbEntity
  8
VISIBLE
100
AcDbLine
 10
306.6967806532566
 20
130.17043461461205
 30
0.0
 11
306.6312746914551
 21
130.15837129228515
 31
0.0
  0
LINE
  5
179
330
17
100
AcDbEntity
  8
VISIBLE
100
AcDbLine
 10
306.6312746914551
 20
130.15837129228515
 30
0.0
 11
306.56661577814793
 21
130.1423867757052
 31
0.0
  0
LINE
  5
17A
330
17
100
AcDbEntity
  8
VISIBLE
100
AcDbLine
 10
306.56661577814793
 20
130.1423867757052
 30
0.0
 11
306.5031920684888
 21
130.12205821351003
 31
0.0
  0
LINE
  5
17B
330
17
100
AcDbEntity
  8
VISIBLE
100
AcDbLine
 10
306.5031920684888
 20
130.12205821351003
 30
0.0
 11
306.441580760311
 21
130.09677879845685
 31
0.0
  0
LINE
  5
17C
330
17
100
AcDbEntity
  8
VISIBLE
100
AcDbLine
 10
306.441580760311
 20
130.09677879845685
 30
0.0
 11
306.3827044643474
 21
130.06568158414308
 31
0.0
  0
LINE
  5
17D
330
17
100
AcDbEntity
  8
VISIBLE
100
AcDbLine
 10
306.3827044643474
 20
130.06568158414308
 30
0.0
 11
306.3281535957137
 21
130.0275445728377
 31
0.0
  0
LINE
  5
17E
330
17
100
AcDbEntity
  8
VISIBLE
100
AcDbLine
 10
306.3281535957137
 20
130.0275445728377
 30
0.0
 11
306.2808687179203
 21
129.98077929994253
 31
0.0
  0
LINE
  5
17F
330
17
100
AcDbEntity
  8
VISIBLE
100
AcDbLine
 10
306.2808687179203
 20
129.98077929994253
 30
0.0
 11
306.2463781747965
 21
129.92406563208806
 31
0.0
  0
LINE
  5
180
330
17
100
AcDbEntity
  8
VISIBLE
100
AcDbLine
 10
306.2463781747965
 20
129.92406563208806
 30
0.0
 11
306.2331556807242
 21
129.8592105263158
 31
0.0
  0
LINE
  5
181
330
17
100
AcDbEntity
  8
VISIBLE
100
AcDbLine
 10
306.2331556807242
 20
129.8592105263158
 30
0.0
 11
306.24177908606373
 21
129.80674347882567
 31
0.0
  0
LINE
  5
182
330
17
100
AcDbEntity
  8
VISIBLE
100
AcDbLine
 10
306.24177908606373
 20
129.80674347882567
 30
0.0
 11
306.265225322972
 21
129.75893544410258
 31
0.0
  0
LINE
  5
183
330
17
100
AcDbEntity
  8
VISIBLE
100
AcDbLine
 10
306.265225322972
 20
129.75893544410258
 30
0.0
 11
306.29885527203885
 21
129.71756388271683
 31
0.0
  0
LINE
  5
184
330
17
100
AcDbEntity
  8
VISIBLE
100
AcDbLine
 10
306.29885527203885
 20
129.71756388271683
 30
0.0
 11
306.3389420944785
 21
129.6823554616678
 31
0.0
  0
LINE
  5
185
330
17
100
AcDbEntity
  8
VISIBLE
100
AcDbLine
 10
306.3389420944785
 20
129.6823554616678
 30
0.0
 11
306.3831596524519
 21
129.65246551266523
 31
0.0
  0
LINE
  5
186
330
17
100
AcDbEntity
  8
VISIBLE
100
AcDbLine
 10
306.3831596524519
 20
129.65246551266523
 30
0.0
 11
306.430121478513
 21
129.62708375408667
 31
0.0
  0
LINE
  5
187
330
17
100
AcDbEntity
  8
VISIBLE
100
AcDbLine
 10
306.430121478513
 20
129.62708375408667
 30
0.0
 11
306.4789793094768
 21
129.60556315449813
 31
0.0
  0
LINE
  5
188
330
17
100
AcDbEntity
  8
VISIBLE
100
AcDbLine
 10
306.4789793094768
 20
129.60556315449813
 30
0.0
 11
306.52918969905517
 21
129.58741157778138
 31
0.0
  0
LINE
  5
189
330
17
100
AcDbEntity
  8
VISIBLE
100
AcDbLine
 10
306.52918969905517
 20
129.58741157778138
 30
0.0
 11
306.5803870706141
 21
129.57225894803184
 31
0.0
  0
LINE
  5
18A
330
17
100
AcDbEntity
  8
VISIBLE
100
AcDbLine
 10
306.5803870706141
 20
129.57225894803184
 30
0.0
 11
306.6323136355552
 21
129.5598275198788
 31
0.0
  0
LINE
  5
18B
330
17
100
AcDbEntity
  8
VISIBLE
100
AcDbLine
 10
306.6323136355552
 20
129.5598275198788
 30
0.0
 11
306.68477917780694
 21
129.5499096004818
 31
0.0
  0
LINE
  5
18C
330
17
100
AcDbEntity
  8
VISIBLE
100
AcDbLine
 10
306.68477917780694
 20
129.5499096004818
 30
0.0
 11
306.7376368893991
 21
129.54235179730193
 31
0.0
  0
LINE
  5
18D
330
17
100
AcDbEntity
  8
VISIBLE
100
AcDbLine
 10
306.7376368893991
 20
129.54235179730193
 30
0.0
 11
306.79076810588265
 21
129.5370441655097
 31
0.0
  0
LINE
  5
18E
330
17
100
AcDbEntity
  8
VISIBLE
100
AcDbLine
 10
306.79076810588265
 20
129.5370441655097
 30
0.0
 11
306.84407210224913
 21
129.53391292641848
 31
0.0
  0
LINE
  5
18F
330
17
100
AcDbEntity
  8
VISIBLE
100
AcDbLine
 10
306.84407210224913
 20
129.53391292641848
 30
0.0
 11
306.89745878114525
 21
129.5329158390069
 31
0.0
  0
LINE
  5
190
330
17
100
AcDbEntity
  8
VISIBLE
100
AcDbLine
 10
306.89745878114525
 20
129.5329158390069
 30
0.0
 11
306.95084293976083
 21
129.53403964850796
 31
0.0
  0
LINE
  5
191
330
17
100
AcDbEntity
  8
VISIBLE
100
AcDbLine
 10
306.95084293976083
 20
129.53403964850796
 30
0.0
 11
307.0041392278832
 21
129.5372993010152
 31
0.0
  0
LINE
  5
192
330
17
100
AcDbEntity
  8
VISIBLE
100
AcDbLine
 10
307.0041392278832
 20
129.5372993010152
 30
0.0
 11
307.05725708548096
 21
129.54273882960953
 31
0.0
  0
LINE
  5
193
330
17
100
AcDbEntity
  8
VISIBLE
100
AcDbLine
 10
307.05725708548096
 20
129.54273882960953
 30
0.0
 11
307.1100949430743
 21
129.55043401866897
 31
0.0
  0
LINE
  5
194
330
17
100
AcDbEntity
  8
VISIBLE
100
AcDbLine
 10
307.1100949430743
 20
129.55043401866897
 30
0.0
 11
307.1625327800966
 21
129.56049717153877
 31
0.0
  0
LINE
  5
195
330
17
100
AcDbEntity
  8
VISIBLE
100
AcDbLine
 10
307.1625327800966
 20
129.56049717153877
 30
0.0
 11
307.2144216911925
 21
129.5730845756185
 31
0.0
  0
LINE
  5
196
330
17
100
AcDbEntity
  8
VISIBLE
100
AcDbLine
 10
307.2144216911925
 20
129.5730845756185
 30
0.0
 11
307.26556822087076
 21
129.5884076058831
 31
0.0
  0
LINE
  5
197
330
17
100
AcDbEntity
  8
VISIBLE
100
AcDbLine
 10
307.26556822087076
 20
129.5884076058831
 30
0.0
 11
307.3157094870685
 21
129.60674881999515
 31
0.0
  0
LINE
  5
198
330
17
100
AcDbEntity
  8
VISIBLE
100
AcDbLine
 10
307.3157094870685
 20
129.60674881999515
 30
0.0
 11
307.3644716622323
 21
129.62848467322152
 31
0.0
  0
LINE
  5
199
330
17
100
AcDbEntity
  8
VISIBLE
100
AcDbLine
 10
316.58039797867696
 20
50.181882591093114
 30
0.0
 11
316.58039797867696
 21
129.39775882012722
 31
0.0
  0
LINE
  5
19A
330
17
100
AcDbEntity
  8
VISIBLE
100
AcDbLine
 10
307.83307808510233
 20
45.87499999999999
 30
0.0
 11
316.58039797867696
 21
50.181882591093114
 31
0.0
  0
LINE
  5
19B
330
17
100
AcDbEntity
  8
OCULTA
100
AcDbLine
 10
306.16692191489767
 20
55.30912377096587
 30
0.0
 11
306.16692191489767
 21
134.52499999999998
 31
0.0
  0
LINE
  5
19C
330
17
100
AcDbEntity
  8
OCULTA
100
AcDbLine
 10
297.41960202132304
 20
51.002241179872755
 30
0.0
 11
306.16692191489767
 21
55.30912377096587
 31
0.0
  0
LINE
  5
19D
330
17
100
AcDbEntity
  8
OCULTA
100
AcDbLine
 10
306.16692191489767
 20
55.30912377096587
 30
0.0
 11
316.58039797867696
 21
50.18188259109312
 31
0.0
  0
LINE
  5
19E
330
17
100
AcDbEntity
  8
OCULTA
100
AcDbLine
 10
307.3644716622323
 20
50.412608444187384
 30
0.0
 11
307.37626907410544
 21
50.418567150607494
 31
0.0
  0
LINE
  5
19F
330
17
100
AcDbEntity
  8
OCULTA
100
AcDbLine
 10
307.37626907410544
 20
50.418567150607494
 30
0.0
 11
307.38793851187205
 21
50.424772688968886
 31
0.0
  0
LINE
  5
1A0
330
17
100
AcDbEntity
  8
OCULTA
100
AcDbLine
 10
307.38793851187205
 20
50.424772688968886
 30
0.0
 11
307.3994678998603
 21
50.431234652632114
 31
0.0
  0
LINE
  5
1A1
330
17
100
AcDbEntity
  8
OCULTA
100
AcDbLine
 10
307.3994678998603
 20
50.431234652632114
 30
0.0
 11
307.4108436811609
 21
50.43796328720461
 31
0.0
  0
LINE
  5
1A2
330
17
100
AcDbEntity
  8
OCULTA
100
AcDbLine
 10
307.4108436811609
 20
50.43796328720461
 30
0.0
 11
307.4220505913485
 21
50.44496950662216
 31
0.0
  0
LINE
  5
1A3
330
17
100
AcDbEntity
  8
OCULTA
100
AcDbLine
 10
307.4220505913485
 20
50.44496950662216
 30
0.0
 11
307.43307139494453
 21
50.45226489499968
 31
0.0
  0
LINE
  5
1A4
330
17
100
AcDbEntity
  8
OCULTA
100
AcDbLine
 10
307.43307139494453
 20
50.45226489499968
 30
0.0
 11
307.4438865793952
 21
50.45986168683887
 31
0.0
  0
LINE
  5
1A5
330
17
100
AcDbEntity
  8
OCULTA
100
AcDbLine
 10
307.4438865793952
 20
50.45986168683887
 30
0.0
 11
307.45447400152585
 21
50.467772715273014
 31
0.0
  0
LINE
  5
1A6
330
17
100
AcDbEntity
  8
OCULTA
100
AcDbLine
 10
307.45447400152585
 20
50.467772715273014
 30
0.0
 11
307.4648084823943
 21
50.47601131415256
 31
0.0
  0
LINE
  5
1A7
330
17
100
AcDbEntity
  8
OCULTA
100
AcDbLine
 10
307.4648084823943
 20
50.47601131415256
 30
0.0
 11
307.4748613487623
 21
50.48459115471656
 31
0.0
  0
LINE
  5
1A8
330
17
100
AcDbEntity
  8
OCULTA
100
AcDbLine
 10
307.4748613487623
 20
50.48459115471656
 30
0.0
 11
307.4845999238917
 21
50.49352599121094
 31
0.0
  0
LINE
  5
1A9
330
17
100
AcDbEntity
  8
OCULTA
100
AcDbLine
 10
307.4845999238917
 20
50.49352599121094
 30
0.0
 11
307.4939869783106
 21
50.502829282159226
 31
0.0
  0
LINE
  5
1AA
330
17
100
AcDbEntity
  8
OCULTA
100
AcDbLine
 10
307.4939869783106
 20
50.502829282159226
 30
0.0
 11
307.50298016431867
 21
50.51251364558486
 31
0.0
  0
LINE
  5
1AB
330
17
100
AcDbEntity
  8
OCULTA
100
AcDbLine
 10
307.50298016431867
 20
50.51251364558486
 30
0.0
 11
307.51153147849936
 21
50.52259009875425
 31
0.0
  0
LINE
  5
1AC
330
17
100
AcDbEntity
  8
OCULTA
100
AcDbLine
 10
307.51153147849936
 20
50.52259009875425
 30
0.0
 11
307.5195868266677
 21
50.53306702898319
 31
0.0
  0
LINE
  5
1AD
330
17
100
AcDbEntity
  8
OCULTA
100
AcDbLine
 10
307.5195868266677
 20
50.53306702898319
 30
0.0
 11
307.527085806935
 21
50.54394884723598
 31
0.0
  0
LINE
  5
1AE
330
17
100
AcDbEntity
  8
OCULTA
100
AcDbLine
 10
307.527085806935
 20
50.54394884723598
 30
0.0
 11
307.5339618773437
 21
50.55523429940479
 31
0.0
  0
LINE
  5
1AF
330
17
100
AcDbEntity
  8
OCULTA
100
AcDbLine
 10
307.5339618773437
 20
50.55523429940479
 30
0.0
 11
307.5401431265743
 21
50.56691446301717
 31
0.0
  0
LINE
  5
1B0
330
17
100
AcDbEntity
  8
OCULTA
100
AcDbLine
 10
307.5401431265743
 20
50.56691446301717
 30
0.0
 11
307.5455538997361
 21
50.57897055124358
 31
0.0
  0
LINE
  5
1B1
330
17
100
AcDbEntity
  8
OCULTA
100
AcDbLine
 10
307.5455538997361
 20
50.57897055124358
 30
0.0
 11
307.5501175112653
 21
50.59137178440747
 31
0.0
  0
LINE
  5
1B2
330
17
100
AcDbEntity
  8
OCULTA
100
AcDbLine
 10
307.5501175112653
 20
50.59137178440747
 30
0.0
 11
307.5537601576027
 21
50.604073751387844
 31
0.0
  0
LINE
  5
1B3
330
17
100
AcDbEntity
  8
OCULTA
100
AcDbLine
 10
307.5537601576027
 20
50.604073751387844
 30
0.0
 11
307.5564158880605
 21
50.61701781039067
 31
0.0
  0
LINE
  5
1B4
330
17
100
AcDbEntity
  8
OCULTA
100
AcDbLine
 10
307.5564158880605
 20
50.61701781039067
 30
0.0
 11
307.5580321193886
 21
50.630132074271074
 31
0.0
  0
LINE
  5
1B5
330
17
100
AcDbEntity
  8
OCULTA
100
AcDbLine
 10
307.5580321193886
 20
50.630132074271074
 30
0.0
 11
307.55857479800017
 21
50.643334297281655
 31
0.0
  0
LINE
  5
1B6
330
17
100
AcDbEntity
  8
OCULTA
100
AcDbLine
 10
307.55857479800017
 20
50.643334297281655
 30
0.0
 11
307.5453522750426
 21
50.708189473179864
 31
0.0
  0
LINE
  5
1B7
330
17
100
AcDbEntity
  8
OCULTA
100
AcDbLine
 10
307.5453522750426
 20
50.708189473179864
 30
0.0
 11
307.5108617082366
 21
50.764903135376336
 31
0.0
  0
LINE
  5
1B8
330
17
100
AcDbEntity
  8
OCULTA
100
AcDbLine
 10
307.5108617082366
 20
50.764903135376336
 30
0.0
 11
307.4635768066332
 21
50.811668406248494
 31
0.0
  0
LINE
  5
1B9
330
17
100
AcDbEntity
  8
OCULTA
100
AcDbLine
 10
307.4635768066332
 20
50.811668406248494
 30
0.0
 11
307.4090259190969
 21
50.84980541251698
 31
0.0
  0
LINE
  5
1BA
330
17
100
AcDbEntity
  8
OCULTA
100
AcDbLine
 10
307.4090259190969
 20
50.84980541251698
 30
0.0
 11
307.3501496095715
 21
50.880902619878555
 31
0.0
  0
LINE
  5
1BB
330
17
100
AcDbEntity
  8
OCULTA
100
AcDbLine
 10
307.3501496095715
 20
50.880902619878555
 30
0.0
 11
307.28853829227205
 21
50.90618202719783
 31
0.0
  0
LINE
  5
1BC
330
17
100
AcDbEntity
  8
OCULTA
100
AcDbLine
 10
307.28853829227205
 20
50.90618202719783
 30
0.0
 11
307.22511457682873
 21
50.926510581551454
 31
0.0
  0
LINE
  5
1BD
330
17
100
AcDbEntity
  8
OCULTA
100
AcDbLine
 10
307.22511457682873
 20
50.926510581551454
 30
0.0
 11
307.1604556600836
 21
50.94249509052093
 31
0.0
  0
LINE
  5
1BE
330
17
100
AcDbEntity
  8
OCULTA
100
AcDbLine
 10
307.1604556600836
 20
50.94249509052093
 30
0.0
 11
307.09494969639206
 21
50.95455840559426
 31
0.0
  0
LINE
  5
1BF
330
17
100
AcDbEntity
  8
OCULTA
100
AcDbLine
 10
307.09494969639206
 20
50.95455840559426
 30
0.0
 11
307.0288768103887
 21
50.96299012776121
 31
0.0
  0
LINE
  5
1C0
330
17
100
AcDbEntity
  8
OCULTA
100
AcDbLine
 10
307.0288768103887
 20
50.96299012776121
 30
0.0
 11
306.96245444662867
 21
50.96797856379251
 31
0.0
  0
LINE
  5
1C1
330
17
100
AcDbEntity
  8
OCULTA
100
AcDbLine
 10
306.96245444662867
 20
50.96797856379251
 30
0.0
 11
306.89586517409856
 21
50.96962992791767
 31
0.0
  0
LINE
  5
1C2
330
17
100
AcDbEntity
  8
OCULTA
100
AcDbLine
 10
306.89586517409856
 20
50.96962992791767
 30
0.0
 11
306.8292759016764
 21
50.96797855730745
 31
0.0
  0
LINE
  5
1C3
330
17
100
AcDbEntity
  8
OCULTA
100
AcDbLine
 10
306.8292759016764
 20
50.96797855730745
 30
0.0
 11
306.76285353831975
 21
50.96299011464586
 31
0.0
  0
LINE
  5
1C4
330
17
100
AcDbEntity
  8
OCULTA
100
AcDbLine
 10
306.76285353831975
 20
50.96299011464586
 30
0.0
 11
306.6967806532566
 21
50.95455838557792
 31
0.0
  0
LINE
  5
1C5
330
17
100
AcDbEntity
  8
OCULTA
100
AcDbLine
 10
306.6967806532566
 20
50.95455838557792
 30
0.0
 11
306.6312746914551
 21
50.942495063251
 31
0.0
  0
LINE
  5
1C6
330
17
100
AcDbEntity
  8
OCULTA
100
AcDbLine
 10
306.6312746914551
 20
50.942495063251
 30
0.0
 11
306.56661577814793
 21
50.92651054667106
 31
0.0
  0
LINE
  5
1C7
330
17
100
AcDbEntity
  8
OCULTA
100
AcDbLine
 10
306.56661577814793
 20
50.92651054667106
 30
0.0
 11
306.5031920684888
 21
50.906181984475886
 31
0.0
  0
LINE
  5
1C8
330
17
100
AcDbEntity
  8
OCULTA
100
AcDbLine
 10
306.5031920684888
 20
50.906181984475886
 30
0.0
 11
306.441580760311
 21
50.8809025694227
 31
0.0
  0
LINE
  5
1C9
330
17
100
AcDbEntity
  8
OCULTA
100
AcDbLine
 10
306.441580760311
 20
50.8809025694227
 30
0.0
 11
306.3827044643474
 21
50.849805355108955
 31
0.0
  0
LINE
  5
1CA
330
17
100
AcDbEntity
  8
OCULTA
100
AcDbLine
 10
306.3827044643474
 20
50.849805355108955
 30
0.0
 11
306.3281535957137
 21
50.81166834380356
 31
0.0
  0
LINE
  5
1CB
330
17
100
AcDbEntity
  8
OCULTA
100
AcDbLine
 10
306.3281535957137
 20
50.81166834380356
 30
0.0
 11
306.2808687179203
 21
50.76490307090838
 31
0.0
  0
LINE
  5
1CC
330
17
100
AcDbEntity
  8
OCULTA
100
AcDbLine
 10
306.2808687179203
 20
50.76490307090838
 30
0.0
 11
306.2463781747965
 21
50.70818940305392
 31
0.0
  0
LINE
  5
1CD
330
17
100
AcDbEntity
  8
OCULTA
100
AcDbLine
 10
306.2463781747965
 20
50.70818940305392
 30
0.0
 11
306.2331556807242
 21
50.643334297281655
 31
0.0
  0
LINE
  5
1CE
330
17
100
AcDbEntity
  8
OCULTA
100
AcDbLine
 10
306.2331556807242
 20
50.643334297281655
 30
0.0
 11
306.24177908606373
 21
50.590867249791536
 31
0.0
  0
LINE
  5
1CF
330
17
100
AcDbEntity
  8
OCULTA
100
AcDbLine
 10
306.24177908606373
 20
50.590867249791536
 30
0.0
 11
306.265225322972
 21
50.54305921506843
 31
0.0
  0
LINE
  5
1D0
330
17
100
AcDbEntity
  8
OCULTA
100
AcDbLine
 10
306.265225322972
 20
50.54305921506843
 30
0.0
 11
306.29885527203885
 21
50.501687653682694
 31
0.0
  0
LINE
  5
1D1
330
17
100
AcDbEntity
  8
OCULTA
100
AcDbLine
 10
306.29885527203885
 20
50.501687653682694
 30
0.0
 11
306.3389420944785
 21
50.466479232633674
 31
0.0
  0
LINE
  5
1D2
330
17
100
AcDbEntity
  8
OCULTA
100
AcDbLine
 10
306.3389420944785
 20
50.466479232633674
 30
0.0
 11
306.3831596524519
 21
50.43658928363108
 31
0.0
  0
LINE
  5
1D3
330
17
100
AcDbEntity
  8
OCULTA
100
AcDbLine
 10
306.3831596524519
 20
50.43658928363108
 30
0.0
 11
306.430121478513
 21
50.41120752505254
 31
0.0
  0
LINE
  5
1D4
330
17
100
AcDbEntity
  8
OCULTA
100
AcDbLine
 10
306.430121478513
 20
50.41120752505254
 30
0.0
 11
306.4789793094768
 21
50.389686925464
 31
0.0
  0
LINE
  5
1D5
330
17
100
AcDbEntity
  8
OCULTA
100
AcDbLine
 10
306.4789793094768
 20
50.389686925464
 30
0.0
 11
306.52918969905517
 21
50.37153534874724
 31
0.0
  0
LINE
  5
1D6
330
17
100
AcDbEntity
  8
OCULTA
100
AcDbLine
 10
306.52918969905517
 20
50.37153534874724
 30
0.0
 11
306.5803870706141
 21
50.356382718997715
 31
0.0
  0
LINE
  5
1D7
330
17
100
AcDbEntity
  8
OCULTA
100
AcDbLine
 10
306.5803870706141
 20
50.356382718997715
 30
0.0
 11
306.6323136355552
 21
50.34395129084466
 31
0.0
  0
LINE
  5
1D8
330
17
100
AcDbEntity
  8
OCULTA
100
AcDbLine
 10
306.6323136355552
 20
50.34395129084466
 30
0.0
 11
306.68477917780694
 21
50.33403337144767
 31
0.0
  0
LINE
  5
1D9
330
17
100
AcDbEntity
  8
OCULTA
100
AcDbLine
 10
306.68477917780694
 20
50.33403337144767
 30
0.0
 11
306.7376368893991
 21
50.32647556826781
 31
0.0
  0
LINE
  5
1DA
330
17
100
AcDbEntity
  8
OCULTA
100
AcDbLine
 10
306.7376368893991
 20
50.32647556826781
 30
0.0
 11
306.79076810588265
 21
50.32116793647556
 31
0.0
  0
LINE
  5
1DB
330
17
100
AcDbEntity
  8
OCULTA
100
AcDbLine
 10
306.79076810588265
 20
50.32116793647556
 30
0.0
 11
306.84407210224913
 21
50.31803669738435
 31
0.0
  0
LINE
  5
1DC
330
17
100
AcDbEntity
  8
OCULTA
100
AcDbLine
 10
306.84407210224913
 20
50.31803669738435
 30
0.0
 11
306.89745878114525
 21
50.31703960997277
 31
0.0
  0
LINE
  5
1DD
330
17
100
AcDbEntity
  8
OCULTA
100
AcDbLine
 10
306.89745878114525
 20
50.31703960997277
 30
0.0
 11
306.95084293976083
 21
50.31816341947383
 31
0.0
  0
LINE
  5
1DE
330
17
100
AcDbEntity
  8
OCULTA
100
AcDbLine
 10
306.95084293976083
 20
50.31816341947383
 30
0.0
 11
307.0041392278832
 21
50.321423071981066
 31
0.0
  0
LINE
  5
1DF
330
17
100
AcDbEntity
  8
OCULTA
100
AcDbLine
 10
307.0041392278832
 20
50.321423071981066
 30
0.0
 11
307.05725708548096
 21
50.3268626005754
 31
0.0
  0
LINE
  5
1E0
330
17
100
AcDbEntity
  8
OCULTA
100
AcDbLine
 10
307.05725708548096
 20
50.3268626005754
 30
0.0
 11
307.1100949430743
 21
50.33455778963483
 31
0.0
  0
LINE
  5
1E1
330
17
100
AcDbEntity
  8
OCULTA
100
AcDbLine
 10
307.1100949430743
 20
50.33455778963483
 30
0.0
 11
307.1625327800966
 21
50.34462094250464
 31
0.0
  0
LINE
  5
1E2
330
17
100
AcDbEntity
  8
OCULTA
100
AcDbLine
 10
307.1625327800966
 20
50.34462094250464
 30
0.0
 11
307.2144216911925
 21
50.357208346584386
 31
0.0
  0
LINE
  5
1E3
330
17
100
AcDbEntity
  8
OCULTA
100
AcDbLine
 10
307.2144216911925
 20
50.357208346584386
 30
0.0
 11
307.26556822087076
 21
50.37253137684896
 31
0.0
  0
LINE
  5
1E4
330
17
100
AcDbEntity
  8
OCULTA
100
AcDbLine
 10
307.26556822087076
 20
50.37253137684896
 30
0.0
 11
307.3157094870685
 21
50.390872590961
 31
0.0
  0
LINE
  5
1E5
330
17
100
AcDbEntity
  8
OCULTA
100
AcDbLine
 10
307.3157094870685
 20
50.390872590961
 30
0.0
 11
307.3644716622323
 21
50.412608444187384
 31
0.0
  0
LINE
  5
1E6
330
17
100
AcDbEntity
  8
OCULTA
100
AcDbLine
 10
307.3644716622323
 20
124.50124349334875
 30
0.0
 11
307.37626907410544
 21
124.50720219976887
 31
0.0
  0
LINE
  5
1E7
330
17
100
AcDbEntity
  8
OCULTA
100
AcDbLine
 10
307.37626907410544
 20
124.50720219976887
 30
0.0
 11
307.38793851187205
 21
124.51340773813027
 31
0.0
  0
LINE
  5
1E8
330
17
100
AcDbEntity
  8
OCULTA
100
AcDbLine
 10
307.38793851187205
 20
124.51340773813027
 30
0.0
 11
307.3994678998603
 21
124.51986970179348
 31
0.0
  0
LINE
  5
1E9
330
17
100
AcDbEntity
  8
OCULTA
100
AcDbLine
 10
307.3994678998603
 20
124.51986970179348
 30
0.0
 11
307.4108436811609
 21
124.52659833636599
 31
0.0
  0
LINE
  5
1EA
330
17
100
AcDbEntity
  8
OCULTA
100
AcDbLine
 10
307.4108436811609
 20
124.52659833636599
 30
0.0
 11
307.4220505913485
 21
124.53360455578354
 31
0.0
  0
LINE
  5
1EB
330
17
100
AcDbEntity
  8
OCULTA
100
AcDbLine
 10
307.4220505913485
 20
124.53360455578354
 30
0.0
 11
307.43307139494453
 21
124.54089994416105
 31
0.0
  0
LINE
  5
1EC
330
17
100
AcDbEntity
  8
OCULTA
100
AcDbLine
 10
307.43307139494453
 20
124.54089994416105
 30
0.0
 11
307.4438865793952
 21
124.54849673600025
 31
0.0
  0
LINE
  5
1ED
330
17
100
AcDbEntity
  8
OCULTA
100
AcDbLine
 10
307.4438865793952
 20
124.54849673600025
 30
0.0
 11
307.45447400152585
 21
124.5564077644344
 31
0.0
  0
LINE
  5
1EE
330
17
100
AcDbEntity
  8
OCULTA
100
AcDbLine
 10
307.45447400152585
 20
124.5564077644344
 30
0.0
 11
307.4648084823943
 21
124.56464636331393
 31
0.0
  0
LINE
  5
1EF
330
17
100
AcDbEntity
  8
OCULTA
100
AcDbLine
 10
307.4648084823943
 20
124.56464636331393
 30
0.0
 11
307.4748613487623
 21
124.57322620387794
 31
0.0
  0
LINE
  5
1F0
330
17
100
AcDbEntity
  8
OCULTA
100
AcDbLine
 10
307.4748613487623
 20
124.57322620387794
 30
0.0
 11
307.4845999238917
 21
124.58216104037231
 31
0.0
  0
LINE
  5
1F1
330
17
100
AcDbEntity
  8
OCULTA
100
AcDbLine
 10
307.4845999238917
 20
124.58216104037231
 30
0.0
 11
307.4939869783106
 21
124.5914643313206
 31
0.0
  0
LINE
  5
1F2
330
17
100
AcDbEntity
  8
OCULTA
100
AcDbLine
 10
307.4939869783106
 20
124.5914643313206
 30
0.0
 11
307.50298016431867
 21
124.60114869474624
 31
0.0
  0
LINE
  5
1F3
330
17
100
AcDbEntity
  8
OCULTA
100
AcDbLine
 10
307.50298016431867
 20
124.60114869474624
 30
0.0
 11
307.51153147849936
 21
124.61122514791563
 31
0.0
  0
LINE
  5
1F4
330
17
100
AcDbEntity
  8
OCULTA
100
AcDbLine
 10
307.51153147849936
 20
124.61122514791563
 30
0.0
 11
307.5195868266677
 21
124.62170207814457
 31
0.0
  0
LINE
  5
1F5
330
17
100
AcDbEntity
  8
OCULTA
100
AcDbLine
 10
307.5195868266677
 20
124.62170207814457
 30
0.0
 11
307.527085806935
 21
124.63258389639736
 31
0.0
  0
LINE
  5
1F6
330
17
100
AcDbEntity
  8
OCULTA
100
AcDbLine
 10
307.527085806935
 20
124.63258389639736
 30
0.0
 11
307.5339618773437
 21
124.64386934856617
 31
0.0
  0
LINE
  5
1F7
330
17
100
AcDbEntity
  8
OCULTA
100
AcDbLine
 10
307.5339618773437
 20
124.64386934856617
 30
0.0
 11
307.5401431265743
 21
124.65554951217855
 31
0.0
  0
LINE
  5
1F8
330
17
100
AcDbEntity
  8
OCULTA
100
AcDbLine
 10
307.5401431265743
 20
124.65554951217855
 30
0.0
 11
307.5455538997361
 21
124.66760560040495
 31
0.0
  0
LINE
  5
1F9
330
17
100
AcDbEntity
  8
OCULTA
100
AcDbLine
 10
307.5455538997361
 20
124.66760560040495
 30
0.0
 11
307.5501175112653
 21
124.68000683356885
 31
0.0
  0
LINE
  5
1FA
330
17
100
AcDbEntity
  8
OCULTA
100
AcDbLine
 10
307.5501175112653
 20
124.68000683356885
 30
0.0
 11
307.5537601576027
 21
124.69270880054921
 31
0.0
  0
LINE
  5
1FB
330
17
100
AcDbEntity
  8
OCULTA
100
AcDbLine
 10
307.5537601576027
 20
124.69270880054921
 30
0.0
 11
307.5564158880605
 21
124.70565285955205
 31
0.0
  0
LINE
  5
1FC
330
17
100
AcDbEntity
  8
OCULTA
100
AcDbLine
 10
307.5564158880605
 20
124.70565285955205
 30
0.0
 11
307.5580321193886
 21
124.71876712343246
 31
0.0
  0
LINE
  5
1FD
330
17
100
AcDbEntity
  8
OCULTA
100
AcDbLine
 10
307.5580321193886
 20
124.71876712343246
 30
0.0
 11
307.55857479800017
 21
124.73196934644304
 31
0.0
  0
LINE
  5
1FE
330
17
100
AcDbEntity
  8
OCULTA
100
AcDbLine
 10
307.55857479800017
 20
124.73196934644304
 30
0.0
 11
307.5453522750426
 21
124.79682452234124
 31
0.0
  0
LINE
  5
1FF
330
17
100
AcDbEntity
  8
OCULTA
100
AcDbLine
 10
307.5453522750426
 20
124.79682452234124
 30
0.0
 11
307.5108617082366
 21
124.85353818453771
 31
0.0
  0
LINE
  5
200
330
17
100
AcDbEntity
  8
OCULTA
100
AcDbLine
 10
307.5108617082366
 20
124.85353818453771
 30
0.0
 11
307.4635768066332
 21
124.90030345540987
 31
0.0
  0
LINE
  5
201
330
17
100
AcDbEntity
  8
OCULTA
100
AcDbLine
 10
307.4635768066332
 20
124.90030345540987
 30
0.0
 11
307.4090259190969
 21
124.93844046167835
 31
0.0
  0
LINE
  5
202
330
17
100
AcDbEntity
  8
OCULTA
100
AcDbLine
 10
307.4090259190969
 20
124.93844046167835
 30
0.0
 11
307.3501496095715
 21
124.96953766903994
 31
0.0
  0
LINE
  5
203
330
17
100
AcDbEntity
  8
OCULTA
100
AcDbLine
 10
307.3501496095715
 20
124.96953766903994
 30
0.0
 11
307.28853829227205
 21
124.9948170763592
 31
0.0
  0
LINE
  5
204
330
17
100
AcDbEntity
  8
OCULTA
100
AcDbLine
 10
307.28853829227205
 20
124.9948170763592
 30
0.0
 11
307.22511457682873
 21
125.01514563071284
 31
0.0
  0
LINE
  5
205
330
17
100
AcDbEntity
  8
OCULTA
100
AcDbLine
 10
307.22511457682873
 20
125.01514563071284
 30
0.0
 11
307.1604556600836
 21
125.0311301396823
 31
0.0
  0
LINE
  5
206
330
17
100
AcDbEntity
  8
OCULTA
100
AcDbLine
 10
307.1604556600836
 20
125.0311301396823
 30
0.0
 11
307.09494969639206
 21
125.04319345475564
 31
0.0
  0
LINE
  5
207
330
17
100
AcDbEntity
  8
OCULTA
100
AcDbLine
 10
307.09494969639206
 20
125.04319345475564
 30
0.0
 11
307.0288768103887
 21
125.05162517692258
 31
0.0
  0
LINE
  5
208
330
17
100
AcDbEntity
  8
OCULTA
100
AcDbLine
 10
307.0288768103887
 20
125.05162517692258
 30
0.0
 11
306.96245444662867
 21
125.0566136129539
 31
0.0
  0
LINE
  5
209
330
17
100
AcDbEntity
  8
OCULTA
100
AcDbLine
 10
306.96245444662867
 20
125.0566136129539
 30
0.0
 11
306.89586517409856
 21
125.05826497707906
 31
0.0
  0
LINE
  5
20A
330
17
100
AcDbEntity
  8
OCULTA
100
AcDbLine
 10
306.89586517409856
 20
125.05826497707906
 30
0.0
 11
306.8292759016764
 21
125.05661360646882
 31
0.0
  0
LINE
  5
20B
330
17
100
AcDbEntity
  8
OCULTA
100
AcDbLine
 10
306.8292759016764
 20
125.05661360646882
 30
0.0
 11
306.76285353831975
 21
125.05162516380724
 31
0.0
  0
LINE
  5
20C
330
17
100
AcDbEntity
  8
OCULTA
100
AcDbLine
 10
306.76285353831975
 20
125.05162516380724
 30
0.0
 11
306.6967806532566
 21
125.0431934347393
 31
0.0
  0
LINE
  5
20D
330
17
100
AcDbEntity
  8
OCULTA
100
AcDbLine
 10
306.6967806532566
 20
125.0431934347393
 30
0.0
 11
306.6312746914551
 21
125.03113011241237
 31
0.0
  0
LINE
  5
20E
330
17
100
AcDbEntity
  8
OCULTA
100
AcDbLine
 10
306.6312746914551
 20
125.03113011241237
 30
0.0
 11
306.56661577814793
 21
125.01514559583244
 31
0.0
  0
LINE
  5
20F
330
17
100
AcDbEntity
  8
OCULTA
100
AcDbLine
 10
306.56661577814793
 20
125.01514559583244
 30
0.0
 11
306.5031920684888
 21
124.99481703363726
 31
0.0
  0
LINE
  5
210
330
17
100
AcDbEntity
  8
OCULTA
100
AcDbLine
 10
306.5031920684888
 20
124.99481703363726
 30
0.0
 11
306.441580760311
 21
124.96953761858407
 31
0.0
  0
LINE
  5
211
330
17
100
AcDbEntity
  8
OCULTA
100
AcDbLine
 10
306.441580760311
 20
124.96953761858407
 30
0.0
 11
306.3827044643474
 21
124.93844040427034
 31
0.0
  0
LINE
  5
212
330
17
100
AcDbEntity
  8
OCULTA
100
AcDbLine
 10
306.3827044643474
 20
124.93844040427034
 30
0.0
 11
306.3281535957137
 21
124.90030339296493
 31
0.0
  0
LINE
  5
213
330
17
100
AcDbEntity
  8
OCULTA
100
AcDbLine
 10
306.3281535957137
 20
124.90030339296493
 30
0.0
 11
306.2808687179203
 21
124.85353812006976
 31
0.0
  0
LINE
  5
214
330
17
100
AcDbEntity
  8
OCULTA
100
AcDbLine
 10
306.2808687179203
 20
124.85353812006976
 30
0.0
 11
306.2463781747965
 21
124.79682445221529
 31
0.0
  0
LINE
  5
215
330
17
100
AcDbEntity
  8
OCULTA
100
AcDbLine
 10
306.2463781747965
 20
124.79682445221529
 30
0.0
 11
306.2331556807242
 21
124.73196934644304
 31
0.0
  0
LINE
  5
216
330
17
100
AcDbEntity
  8
OCULTA
100
AcDbLine
 10
306.2331556807242
 20
124.73196934644304
 30
0.0
 11
306.24177908606373
 21
124.67950229895291
 31
0.0
  0
LINE
  5
217
330
17
100
AcDbEntity
  8
OCULTA
100
AcDbLine
 10
306.24177908606373
 20
124.67950229895291
 30
0.0
 11
306.265225322972
 21
124.63169426422982
 31
0.0
  0
LINE
  5
218
330
17
100
AcDbEntity
  8
OCULTA
100
AcDbLine
 10
306.265225322972
 20
124.63169426422982
 30
0.0
 11
306.29885527203885
 21
124.59032270284406
 31
0.0
  0
LINE
  5
219
330
17
100
AcDbEntity
  8
OCULTA
100
AcDbLine
 10
306.29885527203885
 20
124.59032270284406
 30
0.0
 11
306.3389420944785
 21
124.55511428179506
 31
0.0
  0
LINE
  5
21A
330
17
100
AcDbEntity
  8
OCULTA
100
AcDbLine
 10
306.3389420944785
 20
124.55511428179506
 30
0.0
 11
306.3831596524519
 21
124.52522433279245
 31
0.0
  0
LINE
  5
21B
330
17
100
AcDbEntity
  8
OCULTA
100
AcDbLine
 10
306.3831596524519
 20
124.52522433279245
 30
0.0
 11
306.430121478513
 21
124.49984257421391
 31
0.0
  0
LINE
  5
21C
330
17
100
AcDbEntity
  8
OCULTA
100
AcDbLine
 10
306.430121478513
 20
124.49984257421391
 30
0.0
 11
306.4789793094768
 21
124.47832197462537
 31
0.0
  0
LINE
  5
21D
330
17
100
AcDbEntity
  8
OCULTA
100
AcDbLine
 10
306.4789793094768
 20
124.47832197462537
 30
0.0
 11
306.52918969905517
 21
124.4601703979086
 31
0.0
  0
LINE
  5
21E
330
17
100
AcDbEntity
  8
OCULTA
100
AcDbLine
 10
306.52918969905517
 20
124.4601703979086
 30
0.0
 11
306.5803870706141
 21
124.44501776815909
 31
0.0
  0
LINE
  5
21F
330
17
100
AcDbEntity
  8
OCULTA
100
AcDbLine
 10
306.5803870706141
 20
124.44501776815909
 30
0.0
 11
306.6323136355552
 21
124.43258634000603
 31
0.0
  0
LINE
  5
220
330
17
100
AcDbEntity
  8
OCULTA
100
AcDbLine
 10
306.6323136355552
 20
124.43258634000603
 30
0.0
 11
306.68477917780694
 21
124.42266842060906
 31
0.0
  0
LINE
  5
221
330
17
100
AcDbEntity
  8
OCULTA
100
AcDbLine
 10
306.68477917780694
 20
124.42266842060906
 30
0.0
 11
306.7376368893991
 21
124.41511061742918
 31
0.0
  0
LINE
  5
222
330
17
100
AcDbEntity
  8
OCULTA
100
AcDbLine
 10
306.7376368893991
 20
124.41511061742918
 30
0.0
 11
306.79076810588265
 21
124.40980298563693
 31
0.0
  0
LINE
  5
223
330
17
100
AcDbEntity
  8
OCULTA
100
AcDbLine
 10
306.79076810588265
 20
124.40980298563693
 30
0.0
 11
306.84407210224913
 21
124.40667174654573
 31
0.0
  0
LINE
  5
224
330
17
100
AcDbEntity
  8
OCULTA
100
AcDbLine
 10
306.84407210224913
 20
124.40667174654573
 30
0.0
 11
306.89745878114525
 21
124.40567465913415
 31
0.0
  0
LINE
  5
225
330
17
100
AcDbEntity
  8
OCULTA
100
AcDbLine
 10
306.89745878114525
 20
124.40567465913415
 30
0.0
 11
306.95084293976083
 21
124.4067984686352
 31
0.0
  0
LINE
  5
226
330
17
100
AcDbEntity
  8
OCULTA
100
AcDbLine
 10
306.95084293976083
 20
124.4067984686352
 30
0.0
 11
307.0041392278832
 21
124.41005812114244
 31
0.0
  0
LINE
  5
227
330
17
100
AcDbEntity
  8
OCULTA
100
AcDbLine
 10
307.0041392278832
 20
124.41005812114244
 30
0.0
 11
307.05725708548096
 21
124.41549764973678
 31
0.0
  0
LINE
  5
228
330
17
100
AcDbEntity
  8
OCULTA
100
AcDbLine
 10
307.05725708548096
 20
124.41549764973678
 30
0.0
 11
307.1100949430743
 21
124.42319283879621
 31
0.0
  0
LINE
  5
229
330
17
100
AcDbEntity
  8
OCULTA
100
AcDbLine
 10
307.1100949430743
 20
124.42319283879621
 30
0.0
 11
307.1625327800966
 21
124.43325599166602
 31
0.0
  0
LINE
  5
22A
330
17
100
AcDbEntity
  8
OCULTA
100
AcDbLine
 10
307.1625327800966
 20
124.43325599166602
 30
0.0
 11
307.2144216911925
 21
124.44584339574577
 31
0.0
  0
LINE
  5
22B
330
17
100
AcDbEntity
  8
OCULTA
100
AcDbLine
 10
307.2144216911925
 20
124.44584339574577
 30
0.0
 11
307.26556822087076
 21
124.46116642601035
 31
0.0
  0
LINE
  5
22C
330
17
100
AcDbEntity
  8
OCULTA
100
AcDbLine
 10
307.26556822087076
 20
124.46116642601035
 30
0.0
 11
307.3157094870685
 21
124.47950764012239
 31
0.0
  0
LINE
  5
22D
330
17
100
AcDbEntity
  8
OCULTA
100
AcDbLine
 10
307.3157094870685
 20
124.47950764012239
 30
0.0
 11
307.3644716622323
 21
124.50124349334875
 31
0.0
  0
LINE
  5
22E
330
17
100
AcDbEntity
  8
OCULTA
100
AcDbLine
 10
307.3644716622323
 20
55.53984962406014
 30
0.0
 11
307.37626907410544
 21
55.545808330480256
 31
0.0
  0
LINE
  5
22F
330
17
100
AcDbEntity
  8
OCULTA
100
AcDbLine
 10
307.37626907410544
 20
55.545808330480256
 30
0.0
 11
307.38793851187205
 21
55.55201386884165
 31
0.0
  0
LINE
  5
230
330
17
100
AcDbEntity
  8
OCULTA
100
AcDbLine
 10
307.38793851187205
 20
55.55201386884165
 30
0.0
 11
307.3994678998603
 21
55.558475832504875
 31
0.0
  0
LINE
  5
231
330
17
100
AcDbEntity
  8
OCULTA
100
AcDbLine
 10
307.3994678998603
 20
55.558475832504875
 30
0.0
 11
307.4108436811609
 21
55.56520446707737
 31
0.0
  0
LINE
  5
232
330
17
100
AcDbEntity
  8
OCULTA
100
AcDbLine
 10
307.4108436811609
 20
55.56520446707737
 30
0.0
 11
307.4220505913485
 21
55.57221068649492
 31
0.0
  0
LINE
  5
233
330
17
100
AcDbEntity
  8
OCULTA
100
AcDbLine
 10
307.4220505913485
 20
55.57221068649492
 30
0.0
 11
307.43307139494453
 21
55.57950607487244
 31
0.0
  0
LINE
  5
234
330
17
100
AcDbEntity
  8
OCULTA
100
AcDbLine
 10
307.43307139494453
 20
55.57950607487244
 30
0.0
 11
307.4438865793952
 21
55.58710286671163
 31
0.0
  0
LINE
  5
235
330
17
100
AcDbEntity
  8
OCULTA
100
AcDbLine
 10
307.4438865793952
 20
55.58710286671163
 30
0.0
 11
307.45447400152585
 21
55.595013895145776
 31
0.0
  0
LINE
  5
236
330
17
100
AcDbEntity
  8
OCULTA
100
AcDbLine
 10
307.45447400152585
 20
55.595013895145776
 30
0.0
 11
307.4648084823943
 21
55.60325249402532
 31
0.0
  0
LINE
  5
237
330
17
100
AcDbEntity
  8
OCULTA
100
AcDbLine
 10
307.4648084823943
 20
55.60325249402532
 30
0.0
 11
307.4748613487623
 21
55.61183233458932
 31
0.0
  0
LINE
  5
238
330
17
100
AcDbEntity
  8
OCULTA
100
AcDbLine
 10
307.4748613487623
 20
55.61183233458932
 30
0.0
 11
307.4845999238917
 21
55.6207671710837
 31
0.0
  0
LINE
  5
239
330
17
100
AcDbEntity
  8
OCULTA
100
AcDbLine
 10
307.4845999238917
 20
55.6207671710837
 30
0.0
 11
307.4939869783106
 21
55.63007046203199
 31
0.0
  0
LINE
  5
23A
330
17
100
AcDbEntity
  8
OCULTA
100
AcDbLine
 10
307.4939869783106
 20
55.63007046203199
 30
0.0
 11
307.50298016431867
 21
55.63975482545763
 31
0.0
  0
LINE
  5
23B
330
17
100
AcDbEntity
  8
OCULTA
100
AcDbLine
 10
307.50298016431867
 20
55.63975482545763
 30
0.0
 11
307.51153147849936
 21
55.64983127862701
 31
0.0
  0
LINE
  5
23C
330
17
100
AcDbEntity
  8
OCULTA
100
AcDbLine
 10
307.51153147849936
 20
55.64983127862701
 30
0.0
 11
307.5195868266677
 21
55.66030820885595
 31
0.0
  0
LINE
  5
23D
330
17
100
AcDbEntity
  8
OCULTA
100
AcDbLine
 10
307.5195868266677
 20
55.66030820885595
 30
0.0
 11
307.527085806935
 21
55.67119002710874
 31
0.0
  0
LINE
  5
23E
330
17
100
AcDbEntity
  8
OCULTA
100
AcDbLine
 10
307.527085806935
 20
55.67119002710874
 30
0.0
 11
307.5339618773437
 21
55.68247547927755
 31
0.0
  0
LINE
  5
23F
330
17
100
AcDbEntity
  8
OCULTA
100
AcDbLine
 10
307.5339618773437
 20
55.68247547927755
 30
0.0
 11
307.5401431265743
 21
55.69415564288994
 31
0.0
  0
LINE
  5
240
330
17
100
AcDbEntity
  8
OCULTA
100
AcDbLine
 10
307.5401431265743
 20
55.69415564288994
 30
0.0
 11
307.5455538997361
 21
55.70621173111634
 31
0.0
  0
LINE
  5
241
330
17
100
AcDbEntity
  8
OCULTA
100
AcDbLine
 10
307.5455538997361
 20
55.70621173111634
 30
0.0
 11
307.5501175112653
 21
55.71861296428023
 31
0.0
  0
LINE
  5
242
330
17
100
AcDbEntity
  8
OCULTA
100
AcDbLine
 10
307.5501175112653
 20
55.71861296428023
 30
0.0
 11
307.5537601576027
 21
55.731314931260606
 31
0.0
  0
LINE
  5
243
330
17
100
AcDbEntity
  8
OCULTA
100
AcDbLine
 10
307.5537601576027
 20
55.731314931260606
 30
0.0
 11
307.5564158880605
 21
55.74425899026343
 31
0.0
  0
LINE
  5
244
330
17
100
AcDbEntity
  8
OCULTA
100
AcDbLine
 10
307.5564158880605
 20
55.74425899026343
 30
0.0
 11
307.5580321193886
 21
55.757373254143836
 31
0.0
  0
LINE
  5
245
330
17
100
AcDbEntity
  8
OCULTA
100
AcDbLine
 10
307.5580321193886
 20
55.757373254143836
 30
0.0
 11
307.55857479800017
 21
55.770575477154416
 31
0.0
  0
LINE
  5
246
330
17
100
AcDbEntity
  8
OCULTA
100
AcDbLine
 10
307.55857479800017
 20
55.770575477154416
 30
0.0
 11
307.5453522750426
 21
55.835430653052626
 31
0.0
  0
LINE
  5
247
330
17
100
AcDbEntity
  8
OCULTA
100
AcDbLine
 10
307.5453522750426
 20
55.835430653052626
 30
0.0
 11
307.5108617082366
 21
55.8921443152491
 31
0.0
  0
LINE
  5
248
330
17
100
AcDbEntity
  8
OCULTA
100
AcDbLine
 10
307.5108617082366
 20
55.8921443152491
 30
0.0
 11
307.4635768066332
 21
55.93890958612125
 31
0.0
  0
LINE
  5
249
330
17
100
AcDbEntity
  8
OCULTA
100
AcDbLine
 10
307.4635768066332
 20
55.93890958612125
 30
0.0
 11
307.4090259190969
 21
55.97704659238974
 31
0.0
  0
LINE
  5
24A
330
17
100
AcDbEntity
  8
OCULTA
100
AcDbLine
 10
307.4090259190969
 20
55.97704659238974
 30
0.0
 11
307.3501496095715
 21
56.008143799751316
 31
0.0
  0
LINE
  5
24B
330
17
100
AcDbEntity
  8
OCULTA
100
AcDbLine
 10
307.3501496095715
 20
56.008143799751316
 30
0.0
 11
307.28853829227205
 21
56.03342320707059
 31
0.0
  0
LINE
  5
24C
330
17
100
AcDbEntity
  8
OCULTA
100
AcDbLine
 10
307.28853829227205
 20
56.03342320707059
 30
0.0
 11
307.22511457682873
 21
56.05375176142422
 31
0.0
  0
LINE
  5
24D
330
17
100
AcDbEntity
  8
OCULTA
100
AcDbLine
 10
307.22511457682873
 20
56.05375176142422
 30
0.0
 11
307.1604556600836
 21
56.06973627039369
 31
0.0
  0
LINE
  5
24E
330
17
100
AcDbEntity
  8
OCULTA
100
AcDbLine
 10
307.1604556600836
 20
56.06973627039369
 30
0.0
 11
307.09494969639206
 21
56.081799585467024
 31
0.0
  0
LINE
  5
24F
330
17
100
AcDbEntity
  8
OCULTA
100
AcDbLine
 10
307.09494969639206
 20
56.081799585467024
 30
0.0
 11
307.0288768103887
 21
56.09023130763397
 31
0.0
  0
LINE
  5
250
330
17
100
AcDbEntity
  8
OCULTA
100
AcDbLine
 10
307.0288768103887
 20
56.09023130763397
 30
0.0
 11
306.96245444662867
 21
56.09521974366527
 31
0.0
  0
LINE
  5
251
330
17
100
AcDbEntity
  8
OCULTA
100
AcDbLine
 10
306.96245444662867
 20
56.09521974366527
 30
0.0
 11
306.89586517409856
 21
56.09687110779044
 31
0.0
  0
LINE
  5
252
330
17
100
AcDbEntity
  8
OCULTA
100
AcDbLine
 10
306.89586517409856
 20
56.09687110779044
 30
0.0
 11
306.8292759016764
 21
56.0952197371802
 31
0.0
  0
LINE
  5
253
330
17
100
AcDbEntity
  8
OCULTA
100
AcDbLine
 10
306.8292759016764
 20
56.0952197371802
 30
0.0
 11
306.76285353831975
 21
56.090231294518624
 31
0.0
  0
LINE
  5
254
330
17
100
AcDbEntity
  8
OCULTA
100
AcDbLine
 10
306.76285353831975
 20
56.090231294518624
 30
0.0
 11
306.6967806532566
 21
56.08179956545068
 31
0.0
  0
LINE
  5
255
330
17
100
AcDbEntity
  8
OCULTA
100
AcDbLine
 10
306.6967806532566
 20
56.08179956545068
 30
0.0
 11
306.6312746914551
 21
56.069736243123764
 31
0.0
  0
LINE
  5
256
330
17
100
AcDbEntity
  8
OCULTA
100
AcDbLine
 10
306.6312746914551
 20
56.069736243123764
 30
0.0
 11
306.56661577814793
 21
56.05375172654382
 31
0.0
  0
LINE
  5
257
330
17
100
AcDbEntity
  8
OCULTA
100
AcDbLine
 10
306.56661577814793
 20
56.05375172654382
 30
0.0
 11
306.5031920684888
 21
56.03342316434865
 31
0.0
  0
LINE
  5
258
330
17
100
AcDbEntity
  8
OCULTA
100
AcDbLine
 10
306.5031920684888
 20
56.03342316434865
 30
0.0
 11
306.441580760311
 21
56.00814374929546
 31
0.0
  0
LINE
  5
259
330
17
100
AcDbEntity
  8
OCULTA
100
AcDbLine
 10
306.441580760311
 20
56.00814374929546
 30
0.0
 11
306.3827044643474
 21
55.977046534981724
 31
0.0
  0
LINE
  5
25A
330
17
100
AcDbEntity
  8
OCULTA
100
AcDbLine
 10
306.3827044643474
 20
55.977046534981724
 30
0.0
 11
306.3281535957137
 21
55.93890952367632
 31
0.0
  0
LINE
  5
25B
330
17
100
AcDbEntity
  8
OCULTA
100
AcDbLine
 10
306.3281535957137
 20
55.93890952367632
 30
0.0
 11
306.2808687179203
 21
55.89214425078114
 31
0.0
  0
LINE
  5
25C
330
17
100
AcDbEntity
  8
OCULTA
100
AcDbLine
 10
306.2808687179203
 20
55.89214425078114
 30
0.0
 11
306.2463781747965
 21
55.835430582926676
 31
0.0
  0
LINE
  5
25D
330
17
100
AcDbEntity
  8
OCULTA
100
AcDbLine
 10
306.2463781747965
 20
55.835430582926676
 30
0.0
 11
306.2331556807242
 21
55.770575477154416
 31
0.0
  0
LINE
  5
25E
330
17
100
AcDbEntity
  8
OCULTA
100
AcDbLine
 10
306.2331556807242
 20
55.770575477154416
 30
0.0
 11
306.24177908606373
 21
55.7181084296643
 31
0.0
  0
LINE
  5
25F
330
17
100
AcDbEntity
  8
OCULTA
100
AcDbLine
 10
306.24177908606373
 20
55.7181084296643
 30
0.0
 11
306.265225322972
 21
55.670300394941194
 31
0.0
  0
LINE
  5
260
330
17
100
AcDbEntity
  8
OCULTA
100
AcDbLine
 10
306.265225322972
 20
55.670300394941194
 30
0.0
 11
306.29885527203885
 21
55.62892883355545
 31
0.0
  0
LINE
  5
261
330
17
100
AcDbEntity
  8
OCULTA
100
AcDbLine
 10
306.29885527203885
 20
55.62892883355545
 30
0.0
 11
306.3389420944785
 21
55.593720412506435
 31
0.0
  0
LINE
  5
262
330
17
100
AcDbEntity
  8
OCULTA
100
AcDbLine
 10
306.3389420944785
 20
55.593720412506435
 30
0.0
 11
306.3831596524519
 21
55.563830463503834
 31
0.0
  0
LINE
  5
263
330
17
100
AcDbEntity
  8
OCULTA
100
AcDbLine
 10
306.3831596524519
 20
55.563830463503834
 30
0.0
 11
306.430121478513
 21
55.5384487049253
 31
0.0
  0
LINE
  5
264
330
17
100
AcDbEntity
  8
OCULTA
100
AcDbLine
 10
306.430121478513
 20
55.5384487049253
 30
0.0
 11
306.4789793094768
 21
55.51692810533676
 31
0.0
  0
LINE
  5
265
330
17
100
AcDbEntity
  8
OCULTA
100
AcDbLine
 10
306.4789793094768
 20
55.51692810533676
 30
0.0
 11
306.52918969905517
 21
55.49877652861999
 31
0.0
  0
LINE
  5
266
330
17
100
AcDbEntity
  8
OCULTA
100
AcDbLine
 10
306.52918969905517
 20
55.49877652861999
 30
0.0
 11
306.5803870706141
 21
55.48362389887048
 31
0.0
  0
LINE
  5
267
330
17
100
AcDbEntity
  8
OCULTA
100
AcDbLine
 10
306.5803870706141
 20
55.48362389887048
 30
0.0
 11
306.6323136355552
 21
55.47119247071742
 31
0.0
  0
LINE
  5
268
330
17
100
AcDbEntity
  8
OCULTA
100
AcDbLine
 10
306.6323136355552
 20
55.47119247071742
 30
0.0
 11
306.68477917780694
 21
55.461274551320436
 31
0.0
  0
LINE
  5
269
330
17
100
AcDbEntity
  8
OCULTA
100
AcDbLine
 10
306.68477917780694
 20
55.461274551320436
 30
0.0
 11
306.7376368893991
 21
55.45371674814057
 31
0.0
  0
LINE
  5
26A
330
17
100
AcDbEntity
  8
OCULTA
100
AcDbLine
 10
306.7376368893991
 20
55.45371674814057
 30
0.0
 11
306.79076810588265
 21
55.44840911634832
 31
0.0
  0
LINE
  5
26B
330
17
100
AcDbEntity
  8
OCULTA
100
AcDbLine
 10
306.79076810588265
 20
55.44840911634832
 30
0.0
 11
306.84407210224913
 21
55.44527787725711
 31
0.0
  0
LINE
  5
26C
330
17
100
AcDbEntity
  8
OCULTA
100
AcDbLine
 10
306.84407210224913
 20
55.44527787725711
 30
0.0
 11
306.89745878114525
 21
55.444280789845536
 31
0.0
  0
LINE
  5
26D
330
17
100
AcDbEntity
  8
OCULTA
100
AcDbLine
 10
306.89745878114525
 20
55.444280789845536
 30
0.0
 11
306.95084293976083
 21
55.44540459934659
 31
0.0
  0
LINE
  5
26E
330
17
100
AcDbEntity
  8
OCULTA
100
AcDbLine
 10
306.95084293976083
 20
55.44540459934659
 30
0.0
 11
307.0041392278832
 21
55.44866425185383
 31
0.0
  0
LINE
  5
26F
330
17
100
AcDbEntity
  8
OCULTA
100
AcDbLine
 10
307.0041392278832
 20
55.44866425185383
 30
0.0
 11
307.05725708548096
 21
55.454103780448165
 31
0.0
  0
LINE
  5
270
330
17
100
AcDbEntity
  8
OCULTA
100
AcDbLine
 10
307.05725708548096
 20
55.454103780448165
 30
0.0
 11
307.1100949430743
 21
55.46179896950759
 31
0.0
  0
LINE
  5
271
330
17
100
AcDbEntity
  8
OCULTA
100
AcDbLine
 10
307.1100949430743
 20
55.46179896950759
 30
0.0
 11
307.1625327800966
 21
55.4718621223774
 31
0.0
  0
LINE
  5
272
330
17
100
AcDbEntity
  8
OCULTA
100
AcDbLine
 10
307.1625327800966
 20
55.4718621223774
 30
0.0
 11
307.2144216911925
 21
55.484449526457155
 31
0.0
  0
LINE
  5
273
330
17
100
AcDbEntity
  8
OCULTA
100
AcDbLine
 10
307.2144216911925
 20
55.484449526457155
 30
0.0
 11
307.26556822087076
 21
55.49977255672173
 31
0.0
  0
LINE
  5
274
330
17
100
AcDbEntity
  8
OCULTA
100
AcDbLine
 10
307.26556822087076
 20
55.49977255672173
 30
0.0
 11
307.3157094870685
 21
55.518113770833764
 31
0.0
  0
LINE
  5
275
330
17
100
AcDbEntity
  8
OCULTA
100
AcDbLine
 10
307.3157094870685
 20
55.518113770833764
 30
0.0
 11
307.3644716622323
 21
55.53984962406014
 31
0.0
  0
LINE
  5
276
330
17
100
AcDbEntity
  8
OCULTA
100
AcDbLine
 10
307.55857479800017
 20
124.73196934644304
 30
0.0
 11
307.55857479800017
 21
129.8592105263158
 31
0.0
  0
LINE
  5
277
330
17
100
AcDbEntity
  8
OCULTA
100
AcDbLine
 10
306.2331556807242
 20
124.73196934644304
 30
0.0
 11
306.2331556807242
 21
129.8592105263158
 31
0.0
  0
LINE
  5
278
330
17
100
AcDbEntity
  8
OCULTA
100
AcDbLine
 10
307.55857479800017
 20
50.64333429728164
 30
0.0
 11
307.55857479800017
 21
55.770575477154395
 31
0.0
  0
LINE
  5
279
330
17
100
AcDbEntity
  8
OCULTA
100
AcDbLine
 10
306.2331556807242
 20
50.64333429728164
 30
0.0
 11
306.2331556807242
 21
55.770575477154395
 31
0.0
  0
LINE
  5
27A
330
17
100
AcDbEntity
  8
MARCO
100
AcDbLine
 10
250.0
 20
10.0
 30
0.0
 11
410.0
 21
10.0
 31
0.0
  0
LINE
  5
27B
330
17
100
AcDbEntity
  8
MARCO
100
AcDbLine
 10
410.0
 20
10.0
 30
0.0
 11
410.0
 21
36.0
 31
0.0
  0
LINE
  5
27C
330
17
100
AcDbEntity
  8
MARCO
100
AcDbLine
 10
410.0
 20
36.0
 30
0.0
 11
250.0
 21
36.0
 31
0.0
  0
LINE
  5
27D
330
17
100
AcDbEntity
  8
MARCO
100
AcDbLine
 10
250.0
 20
36.0
 30
0.0
 11
250.0
 21
10.0
 31
0.0
  0
LINE
  5
27E
330
17
100
AcDbEntity
  8
MARCO
100
AcDbLine
 10
250.0
 20
23.0
 30
0.0
 11
410.0
 21
23.0
 31
0.0
  0
LINE
  5
27F
330
17
100
AcDbEntity
  8
MARCO
100
AcDbLine
 10
322.0
 20
10.0
 30
0.0
 11
322.0
 21
36.0
 31
0.0
  0
LINE
  5
280
330
17
100
AcDbEntity
  8
MARCO
100
AcDbLine
 10
365.2
 20
10.0
 30
0.0
 11
365.2
 21
23.0
 31
0.0
  0
TEXT
  5
281
330
17
100
AcDbEntity
  8
COTAS
100
AcDbText
 10
113.0
 20
169.29999999999998
 30
0.0
 40
3.2
  1
50
100
AcDbText
  0
TEXT
  5
282
330
17
100
AcDbEntity
  8
COTAS
100
AcDbText
 10
98.4
 20
206.79999999999998
 30
0.0
 40
3.2
  1
309
 50
90.0
100
AcDbText
  0
TEXT
  5
283
330
17
100
AcDbEntity
  8
COTAS
100
AcDbText
 10
113.0
 20
161.39999999999998
 30
0.0
 40
3.6
  1
ALZADO
100
AcDbText
  0
TEXT
  5
284
330
17
100
AcDbEntity
  8
COTAS
100
AcDbText
 10
307.0
 20
169.29999999999998
 30
0.0
 40
3.2
  1
42
100
AcDbText
  0
TEXT
  5
285
330
17
100
AcDbEntity
  8
COTAS
100
AcDbText
 10
293.2
 20
206.79999999999998
 30
0.0
 40
3.2
  1
309
 50
90.0
100
AcDbText
  0
TEXT
  5
286
330
17
100
AcDbEntity
  8
COTAS
100
AcDbText
 10
307.0
 20
161.39999999999998
 30
0.0
 40
3.6
  1
PERFIL
100
AcDbText
  0
TEXT
  5
287
330
17
100
AcDbEntity
  8
COTAS
100
AcDbText
 10
113.0
 20
74.10000000000001
 30
0.0
 40
3.2
  1
50
100
AcDbText
  0
TEXT
  5
288
330
17
100
AcDbEntity
  8
COTAS
100
AcDbText
 10
98.4
 20
84.9
 30
0.0
 40
3.2
  1
42
 50
90.0
100
AcDbText
  0
TEXT
  5
289
330
17
100
AcDbEntity
  8
COTAS
100
AcDbText
 10
113.0
 20
66.2
 30
0.0
 40
3.6
  1
PLANTA
100
AcDbText
  0
TEXT
  5
28A
330
17
100
AcDbEntity
  8
COTAS
100
AcDbText
 10
113.0
 20
95.80000000000001
 30
0.0
 40
2.6
  1
Parteluz 1 50
100
AcDbText
  0
TEXT
  5
28B
330
17
100
AcDbEntity
  8
COTAS
100
AcDbText
 10
307.0
 20
39.87499999999999
 30
0.0
 40
3.0
  1
ISOMÉTRICA (sin escala)
100
AcDbText
  0
TEXT
  5
28C
330
17
100
AcDbEntity
  8
COTAS
100
AcDbText
 10
253.0
 20
28.72
 30
0.0
 40
3.6
  1
puerta-plegable-bifold
100
AcDbText
  0
TEXT
  5
28D
330
17
100
AcDbEntity
  8
COTAS
100
AcDbText
 10
253.0
 20
15.719999999999999
 30
0.0
 40
2.8
  1
1 sólidos · unidades mm
100
AcDbText
  0
TEXT
  5
28E
330
17
100
AcDbEntity
  8
COTAS
100
AcDbText
 10
325.0
 20
28.72
 30
0.0
 40
3.0
  1
Genix Apolo CAD
100
AcDbText
  0
TEXT
  5
28F
330
17
100
AcDbEntity
  8
COTAS
100
AcDbText
 10
325.0
 20
15.719999999999999
 30
0.0
 40
2.8
  1
2026-06-18
100
AcDbText
  0
TEXT
  5
290
330
17
100
AcDbEntity
  8
COTAS
100
AcDbText
 10
368.2
 20
15.719999999999999
 30
0.0
 40
2.8
  1
Escala 1:5 · A3
100
AcDbText
  0
ENDSEC
  0
SECTION
  2
OBJECTS
  0
DICTIONARY
  5
A
330
0
100
AcDbDictionary
281
1
  3
ACAD_COLOR
350
B
  3
ACAD_GROUP
350
C
  3
ACAD_LAYOUT
350
D
  3
ACAD_MATERIAL
350
E
  3
ACAD_MLEADERSTYLE
350
F
  3
ACAD_MLINESTYLE
350
10
  3
ACAD_PLOTSETTINGS
350
11
  3
ACAD_PLOTSTYLENAME
350
12
  3
ACAD_SCALELIST
350
14
  3
ACAD_TABLESTYLE
350
15
  3
ACAD_VISUALSTYLE
350
16
  3
EZDXF_META
350
2D
  0
DICTIONARY
  5
B
330
A
100
AcDbDictionary
281
1
  0
DICTIONARY
  5
C
330
A
100
AcDbDictionary
281
1
  0
DICTIONARY
  5
D
330
A
100
AcDbDictionary
281
1
  3
Model
350
1A
  3
Layout1
350
1E
  0
DICTIONARY
  5
E
330
A
100
AcDbDictionary
281
1
  3
ByBlock
350
1F
  3
ByLayer
350
20
  3
Global
350
21
  0
DICTIONARY
  5
F
330
A
100
AcDbDictionary
281
1
  3
Standard
350
2C
  0
DICTIONARY
  5
10
330
A
100
AcDbDictionary
281
1
  3
Standard
350
22
  0
DICTIONARY
  5
11
330
A
100
AcDbDictionary
281
1
  0
ACDBDICTIONARYWDFLT
  5
12
330
A
100
AcDbDictionary
281
1
  3
Normal
350
13
100
AcDbDictionaryWithDefault
340
13
  0
ACDBPLACEHOLDER
  5
13
330
12
  0
DICTIONARY
  5
14
330
A
100
AcDbDictionary
281
1
  0
DICTIONARY
  5
15
330
A
100
AcDbDictionary
281
1
  0
DICTIONARY
  5
16
330
A
100
AcDbDictionary
281
1
  3
2dWireframe
350
5A
  3
Basic
350
5B
  3
Brighten
350
5C
  3
ColorChange
350
5D
  3
Conceptual
350
5E
  3
Dim
350
5F
  3
EdgeColorOff
350
60
  3
Facepattern
350
61
  3
Flat
350
62
  3
FlatWithEdges
350
63
  3
Gouraud
350
64
  3
GouraudWithEdges
350
65
  3
Hidden
350
66
  3
JitterOff
350
67
  3
Linepattern
350
68
  3
Modeling
350
69
  3
OverhangOff
350
6A
  3
Realistic
350
6B
  3
Shaded
350
6C
  3
Shaded with edges
350
6D
  3
Shades of Gray
350
6E
  3
Sketchy
350
6F
  3
Thicken
350
70
  3
Wireframe
350
71
  3
X-Ray
350
72
  0
LAYOUT
  5
1A
330
D
100
AcDbPlotSettings
  1

  4
A3
  6

 40
7.5
 41
20.0
 42
7.5
 43
20.0
 44
420.0
 45
297.0
 46
0.0
 47
0.0
 48
0.0
 49
0.0
140
0.0
141
0.0
142
1.0
143
1.0
 70
1024
 72
1
 73
0
 74
5
  7

 75
16
 76
0
 77
2
 78
300
147
1.0
148
0.0
149
0.0
100
AcDbLayout
  1
Model
 70
1
 71
0
 10
0.0
 20
0.0
 11
420.0
 21
297.0
 12
0.0
 22
0.0
 32
0.0
 14
1e+20
 24
1e+20
 34
1e+20
 15
-1e+20
 25
-1e+20
 35
-1e+20
146
0.0
 13
0.0
 23
0.0
 33
0.0
 16
1.0
 26
0.0
 36
0.0
 17
0.0
 27
1.0
 37
0.0
 76
1
330
17
  0
LAYOUT
  5
1E
330
D
100
AcDbPlotSettings
  1

  4
A3
  6

 40
7.5
 41
20.0
 42
7.5
 43
20.0
 44
420.0
 45
297.0
 46
0.0
 47
0.0
 48
0.0
 49
0.0
140
0.0
141
0.0
142
1.0
143
1.0
 70
0
 72
1
 73
0
 74
5
  7

 75
16
 76
0
 77
2
 78
300
147
1.0
148
0.0
149
0.0
100
AcDbLayout
  1
Layout1
 70
1
 71
1
 10
0.0
 20
0.0
 11
420.0
 21
297.0
 12
0.0
 22
0.0
 32
0.0
 14
1e+20
 24
1e+20
 34
1e+20
 15
-1e+20
 25
-1e+20
 35
-1e+20
146
0.0
 13
0.0
 23
0.0
 33
0.0
 16
1.0
 26
0.0
 36
0.0
 17
0.0
 27
1.0
 37
0.0
 76
1
330
1B
  0
MATERIAL
  5
1F
102
{ACAD_REACTORS
330
E
102
}
330
E
100
AcDbMaterial
  1
ByBlock
  2

 70
0
 40
1.0
 71
1
 41
1.0
 91
-1023410177
 42
1.0
 72
1
  3

 73
1
 74
1
 75
1
 44
0.5
 73
0
 45
1.0
 46
1.0
 77
1
  4

 78
1
 79
1
170
1
 48
1.0
171
1
  6

172
1
173
1
174
1
140
1.0
141
1.0
175
1
  7

176
1
177
1
178
1
143
1.0
179
1
  8

270
1
271
1
272
1
145
1.0
146
1.0
273
1
  9

274
1
275
1
276
1
 42
1.0
 72
1
  3

 73
1
 74
1
 75
1
 94
63
  0
MATERIAL
  5
20
102
{ACAD_REACTORS
330
E
102
}
330
E
100
AcDbMaterial
  1
ByLayer
  2

 70
0
 40
1.0
 71
1
 41
1.0
 91
-1023410177
 42
1.0
 72
1
  3

 73
1
 74
1
 75
1
 44
0.5
 73
0
 45
1.0
 46
1.0
 77
1
  4

 78
1
 79
1
170
1
 48
1.0
171
1
  6

172
1
173
1
174
1
140
1.0
141
1.0
175
1
  7

176
1
177
1
178
1
143
1.0
179
1
  8

270
1
271
1
272
1
145
1.0
146
1.0
273
1
  9

274
1
275
1
276
1
 42
1.0
 72
1
  3

 73
1
 74
1
 75
1
 94
63
  0
MATERIAL
  5
21
102
{ACAD_REACTORS
330
E
102
}
330
E
100
AcDbMaterial
  1
Global
  2

 70
0
 40
1.0
 71
1
 41
1.0
 91
-1023410177
 42
1.0
 72
1
  3

 73
1
 74
1
 75
1
 44
0.5
 73
0
 45
1.0
 46
1.0
 77
1
  4

 78
1
 79
1
170
1
 48
1.0
171
1
  6

172
1
173
1
174
1
140
1.0
141
1.0
175
1
  7

176
1
177
1
178
1
143
1.0
179
1
  8

270
1
271
1
272
1
145
1.0
146
1.0
273
1
  9

274
1
275
1
276
1
 42
1.0
 72
1
  3

 73
1
 74
1
 75
1
 94
63
  0
MLINESTYLE
  5
22
102
{ACAD_REACTORS
330
10
102
}
330
10
100
AcDbMlineStyle
  2
Standard
 70
0
  3

 62
256
 51
90.0
 52
90.0
 71
2
 49
0.5
 62
256
  6
BYLAYER
 49
-0.5
 62
256
  6
BYLAYER
  0
MLEADERSTYLE
  5
2C
102
{ACAD_REACTORS
330
F
102
}
330
F
100
AcDbMLeaderStyle
179
2
170
2
171
1
172
0
 90
2
 40
0.0
 41
0.0
173
1
 91
-1056964608
 92
-2
290
1
 42
2.0
291
1
 43
8.0
  3
Standard
 44
4.0
300

342
29
174
1
175
1
176
0
178
1
 93
-1056964608
 45
4.0
292
0
297
0
 46
4.0
 94
-1056964608
 47
1.0
 49
1.0
140
1.0
294
1
141
0.0
177
0
142
1.0
295
0
296
0
143
3.75
271
0
272
9
273
9
  0
DICTIONARY
  5
2D
330
A
100
AcDbDictionary
280
1
281
1
  3
CREATED_BY_EZDXF
350
2E
  3
WRITTEN_BY_EZDXF
350
293
  0
DICTIONARYVAR
  5
2E
330
2D
100
DictionaryVariables
280
0
  1
1.4.4 @ 2026-06-18T16:01:31.567691+00:00
  0
VISUALSTYLE
  5
5A
102
{ACAD_REACTORS
330
16
102
}
330
16
100
AcDbVisualStyle
  2
2dWireframe
 70
4
 90
0
 40
0.6
 62
7
290
0
291
0
  0
VISUALSTYLE
  5
5B
102
{ACAD_REACTORS
330
16
102
}
330
16
100
AcDbVisualStyle
  2
Basic
 70
7
 90
1
 40
0.6
 62
7
290
0
291
1
  0
VISUALSTYLE
  5
5C
102
{ACAD_REACTORS
330
16
102
}
330
16
100
AcDbVisualStyle
  2
Brighten
 70
12
 90
2
 40
0.6
 62
7
290
0
291
1
  0
VISUALSTYLE
  5
5D
102
{ACAD_REACTORS
330
16
102
}
330
16
100
AcDbVisualStyle
  2
ColorChange
 70
16
 90
2
 40
0.6
 62
8
290
0
291
1
  0
VISUALSTYLE
  5
5E
102
{ACAD_REACTORS
330
16
102
}
330
16
100
AcDbVisualStyle
  2
Conceptual
 70
9
 90
3
 40
0.6
 62
7
290
0
291
0
  0
VISUALSTYLE
  5
5F
102
{ACAD_REACTORS
330
16
102
}
330
16
100
AcDbVisualStyle
  2
Dim
 70
11
 90
2
 40
0.6
 62
7
290
0
291
1
  0
VISUALSTYLE
  5
60
102
{ACAD_REACTORS
330
16
102
}
330
16
100
AcDbVisualStyle
  2
EdgeColorOff
 70
22
 90
2
 40
0.6
 62
7
290
0
291
1
  0
VISUALSTYLE
  5
61
102
{ACAD_REACTORS
330
16
102
}
330
16
100
AcDbVisualStyle
  2
Facepattern
 70
15
 90
2
 40
0.6
 62
7
290
0
291
1
  0
VISUALSTYLE
  5
62
102
{ACAD_REACTORS
330
16
102
}
330
16
100
AcDbVisualStyle
  2
Flat
 70
0
 90
2
 40
0.6
 62
7
290
0
291
1
  0
VISUALSTYLE
  5
63
102
{ACAD_REACTORS
330
16
102
}
330
16
100
AcDbVisualStyle
  2
FlatWithEdges
 70
1
 90
2
 40
0.6
 62
7
290
0
291
1
  0
VISUALSTYLE
  5
64
102
{ACAD_REACTORS
330
16
102
}
330
16
100
AcDbVisualStyle
  2
Gouraud
 70
2
 90
2
 40
0.6
 62
7
290
0
291
1
  0
VISUALSTYLE
  5
65
102
{ACAD_REACTORS
330
16
102
}
330
16
100
AcDbVisualStyle
  2
GouraudWithEdges
 70
3
 90
2
 40
0.6
 62
7
290
0
291
1
  0
VISUALSTYLE
  5
66
102
{ACAD_REACTORS
330
16
102
}
330
16
100
AcDbVisualStyle
  2
Hidden
 70
6
 90
1
 40
0.6
 62
7
290
0
291
0
  0
VISUALSTYLE
  5
67
102
{ACAD_REACTORS
330
16
102
}
330
16
100
AcDbVisualStyle
  2
JitterOff
 70
20
 90
2
 40
0.6
 62
7
290
0
291
1
  0
VISUALSTYLE
  5
68
102
{ACAD_REACTORS
330
16
102
}
330
16
100
AcDbVisualStyle
  2
Linepattern
 70
14
 90
2
 40
0.6
 62
7
290
0
291
1
  0
VISUALSTYLE
  5
69
102
{ACAD_REACTORS
330
16
102
}
330
16
100
AcDbVisualStyle
  2
Modeling
 70
10
 90
2
 40
0.6
 62
7
290
0
291
0
  0
VISUALSTYLE
  5
6A
102
{ACAD_REACTORS
330
16
102
}
330
16
100
AcDbVisualStyle
  2
OverhangOff
 70
21
 90
2
 40
0.6
 62
7
290
0
291
1
  0
VISUALSTYLE
  5
6B
102
{ACAD_REACTORS
330
16
102
}
330
16
100
AcDbVisualStyle
  2
Realistic
 70
8
 90
2
 40
0.6
 62
7
290
0
291
0
  0
VISUALSTYLE
  5
6C
102
{ACAD_REACTORS
330
16
102
}
330
16
100
AcDbVisualStyle
  2
Shaded
 70
27
 90
2
 40
0.6
 62
7
290
0
291
0
  0
VISUALSTYLE
  5
6D
102
{ACAD_REACTORS
330
16
102
}
330
16
100
AcDbVisualStyle
  2
Shaded with edges
 70
26
 90
2
 40
0.6
 62
7
290
0
291
0
  0
VISUALSTYLE
  5
6E
102
{ACAD_REACTORS
330
16
102
}
330
16
100
AcDbVisualStyle
  2
Shades of Gray
 70
23
 90
2
 40
0.6
 62
7
290
0
291
0
  0
VISUALSTYLE
  5
6F
102
{ACAD_REACTORS
330
16
102
}
330
16
100
AcDbVisualStyle
  2
Sketchy
 70
24
 90
1
 40
0.6
 62
7
290
0
291
0
  0
VISUALSTYLE
  5
70
102
{ACAD_REACTORS
330
16
102
}
330
16
100
AcDbVisualStyle
  2
Thicken
 70
13
 90
2
 40
0.6
 62
7
290
0
291
1
  0
VISUALSTYLE
  5
71
102
{ACAD_REACTORS
330
16
102
}
330
16
100
AcDbVisualStyle
  2
Wireframe
 70
5
 90
0
 40
0.6
 62
7
290
0
291
0
  0
VISUALSTYLE
  5
72
102
{ACAD_REACTORS
330
16
102
}
330
16
100
AcDbVisualStyle
  2
X-Ray
 70
25
 90
2
 40
0.5
 62
7
290
0
291
0
  0
DICTIONARYVAR
  5
293
330
2D
100
DictionaryVariables
280
0
  1
1.4.4 @ 2026-06-18T16:01:31.602781+00:00
  0
ENDSEC
  0
EOF
