<svg xmlns="http://www.w3.org/2000/svg" viewBox="0 0 420.0 297.0" width="420.0mm" height="297.0mm" font-family="Segoe UI, Arial, sans-serif">
<rect x="0" y="0" width="420.0" height="297.0" fill="#fdfdfb"/>
<line x1="10.00" y1="287.00" x2="410.00" y2="287.00" stroke="#16181d" stroke-width="0.75" stroke-linecap="round"/>
<line x1="410.00" y1="287.00" x2="410.00" y2="10.00" stroke="#16181d" stroke-width="0.75" stroke-linecap="round"/>
<line x1="410.00" y1="10.00" x2="10.00" y2="10.00" stroke="#16181d" stroke-width="0.75" stroke-linecap="round"/>
<line x1="10.00" y1="10.00" x2="10.00" y2="287.00" stroke="#16181d" stroke-width="0.75" stroke-linecap="round"/>
<line x1="91.50" y1="115.20" x2="91.50" y2="65.20" stroke="#16181d" stroke-width="0.5" stroke-linecap="round"/>
<line x1="92.90" y1="115.20" x2="92.90" y2="65.20" stroke="#16181d" stroke-width="0.5" stroke-linecap="round"/>
<line x1="91.50" y1="115.20" x2="92.90" y2="115.20" stroke="#16181d" stroke-width="0.5" stroke-linecap="round"/>
<line x1="91.50" y1="65.20" x2="92.90" y2="65.20" stroke="#16181d" stroke-width="0.5" stroke-linecap="round"/>
<line x1="133.10" y1="115.20" x2="133.10" y2="65.20" stroke="#16181d" stroke-width="0.5" stroke-linecap="round"/>
<line x1="134.50" y1="115.20" x2="134.50" y2="65.20" stroke="#16181d" stroke-width="0.5" stroke-linecap="round"/>
<line x1="133.10" y1="115.20" x2="134.50" y2="115.20" stroke="#16181d" stroke-width="0.5" stroke-linecap="round"/>
<line x1="133.10" y1="65.20" x2="134.50" y2="65.20" stroke="#16181d" stroke-width="0.5" stroke-linecap="round"/>
<line x1="92.90" y1="66.60" x2="92.90" y2="65.20" stroke="#16181d" stroke-width="0.5" stroke-linecap="round"/>
<line x1="133.10" y1="66.60" x2="133.10" y2="65.20" stroke="#16181d" stroke-width="0.5" stroke-linecap="round"/>
<line x1="92.90" y1="66.60" x2="133.10" y2="66.60" stroke="#16181d" stroke-width="0.5" stroke-linecap="round"/>
<line x1="92.90" y1="65.20" x2="133.10" y2="65.20" stroke="#16181d" stroke-width="0.5" stroke-linecap="round"/>
<line x1="92.90" y1="74.18" x2="92.90" y2="72.78" stroke="#16181d" stroke-width="0.5" stroke-linecap="round"/>
<line x1="133.10" y1="74.18" x2="133.10" y2="72.78" stroke="#16181d" stroke-width="0.5" stroke-linecap="round"/>
<line x1="92.90" y1="74.18" x2="133.10" y2="74.18" stroke="#16181d" stroke-width="0.5" stroke-linecap="round"/>
<line x1="92.90" y1="72.78" x2="133.10" y2="72.78" stroke="#16181d" stroke-width="0.5" stroke-linecap="round"/>
<line x1="102.45" y1="72.78" x2="102.45" y2="66.60" stroke="#16181d" stroke-width="0.5" stroke-linecap="round"/>
<line x1="103.45" y1="72.78" x2="103.45" y2="66.60" stroke="#16181d" stroke-width="0.5" stroke-linecap="round"/>
<line x1="112.50" y1="72.78" x2="112.50" y2="66.60" stroke="#16181d" stroke-width="0.5" stroke-linecap="round"/>
<line x1="113.50" y1="72.78" x2="113.50" y2="66.60" stroke="#16181d" stroke-width="0.5" stroke-linecap="round"/>
<line x1="122.55" y1="72.78" x2="122.55" y2="66.60" stroke="#16181d" stroke-width="0.5" stroke-linecap="round"/>
<line x1="123.55" y1="72.78" x2="123.55" y2="66.60" stroke="#16181d" stroke-width="0.5" stroke-linecap="round"/>
<line x1="91.50" y1="116.70" x2="91.50" y2="124.70" stroke="#3a5e9c" stroke-width="0.25" stroke-linecap="round"/>
<line x1="134.50" y1="116.70" x2="134.50" y2="124.70" stroke="#3a5e9c" stroke-width="0.25" stroke-linecap="round"/>
<line x1="91.50" y1="123.20" x2="134.50" y2="123.20" stroke="#3a5e9c" stroke-width="0.25" stroke-linecap="round"/>
<line x1="90.30" y1="124.40" x2="92.70" y2="122.00" stroke="#3a5e9c" stroke-width="0.25" stroke-linecap="round"/>
<line x1="133.30" y1="124.40" x2="135.70" y2="122.00" stroke="#3a5e9c" stroke-width="0.25" stroke-linecap="round"/>
<line x1="90.00" y1="115.20" x2="82.00" y2="115.20" stroke="#3a5e9c" stroke-width="0.25" stroke-linecap="round"/>
<line x1="90.00" y1="65.20" x2="82.00" y2="65.20" stroke="#3a5e9c" stroke-width="0.25" stroke-linecap="round"/>
<line x1="83.50" y1="115.20" x2="83.50" y2="65.20" stroke="#3a5e9c" stroke-width="0.25" stroke-linecap="round"/>
<line x1="82.30" y1="116.40" x2="84.70" y2="114.00" stroke="#3a5e9c" stroke-width="0.25" stroke-linecap="round"/>
<line x1="82.30" y1="66.40" x2="84.70" y2="64.00" stroke="#3a5e9c" stroke-width="0.25" stroke-linecap="round"/>
<line x1="306.30" y1="115.20" x2="306.30" y2="65.20" stroke="#16181d" stroke-width="0.5" stroke-linecap="round"/>
<line x1="306.30" y1="65.20" x2="307.70" y2="65.20" stroke="#16181d" stroke-width="0.5" stroke-linecap="round"/>
<line x1="307.70" y1="115.20" x2="307.70" y2="65.20" stroke="#16181d" stroke-width="0.5" stroke-linecap="round"/>
<line x1="306.30" y1="115.20" x2="307.70" y2="115.20" stroke="#16181d" stroke-width="0.5" stroke-linecap="round"/>
<line x1="306.30" y1="116.70" x2="306.30" y2="124.70" stroke="#3a5e9c" stroke-width="0.25" stroke-linecap="round"/>
<line x1="307.70" y1="116.70" x2="307.70" y2="124.70" stroke="#3a5e9c" stroke-width="0.25" stroke-linecap="round"/>
<line x1="306.30" y1="123.20" x2="307.70" y2="123.20" stroke="#3a5e9c" stroke-width="0.25" stroke-linecap="round"/>
<line x1="305.10" y1="124.40" x2="307.50" y2="122.00" stroke="#3a5e9c" stroke-width="0.25" stroke-linecap="round"/>
<line x1="306.50" y1="124.40" x2="308.90" y2="122.00" stroke="#3a5e9c" stroke-width="0.25" stroke-linecap="round"/>
<line x1="304.80" y1="115.20" x2="296.80" y2="115.20" stroke="#3a5e9c" stroke-width="0.25" stroke-linecap="round"/>
<line x1="304.80" y1="65.20" x2="296.80" y2="65.20" stroke="#3a5e9c" stroke-width="0.25" stroke-linecap="round"/>
<line x1="298.30" y1="115.20" x2="298.30" y2="65.20" stroke="#3a5e9c" stroke-width="0.25" stroke-linecap="round"/>
<line x1="297.10" y1="116.40" x2="299.50" y2="114.00" stroke="#3a5e9c" stroke-width="0.25" stroke-linecap="round"/>
<line x1="297.10" y1="66.40" x2="299.50" y2="64.00" stroke="#3a5e9c" stroke-width="0.25" stroke-linecap="round"/>
<line x1="91.50" y1="212.80" x2="91.50" y2="211.40" stroke="#16181d" stroke-width="0.5" stroke-linecap="round"/>
<line x1="92.90" y1="212.80" x2="92.90" y2="211.40" stroke="#16181d" stroke-width="0.5" stroke-linecap="round"/>
<line x1="91.50" y1="212.80" x2="92.90" y2="212.80" stroke="#16181d" stroke-width="0.5" stroke-linecap="round"/>
<line x1="91.50" y1="211.40" x2="92.90" y2="211.40" stroke="#16181d" stroke-width="0.5" stroke-linecap="round"/>
<line x1="133.10" y1="212.80" x2="133.10" y2="211.40" stroke="#16181d" stroke-width="0.5" stroke-linecap="round"/>
<line x1="134.50" y1="212.80" x2="134.50" y2="211.40" stroke="#16181d" stroke-width="0.5" stroke-linecap="round"/>
<line x1="133.10" y1="212.80" x2="134.50" y2="212.80" stroke="#16181d" stroke-width="0.5" stroke-linecap="round"/>
<line x1="133.10" y1="211.40" x2="134.50" y2="211.40" stroke="#16181d" stroke-width="0.5" stroke-linecap="round"/>
<line x1="92.90" y1="212.80" x2="92.90" y2="211.40" stroke="#16181d" stroke-width="0.5" stroke-linecap="round"/>
<line x1="133.10" y1="212.80" x2="133.10" y2="211.40" stroke="#16181d" stroke-width="0.5" stroke-linecap="round"/>
<line x1="92.90" y1="212.80" x2="133.10" y2="212.80" stroke="#16181d" stroke-width="0.5" stroke-linecap="round"/>
<line x1="92.90" y1="211.40" x2="133.10" y2="211.40" stroke="#16181d" stroke-width="0.5" stroke-linecap="round"/>
<line x1="91.50" y1="214.30" x2="91.50" y2="222.30" stroke="#3a5e9c" stroke-width="0.25" stroke-linecap="round"/>
<line x1="134.50" y1="214.30" x2="134.50" y2="222.30" stroke="#3a5e9c" stroke-width="0.25" stroke-linecap="round"/>
<line x1="91.50" y1="220.80" x2="134.50" y2="220.80" stroke="#3a5e9c" stroke-width="0.25" stroke-linecap="round"/>
<line x1="90.30" y1="222.00" x2="92.70" y2="219.60" stroke="#3a5e9c" stroke-width="0.25" stroke-linecap="round"/>
<line x1="133.30" y1="222.00" x2="135.70" y2="219.60" stroke="#3a5e9c" stroke-width="0.25" stroke-linecap="round"/>
<line x1="90.00" y1="212.80" x2="82.00" y2="212.80" stroke="#3a5e9c" stroke-width="0.25" stroke-linecap="round"/>
<line x1="90.00" y1="211.40" x2="82.00" y2="211.40" stroke="#3a5e9c" stroke-width="0.25" stroke-linecap="round"/>
<line x1="83.50" y1="212.80" x2="83.50" y2="211.40" stroke="#3a5e9c" stroke-width="0.25" stroke-linecap="round"/>
<line x1="82.30" y1="214.00" x2="84.70" y2="211.60" stroke="#3a5e9c" stroke-width="0.25" stroke-linecap="round"/>
<line x1="82.30" y1="212.60" x2="84.70" y2="210.20" stroke="#3a5e9c" stroke-width="0.25" stroke-linecap="round"/>
<line x1="91.50" y1="205.90" x2="92.90" y2="205.90" stroke="#3a5e9c" stroke-width="0.25" stroke-linecap="round"/>
<line x1="91.50" y1="207.40" x2="91.50" y2="204.40" stroke="#3a5e9c" stroke-width="0.25" stroke-linecap="round"/>
<line x1="92.90" y1="207.40" x2="92.90" y2="204.40" stroke="#3a5e9c" stroke-width="0.25" stroke-linecap="round"/>
<line x1="90.30" y1="207.10" x2="92.70" y2="204.70" stroke="#3a5e9c" stroke-width="0.25" stroke-linecap="round"/>
<line x1="91.70" y1="207.10" x2="94.10" y2="204.70" stroke="#3a5e9c" stroke-width="0.25" stroke-linecap="round"/>
<line x1="133.10" y1="199.40" x2="134.50" y2="199.40" stroke="#3a5e9c" stroke-width="0.25" stroke-linecap="round"/>
<line x1="133.10" y1="200.90" x2="133.10" y2="197.90" stroke="#3a5e9c" stroke-width="0.25" stroke-linecap="round"/>
<line x1="134.50" y1="200.90" x2="134.50" y2="197.90" stroke="#3a5e9c" stroke-width="0.25" stroke-linecap="round"/>
<line x1="131.90" y1="200.60" x2="134.30" y2="198.20" stroke="#3a5e9c" stroke-width="0.25" stroke-linecap="round"/>
<line x1="133.30" y1="200.60" x2="135.70" y2="198.20" stroke="#3a5e9c" stroke-width="0.25" stroke-linecap="round"/>
<line x1="92.90" y1="192.90" x2="133.10" y2="192.90" stroke="#3a5e9c" stroke-width="0.25" stroke-linecap="round"/>
<line x1="92.90" y1="194.40" x2="92.90" y2="191.40" stroke="#3a5e9c" stroke-width="0.25" stroke-linecap="round"/>
<line x1="133.10" y1="194.40" x2="133.10" y2="191.40" stroke="#3a5e9c" stroke-width="0.25" stroke-linecap="round"/>
<line x1="91.70" y1="194.10" x2="94.10" y2="191.70" stroke="#3a5e9c" stroke-width="0.25" stroke-linecap="round"/>
<line x1="131.90" y1="194.10" x2="134.30" y2="191.70" stroke="#3a5e9c" stroke-width="0.25" stroke-linecap="round"/>
<line x1="283.40" y1="228.62" x2="283.40" y2="163.21" stroke="#16181d" stroke-width="0.5" stroke-linecap="round"/>
<line x1="283.40" y1="163.21" x2="284.89" y2="162.47" stroke="#16181d" stroke-width="0.5" stroke-linecap="round"/>
<line x1="284.89" y1="229.35" x2="284.89" y2="163.94" stroke="#16181d" stroke-width="0.5" stroke-linecap="round"/>
<line x1="284.89" y1="163.94" x2="286.38" y2="163.21" stroke="#16181d" stroke-width="0.5" stroke-linecap="round"/>
<line x1="286.38" y1="228.62" x2="286.38" y2="176.42" stroke="#16181d" stroke-width="0.5" stroke-linecap="round"/>
<line x1="286.38" y1="173.12" x2="286.38" y2="166.50" stroke="#16181d" stroke-width="0.5" stroke-linecap="round"/>
<line x1="284.89" y1="229.35" x2="286.38" y2="228.62" stroke="#16181d" stroke-width="0.5" stroke-linecap="round"/>
<line x1="283.40" y1="228.62" x2="284.89" y2="229.35" stroke="#16181d" stroke-width="0.5" stroke-linecap="round"/>
<line x1="283.40" y1="163.21" x2="284.89" y2="163.94" stroke="#16181d" stroke-width="0.5" stroke-linecap="round"/>
<line x1="284.89" y1="162.47" x2="286.38" y2="163.21" stroke="#16181d" stroke-width="0.5" stroke-linecap="round"/>
<line x1="327.62" y1="250.39" x2="327.62" y2="184.98" stroke="#16181d" stroke-width="0.5" stroke-linecap="round"/>
<line x1="327.62" y1="184.98" x2="329.11" y2="184.25" stroke="#16181d" stroke-width="0.5" stroke-linecap="round"/>
<line x1="329.11" y1="251.12" x2="329.11" y2="185.71" stroke="#16181d" stroke-width="0.5" stroke-linecap="round"/>
<line x1="329.11" y1="185.71" x2="330.60" y2="184.98" stroke="#16181d" stroke-width="0.5" stroke-linecap="round"/>
<line x1="330.60" y1="250.39" x2="330.60" y2="184.98" stroke="#16181d" stroke-width="0.5" stroke-linecap="round"/>
<line x1="329.11" y1="251.12" x2="330.60" y2="250.39" stroke="#16181d" stroke-width="0.5" stroke-linecap="round"/>
<line x1="327.62" y1="250.39" x2="329.11" y2="251.12" stroke="#16181d" stroke-width="0.5" stroke-linecap="round"/>
<line x1="327.62" y1="184.98" x2="329.11" y2="185.71" stroke="#16181d" stroke-width="0.5" stroke-linecap="round"/>
<line x1="329.11" y1="184.25" x2="330.60" y2="184.98" stroke="#16181d" stroke-width="0.5" stroke-linecap="round"/>
<line x1="284.89" y1="165.77" x2="284.89" y2="163.94" stroke="#16181d" stroke-width="0.5" stroke-linecap="round"/>
<line x1="284.89" y1="163.94" x2="286.38" y2="163.21" stroke="#16181d" stroke-width="0.5" stroke-linecap="round"/>
<line x1="327.62" y1="186.81" x2="327.62" y2="184.98" stroke="#16181d" stroke-width="0.5" stroke-linecap="round"/>
<line x1="327.62" y1="184.98" x2="329.11" y2="184.25" stroke="#16181d" stroke-width="0.5" stroke-linecap="round"/>
<line x1="284.89" y1="165.77" x2="327.62" y2="186.81" stroke="#16181d" stroke-width="0.5" stroke-linecap="round"/>
<line x1="284.89" y1="163.94" x2="327.62" y2="184.98" stroke="#16181d" stroke-width="0.5" stroke-linecap="round"/>
<line x1="286.38" y1="163.21" x2="329.11" y2="184.25" stroke="#16181d" stroke-width="0.5" stroke-linecap="round"/>
<line x1="284.89" y1="175.69" x2="284.89" y2="173.86" stroke="#16181d" stroke-width="0.5" stroke-linecap="round"/>
<line x1="284.89" y1="173.86" x2="286.38" y2="173.12" stroke="#16181d" stroke-width="0.5" stroke-linecap="round"/>
<line x1="327.62" y1="196.73" x2="327.62" y2="194.89" stroke="#16181d" stroke-width="0.5" stroke-linecap="round"/>
<line x1="284.89" y1="175.69" x2="327.62" y2="196.73" stroke="#16181d" stroke-width="0.5" stroke-linecap="round"/>
<line x1="284.89" y1="173.86" x2="327.62" y2="194.89" stroke="#16181d" stroke-width="0.5" stroke-linecap="round"/>
<line x1="286.38" y1="173.12" x2="295.34" y2="177.54" stroke="#16181d" stroke-width="0.5" stroke-linecap="round"/>
<line x1="297.30" y1="178.50" x2="306.02" y2="182.80" stroke="#16181d" stroke-width="0.5" stroke-linecap="round"/>
<line x1="307.98" y1="183.76" x2="316.70" y2="188.05" stroke="#16181d" stroke-width="0.5" stroke-linecap="round"/>
<line x1="318.66" y1="189.02" x2="327.62" y2="193.43" stroke="#16181d" stroke-width="0.5" stroke-linecap="round"/>
<line x1="295.34" y1="178.71" x2="295.34" y2="170.92" stroke="#16181d" stroke-width="0.5" stroke-linecap="round"/>
<line x1="296.40" y1="179.23" x2="296.40" y2="171.44" stroke="#16181d" stroke-width="0.5" stroke-linecap="round"/>
<line x1="297.30" y1="178.79" x2="297.30" y2="171.88" stroke="#16181d" stroke-width="0.5" stroke-linecap="round"/>
<line x1="296.40" y1="179.23" x2="297.30" y2="178.79" stroke="#16181d" stroke-width="0.5" stroke-linecap="round"/>
<line x1="295.34" y1="178.71" x2="296.40" y2="179.23" stroke="#16181d" stroke-width="0.5" stroke-linecap="round"/>
<line x1="306.02" y1="183.97" x2="306.02" y2="176.18" stroke="#16181d" stroke-width="0.5" stroke-linecap="round"/>
<line x1="307.09" y1="184.49" x2="307.09" y2="176.70" stroke="#16181d" stroke-width="0.5" stroke-linecap="round"/>
<line x1="307.98" y1="184.05" x2="307.98" y2="177.14" stroke="#16181d" stroke-width="0.5" stroke-linecap="round"/>
<line x1="307.09" y1="184.49" x2="307.98" y2="184.05" stroke="#16181d" stroke-width="0.5" stroke-linecap="round"/>
<line x1="306.02" y1="183.97" x2="307.09" y2="184.49" stroke="#16181d" stroke-width="0.5" stroke-linecap="round"/>
<line x1="316.70" y1="189.23" x2="316.70" y2="181.43" stroke="#16181d" stroke-width="0.5" stroke-linecap="round"/>
<line x1="317.77" y1="189.75" x2="317.77" y2="181.96" stroke="#16181d" stroke-width="0.5" stroke-linecap="round"/>
<line x1="318.66" y1="189.31" x2="318.66" y2="182.40" stroke="#16181d" stroke-width="0.5" stroke-linecap="round"/>
<line x1="317.77" y1="189.75" x2="318.66" y2="189.31" stroke="#16181d" stroke-width="0.5" stroke-linecap="round"/>
<line x1="316.70" y1="189.23" x2="317.77" y2="189.75" stroke="#16181d" stroke-width="0.5" stroke-linecap="round"/>
<line x1="250.00" y1="287.00" x2="410.00" y2="287.00" stroke="#16181d" stroke-width="0.75" stroke-linecap="round"/>
<line x1="410.00" y1="287.00" x2="410.00" y2="261.00" stroke="#16181d" stroke-width="0.75" stroke-linecap="round"/>
<line x1="410.00" y1="261.00" x2="250.00" y2="261.00" stroke="#16181d" stroke-width="0.75" stroke-linecap="round"/>
<line x1="250.00" y1="261.00" x2="250.00" y2="287.00" stroke="#16181d" stroke-width="0.75" stroke-linecap="round"/>
<line x1="250.00" y1="274.00" x2="410.00" y2="274.00" stroke="#16181d" stroke-width="0.75" stroke-linecap="round"/>
<line x1="322.00" y1="287.00" x2="322.00" y2="261.00" stroke="#16181d" stroke-width="0.75" stroke-linecap="round"/>
<line x1="365.20" y1="287.00" x2="365.20" y2="274.00" stroke="#16181d" stroke-width="0.75" stroke-linecap="round"/>
<text x="113.00" y="121.80" font-size="3.2" fill="#16181d" text-anchor="middle">2150</text>
<text x="81.90" y="90.20" font-size="3.2" fill="#16181d" text-anchor="middle" transform="rotate(-90 81.90 90.20)">2500</text>
<text x="113.00" y="129.70" font-size="3.6" fill="#16181d" text-anchor="middle">ALZADO</text>
<text x="307.00" y="121.80" font-size="3.2" fill="#16181d" text-anchor="middle">70</text>
<text x="296.70" y="90.20" font-size="3.2" fill="#16181d" text-anchor="middle" transform="rotate(-90 296.70 90.20)">2500</text>
<text x="307.00" y="129.70" font-size="3.6" fill="#16181d" text-anchor="middle">PERFIL</text>
<text x="113.00" y="219.40" font-size="3.2" fill="#16181d" text-anchor="middle">2150</text>
<text x="81.90" y="212.10" font-size="3.2" fill="#16181d" text-anchor="middle" transform="rotate(-90 81.90 212.10)">70</text>
<text x="113.00" y="227.30" font-size="3.6" fill="#16181d" text-anchor="middle">PLANTA</text>
<text x="92.20" y="204.70" font-size="2.6" fill="#16181d" text-anchor="middle">Marco jamba izq 70</text>
<text x="133.80" y="198.20" font-size="2.6" fill="#16181d" text-anchor="middle">Marco jamba der 70</text>
<text x="113.00" y="191.70" font-size="2.6" fill="#16181d" text-anchor="middle">Marco dintel 2010</text>
<text x="307.00" y="257.12" font-size="3.0" fill="#16181d" text-anchor="middle">ISOMÉTRICA (sin escala)</text>
<text x="253.00" y="268.28" font-size="3.6" fill="#16181d" text-anchor="start">puerta-plegable-bifold</text>
<text x="253.00" y="281.28" font-size="2.8" fill="#16181d" text-anchor="start">7 sólidos · unidades mm</text>
<text x="325.00" y="268.28" font-size="3.0" fill="#16181d" text-anchor="start">Genix Apolo CAD</text>
<text x="325.00" y="281.28" font-size="2.8" fill="#16181d" text-anchor="start">2026-06-17</text>
<text x="368.20" y="281.28" font-size="2.8" fill="#16181d" text-anchor="start">Escala 1:50 · A3</text>
</svg>