<svg xmlns="http://www.w3.org/2000/svg" viewBox="0 0 420.0 297.0" width="420.0mm" height="297.0mm" font-family="Segoe UI, Arial, sans-serif">
<rect x="0" y="0" width="420.0" height="297.0" fill="#fdfdfb"/>
<line x1="10.00" y1="287.00" x2="410.00" y2="287.00" stroke="#16181d" stroke-width="0.75" stroke-linecap="round"/>
<line x1="410.00" y1="287.00" x2="410.00" y2="10.00" stroke="#16181d" stroke-width="0.75" stroke-linecap="round"/>
<line x1="410.00" y1="10.00" x2="10.00" y2="10.00" stroke="#16181d" stroke-width="0.75" stroke-linecap="round"/>
<line x1="10.00" y1="10.00" x2="10.00" y2="287.00" stroke="#16181d" stroke-width="0.75" stroke-linecap="round"/>
<line x1="109.95" y1="108.34" x2="109.95" y2="72.06" stroke="#16181d" stroke-width="0.5" stroke-linecap="round"/>
<line x1="116.05" y1="108.34" x2="116.05" y2="72.06" stroke="#16181d" stroke-width="0.5" stroke-linecap="round"/>
<line x1="109.95" y1="108.34" x2="116.05" y2="108.34" stroke="#16181d" stroke-width="0.5" stroke-linecap="round"/>
<line x1="109.95" y1="72.06" x2="116.05" y2="72.06" stroke="#16181d" stroke-width="0.5" stroke-linecap="round"/>
<line x1="108.02" y1="110.28" x2="108.02" y2="70.12" stroke="#16181d" stroke-width="0.5" stroke-linecap="round"/>
<line x1="110.02" y1="110.28" x2="110.02" y2="70.12" stroke="#16181d" stroke-width="0.5" stroke-linecap="round"/>
<line x1="108.02" y1="110.28" x2="110.02" y2="110.28" stroke="#16181d" stroke-width="0.5" stroke-linecap="round"/>
<line x1="108.02" y1="70.12" x2="110.02" y2="70.12" stroke="#16181d" stroke-width="0.5" stroke-linecap="round"/>
<line x1="115.98" y1="110.28" x2="115.98" y2="70.12" stroke="#16181d" stroke-width="0.5" stroke-linecap="round"/>
<line x1="117.98" y1="110.28" x2="117.98" y2="70.12" stroke="#16181d" stroke-width="0.5" stroke-linecap="round"/>
<line x1="115.98" y1="110.28" x2="117.98" y2="110.28" stroke="#16181d" stroke-width="0.5" stroke-linecap="round"/>
<line x1="115.98" y1="70.12" x2="117.98" y2="70.12" stroke="#16181d" stroke-width="0.5" stroke-linecap="round"/>
<line x1="110.02" y1="70.12" x2="115.98" y2="70.12" stroke="#16181d" stroke-width="0.5" stroke-linecap="round"/>
<line x1="110.02" y1="110.28" x2="115.98" y2="110.28" stroke="#16181d" stroke-width="0.5" stroke-linecap="round"/>
<line x1="108.02" y1="111.78" x2="108.02" y2="119.78" stroke="#3a5e9c" stroke-width="0.25" stroke-linecap="round"/>
<line x1="117.98" y1="111.78" x2="117.98" y2="119.78" stroke="#3a5e9c" stroke-width="0.25" stroke-linecap="round"/>
<line x1="108.02" y1="118.28" x2="117.98" y2="118.28" stroke="#3a5e9c" stroke-width="0.25" stroke-linecap="round"/>
<line x1="106.81" y1="119.48" x2="109.22" y2="117.08" stroke="#3a5e9c" stroke-width="0.25" stroke-linecap="round"/>
<line x1="116.78" y1="119.48" x2="119.19" y2="117.08" stroke="#3a5e9c" stroke-width="0.25" stroke-linecap="round"/>
<line x1="106.52" y1="110.28" x2="98.52" y2="110.28" stroke="#3a5e9c" stroke-width="0.25" stroke-linecap="round"/>
<line x1="106.52" y1="70.12" x2="98.52" y2="70.12" stroke="#3a5e9c" stroke-width="0.25" stroke-linecap="round"/>
<line x1="100.02" y1="110.28" x2="100.02" y2="70.12" stroke="#3a5e9c" stroke-width="0.25" stroke-linecap="round"/>
<line x1="98.81" y1="111.48" x2="101.22" y2="109.08" stroke="#3a5e9c" stroke-width="0.25" stroke-linecap="round"/>
<line x1="98.81" y1="71.32" x2="101.22" y2="68.92" stroke="#3a5e9c" stroke-width="0.25" stroke-linecap="round"/>
<line x1="110.02" y1="212.46" x2="115.98" y2="212.46" stroke="#16181d" stroke-width="0.5" stroke-linecap="round"/>
<line x1="110.02" y1="212.30" x2="115.98" y2="212.30" stroke="#16181d" stroke-width="0.5" stroke-linecap="round"/>
<line x1="108.02" y1="212.46" x2="108.02" y2="212.10" stroke="#16181d" stroke-width="0.5" stroke-linecap="round"/>
<line x1="110.02" y1="212.46" x2="110.02" y2="212.10" stroke="#16181d" stroke-width="0.5" stroke-linecap="round"/>
<line x1="108.02" y1="212.46" x2="110.02" y2="212.46" stroke="#16181d" stroke-width="0.5" stroke-linecap="round"/>
<line x1="108.02" y1="212.10" x2="110.02" y2="212.10" stroke="#16181d" stroke-width="0.5" stroke-linecap="round"/>
<line x1="115.98" y1="212.46" x2="115.98" y2="212.10" stroke="#16181d" stroke-width="0.5" stroke-linecap="round"/>
<line x1="117.98" y1="212.46" x2="117.98" y2="212.10" stroke="#16181d" stroke-width="0.5" stroke-linecap="round"/>
<line x1="115.98" y1="212.46" x2="117.98" y2="212.46" stroke="#16181d" stroke-width="0.5" stroke-linecap="round"/>
<line x1="115.98" y1="212.10" x2="117.98" y2="212.10" stroke="#16181d" stroke-width="0.5" stroke-linecap="round"/>
<line x1="108.02" y1="212.10" x2="108.02" y2="211.74" stroke="#16181d" stroke-width="0.5" stroke-linecap="round"/>
<line x1="117.98" y1="212.10" x2="117.98" y2="211.74" stroke="#16181d" stroke-width="0.5" stroke-linecap="round"/>
<line x1="108.02" y1="212.10" x2="117.98" y2="212.10" stroke="#16181d" stroke-width="0.5" stroke-linecap="round"/>
<line x1="108.02" y1="211.74" x2="117.98" y2="211.74" stroke="#16181d" stroke-width="0.5" stroke-linecap="round"/>
<line x1="108.02" y1="213.96" x2="108.02" y2="221.96" stroke="#3a5e9c" stroke-width="0.25" stroke-linecap="round"/>
<line x1="117.98" y1="213.96" x2="117.98" y2="221.96" stroke="#3a5e9c" stroke-width="0.25" stroke-linecap="round"/>
<line x1="108.02" y1="220.46" x2="117.98" y2="220.46" stroke="#3a5e9c" stroke-width="0.25" stroke-linecap="round"/>
<line x1="106.81" y1="221.66" x2="109.22" y2="219.26" stroke="#3a5e9c" stroke-width="0.25" stroke-linecap="round"/>
<line x1="116.78" y1="221.66" x2="119.19" y2="219.26" stroke="#3a5e9c" stroke-width="0.25" stroke-linecap="round"/>
<line x1="106.52" y1="212.46" x2="98.52" y2="212.46" stroke="#3a5e9c" stroke-width="0.25" stroke-linecap="round"/>
<line x1="106.52" y1="211.74" x2="98.52" y2="211.74" stroke="#3a5e9c" stroke-width="0.25" stroke-linecap="round"/>
<line x1="100.02" y1="212.46" x2="100.02" y2="211.74" stroke="#3a5e9c" stroke-width="0.25" stroke-linecap="round"/>
<line x1="98.81" y1="213.66" x2="101.22" y2="211.26" stroke="#3a5e9c" stroke-width="0.25" stroke-linecap="round"/>
<line x1="98.81" y1="212.94" x2="101.22" y2="210.54" stroke="#3a5e9c" stroke-width="0.25" stroke-linecap="round"/>
<line x1="108.02" y1="206.24" x2="117.98" y2="206.24" stroke="#3a5e9c" stroke-width="0.25" stroke-linecap="round"/>
<line x1="108.02" y1="207.74" x2="108.02" y2="204.74" stroke="#3a5e9c" stroke-width="0.25" stroke-linecap="round"/>
<line x1="117.98" y1="207.74" x2="117.98" y2="204.74" stroke="#3a5e9c" stroke-width="0.25" stroke-linecap="round"/>
<line x1="106.81" y1="207.44" x2="109.22" y2="205.04" stroke="#3a5e9c" stroke-width="0.25" stroke-linecap="round"/>
<line x1="116.78" y1="207.44" x2="119.19" y2="205.04" stroke="#3a5e9c" stroke-width="0.25" stroke-linecap="round"/>
<line x1="108.02" y1="199.74" x2="117.98" y2="199.74" stroke="#3a5e9c" stroke-width="0.25" stroke-linecap="round"/>
<line x1="108.02" y1="201.24" x2="108.02" y2="198.24" stroke="#3a5e9c" stroke-width="0.25" stroke-linecap="round"/>
<line x1="117.98" y1="201.24" x2="117.98" y2="198.24" stroke="#3a5e9c" stroke-width="0.25" stroke-linecap="round"/>
<line x1="106.81" y1="200.94" x2="109.22" y2="198.54" stroke="#3a5e9c" stroke-width="0.25" stroke-linecap="round"/>
<line x1="116.78" y1="200.94" x2="119.19" y2="198.54" stroke="#3a5e9c" stroke-width="0.25" stroke-linecap="round"/>
<line x1="108.02" y1="193.24" x2="117.98" y2="193.24" stroke="#3a5e9c" stroke-width="0.25" stroke-linecap="round"/>
<line x1="108.02" y1="194.74" x2="108.02" y2="191.74" stroke="#3a5e9c" stroke-width="0.25" stroke-linecap="round"/>
<line x1="117.98" y1="194.74" x2="117.98" y2="191.74" stroke="#3a5e9c" stroke-width="0.25" stroke-linecap="round"/>
<line x1="106.81" y1="194.44" x2="109.22" y2="192.04" stroke="#3a5e9c" stroke-width="0.25" stroke-linecap="round"/>
<line x1="116.78" y1="194.44" x2="119.19" y2="192.04" stroke="#3a5e9c" stroke-width="0.25" stroke-linecap="round"/>
<line x1="315.08" y1="212.77" x2="315.08" y2="208.78" stroke="#16181d" stroke-width="0.5" stroke-linecap="round"/>
<line x1="315.08" y1="208.78" x2="315.66" y2="208.50" stroke="#16181d" stroke-width="0.5" stroke-linecap="round"/>
<line x1="315.66" y1="212.49" x2="315.66" y2="208.50" stroke="#16181d" stroke-width="0.5" stroke-linecap="round"/>
<line x1="315.08" y1="212.77" x2="315.66" y2="212.49" stroke="#16181d" stroke-width="0.5" stroke-linecap="round"/>
<line x1="315.08" y1="208.21" x2="315.66" y2="208.50" stroke="#16181d" stroke-width="0.5" stroke-linecap="round"/>
<line x1="301.48" y1="240.85" x2="301.48" y2="168.47" stroke="#16181d" stroke-width="0.5" stroke-linecap="round"/>
<line x1="311.35" y1="245.71" x2="311.35" y2="173.33" stroke="#16181d" stroke-width="0.5" stroke-linecap="round"/>
<line x1="301.48" y1="240.85" x2="311.35" y2="245.71" stroke="#16181d" stroke-width="0.5" stroke-linecap="round"/>
<line x1="301.48" y1="168.47" x2="311.35" y2="173.33" stroke="#16181d" stroke-width="0.5" stroke-linecap="round"/>
<line x1="301.74" y1="168.34" x2="311.25" y2="173.02" stroke="#16181d" stroke-width="0.5" stroke-linecap="round"/>
<line x1="298.34" y1="243.17" x2="298.34" y2="163.05" stroke="#16181d" stroke-width="0.5" stroke-linecap="round"/>
<line x1="298.34" y1="163.05" x2="298.92" y2="162.76" stroke="#16181d" stroke-width="0.5" stroke-linecap="round"/>
<line x1="301.58" y1="244.76" x2="301.58" y2="164.65" stroke="#16181d" stroke-width="0.5" stroke-linecap="round"/>
<line x1="301.58" y1="164.65" x2="302.16" y2="164.36" stroke="#16181d" stroke-width="0.5" stroke-linecap="round"/>
<line x1="302.16" y1="244.48" x2="302.16" y2="241.18" stroke="#16181d" stroke-width="0.5" stroke-linecap="round"/>
<line x1="302.16" y1="168.55" x2="302.16" y2="164.36" stroke="#16181d" stroke-width="0.5" stroke-linecap="round"/>
<line x1="301.58" y1="244.76" x2="302.16" y2="244.48" stroke="#16181d" stroke-width="0.5" stroke-linecap="round"/>
<line x1="298.34" y1="243.17" x2="301.58" y2="244.76" stroke="#16181d" stroke-width="0.5" stroke-linecap="round"/>
<line x1="298.34" y1="163.05" x2="301.58" y2="164.65" stroke="#16181d" stroke-width="0.5" stroke-linecap="round"/>
<line x1="298.92" y1="162.76" x2="302.16" y2="164.36" stroke="#16181d" stroke-width="0.5" stroke-linecap="round"/>
<line x1="311.25" y1="249.53" x2="311.25" y2="169.41" stroke="#16181d" stroke-width="0.5" stroke-linecap="round"/>
<line x1="311.25" y1="169.41" x2="311.84" y2="169.12" stroke="#16181d" stroke-width="0.5" stroke-linecap="round"/>
<line x1="314.50" y1="251.12" x2="314.50" y2="171.01" stroke="#16181d" stroke-width="0.5" stroke-linecap="round"/>
<line x1="314.50" y1="171.01" x2="315.08" y2="170.72" stroke="#16181d" stroke-width="0.5" stroke-linecap="round"/>
<line x1="315.08" y1="250.84" x2="315.08" y2="170.72" stroke="#16181d" stroke-width="0.5" stroke-linecap="round"/>
<line x1="314.50" y1="251.12" x2="315.08" y2="250.84" stroke="#16181d" stroke-width="0.5" stroke-linecap="round"/>
<line x1="311.25" y1="249.53" x2="314.50" y2="251.12" stroke="#16181d" stroke-width="0.5" stroke-linecap="round"/>
<line x1="311.25" y1="169.41" x2="314.50" y2="171.01" stroke="#16181d" stroke-width="0.5" stroke-linecap="round"/>
<line x1="311.84" y1="169.12" x2="315.08" y2="170.72" stroke="#16181d" stroke-width="0.5" stroke-linecap="round"/>
<line x1="298.92" y1="162.76" x2="299.50" y2="162.47" stroke="#16181d" stroke-width="0.5" stroke-linecap="round"/>
<line x1="315.08" y1="174.71" x2="315.08" y2="170.72" stroke="#16181d" stroke-width="0.5" stroke-linecap="round"/>
<line x1="315.08" y1="170.72" x2="315.66" y2="170.43" stroke="#16181d" stroke-width="0.5" stroke-linecap="round"/>
<line x1="315.66" y1="174.42" x2="315.66" y2="170.43" stroke="#16181d" stroke-width="0.5" stroke-linecap="round"/>
<line x1="315.08" y1="174.71" x2="315.66" y2="174.42" stroke="#16181d" stroke-width="0.5" stroke-linecap="round"/>
<line x1="302.16" y1="168.35" x2="311.25" y2="172.83" stroke="#16181d" stroke-width="0.5" stroke-linecap="round"/>
<line x1="298.92" y1="162.76" x2="315.08" y2="170.72" stroke="#16181d" stroke-width="0.5" stroke-linecap="round"/>
<line x1="299.50" y1="162.48" x2="315.66" y2="170.43" stroke="#16181d" stroke-width="0.5" stroke-linecap="round"/>
<line x1="315.08" y1="250.84" x2="315.08" y2="246.85" stroke="#16181d" stroke-width="0.5" stroke-linecap="round"/>
<line x1="315.08" y1="246.85" x2="315.66" y2="246.56" stroke="#16181d" stroke-width="0.5" stroke-linecap="round"/>
<line x1="315.66" y1="250.55" x2="315.66" y2="246.56" stroke="#16181d" stroke-width="0.5" stroke-linecap="round"/>
<line x1="315.08" y1="250.84" x2="315.66" y2="250.55" stroke="#16181d" stroke-width="0.5" stroke-linecap="round"/>
<line x1="302.16" y1="244.48" x2="311.25" y2="248.95" stroke="#16181d" stroke-width="0.5" stroke-linecap="round"/>
<line x1="315.08" y1="246.27" x2="315.66" y2="246.56" stroke="#16181d" stroke-width="0.5" stroke-linecap="round"/>
<line x1="217.76" y1="58.00" x2="377.76" y2="58.00" stroke="#16181d" stroke-width="0.75" stroke-linecap="round"/>
<line x1="377.76" y1="58.00" x2="377.76" y2="22.00" stroke="#16181d" stroke-width="0.75" stroke-linecap="round"/>
<line x1="377.76" y1="22.00" x2="217.76" y2="22.00" stroke="#16181d" stroke-width="0.75" stroke-linecap="round"/>
<line x1="217.76" y1="22.00" x2="217.76" y2="58.00" stroke="#16181d" stroke-width="0.75" stroke-linecap="round"/>
<line x1="227.76" y1="58.00" x2="227.76" y2="22.00" stroke="#16181d" stroke-width="0.75" stroke-linecap="round"/>
<line x1="261.76" y1="58.00" x2="261.76" y2="22.00" stroke="#16181d" stroke-width="0.75" stroke-linecap="round"/>
<line x1="363.76" y1="58.00" x2="363.76" y2="22.00" stroke="#16181d" stroke-width="0.75" stroke-linecap="round"/>
<line x1="217.76" y1="28.00" x2="377.76" y2="28.00" stroke="#16181d" stroke-width="0.75" stroke-linecap="round"/>
<line x1="217.76" y1="34.00" x2="377.76" y2="34.00" stroke="#16181d" stroke-width="0.75" stroke-linecap="round"/>
<line x1="217.76" y1="40.00" x2="377.76" y2="40.00" stroke="#16181d" stroke-width="0.75" stroke-linecap="round"/>
<line x1="217.76" y1="46.00" x2="377.76" y2="46.00" stroke="#16181d" stroke-width="0.75" stroke-linecap="round"/>
<line x1="217.76" y1="52.00" x2="377.76" y2="52.00" stroke="#16181d" stroke-width="0.75" stroke-linecap="round"/>
<line x1="217.76" y1="58.00" x2="377.76" y2="58.00" stroke="#16181d" stroke-width="0.75" stroke-linecap="round"/>
<line x1="113.00" y1="211.92" x2="117.00" y2="193.92" stroke="#3a5e9c" stroke-width="0.25" stroke-linecap="round"/>
<line x1="113.00" y1="212.38" x2="117.00" y2="222.38" stroke="#3a5e9c" stroke-width="0.25" stroke-linecap="round"/>
<line x1="113.00" y1="212.28" x2="117.00" y2="222.28" stroke="#3a5e9c" stroke-width="0.25" stroke-linecap="round"/>
<line x1="113.00" y1="211.92" x2="117.00" y2="193.92" stroke="#3a5e9c" stroke-width="0.25" stroke-linecap="round"/>
<line x1="113.00" y1="211.92" x2="117.00" y2="193.92" stroke="#3a5e9c" stroke-width="0.25" stroke-linecap="round"/>
<line x1="250.00" y1="287.00" x2="410.00" y2="287.00" stroke="#16181d" stroke-width="0.75" stroke-linecap="round"/>
<line x1="410.00" y1="287.00" x2="410.00" y2="261.00" stroke="#16181d" stroke-width="0.75" stroke-linecap="round"/>
<line x1="410.00" y1="261.00" x2="250.00" y2="261.00" stroke="#16181d" stroke-width="0.75" stroke-linecap="round"/>
<line x1="250.00" y1="261.00" x2="250.00" y2="287.00" stroke="#16181d" stroke-width="0.75" stroke-linecap="round"/>
<line x1="250.00" y1="274.00" x2="410.00" y2="274.00" stroke="#16181d" stroke-width="0.75" stroke-linecap="round"/>
<line x1="322.00" y1="287.00" x2="322.00" y2="261.00" stroke="#16181d" stroke-width="0.75" stroke-linecap="round"/>
<line x1="365.20" y1="287.00" x2="365.20" y2="274.00" stroke="#16181d" stroke-width="0.75" stroke-linecap="round"/>
<circle cx="117.00" cy="193.92" r="3.20" fill="#fdfdfb" stroke="#3a5e9c" stroke-width="0.4"/>
<circle cx="117.00" cy="222.38" r="3.20" fill="#fdfdfb" stroke="#3a5e9c" stroke-width="0.4"/>
<circle cx="117.00" cy="222.28" r="3.20" fill="#fdfdfb" stroke="#3a5e9c" stroke-width="0.4"/>
<circle cx="117.00" cy="193.92" r="3.20" fill="#fdfdfb" stroke="#3a5e9c" stroke-width="0.4"/>
<circle cx="117.00" cy="193.92" r="3.20" fill="#fdfdfb" stroke="#3a5e9c" stroke-width="0.4"/>
<text x="113.00" y="116.88" font-size="3.2" fill="#16181d" text-anchor="middle">498.5</text>
<text x="98.42" y="90.20" font-size="3.2" fill="#16181d" text-anchor="middle" transform="rotate(-90 98.42 90.20)">2008</text>
<text x="113.00" y="124.78" font-size="3.6" fill="#16181d" text-anchor="middle">ALZADO</text>
<text x="113.00" y="219.06" font-size="3.2" fill="#16181d" text-anchor="middle">498.5</text>
<text x="98.42" y="212.10" font-size="3.2" fill="#16181d" text-anchor="middle" transform="rotate(-90 98.42 212.10)">36</text>
<text x="113.00" y="226.96" font-size="3.6" fill="#16181d" text-anchor="middle">PLANTA</text>
<text x="113.00" y="205.04" font-size="2.6" fill="#16181d" text-anchor="middle">Hoja 1 498.5</text>
<text x="113.00" y="198.54" font-size="2.6" fill="#16181d" text-anchor="middle">H1 travesano med 498.5</text>
<text x="113.00" y="192.04" font-size="2.6" fill="#16181d" text-anchor="middle">H1 travesano sup 498.5</text>
<text x="307.00" y="257.12" font-size="3.0" fill="#16181d" text-anchor="middle">ISOMÉTRICA (sin escala)</text>
<text x="219.26" y="26.20" font-size="2.8" fill="#16181d" text-anchor="start">N.º</text>
<text x="229.26" y="26.20" font-size="2.8" fill="#16181d" text-anchor="start">Ref</text>
<text x="263.26" y="26.20" font-size="2.8" fill="#16181d" text-anchor="start">Descripción</text>
<text x="365.26" y="26.20" font-size="2.8" fill="#16181d" text-anchor="start">Cant</text>
<text x="219.26" y="32.20" font-size="2.6" fill="#16181d" text-anchor="start">1</text>
<text x="229.26" y="32.20" font-size="2.6" fill="#16181d" text-anchor="start">A-MEDIDA</text>
<text x="263.26" y="32.20" font-size="2.6" fill="#16181d" text-anchor="start">H1 travesano medio</text>
<text x="365.26" y="32.20" font-size="2.6" fill="#16181d" text-anchor="start">1</text>
<text x="219.26" y="38.20" font-size="2.6" fill="#16181d" text-anchor="start">2</text>
<text x="229.26" y="38.20" font-size="2.6" fill="#16181d" text-anchor="start">A-MEDIDA</text>
<text x="263.26" y="38.20" font-size="2.6" fill="#16181d" text-anchor="start">Vidrio H1</text>
<text x="365.26" y="38.20" font-size="2.6" fill="#16181d" text-anchor="start">1</text>
<text x="219.26" y="44.20" font-size="2.6" fill="#16181d" text-anchor="start">3</text>
<text x="229.26" y="44.20" font-size="2.6" fill="#16181d" text-anchor="start">A-MEDIDA</text>
<text x="263.26" y="44.20" font-size="2.6" fill="#16181d" text-anchor="start">Hoja 1</text>
<text x="365.26" y="44.20" font-size="2.6" fill="#16181d" text-anchor="start">1</text>
<text x="219.26" y="50.20" font-size="2.6" fill="#16181d" text-anchor="start">4</text>
<text x="229.26" y="50.20" font-size="2.6" fill="#16181d" text-anchor="start">A-MEDIDA</text>
<text x="263.26" y="50.20" font-size="2.6" fill="#16181d" text-anchor="start">H1 travesano sup</text>
<text x="365.26" y="50.20" font-size="2.6" fill="#16181d" text-anchor="start">1</text>
<text x="219.26" y="56.20" font-size="2.6" fill="#16181d" text-anchor="start">5</text>
<text x="229.26" y="56.20" font-size="2.6" fill="#16181d" text-anchor="start">A-MEDIDA</text>
<text x="263.26" y="56.20" font-size="2.6" fill="#16181d" text-anchor="start">H1 travesano inf</text>
<text x="365.26" y="56.20" font-size="2.6" fill="#16181d" text-anchor="start">1</text>
<text x="217.76" y="19.80" font-size="3.2" fill="#16181d" text-anchor="start">LISTA DE MATERIALES</text>
<text x="117.00" y="195.02" font-size="3.0" fill="#16181d" text-anchor="middle">1</text>
<text x="117.00" y="223.48" font-size="3.0" fill="#16181d" text-anchor="middle">2</text>
<text x="117.00" y="223.38" font-size="3.0" fill="#16181d" text-anchor="middle">3</text>
<text x="117.00" y="195.02" font-size="3.0" fill="#16181d" text-anchor="middle">4</text>
<text x="117.00" y="195.02" font-size="3.0" fill="#16181d" text-anchor="middle">5</text>
<text x="253.00" y="268.28" font-size="3.6" fill="#16181d" text-anchor="start">puerta-plegable-bifold</text>
<text x="253.00" y="281.28" font-size="2.8" fill="#16181d" text-anchor="start">5 sólidos · unidades mm</text>
<text x="325.00" y="268.28" font-size="3.0" fill="#16181d" text-anchor="start">Genix Apolo CAD</text>
<text x="325.00" y="281.28" font-size="2.8" fill="#16181d" text-anchor="start">2026-06-24</text>
<text x="368.20" y="281.28" font-size="2.8" fill="#16181d" text-anchor="start">Escala 1:50 · A3</text>
</svg>